%FSTAX23Y23*%
%MOIN*%
%SFA1B1*%

%IPPOS*%
%ADD9500C,0.012000*%
%ADD9501C,0.023620*%
%ADD9502C,0.030000*%
%ADD9503C,0.033460*%
%ADD9504C,0.039370*%
%LNpowerpcb-1*%
%LPD*%
G54D9500*
X00036Y-01852D03*
X00144Y-01832D03*
X00133Y-018D03*
X0019Y-0182D03*
X00233Y-01779D03*
X00204Y-01737D03*
X00205Y-01691D03*
X0021Y-0165D03*
X00215Y-01548D03*
X00185Y-01495D03*
X0014Y-01505D03*
X0003D03*
Y-0146D03*
X00055Y-01575D03*
X00105Y-01665D03*
X0009Y-01709D03*
X0031Y-01675D03*
X0036Y-0165D03*
X00395Y-01675D03*
X00405Y-01715D03*
Y-01755D03*
X00361Y-01738D03*
X0033Y-01754D03*
X00459Y-01796D03*
X00515Y-01826D03*
X00546Y-01837D03*
X00594Y-01776D03*
X00602Y-017D03*
X00569Y-01701D03*
X00565Y-0157D03*
X00423Y-01559D03*
X0041Y-0159D03*
X00405Y-01625D03*
X00365Y-01545D03*
X0033D03*
X00345Y-01435D03*
Y-01395D03*
X0042Y-01385D03*
X00457Y-01372D03*
X00465Y-0133D03*
X00495Y-01355D03*
Y-01295D03*
X00525Y-01315D03*
X0058Y-013D03*
X0062Y-01275D03*
X00575Y-0122D03*
X00505Y-0123D03*
X00495Y-0105D03*
X00655D03*
X0066Y-01125D03*
X00685Y-0143D03*
X0073Y-01425D03*
X00735Y-0148D03*
X00785Y-0155D03*
X00845Y-01505D03*
X00725Y-0186D03*
X00355Y-0131D03*
X0028Y-01335D03*
X0022Y-0133D03*
Y-0124D03*
X00235Y-01125D03*
X0022Y-0144D03*
X0026Y-0101D03*
X00285Y-0098D03*
X00215Y-00855D03*
X0022Y-00745D03*
X00205Y-00715D03*
X00231Y-00631D03*
X00165Y-00605D03*
X00145Y-00555D03*
X0015Y-00465D03*
X0025Y-00335D03*
X00444Y-00319D03*
X00515D03*
Y-0039D03*
X0048Y-00355D03*
X00444Y-0039D03*
X0056Y-00435D03*
X006Y-0046D03*
Y-0053D03*
X00635Y-00515D03*
X00671Y-00425D03*
X00733D03*
X00702Y-00394D03*
X00673Y-00365D03*
X00734Y-00363D03*
X00681Y-00281D03*
X0062Y-00275D03*
X0059Y-00245D03*
X00465Y-0024D03*
X0042Y-0003D03*
X0038Y-00035D03*
X00235Y-00055D03*
X0003Y-00239D03*
X0037Y-00525D03*
X00375Y-00575D03*
X0037Y-00635D03*
X0041Y-00605D03*
X00485Y-00645D03*
X0047Y-00705D03*
X00465Y-0077D03*
X00545Y-00765D03*
X0054Y-0069D03*
X0058Y-0067D03*
X00565Y-00575D03*
X00755Y-0055D03*
X00785Y-00475D03*
Y-00685D03*
X00758Y-00793D03*
X00736Y-00771D03*
X00715Y-0075D03*
X0064Y-00725D03*
X0061Y-0083D03*
X00649Y-00858D03*
X00626Y-00883D03*
X00575Y-00956D03*
X00544D03*
X0056Y-00985D03*
X00544Y-01013D03*
X00575D03*
X00485Y-00925D03*
X00385Y-008D03*
X00593Y-00373D03*
X00585Y-00095D03*
X00641Y-0009D03*
X00673D03*
X0084Y-0025D03*
G54D9501*
X0004Y-00765D03*
Y-00715D03*
Y-00665D03*
Y-00615D03*
X0009D03*
Y-00665D03*
Y-00715D03*
Y-00765D03*
G54D9502*
X00495Y-00129D03*
X00779D03*
G54D9503*
X00095Y-0138D03*
Y-0133D03*
Y-0128D03*
Y-0123D03*
Y-0118D03*
Y-0113D03*
Y-0108D03*
X0082Y-01595D03*
Y-01645D03*
Y-01695D03*
Y-01745D03*
Y-01795D03*
Y-01845D03*
X00095Y-0103D03*
Y-0098D03*
Y-0093D03*
Y-0088D03*
Y-0083D03*
G54D9504*
X00085Y-00116D03*
Y-00038D03*
M02*