%FSTAX23Y23*%
%MOIN*%
%SFA1B1*%

%IPPOS*%
%AMD38*
4,1,8,-0.047500,-0.028900,0.047500,-0.028900,0.063900,-0.012500,0.063900,0.012500,0.047500,0.028900,-0.047500,0.028900,-0.063900,0.012500,-0.063900,-0.012500,-0.047500,-0.028900,0.0*
1,1,0.032880,-0.047500,-0.012500*
1,1,0.032880,0.047500,-0.012500*
1,1,0.032880,0.047500,0.012500*
1,1,0.032880,-0.047500,0.012500*
%
%ADD35R,0.106300X0.047240*%
%ADD36O,0.106300X0.047240*%
%ADD37R,0.107870X0.057870*%
G04~CAMADD=38~8~0.0~0.0~1278.7~578.7~164.4~0.0~15~0.0~0.0~0.0~0.0~0~0.0~0.0~0.0~0.0~0~0.0~0.0~0.0~180.0~1278.0~578.0*
%ADD38D38*%
%ADD39R,0.067870X0.047240*%
%ADD40O,0.067870X0.047870*%
%ADD41O,0.106300X0.047240*%
%ADD42R,0.106300X0.047240*%
%ADD43O,0.076770X0.047240*%
%ADD44R,0.076770X0.047240*%
%ADD45R,0.047240X0.047240*%
%ADD46C,0.047240*%
%ADD47C,0.035560*%
%ADD48C,0.035430*%
%ADD49C,0.057870*%
%ADD50R,0.064960X0.031500*%
%ADD51R,0.045280X0.041340*%
%ADD52R,0.041340X0.045280*%
%ADD53R,0.067870X0.067870*%
%ADD54R,0.067870X0.067870*%
%ADD55O,0.086610X0.035430*%
%ADD56R,0.031500X0.027560*%
%LNdaughterboard-1*%
%LPD*%
G54D35*
X01698Y02387D03*
G54D36*
X01698Y02337D03*
Y02287D03*
Y02187D03*
Y02237D03*
Y02137D03*
G54D37*
X02369Y01546D03*
Y01446D03*
Y01346D03*
X01969Y01546D03*
Y01446D03*
Y01346D03*
G54D38*
X02318Y01176D03*
Y01076D03*
Y00976D03*
X02018D03*
Y01076D03*
Y01176D03*
G54D39*
X02449Y01015D03*
G54D40*
X02449Y00965D03*
G54D41*
X01724Y0153D03*
Y0163D03*
Y0158D03*
Y0168D03*
Y0173D03*
Y0148D03*
G54D42*
X01724Y0178D03*
G54D43*
X01724Y0138D03*
Y0143D03*
Y0133D03*
Y0128D03*
G54D44*
X01724Y0123D03*
G54D45*
X01719Y01845D03*
G54D46*
X01669Y01845D03*
X01719Y01895D03*
X01669D03*
X01719Y01945D03*
X01669D03*
X01719Y01995D03*
X01669D03*
G54D47*
X0194Y02079D03*
X02297Y01833D03*
X0222Y01907D03*
X02289Y01707D03*
X02288Y0197D03*
X02294Y02107D03*
X02202Y02191D03*
G54D48*
X01811Y02237D03*
X01889Y01791D03*
G54D49*
X01865Y01919D03*
G54D50*
X01942Y01792D03*
X0185Y0183D03*
Y01755D03*
X0194Y02051D03*
X01847Y02088D03*
Y02014D03*
X02059Y02296D03*
X02152Y02259D03*
Y02334D03*
G54D51*
X01927Y01962D03*
Y01885D03*
X02456Y01334D03*
Y01257D03*
X02448Y01169D03*
Y01092D03*
G54D52*
X01863Y02152D03*
X0194D03*
X02094Y02394D03*
X02017D03*
X02151Y02396D03*
X02228D03*
X02152Y02185D03*
X02075D03*
X02159Y01911D03*
X02082D03*
G54D53*
X0187Y02232D03*
X0196D03*
G54D54*
X02314Y02256D03*
Y02346D03*
G54D55*
X0222Y0212D03*
Y0207D03*
Y0202D03*
Y0197D03*
X02027Y0212D03*
Y0207D03*
Y0202D03*
Y0197D03*
X02219Y01855D03*
Y01805D03*
Y01755D03*
Y01705D03*
X02026Y01855D03*
Y01805D03*
Y01755D03*
Y01705D03*
G54D56*
X02297Y02066D03*
Y02026D03*
X02295Y01801D03*
Y01761D03*
X02461Y01418D03*
Y01379D03*
X02461Y01507D03*
Y01468D03*
X01786Y01985D03*
Y01946D03*
Y01888D03*
Y01848D03*
M02*