%FSTAX23Y23*%
%MOIN*%
%SFA1B1*%

%IPPOS*%
%AMD14*
4,1,8,-0.047500,-0.025000,0.047500,-0.025000,0.060000,-0.012500,0.060000,0.012500,0.047500,0.025000,-0.047500,0.025000,-0.060000,0.012500,-0.060000,-0.012500,-0.047500,-0.025000,0.0*
1,1,0.025000,-0.047500,-0.012500*
1,1,0.025000,0.047500,-0.012500*
1,1,0.025000,0.047500,0.012500*
1,1,0.025000,-0.047500,0.012500*
%
%ADD10C,0.023620*%
%ADD11R,0.098430X0.039370*%
%ADD12O,0.098430X0.039370*%
%ADD13R,0.100000X0.050000*%
G04~CAMADD=14~8~0.0~0.0~1200.0~500.0~125.0~0.0~15~0.0~0.0~0.0~0.0~0~0.0~0.0~0.0~0.0~0~0.0~0.0~0.0~180.0~1200.0~500.0*
%ADD14D14*%
%ADD15R,0.060000X0.039370*%
%ADD16O,0.060000X0.040000*%
%ADD17O,0.098430X0.039370*%
%ADD18R,0.098430X0.039370*%
%ADD19O,0.068900X0.039370*%
%ADD20R,0.068900X0.039370*%
%ADD21R,0.039370X0.039370*%
%ADD22C,0.039370*%
%ADD23C,0.027560*%
%ADD24C,0.050000*%
%ADD25R,0.057090X0.023620*%
%ADD26R,0.037400X0.033470*%
%ADD27R,0.033470X0.037400*%
%ADD28R,0.060000X0.060000*%
%ADD29R,0.060000X0.060000*%
%ADD30O,0.078740X0.027560*%
%ADD31R,0.023620X0.019690*%
%LNdaughterboard-1*%
%LPD*%
G36*
X02498Y00889D02*
Y00889D01*
X01629*
Y02435*
X02498*
Y00889*
G37*
%LNdaughterboard-2*%
%LPC*%
G36*
X02475Y01086D02*
X02454D01*
Y01067*
X02475*
Y01086*
G37*
G36*
X02442D02*
X02422D01*
Y01067*
X02442*
Y01086*
G37*
G36*
X02297Y01855D02*
X02288Y01853D01*
X02281Y01848*
X02276Y01841*
X02275Y01833*
X02275Y01829*
X02272Y01825*
X02253*
X02253Y01826*
X02244Y01827*
X02193*
X02185Y01826*
X02177Y01821*
X02173Y01814*
X02171Y01805*
X02173Y01797*
X02177Y0179*
X02185Y01785*
X02193Y01783*
X02244*
X02253Y01785*
X02253Y01785*
X02273*
X02275Y01783*
Y01779*
X02271Y01775*
X02253*
X02253Y01776*
X02244Y01777*
X02193*
X02185Y01776*
X02177Y01771*
X02173Y01764*
X02171Y01755*
X02173Y01747*
X02177Y0174*
X02185Y01735*
X02193Y01733*
X02244*
X02253Y01735*
X02253Y01735*
X02288*
X02296Y01737*
X02303Y01741*
X02305Y01744*
X02314*
Y01759*
X02315Y01761*
X02314Y01763*
Y01778*
Y01779*
Y01783*
Y01784*
Y01794*
X02315Y01795*
X02317Y01803*
Y01824*
X02317Y01824*
X02319Y01833*
X02317Y01841*
X02312Y01848*
X02305Y01853*
X02297Y01855*
G37*
G36*
X02442Y01116D02*
X02422D01*
Y01098*
X02442*
Y01116*
G37*
G36*
X02366Y01009D02*
X02271D01*
X02263Y01008*
X02256Y01003*
X02251Y00996*
X0225Y00988*
Y00963*
X02251Y00955*
X02256Y00949*
X02263Y00944*
X02271Y00943*
X02366*
X02373Y00944*
X0238Y00949*
X02385Y00955*
X02386Y00963*
Y00988*
X02385Y00996*
X0238Y01003*
X02373Y01008*
X02366Y01009*
G37*
G36*
X02288Y01993D02*
X0228Y01991D01*
X02279Y01991*
X02254*
X02254Y01991*
X02246Y01993*
X02194*
X02186Y01991*
X02179Y01986*
X02174Y01979*
X02172Y0197*
X02174Y01962*
X02179Y01955*
X02186Y0195*
X02194Y01948*
X02246*
X02254Y0195*
X02254Y0195*
X02279*
X0228Y0195*
X02288Y01948*
X02297Y0195*
X02304Y01955*
X02309Y01962*
X0231Y0197*
X02309Y01979*
X02304Y01986*
X02297Y01991*
X02288Y01993*
G37*
G36*
X02475Y01116D02*
X02454D01*
Y01098*
X02475*
Y01116*
G37*
G36*
X02066Y01009D02*
X01971D01*
X01963Y01008*
X01956Y01003*
X01951Y00996*
X0195Y00988*
Y00963*
X01951Y00955*
X01956Y00949*
X01963Y00944*
X01971Y00943*
X02066*
X02073Y00944*
X0208Y00949*
X02085Y00955*
X02086Y00963*
Y00988*
X02085Y00996*
X0208Y01003*
X02073Y01008*
X02066Y01009*
G37*
G36*
X02487Y01042D02*
X02412D01*
Y00987*
X02415*
X02418Y00982*
X02415Y00979*
X02412Y00972*
X02411Y00965*
X02412Y00957*
X02415Y00951*
X0242Y00945*
X02425Y0094*
X02432Y00938*
X02439Y00937*
X02459*
X02467Y00938*
X02473Y0094*
X02479Y00945*
X02484Y00951*
X02487Y00957*
X02488Y00965*
X02487Y00972*
X02484Y00979*
X02481Y00982*
X02484Y00987*
X02487*
Y01042*
G37*
G36*
X01664Y01839D02*
X01642D01*
X01643Y01838*
X01645Y01831*
X0165Y01825*
X01656Y01821*
X01662Y01818*
X01664Y01818*
Y01839*
G37*
G36*
X02027Y01579D02*
X01911D01*
Y01566*
X01907Y01565*
X019Y0156*
X0179Y0145*
X01758*
X01753Y01454*
X01746Y01457*
X01739Y01458*
X0171*
X01702Y01457*
X01696Y01454*
X01691Y0145*
X01664*
X01656Y01448*
X0165Y01444*
X01646Y01437*
X01644Y0143*
Y01136*
X01646Y01128*
X0165Y01122*
X0171Y01062*
X01716Y01057*
X01724Y01056*
X01951*
X01951Y01055*
X01956Y01049*
X01963Y01044*
X01971Y01043*
X02066*
X02073Y01044*
X0208Y01049*
X02085Y01055*
X02086Y01063*
Y01088*
X02085Y01096*
X0208Y01103*
X02073Y01108*
X02066Y01109*
X01971*
X01963Y01108*
X01956Y01103*
X01951Y01096*
X01951Y01096*
X01732*
X01684Y01144*
Y01202*
X01767*
Y01257*
X01763*
X01761Y01262*
X01763Y01266*
X01766Y01273*
X01767Y0128*
X01766Y01287*
X01763Y01294*
X01759Y01299*
X01756Y01302*
Y01308*
X01759Y0131*
X01763Y01316*
X01766Y01323*
X01767Y0133*
X01766Y01337*
X01763Y01344*
X01759Y01349*
X01757Y01351*
X01757Y01356*
X0176Y0136*
X01824*
Y01243*
X01825Y01235*
X01829Y01229*
X01897Y01162*
X01903Y01157*
X01911Y01156*
X01951*
X01951Y01155*
X01956Y01149*
X01963Y01144*
X01971Y01143*
X02066*
X02073Y01144*
X0208Y01149*
X02085Y01155*
X02086Y01163*
Y01188*
X02085Y01196*
X0208Y01203*
X02073Y01208*
X02066Y01209*
X01971*
X01963Y01208*
X01956Y01203*
X01951Y01196*
X01951Y01196*
X01919*
X01864Y01251*
Y01371*
X01907Y01414*
X01911Y01413*
X02027*
Y01479*
X01911*
Y01466*
X0191*
X01903Y01465*
X01896Y0146*
X01835Y014*
X01758*
X01757Y01401*
X01757Y01406*
X0176Y0141*
X01798*
X01806Y01411*
X01812Y01416*
X01907Y01511*
X01911Y01513*
X02027*
Y01579*
G37*
G36*
X0202Y01699D02*
X01979D01*
X0198Y01697*
X01985Y0169*
X01992Y01685*
X02Y01683*
X0202*
Y01699*
G37*
G36*
X02483Y01328D02*
X02462D01*
Y01309*
X02483*
Y01328*
G37*
G36*
X02481Y01373D02*
X02442D01*
Y01363*
Y01361*
X02438Y01358*
X0243*
Y0134*
X02483*
Y01357*
Y01358*
X02481Y01363*
Y01363*
Y01373*
G37*
G36*
X02072Y01699D02*
X02032D01*
Y01683*
X02051*
X0206Y01685*
X02067Y0169*
X02072Y01697*
X02072Y01699*
G37*
G36*
X02289Y01729D02*
X0228Y01727D01*
X0228Y01727*
X02246*
X02244Y01727*
X02193*
X02185Y01726*
X02177Y01721*
X02173Y01714*
X02171Y01705*
X02173Y01697*
X02177Y0169*
X02185Y01685*
X02193Y01683*
X02244*
X02253Y01685*
X02256Y01687*
X0228*
X0228Y01686*
X02289Y01685*
X02297Y01686*
X02304Y01691*
X02309Y01698*
X02311Y01707*
X02309Y01715*
X02304Y01722*
X02297Y01727*
X02289Y01729*
G37*
G36*
X0245Y01328D02*
X0243D01*
Y01309*
X0245*
Y01328*
G37*
G36*
X0202Y01727D02*
X02D01*
X01992Y01726*
X01985Y01721*
X0198Y01714*
X01979Y01711*
X0202*
Y01727*
G37*
G36*
X02051D02*
X02032D01*
Y01711*
X02072*
X02072Y01714*
X02067Y01721*
X0206Y01726*
X02051Y01727*
G37*
G36*
X02352Y02294D02*
X0232D01*
Y02262*
X02352*
Y02294*
G37*
G36*
X02053Y0229D02*
X02023D01*
Y02277*
X02053*
Y0229*
G37*
G36*
X01908Y0227D02*
X01876D01*
Y02238*
X01908*
Y0227*
G37*
G36*
X02308Y02294D02*
X02276D01*
Y02262*
X02308*
Y02294*
G37*
G36*
X02252Y02423D02*
X02203D01*
Y0237*
X02208*
Y02354*
X02152*
X0215Y02353*
X02137*
X02136Y02354*
X0213Y02358*
X02122Y0236*
X01837*
X01829Y02358*
X01823Y02354*
X0176Y02291*
X0176Y02291*
X01754Y02292*
X01754Y02295*
X01751Y02301*
X01747Y02307*
X01744Y02309*
Y02316*
X01747Y02318*
X01751Y02324*
X01754Y0233*
X01755Y02337*
X01754Y02345*
X01751Y02351*
X01748Y02355*
X01751Y0236*
X01755*
Y02415*
X01641*
Y0236*
X01644*
X01647Y02355*
X01644Y02351*
X01641Y02345*
X0164Y02337*
X01641Y0233*
X01644Y02324*
X01648Y02318*
X01651Y02316*
Y02309*
X01648Y02307*
X01644Y02301*
X01641Y02295*
X0164Y02287*
X01641Y0228*
X01644Y02274*
X01648Y02268*
X01651Y02266*
Y02259*
X01648Y02257*
X01644Y02251*
X01641Y02245*
X0164Y02237*
X01641Y0223*
X01644Y02224*
X01648Y02218*
X01651Y02216*
Y02209*
X01648Y02207*
X01644Y02201*
X01641Y02195*
X0164Y02187*
X01641Y0218*
X01644Y02174*
X01648Y02168*
X01651Y02166*
Y02159*
X01648Y02157*
X01644Y02151*
X01641Y02145*
X0164Y02137*
X01641Y0213*
X01644Y02124*
X01648Y02118*
X01654Y02113*
X01661Y02111*
X01668Y0211*
X01727*
X01734Y02111*
X01741Y02113*
X01744Y02109*
X01724Y0209*
X01687*
X01679Y02089*
X01673Y02084*
X01655Y02067*
X01651Y0206*
X01649Y02052*
Y02014*
X01645Y02009*
X01643Y02002*
X01642Y01995*
X01643Y01988*
X01645Y01981*
X0165Y01975*
X01653Y01973*
Y01967*
X0165Y01964*
X01645Y01959*
X01643Y01952*
X01642Y01951*
X01669*
Y01939*
X01642*
X01643Y01938*
X01645Y01931*
X0165Y01925*
X01653Y01923*
Y01917*
X0165Y01914*
X01645Y01909*
X01643Y01902*
X01642Y01901*
X01669*
Y01889*
X01642*
X01643Y01888*
X01645Y01881*
X0165Y01875*
X01653Y01873*
Y01867*
X0165Y01864*
X01645Y01859*
X01643Y01852*
X01642Y01851*
X01669*
Y01845*
X01675*
Y01818*
X01677Y01818*
X01683Y01821*
X01687Y01823*
X01692Y01821*
Y01817*
X01747*
Y01825*
X01773*
Y01807*
X01667*
Y01752*
X01671*
X01674Y01747*
X01671Y01744*
X01668Y01737*
X01667Y0173*
X01668Y01723*
X01671Y01716*
X01675Y0171*
X01678Y01708*
Y01702*
X01675Y01699*
X01671Y01694*
X01668Y01687*
X01667Y0168*
X01668Y01673*
X01671Y01666*
X01675Y0166*
X01678Y01658*
Y01652*
X01675Y01649*
X01671Y01644*
X01668Y01637*
X01667Y0163*
X01668Y01623*
X01671Y01616*
X01675Y0161*
X01678Y01608*
Y01602*
X01675Y01599*
X01671Y01594*
X01668Y01587*
X01667Y0158*
X01668Y01573*
X01671Y01566*
X01675Y0156*
X01681Y01556*
X01688Y01553*
X01695Y01552*
X01754*
X01761Y01553*
X01768Y01556*
X01774Y0156*
X01778Y01566*
X01781Y01573*
X01782Y0158*
X01781Y01587*
X01778Y01594*
X01774Y01599*
X01771Y01602*
Y01608*
X01774Y0161*
X01778Y01616*
X01781Y01623*
X01782Y0163*
X01781Y01637*
X01778Y01644*
X01774Y01649*
X01771Y01652*
Y01658*
X01774Y0166*
X01778Y01666*
X01781Y01673*
X01782Y0168*
X01781Y01687*
X01778Y01694*
X01774Y01699*
X01771Y01702*
Y01708*
X01774Y0171*
X01778Y01716*
X01781Y01723*
X01782Y0173*
X01781Y01737*
X01782Y01738*
X01785Y0174*
X01791Y01736*
X01798Y01735*
X01992*
X02Y01733*
X02051*
X0206Y01735*
X02067Y0174*
X02072Y01747*
X02073Y01755*
X02072Y01764*
X02067Y01771*
X0206Y01776*
X02051Y01777*
X02*
X01992Y01776*
X01991Y01775*
X01978*
Y0179*
X01983Y01791*
X01985Y0179*
X01992Y01785*
X02Y01783*
X02051*
X0206Y01785*
X02067Y0179*
X02072Y01797*
X02073Y01805*
X02072Y01814*
X02067Y01821*
X0206Y01826*
X02051Y01827*
X02013*
X02012Y01828*
X02015Y01833*
X02051*
X0206Y01835*
X02067Y0184*
X02072Y01847*
X02073Y01855*
X02072Y01864*
X02067Y01871*
X0206Y01876*
X02053Y01877*
X02051Y01881*
X02051Y01882*
X02052Y01884*
X02081*
X02103Y01861*
Y01366*
X02027*
Y01379*
X01911*
Y01313*
X02027*
Y01326*
X02158*
X02241Y01243*
X02248Y01238*
X02256Y01237*
X0243*
Y01232*
X02436*
Y01199*
X02433Y01196*
X02385*
X02385Y01196*
X0238Y01203*
X02373Y01208*
X02366Y01209*
X02271*
X02263Y01208*
X02256Y01203*
X02251Y01196*
X0225Y01188*
Y01163*
X02251Y01155*
X02256Y01149*
X02263Y01144*
X02271Y01143*
X02366*
X02373Y01144*
X0238Y01149*
X02385Y01155*
X02385Y01156*
X02422*
Y01144*
X02475*
Y01184*
X02476Y01191*
Y01232*
X02483*
Y01282*
X0243*
Y01277*
X02264*
X02195Y01346*
X02307Y01458*
X02311Y01456*
Y01413*
X02427*
Y01426*
X02441*
Y01419*
X02442Y01417*
Y01402*
Y01401*
Y01397*
Y01396*
Y01385*
X02481*
Y01396*
Y01397*
Y01401*
Y01402*
Y01416*
X02482Y01419*
Y01468*
X02481Y01469*
Y01485*
Y01489*
Y01505*
X02482Y01507*
X02481Y01509*
Y01525*
X0247*
X02469Y01525*
X02461Y01527*
X02433*
X02431Y01527*
X02427Y0153*
Y01579*
X02311*
Y01518*
X02307Y01516*
X02158Y01366*
X02144*
Y01869*
X02142Y01877*
X02141Y01879*
X02143Y01884*
X02183*
Y01886*
X02188Y01888*
X02194Y01882*
X02194Y0188*
X02192Y01877*
X02185Y01876*
X02177Y01871*
X02173Y01864*
X02171Y01855*
X02173Y01847*
X02177Y0184*
X02185Y01835*
X02193Y01833*
X02244*
X02253Y01835*
X0226Y0184*
X02265Y01847*
X02266Y01855*
X02265Y01864*
X0226Y01871*
X02253Y01876*
X02244Y01877*
X0224*
Y01898*
X02241Y01898*
X02242Y01907*
X02241Y01915*
X02236Y01922*
X02229Y01927*
X0222Y01929*
X02212Y01927*
X02208Y01925*
X02208Y01925*
X02201Y0193*
X02194Y01931*
X02183*
Y01938*
X02143*
X0214Y01943*
X02141Y01944*
X02143Y01952*
Y02077*
X02141Y02085*
X02137Y02091*
X02093Y02135*
X02087Y02139*
X02079Y02141*
X02062*
X02061Y02141*
X02053Y02143*
X02047*
Y02155*
X02051Y02158*
X021*
Y02212*
X02095*
Y02223*
X02112Y02239*
X02152*
X02154Y02239*
X02188*
Y02279*
X02154*
X02152Y02279*
X02103*
X021Y02278*
X02096Y02281*
Y0229*
X02065*
Y02277*
X02085*
X02088Y02272*
X02061Y02245*
X02057Y02239*
X02055Y02231*
Y02212*
X02051*
Y02205*
X02016*
X01998Y02223*
Y0227*
X01922*
Y02194*
X0197*
X01988Y02176*
X01986Y02172*
X01965*
Y02178*
X01915*
Y02133*
X01888*
Y02146*
X01839*
Y02125*
X01849*
X01851Y0212*
X01839Y02109*
X01823*
X01821Y02108*
X01811*
Y02104*
X01809Y02103*
X01771Y02065*
X01767Y02059*
X01766Y02051*
Y02005*
X01745*
X01743Y02009*
X01739Y02014*
X01733Y02019*
X01727Y02022*
X01719Y02023*
X01712Y02022*
X01706Y02019*
X017Y02014*
X01698Y02012*
X01693Y02012*
X01689Y02016*
Y02044*
X01695Y0205*
X01733*
X0174Y02051*
X01747Y02056*
X01788Y02097*
X01792Y02104*
X01794Y02111*
Y02269*
X01845Y0232*
X0202*
X02023Y02316*
Y02302*
X02096*
Y02316*
X02099Y0232*
X02115*
Y02314*
X0215*
X02152Y02314*
X02217*
X02225Y02315*
X02231Y0232*
X02238Y02326*
X02276*
Y02308*
X02352*
Y02384*
X02276*
Y02366*
X02256*
X02252Y0237*
Y02423*
G37*
G36*
X02011Y02421D02*
X01992D01*
Y024*
X02011*
Y02421*
G37*
G36*
X02041D02*
X02023D01*
Y024*
X02041*
Y02421*
G37*
G36*
X02011Y02388D02*
X01992D01*
Y02368*
X02011*
Y02388*
G37*
G36*
X02041D02*
X02023D01*
Y02368*
X02041*
Y02388*
G37*
G36*
X01864Y0227D02*
X01832D01*
Y02238*
X01864*
Y0227*
G37*
G36*
X01857Y02178D02*
X01839D01*
Y02158*
X01857*
Y02178*
G37*
G36*
X01888D02*
X01869D01*
Y02158*
X01888*
Y02178*
G37*
G36*
X02176Y02423D02*
X02126D01*
Y02414*
X02118*
Y02421*
X02069*
Y02368*
X02118*
Y02374*
X02126*
Y0237*
X02176*
Y02423*
G37*
G36*
X02294Y02129D02*
X02285Y02127D01*
X02278Y02123*
X02273Y02115*
X02272Y02107*
X02273Y02098*
X02274Y02098*
Y02091*
X02254*
X02254Y02091*
X02246Y02093*
X02194*
X02186Y02091*
X02179Y02086*
X02174Y02079*
X02172Y0207*
X02174Y02062*
X02179Y02055*
X02186Y0205*
X02194Y02048*
X02246*
X02254Y0205*
X02254Y0205*
X02275*
X02276Y02049*
X02276Y02043*
X02273Y02041*
X02254*
X02254Y02041*
X02246Y02043*
X02194*
X02186Y02041*
X02179Y02036*
X02174Y02029*
X02172Y0202*
X02174Y02012*
X02179Y02005*
X02186Y02*
X02194Y01998*
X02246*
X02254Y02*
X02254Y02*
X02291*
X02299Y02002*
X02305Y02006*
X02307Y02009*
X02316*
Y02024*
X02317Y02026*
X02316Y02028*
Y02043*
Y02044*
Y02048*
Y02049*
Y02083*
X02314*
Y02098*
X02314Y02098*
X02316Y02107*
X02314Y02115*
X02309Y02123*
X02302Y02127*
X02294Y02129*
G37*
G36*
X01864Y02226D02*
X01832D01*
Y02194*
X01864*
Y02226*
G37*
G36*
X02308Y0225D02*
X02276D01*
Y02218*
X02308*
Y0225*
G37*
G36*
X02352D02*
X0232D01*
Y02218*
X02352*
Y0225*
G37*
G36*
X01908Y02226D02*
X01876D01*
Y02194*
X01908*
Y02226*
G37*
G36*
X02202Y02213D02*
X02194Y02212D01*
X02187Y02207*
X02186Y02205*
X02177*
Y02212*
X02128*
Y02158*
X02177*
Y02165*
X02183*
X022Y02148*
Y02143*
X02194*
X02186Y02141*
X02179Y02136*
X02174Y02129*
X02172Y0212*
X02174Y02112*
X02179Y02105*
X02186Y021*
X02194Y02098*
X02246*
X02254Y021*
X02261Y02105*
X02266Y02112*
X02268Y0212*
X02266Y02129*
X02261Y02136*
X02254Y02141*
X02246Y02143*
X0224*
Y02157*
X02238Y02164*
X02234Y02171*
X02223Y02182*
X02223Y02183*
X02225Y02191*
X02223Y022*
X02218Y02207*
X02211Y02212*
X02202Y02213*
G37*
%LNdaughterboard-3*%
%LPD*%
G36*
X02103Y02069D02*
Y0196D01*
X0208Y01938*
X02057*
Y01924*
X02041*
X02033Y01922*
X02027Y01918*
X02012Y01903*
X02009Y019*
X02003Y01904*
X01996Y01905*
X01954*
Y0191*
X019*
Y01861*
X01954*
Y01865*
X01975*
X01979Y0186*
X01978Y01855*
X01978Y01855*
X01974Y0185*
X01848*
Y01868*
X01847Y01876*
X01842Y01882*
X01823Y01902*
X01816Y01906*
X01809Y01908*
X01794*
X01793Y01909*
X01786Y01913*
X01778Y01915*
X01739*
X01737Y01916*
X01737Y01921*
X0174Y01925*
X01818*
X01826Y01926*
X01832Y01931*
X01862Y0196*
X01866Y01966*
X01867Y01974*
Y01994*
X01988*
X0199Y01989*
X01986Y01986*
X01981Y01979*
X01981Y01976*
X02074*
X02073Y01979*
X02068Y01986*
X02061Y01991*
X02053Y01993*
X02038*
X02036Y01998*
X02037Y01998*
X02053*
X02061Y02*
X02068Y02005*
X02073Y02012*
X02075Y0202*
X02073Y02029*
X02068Y02036*
X02061Y02041*
X02053Y02043*
X02001*
X01993Y02041*
X01986Y02036*
X01984Y02034*
X01976*
Y02045*
X01903*
Y02034*
X01847*
X01845Y02033*
X01811*
Y01994*
X01827*
Y01982*
X0181Y01965*
X01809*
X01805Y01968*
Y01983*
X01806Y01985*
Y02043*
X01831Y02068*
X01847*
X01849Y02069*
X01884*
Y02093*
X0195*
X01954Y02087*
X01965Y02075*
X01963Y02071*
X01946*
Y02057*
X01976*
Y02059*
X01981Y02061*
X01982Y0206*
X01986Y02055*
X01993Y0205*
X02001Y02048*
X02053*
X02061Y0205*
X02068Y02055*
X02073Y02062*
X02075Y0207*
X02073Y02079*
X02068Y02086*
X02061Y02091*
X02053Y02093*
X02009*
X02008Y02093*
X02011Y02098*
X02053*
X02061Y021*
X02062Y021*
X02071*
X02103Y02069*
G37*
G36*
X0184Y01809D02*
X01906D01*
Y01798*
X01942*
Y01786*
X01906*
Y01775*
X01813*
Y01808*
X01818Y0181*
X0182Y01808*
X01828Y01807*
X01836Y01808*
X01838Y0181*
X01838*
X0184Y01809*
G37*
%LNdaughterboard-4*%
%LPC*%
G36*
X01921Y01987D02*
X019D01*
Y01968*
X01921*
Y01987*
G37*
G36*
X01954D02*
X01933D01*
Y01968*
X01954*
Y01987*
G37*
G36*
X01934Y02071D02*
X01903D01*
Y02057*
X01934*
Y02071*
G37*
G36*
X02074Y01965D02*
X02033D01*
Y01948*
X02053*
X02061Y0195*
X02068Y01955*
X02073Y01962*
X02074Y01965*
G37*
G36*
X01921Y01956D02*
X019D01*
Y01937*
X01921*
Y01956*
G37*
G36*
X01954D02*
X01933D01*
Y01937*
X01954*
Y01956*
G37*
G36*
X02021Y01965D02*
X01981D01*
X01981Y01962*
X01986Y01955*
X01993Y0195*
X02001Y01948*
X02021*
Y01965*
G37*
%LNdaughterboard-5*%
%LPD*%
G54D10*
X02449Y00965D02*
X02479D01*
X01968Y02107D02*
X01991Y02084D01*
X01968Y02107D02*
Y0211D01*
X01847Y02088D02*
X01872Y02113D01*
X01965*
X01968Y0211*
X01969Y01346D02*
X02166D01*
X02041Y01904D02*
X02087D01*
X02123Y01361D02*
Y01869D01*
X02082Y01911D02*
X02123Y01869D01*
X02079Y0212D02*
X02123Y02077D01*
Y01952D02*
Y02077D01*
X02082Y01911D02*
X02123Y01952D01*
X01786Y01985D02*
Y02051D01*
X01729Y01985D02*
X01786D01*
X02441Y01176D02*
X02456Y01191D01*
Y01257*
X01667Y01819D02*
X01669D01*
Y01895D02*
Y01945D01*
Y01845D02*
Y01895D01*
X02194Y01911D02*
X02219Y01886D01*
X01863Y02225D02*
X0187Y02232D01*
Y02286*
X01811Y02237D02*
X01865D01*
X01774Y02277D02*
X01837Y0234D01*
X01774Y02111D02*
Y02277D01*
X01733Y0207D02*
X01774Y02111D01*
X02297Y01803D02*
Y01833D01*
X0222Y01857D02*
Y01907D01*
X02219Y01855D02*
X0222Y01857D01*
X02192Y02185D02*
X0222Y02157D01*
X02292Y0207D02*
X02294Y02069D01*
Y02107*
X0222Y0197D02*
X02288D01*
X0229Y01805D02*
X02293Y01803D01*
X0222Y01707D02*
X02289D01*
X01927Y01962D02*
X01936Y0197D01*
X01884Y01919D02*
X01927Y01962D01*
X01865Y01919D02*
X01884D01*
X01936Y0197D02*
X02027D01*
X01959Y01705D02*
X02026D01*
X01996Y01885D02*
X02026Y01855D01*
X01927Y01885D02*
X01996D01*
X01863Y02152D02*
Y02225D01*
X01886Y02301D02*
X02231D01*
X02276Y02256D02*
X02314D01*
X02231Y02301D02*
X02276Y02256D01*
X0187Y02286D02*
X01886Y02301D01*
X02217Y02334D02*
X02228Y02344D01*
X02152Y02334D02*
X02217D01*
X01837Y0234D02*
X02122D01*
X01687Y0207D02*
X01733D01*
X01669Y02052D02*
X01687Y0207D01*
X01669Y01995D02*
Y02052D01*
X01911Y01176D02*
X02018D01*
X01844Y01243D02*
X01911Y01176D01*
X01844Y01243D02*
Y0138D01*
X0191Y01446D02*
X01969D01*
X01844Y0138D02*
X0191Y01446D01*
X01724Y0138D02*
X01844D01*
X01915Y01546D02*
X01969D01*
X01798Y0143D02*
X01915Y01546D01*
X01724Y0143D02*
X01798D01*
X01724Y01076D02*
X02018D01*
X01664Y01136D02*
X01724Y01076D01*
X01664Y0143D02*
X01724D01*
X01664Y01136D02*
Y0143D01*
X02318Y01076D02*
X02334Y01092D01*
X02448*
X02318Y01176D02*
X02441D01*
X02461Y01348D02*
Y01379D01*
X02459Y01346D02*
X02461Y01348D01*
X02369Y01346D02*
X02459D01*
X02256Y01257D02*
X02456D01*
X02166Y01346D02*
X02256Y01257D01*
X02288Y01755D02*
X02295Y01761D01*
X02219Y01755D02*
X02288D01*
X02219Y01805D02*
X0229D01*
X02291Y0202D02*
X02297Y02026D01*
X0222Y0202D02*
X02291D01*
X0222Y0207D02*
X02292D01*
X02219Y01855D02*
Y01886D01*
X02159Y01911D02*
X02194D01*
X02075Y02185D02*
Y02231D01*
X02103Y02259*
X02152*
X0222Y0212D02*
Y02157D01*
X02152Y02185D02*
X02192D01*
X02027Y0212D02*
Y02183D01*
X0194Y02152D02*
X02023D01*
X02027Y0212D02*
X02079D01*
X02025Y02185D02*
X02075D01*
X02007D02*
X02025D01*
X02027Y02183*
X0196Y02232D02*
X02007Y02185D01*
X02228Y02344D02*
X0223Y02346D01*
X02314*
X02433Y01507D02*
X02461D01*
X02427Y01502D02*
X02433Y01507D01*
X02322Y01502D02*
X02427D01*
X02166Y01346D02*
X02322Y01502D01*
X02461Y01419D02*
Y01468D01*
X02369Y01446D02*
X02459D01*
X01786Y02051D02*
X01823Y02088D01*
X01847*
X01719Y01995D02*
X01729Y01985D01*
X01847Y01974D02*
Y02014D01*
X01798Y01755D02*
X0185D01*
X01828Y01827D02*
Y01868D01*
X01809Y01888D02*
X01828Y01868D01*
X01786Y01888D02*
X01809D01*
X01793Y0176D02*
X01798Y01755D01*
X01793Y0176D02*
Y0184D01*
X01786Y01848D02*
X01793Y0184D01*
X01724Y0148D02*
Y0153D01*
X01656Y01547D02*
Y01808D01*
Y01547D02*
X01672Y0153D01*
X01724*
X01656Y01808D02*
X01667Y01819D01*
X01669D02*
Y01845D01*
X0202Y02014D02*
X02027Y0202D01*
X01847Y02014D02*
X0202D01*
X01848Y01755D02*
X02024D01*
X02003Y01805D02*
X02026D01*
X01978Y0183D02*
X02003Y01805D01*
X0184Y0183D02*
X01978D01*
X01889Y01791D02*
X01941D01*
X02026Y01855D02*
Y01889D01*
X02041Y01904*
X02094Y02394D02*
X02149D01*
X02228Y02344D02*
Y02396D01*
X01719Y01845D02*
X01782D01*
X01719Y01895D02*
X01778D01*
X01786Y01888*
X01719Y01945D02*
X01818D01*
X01847Y01974*
G54D11*
X01698Y02387D03*
G54D12*
X01698Y02337D03*
Y02287D03*
Y02187D03*
Y02237D03*
Y02137D03*
G54D13*
X02369Y01546D03*
Y01446D03*
Y01346D03*
X01969Y01546D03*
Y01446D03*
Y01346D03*
G54D14*
X02318Y01176D03*
Y01076D03*
Y00976D03*
X02018D03*
Y01076D03*
Y01176D03*
G54D15*
X02449Y01015D03*
G54D16*
X02449Y00965D03*
G54D17*
X01724Y0153D03*
Y0163D03*
Y0158D03*
Y0168D03*
Y0173D03*
Y0148D03*
G54D18*
X01724Y0178D03*
G54D19*
X01724Y0138D03*
Y0143D03*
Y0133D03*
Y0128D03*
G54D20*
X01724Y0123D03*
G54D21*
X01719Y01845D03*
G54D22*
X01669Y01845D03*
X01719Y01895D03*
X01669D03*
X01719Y01945D03*
X01669D03*
X01719Y01995D03*
X01669D03*
G54D23*
X0194Y02079D03*
X01811Y02237D03*
X02297Y01833D03*
X0222Y01907D03*
X02289Y01707D03*
X02288Y0197D03*
X02294Y02107D03*
X02202Y02191D03*
X01889Y01791D03*
G54D24*
X01865Y01919D03*
G54D25*
X01942Y01792D03*
X0185Y0183D03*
Y01755D03*
X0194Y02051D03*
X01847Y02088D03*
Y02014D03*
X02059Y02296D03*
X02152Y02259D03*
Y02334D03*
G54D26*
X01927Y01962D03*
Y01885D03*
X02456Y01334D03*
Y01257D03*
X02448Y01169D03*
Y01092D03*
G54D27*
X01863Y02152D03*
X0194D03*
X02094Y02394D03*
X02017D03*
X02151Y02396D03*
X02228D03*
X02152Y02185D03*
X02075D03*
X02159Y01911D03*
X02082D03*
G54D28*
X0187Y02232D03*
X0196D03*
G54D29*
X02314Y02256D03*
Y02346D03*
G54D30*
X0222Y0212D03*
Y0207D03*
Y0202D03*
Y0197D03*
X02027Y0212D03*
Y0207D03*
Y0202D03*
Y0197D03*
X02219Y01855D03*
Y01805D03*
Y01755D03*
Y01705D03*
X02026Y01855D03*
Y01805D03*
Y01755D03*
Y01705D03*
G54D31*
X02297Y02066D03*
Y02026D03*
X02295Y01801D03*
Y01761D03*
X02461Y01418D03*
Y01379D03*
X02461Y01507D03*
Y01468D03*
X01786Y01985D03*
Y01946D03*
Y01888D03*
Y01848D03*
M02*