%FSTAX23Y23*%
%MOIN*%
%SFA1B1*%

%IPPOS*%
%AMD38*
4,1,8,-0.047500,-0.028900,0.047500,-0.028900,0.063900,-0.012500,0.063900,0.012500,0.047500,0.028900,-0.047500,0.028900,-0.063900,0.012500,-0.063900,-0.012500,-0.047500,-0.028900,0.0*
1,1,0.032880,-0.047500,-0.012500*
1,1,0.032880,0.047500,-0.012500*
1,1,0.032880,0.047500,0.012500*
1,1,0.032880,-0.047500,0.012500*
%
%ADD35R,0.106300X0.047240*%
%ADD36O,0.106300X0.047240*%
%ADD37R,0.107870X0.057870*%
G04~CAMADD=38~8~0.0~0.0~1278.7~578.7~164.4~0.0~15~0.0~0.0~0.0~0.0~0~0.0~0.0~0.0~0.0~0~0.0~0.0~0.0~180.0~1278.0~578.0*
%ADD38D38*%
%ADD39R,0.067870X0.047240*%
%ADD40O,0.067870X0.047870*%
%ADD41O,0.106300X0.047240*%
%ADD42R,0.106300X0.047240*%
%ADD43O,0.076770X0.047240*%
%ADD44R,0.076770X0.047240*%
%ADD45R,0.047240X0.047240*%
%ADD46C,0.047240*%
%ADD47C,0.035560*%
%ADD48C,0.035430*%
%ADD49C,0.057870*%
%LNdaughterboard-1*%
%LPD*%
G54D35*
X01698Y02387D03*
G54D36*
X01698Y02337D03*
Y02287D03*
Y02187D03*
Y02237D03*
Y02137D03*
G54D37*
X02369Y01546D03*
Y01446D03*
Y01346D03*
X01969Y01546D03*
Y01446D03*
Y01346D03*
G54D38*
X02318Y01176D03*
Y01076D03*
Y00976D03*
X02018D03*
Y01076D03*
Y01176D03*
G54D39*
X02449Y01015D03*
G54D40*
X02449Y00965D03*
G54D41*
X01724Y0153D03*
Y0163D03*
Y0158D03*
Y0168D03*
Y0173D03*
Y0148D03*
G54D42*
X01724Y0178D03*
G54D43*
X01724Y0138D03*
Y0143D03*
Y0133D03*
Y0128D03*
G54D44*
X01724Y0123D03*
G54D45*
X01719Y01845D03*
G54D46*
X01669Y01845D03*
X01719Y01895D03*
X01669D03*
X01719Y01945D03*
X01669D03*
X01719Y01995D03*
X01669D03*
G54D47*
X0194Y02079D03*
X02297Y01833D03*
X0222Y01907D03*
X02289Y01707D03*
X02288Y0197D03*
X02294Y02107D03*
X02202Y02191D03*
G54D48*
X01811Y02237D03*
X01889Y01791D03*
G54D49*
X01865Y01919D03*
M02*