  0
SECTION
  2
HEADER
  9
$EXTMIN
 10
-37.338000
 20
-41.376600
  9
$EXTMAX
 10
-0.152400
 20
-0.076200
  9
$LIMMIN
 10
-37.338000
 20
-41.376600
  9
$LIMMAX
 10
-0.152400
 20
-0.076200
  9
$FILLMODE
 70
  1
  0
ENDSEC
  0
SECTION
  2
TABLES
  0
TABLE
  2
LTYPE
 70
  1
  0
LTYPE
  2
CONTINUOUS
 70
 64
  3
Solid line
 72
 65
 73
  0
 40
0.0
  0
ENDTAB
  0
TABLE
  2
LAYER
 70
 1
  0
LAYER
  2
0
 70
  0
 62
7
  6
CONTINUOUS
  0
LAYER
  2
gbp
 70
  0
 62
1
  6
CONTINUOUS
  0
ENDTAB
  0
TABLE
  2
STYLE
 70
  1
  0
STYLE
  2
STANDARD
 70
  0
 40
0.0
 41
1.0
 50
0.0
 71
  0
 42
0.2
  3
txt
  4

  0
ENDTAB
  0
ENDSEC
  0
SECTION
  2
BLOCKS
  0
BLOCK
  8
0
  2
D10
 70
64
 10
0.0
 20
0.0
  3
D10
  0
POLYLINE
  8
0
 66
1
 10
0.0
 20
0.0
 70
1
 40
0.0
 41
0.0
  0
VERTEX
  8
0
 10
-0.474999
 20
-0.424999
  0
VERTEX
  8
0
 10
0.474999
 20
-0.424999
  0
VERTEX
  8
0
 10
0.474999
 20
0.424999
  0
VERTEX
  8
0
 10
-0.474999
 20
0.424999
  0
SEQEND
  8
0
 0
ENDBLK
  8
0
  0
BLOCK
  8
0
  2
D11
 70
64
 10
0.0
 20
0.0
  3
D11
  0
POLYLINE
  8
0
 66
1
 10
0.0
 20
0.0
 70
1
 40
0.0
 41
0.0
  0
VERTEX
  8
0
 10
-0.274999
 20
-0.274999
  0
VERTEX
  8
0
 10
0.274999
 20
-0.274999
  0
VERTEX
  8
0
 10
0.274999
 20
0.274999
  0
VERTEX
  8
0
 10
-0.274999
 20
0.274999
  0
SEQEND
  8
0
 0
ENDBLK
  8
0
  0
BLOCK
  8
0
  2
D12
 70
64
 10
0.0
 20
0.0
  3
D12
  0
POLYLINE
  8
0
 66
1
 10
0.0
 20
0.0
 70
1
 40
0.0
 41
0.0
  0
VERTEX
  8
0
 10
-0.299999
 20
-0.309999
  0
VERTEX
  8
0
 10
0.299999
 20
-0.309999
  0
VERTEX
  8
0
 10
0.299999
 20
0.309999
  0
VERTEX
  8
0
 10
-0.299999
 20
0.309999
  0
SEQEND
  8
0
 0
ENDBLK
  8
0
  0
BLOCK
  8
0
  2
D13
 70
64
 10
0.0
 20
0.0
  3
D13
  0
POLYLINE
  8
0
 66
1
 10
0.0
 20
0.0
 70
1
 40
0.0
 41
0.0
  0
VERTEX
  8
0
 10
-0.761998
 20
-0.660399
  0
VERTEX
  8
0
 10
0.761998
 20
-0.660399
  0
VERTEX
  8
0
 10
0.761998
 20
0.660399
  0
VERTEX
  8
0
 10
-0.761998
 20
0.660399
  0
SEQEND
  8
0
 0
ENDBLK
  8
0
  0
BLOCK
  8
0
  2
D14
 70
64
 10
0.0
 20
0.0
  3
D14
  0
POLYLINE
  8
0
 66
1
 10
0.0
 20
0.0
 70
1
 40
0.0
 41
0.0
  0
VERTEX
  8
0
 10
-0.424999
 20
-0.474999
  0
VERTEX
  8
0
 10
0.424999
 20
-0.474999
  0
VERTEX
  8
0
 10
0.424999
 20
0.474999
  0
VERTEX
  8
0
 10
-0.424999
 20
0.474999
  0
SEQEND
  8
0
 0
ENDBLK
  8
0
  0
BLOCK
  8
0
  2
D15
 70
64
 10
0.0
 20
0.0
  3
D15
  0
POLYLINE
  8
0
 66
1
 10
0.0
 20
0.0
 70
1
 40
0.0
 41
0.0
  0
VERTEX
  8
0
 10
-0.424999
 20
-0.324999
  0
VERTEX
  8
0
 10
0.424999
 20
-0.324999
  0
VERTEX
  8
0
 10
0.424999
 20
0.324999
  0
VERTEX
  8
0
 10
-0.424999
 20
0.324999
  0
SEQEND
  8
0
 0
ENDBLK
  8
0
  0
BLOCK
  8
0
  2
D16
 70
64
 10
0.0
 20
0.0
  3
D16
  0
POLYLINE
  8
0
 66
1
 10
0.0
 20
0.0
 70
1
 40
0.0
 41
0.0
  0
VERTEX
  8
0
 10
-0.324999
 20
-0.150000
  0
VERTEX
  8
0
 10
0.324999
 20
-0.150000
  0
VERTEX
  8
0
 10
0.324999
 20
0.150000
  0
VERTEX
  8
0
 10
-0.324999
 20
0.150000
  0
SEQEND
  8
0
 0
ENDBLK
  8
0
  0
BLOCK
  8
0
  2
D17
 70
64
 10
0.0
 20
0.0
  3
D17
  0
POLYLINE
  8
0
 66
1
 10
0.0
 20
0.0
 70
1
 40
0.0
 41
0.0
  0
VERTEX
  8
0
 10
-0.800098
 20
-1.174998
  0
VERTEX
  8
0
 10
0.800098
 20
-1.174998
  0
VERTEX
  8
0
 10
0.800098
 20
1.174998
  0
VERTEX
  8
0
 10
-0.800098
 20
1.174998
  0
SEQEND
  8
0
 0
ENDBLK
  8
0
  0
BLOCK
  8
0
  2
D18
 70
64
 10
0.0
 20
0.0
  3
D18
  0
POLYLINE
  8
0
 66
1
 10
0.0
 20
0.0
 70
1
 40
0.0
 41
0.0
  0
VERTEX
  8
0
 10
-0.274999
 20
-0.274999
  0
VERTEX
  8
0
 10
0.274999
 20
-0.274999
  0
VERTEX
  8
0
 10
0.274999
 20
0.274999
  0
VERTEX
  8
0
 10
-0.274999
 20
0.274999
  0
SEQEND
  8
0
 0
ENDBLK
  8
0
  0
BLOCK
  8
0
  2
D19
 70
64
 10
0.0
 20
0.0
  3
D19
  0
POLYLINE
  8
0
 66
1
 10
0.0
 20
0.0
 70
1
 40
0.0
 41
0.0
  0
VERTEX
  8
0
 10
-0.309999
 20
-0.299999
  0
VERTEX
  8
0
 10
0.309999
 20
-0.299999
  0
VERTEX
  8
0
 10
0.309999
 20
0.299999
  0
VERTEX
  8
0
 10
-0.309999
 20
0.299999
  0
SEQEND
  8
0
 0
ENDBLK
  8
0
  0
BLOCK
  8
0
  2
D20
 70
64
 10
0.0
 20
0.0
  3
D20
  0
POLYLINE
  8
0
 66
1
 10
0.0
 20
0.0
 70
1
 40
0.0
 41
0.0
  0
VERTEX
  8
0
 10
-0.774998
 20
-0.499999
  0
VERTEX
  8
0
 10
0.774998
 20
-0.499999
  0
VERTEX
  8
0
 10
0.774998
 20
0.499999
  0
VERTEX
  8
0
 10
-0.774998
 20
0.499999
  0
SEQEND
  8
0
 0
ENDBLK
  8
0
  0
BLOCK
  8
0
  2
D21
 70
64
 10
0.0
 20
0.0
  3
D21
  0
POLYLINE
  8
0
 66
1
 10
0.0
 20
0.0
 70
1
 40
0.0
 41
0.0
  0
VERTEX
  8
0
 10
-0.736599
 20
-0.139700
  0
VERTEX
  8
0
 10
0.736599
 20
-0.139700
  0
VERTEX
  8
0
 10
0.736599
 20
0.139700
  0
VERTEX
  8
0
 10
-0.736599
 20
0.139700
  0
SEQEND
  8
0
 0
ENDBLK
  8
0
  0
BLOCK
  8
0
  2
D22
 70
64
 10
0.0
 20
0.0
  3
D22
  0
POLYLINE
  8
0
 66
1
 10
0.0
 20
0.0
 70
1
 40
0.0
 41
0.0
  0
VERTEX
  8
0
 10
-0.139700
 20
-0.736599
  0
VERTEX
  8
0
 10
0.139700
 20
-0.736599
  0
VERTEX
  8
0
 10
0.139700
 20
0.736599
  0
VERTEX
  8
0
 10
-0.139700
 20
0.736599
  0
SEQEND
  8
0
 0
ENDBLK
  8
0
  0
BLOCK
  8
0
  2
D23
 70
64
 10
0.0
 20
0.0
  3
D23
  0
POLYLINE
  8
0
 66
1
 10
0.0
 20
0.0
 70
1
 40
0.0
 41
0.0
  0
VERTEX
  8
0
 10
-0.749999
 20
-0.250000
  0
VERTEX
  8
0
 10
0.749999
 20
-0.250000
  0
VERTEX
  8
0
 10
0.749999
 20
0.250000
  0
VERTEX
  8
0
 10
-0.749999
 20
0.250000
  0
SEQEND
  8
0
 0
ENDBLK
  8
0
  0
BLOCK
  8
0
  2
D24
 70
64
 10
0.0
 20
0.0
  3
D24
  0
POLYLINE
  8
0
 66
1
 10
0.0
 20
0.0
 70
1
 40
0.0
 41
0.0
  0
VERTEX
  8
0
 10
-0.250000
 20
-0.999998
  0
VERTEX
  8
0
 10
0.250000
 20
-0.999998
  0
VERTEX
  8
0
 10
0.250000
 20
0.999998
  0
VERTEX
  8
0
 10
-0.250000
 20
0.999998
  0
SEQEND
  8
0
 0
ENDBLK
  8
0
  0
BLOCK
  8
0
  2
D25
 70
64
 10
0.0
 20
0.0
  3
D25
  0
POLYLINE
  8
0
 66
1
 10
0.0
 20
0.0
 70
1
 40
0.0
 41
0.0
  0
VERTEX
  8
0
 10
-0.609599
 20
-0.711199
  0
VERTEX
  8
0
 10
0.609599
 20
-0.711199
  0
VERTEX
  8
0
 10
0.609599
 20
0.711199
  0
VERTEX
  8
0
 10
-0.609599
 20
0.711199
  0
SEQEND
  8
0
 0
ENDBLK
  8
0
  0
BLOCK
  8
0
  2
D26
 70
64
 10
0.0
 20
0.0
  3
D26
  0
POLYLINE
  8
0
 66
1
 10
0.0
 20
0.0
 70
1
 40
0.0
 41
0.0
  0
VERTEX
  8
0
 10
-0.599999
 20
-0.699999
  0
VERTEX
  8
0
 10
0.599999
 20
-0.699999
  0
VERTEX
  8
0
 10
0.599999
 20
0.699999
  0
VERTEX
  8
0
 10
-0.599999
 20
0.699999
  0
SEQEND
  8
0
 0
ENDBLK
  8
0
  0
BLOCK
  8
0
  2
D27
 70
64
 10
0.0
 20
0.0
  3
D27
  0
POLYLINE
  8
0
 66
1
 10
0.0
 20
0.0
 40
0
 41
0
 70
1
  0
VERTEX
  8
0
 10
-0.599440
 20
0.398780
 42
0
  0
VERTEX
  8
0
 10
-0.599440
 20
-0.398780
 42
0
  0
VERTEX
  8
0
 10
-0.299720
 20
-0.701040
 42
0
  0
VERTEX
  8
0
 10
0.299720
 20
-0.701040
 42
0
  0
VERTEX
  8
0
 10
0.599440
 20
-0.398780
 42
0
  0
VERTEX
  8
0
 10
0.599440
 20
0.398780
 42
0
  0
VERTEX
  8
0
 10
0.299720
 20
0.701040
 42
0
  0
VERTEX
  8
0
 10
-0.299720
 20
0.701040
 42
0
  0
SEQEND
  8
0
  0
CIRCLE
  8
0
 10
-0.299720
 20
0.398780
 40
0.300000
  0
CIRCLE
  8
0
 10
-0.299720
 20
-0.398780
 40
0.300000
  0
CIRCLE
  8
0
 10
0.299720
 20
-0.398780
 40
0.300000
  0
CIRCLE
  8
0
 10
0.299720
 20
0.398780
 40
0.300000
 0
ENDBLK
  8
0
  0
BLOCK
  8
0
  2
D28
 70
64
 10
0.0
 20
0.0
  3
D28
  0
CIRCLE
  8
0
 10
0.000000
 20
0.000000
 40
0.005000
 0
ENDBLK
  8
0
  0
BLOCK
  8
0
  2
D29
 70
64
 10
0.0
 20
0.0
  3
D29
  0
POLYLINE
  8
0
 66
1
 10
0.0
 20
0.0
 70
1
 40
0.0
 41
0.0
  0
VERTEX
  8
0
 10
-0.749999
 20
-0.399999
  0
VERTEX
  8
0
 10
0.749999
 20
-0.399999
  0
VERTEX
  8
0
 10
0.749999
 20
0.399999
  0
VERTEX
  8
0
 10
-0.749999
 20
0.399999
  0
SEQEND
  8
0
 0
ENDBLK
  8
0
  0
BLOCK
  8
0
  2
D30
 70
64
 10
0.0
 20
0.0
  3
D30
  0
POLYLINE
  8
0
 66
1
 10
0.0
 20
0.0
 70
1
 40
0.0
 41
0.0
  0
VERTEX
  8
0
 10
-0.949998
 20
-0.699999
  0
VERTEX
  8
0
 10
0.949998
 20
-0.699999
  0
VERTEX
  8
0
 10
0.949998
 20
0.699999
  0
VERTEX
  8
0
 10
-0.949998
 20
0.699999
  0
SEQEND
  8
0
 0
ENDBLK
  8
0
  0
BLOCK
  8
0
  2
D31
 70
64
 10
0.0
 20
0.0
  3
D31
  0
POLYLINE
  8
0
 66
1
 10
0.0
 20
0.0
 70
1
 40
0.0
 41
0.0
  0
VERTEX
  8
0
 10
-0.699999
 20
-0.899998
  0
VERTEX
  8
0
 10
0.699999
 20
-0.899998
  0
VERTEX
  8
0
 10
0.699999
 20
0.899998
  0
VERTEX
  8
0
 10
-0.699999
 20
0.899998
  0
SEQEND
  8
0
 0
ENDBLK
  8
0
  0
BLOCK
  8
0
  2
D32
 70
64
 10
0.0
 20
0.0
  3
D32
  0
POLYLINE
  8
0
 66
1
 10
0.0
 20
0.0
 70
1
 40
0.0
 41
0.0
  0
VERTEX
  8
0
 10
-0.699999
 20
-0.899998
  0
VERTEX
  8
0
 10
0.699999
 20
-0.899998
  0
VERTEX
  8
0
 10
0.699999
 20
0.899998
  0
VERTEX
  8
0
 10
-0.699999
 20
0.899998
  0
SEQEND
  8
0
 0
ENDBLK
  8
0
  0
ENDSEC
  0
SECTION
  2
ENTITIES
  0
INSERT
  8
gbp
  2
D19
 10
-24.693349
 20
-24.317149
 41
1.0
 42
1.0
 43
1.0
 50
0.0
  0
INSERT
  8
gbp
  2
D19
 10
-24.693349
 20
-23.397147
 41
1.0
 42
1.0
 43
1.0
 50
0.0
  0
INSERT
  8
gbp
  2
D28
 10
-19.667239
 20
-18.697337
 41
1.0
 42
1.0
 43
1.0
 50
0.0
  0
INSERT
  8
gbp
  2
D28
 10
-20.937242
 20
-18.697337
 41
1.0
 42
1.0
 43
1.0
 50
0.0
  0
INSERT
  8
gbp
  2
D28
 10
-19.667239
 20
-17.427235
 41
1.0
 42
1.0
 43
1.0
 50
0.0
  0
INSERT
  8
gbp
  2
D28
 10
-20.937242
 20
-17.427235
 41
1.0
 42
1.0
 43
1.0
 50
0.0
  0
INSERT
  8
gbp
  2
D28
 10
-24.747249
 20
-17.427235
 41
1.0
 42
1.0
 43
1.0
 50
0.0
  0
INSERT
  8
gbp
  2
D28
 10
-24.747249
 20
-18.697337
 41
1.0
 42
1.0
 43
1.0
 50
0.0
  0
INSERT
  8
gbp
  2
D28
 10
-23.477247
 20
-17.427235
 41
1.0
 42
1.0
 43
1.0
 50
0.0
  0
INSERT
  8
gbp
  2
D28
 10
-23.477247
 20
-18.697337
 41
1.0
 42
1.0
 43
1.0
 50
0.0
  0
INSERT
  8
gbp
  2
D28
 10
-22.127244
 20
-17.427235
 41
1.0
 42
1.0
 43
1.0
 50
0.0
  0
INSERT
  8
gbp
  2
D28
 10
-22.207244
 20
-18.697337
 41
1.0
 42
1.0
 43
1.0
 50
0.0
  0
INSERT
  8
gbp
  2
D28
 10
-5.801312
 20
-40.100880
 41
1.0
 42
1.0
 43
1.0
 50
0.0
  0
INSERT
  8
gbp
  2
D28
 10
-5.881312
 20
-41.370883
 41
1.0
 42
1.0
 43
1.0
 50
0.0
  0
INSERT
  8
gbp
  2
D28
 10
-4.531309
 20
-40.100880
 41
1.0
 42
1.0
 43
1.0
 50
0.0
  0
INSERT
  8
gbp
  2
D28
 10
-4.531309
 20
-41.370883
 41
1.0
 42
1.0
 43
1.0
 50
0.0
  0
INSERT
  8
gbp
  2
D28
 10
-3.261307
 20
-40.100880
 41
1.0
 42
1.0
 43
1.0
 50
0.0
  0
INSERT
  8
gbp
  2
D28
 10
-3.261307
 20
-41.370883
 41
1.0
 42
1.0
 43
1.0
 50
0.0
  0
INSERT
  8
gbp
  2
D28
 10
-7.071314
 20
-41.370883
 41
1.0
 42
1.0
 43
1.0
 50
0.0
  0
INSERT
  8
gbp
  2
D28
 10
-8.341317
 20
-41.370883
 41
1.0
 42
1.0
 43
1.0
 50
0.0
  0
INSERT
  8
gbp
  2
D28
 10
-7.071314
 20
-40.100880
 41
1.0
 42
1.0
 43
1.0
 50
0.0
  0
INSERT
  8
gbp
  2
D28
 10
-8.341317
 20
-40.100880
 41
1.0
 42
1.0
 43
1.0
 50
0.0
  0
INSERT
  8
gbp
  2
D29
 10
-4.955710
 20
-18.756938
 41
1.0
 42
1.0
 43
1.0
 50
0.0
  0
INSERT
  8
gbp
  2
D29
 10
-5.355711
 20
-17.656935
 41
1.0
 42
1.0
 43
1.0
 50
0.0
  0
INSERT
  8
gbp
  2
D29
 10
-4.955710
 20
-16.556933
 41
1.0
 42
1.0
 43
1.0
 50
0.0
  0
INSERT
  8
gbp
  2
D29
 10
-4.755710
 20
-15.456931
 41
1.0
 42
1.0
 43
1.0
 50
0.0
  0
INSERT
  8
gbp
  2
D29
 10
-4.955710
 20
-14.356929
 41
1.0
 42
1.0
 43
1.0
 50
0.0
  0
INSERT
  8
gbp
  2
D29
 10
-4.755710
 20
-13.256927
 41
1.0
 42
1.0
 43
1.0
 50
0.0
  0
INSERT
  8
gbp
  2
D29
 10
-4.955710
 20
-12.156924
 41
1.0
 42
1.0
 43
1.0
 50
0.0
  0
INSERT
  8
gbp
  2
D29
 10
-4.955710
 20
-11.056922
 41
1.0
 42
1.0
 43
1.0
 50
0.0
  0
INSERT
  8
gbp
  2
D30
 10
-1.105702
 20
-23.066946
 41
1.0
 42
1.0
 43
1.0
 50
0.0
  0
INSERT
  8
gbp
  2
D30
 10
-2.105704
 20
-10.266921
 41
1.0
 42
1.0
 43
1.0
 50
0.0
  0
INSERT
  8
gbp
  2
D31
 10
-15.255731
 20
-11.866924
 41
1.0
 42
1.0
 43
1.0
 50
0.0
  0
INSERT
  8
gbp
  2
D32
 10
-15.255731
 20
-17.566935
 41
1.0
 42
1.0
 43
1.0
 50
0.0
  0
ENDSEC
  0
EOF
