G04 Layer_Color=32896*
%FSLAX44Y44*%
%MOMM*%
G71*
G01*
G75*
%ADD40C,0.1000*%
%ADD41C,0.2540*%
%ADD45C,0.1600*%
D40*
X4442Y-106698D02*
G03*
X-1057Y-101199I-5359J140D01*
G01*
X-662Y-214194D02*
G03*
X4442Y-209099I-18J5122D01*
G01*
X4442Y-209099D02*
Y-106698D01*
X-3057Y-214194D02*
X-662D01*
X-3779Y-101199D02*
X-1057D01*
D41*
X-13557Y-211168D02*
X-12557Y-212169D01*
X-4557D01*
X-13557Y-115669D02*
X-8057Y-110169D01*
X-23557Y-221168D02*
Y-220669D01*
X-4557D01*
Y-212169D01*
X-36557Y-98168D02*
X-32057Y-93669D01*
X-8057D01*
Y-110169D02*
Y-93669D01*
X-156557Y-98168D02*
X-36557D01*
X-13557Y-211168D02*
Y-115669D01*
X-157229Y-237169D02*
X-23557D01*
Y-221168D01*
X-156557Y-103669D02*
Y-98168D01*
X-161557Y-108669D02*
X-156557Y-103669D01*
X-157229Y-237169D02*
Y-190497D01*
Y-160840D02*
Y-132882D01*
X-161557Y-165169D02*
X-157229Y-160840D01*
X-161557Y-186169D02*
Y-165169D01*
Y-186169D02*
X-157229Y-190497D01*
X-161557Y-128553D02*
Y-108669D01*
Y-128553D02*
X-157229Y-132882D01*
X-13563Y-423868D02*
Y-390848D01*
X-102463D02*
X-13563D01*
X-102463Y-423868D02*
Y-390848D01*
Y-423868D02*
X-13563D01*
X-266522Y-164112D02*
X-177622D01*
Y-197132D02*
Y-164112D01*
X-266522Y-197132D02*
X-177622D01*
X-266522D02*
Y-164112D01*
X-55589Y-80284D02*
X-53050Y-77744D01*
X-47972D01*
X-45432Y-80284D01*
Y-82823D01*
X-47972Y-85362D01*
X-53050D01*
X-55589Y-87901D01*
Y-90440D01*
X-53050Y-92980D01*
X-47972D01*
X-45432Y-90440D01*
X-60667Y-77744D02*
Y-92980D01*
X-68285D01*
X-70824Y-90440D01*
Y-80284D01*
X-68285Y-77744D01*
X-60667D01*
X-75902Y-92980D02*
X-80981D01*
X-78442D01*
Y-77744D01*
X-75902Y-80284D01*
X-187507Y-423073D02*
X-182429D01*
X-184968D01*
Y-407837D01*
X-187507D01*
X-182429D01*
X-164655Y-420533D02*
X-167194Y-423073D01*
X-172272D01*
X-174811Y-420533D01*
Y-410377D01*
X-172272Y-407837D01*
X-167194D01*
X-164655Y-410377D01*
X-149420Y-420533D02*
X-151959Y-423073D01*
X-157037D01*
X-159576Y-420533D01*
Y-417994D01*
X-157037Y-415455D01*
X-151959D01*
X-149420Y-412916D01*
Y-410377D01*
X-151959Y-407837D01*
X-157037D01*
X-159576Y-410377D01*
X-144341Y-407837D02*
Y-423073D01*
X-136724D01*
X-134185Y-420533D01*
Y-415455D01*
X-136724Y-412916D01*
X-144341D01*
X-129106Y-420533D02*
X-126567Y-423073D01*
X-121489D01*
X-118949Y-420533D01*
Y-417994D01*
X-121489Y-415455D01*
X-124028D01*
X-121489D01*
X-118949Y-412916D01*
Y-410377D01*
X-121489Y-407837D01*
X-126567D01*
X-129106Y-410377D01*
X-207343Y-205343D02*
X-212422D01*
X-209882D01*
Y-220578D01*
X-207343D01*
X-212422D01*
X-230196Y-207882D02*
X-227657Y-205343D01*
X-222578D01*
X-220039Y-207882D01*
Y-218038D01*
X-222578Y-220578D01*
X-227657D01*
X-230196Y-218038D01*
X-245431Y-207882D02*
X-242892Y-205343D01*
X-237813D01*
X-235274Y-207882D01*
Y-210421D01*
X-237813Y-212960D01*
X-242892D01*
X-245431Y-215499D01*
Y-218038D01*
X-242892Y-220578D01*
X-237813D01*
X-235274Y-218038D01*
X-250509Y-220578D02*
Y-205343D01*
X-258127D01*
X-260666Y-207882D01*
Y-212960D01*
X-258127Y-215499D01*
X-250509D01*
X-273362Y-220578D02*
Y-205343D01*
X-265744Y-212960D01*
X-275901D01*
X-135280Y-17936D02*
X-141084Y-33172D01*
X-146889Y-17936D02*
X-141084Y-33172D01*
X-152476Y-23015D02*
X-151025Y-23740D01*
X-149573Y-25191D01*
X-148848Y-27368D01*
Y-28819D01*
X-149573Y-30996D01*
X-151025Y-32447D01*
X-152476Y-33172D01*
X-154652D01*
X-156103Y-32447D01*
X-157555Y-30996D01*
X-158280Y-28819D01*
Y-27368D01*
X-157555Y-25191D01*
X-156103Y-23740D01*
X-154652Y-23015D01*
X-152476D01*
X-170324Y-25191D02*
X-168873Y-23740D01*
X-167422Y-23015D01*
X-165245D01*
X-163794Y-23740D01*
X-162343Y-25191D01*
X-161618Y-27368D01*
Y-28819D01*
X-162343Y-30996D01*
X-163794Y-32447D01*
X-165245Y-33172D01*
X-167422D01*
X-168873Y-32447D01*
X-170324Y-30996D01*
X-177217Y-23015D02*
X-175766Y-23740D01*
X-174315Y-25191D01*
X-173589Y-27368D01*
Y-28819D01*
X-174315Y-30996D01*
X-175766Y-32447D01*
X-177217Y-33172D01*
X-179394D01*
X-180845Y-32447D01*
X-182296Y-30996D01*
X-183022Y-28819D01*
Y-27368D01*
X-182296Y-25191D01*
X-180845Y-23740D01*
X-179394Y-23015D01*
X-177217D01*
X-186359D02*
Y-33172D01*
Y-27368D02*
X-187085Y-25191D01*
X-188536Y-23740D01*
X-189987Y-23015D01*
X-192164D01*
X-193542Y-27368D02*
X-202249D01*
Y-25917D01*
X-201523Y-24466D01*
X-200798Y-23740D01*
X-199347Y-23015D01*
X-197170D01*
X-195719Y-23740D01*
X-194268Y-25191D01*
X-193542Y-27368D01*
Y-28819D01*
X-194268Y-30996D01*
X-195719Y-32447D01*
X-197170Y-33172D01*
X-199347D01*
X-200798Y-32447D01*
X-202249Y-30996D01*
X-222565Y-17936D02*
Y-33172D01*
X-217486Y-17936D02*
X-227644D01*
X-229457Y-27368D02*
X-238164D01*
Y-25917D01*
X-237439Y-24466D01*
X-236713Y-23740D01*
X-235262Y-23015D01*
X-233085D01*
X-231634Y-23740D01*
X-230183Y-25191D01*
X-229457Y-27368D01*
Y-28819D01*
X-230183Y-30996D01*
X-231634Y-32447D01*
X-233085Y-33172D01*
X-235262D01*
X-236713Y-32447D01*
X-238164Y-30996D01*
X-249410Y-25191D02*
X-248685Y-23740D01*
X-246508Y-23015D01*
X-244331D01*
X-242155Y-23740D01*
X-241429Y-25191D01*
X-242155Y-26642D01*
X-243606Y-27368D01*
X-247234Y-28094D01*
X-248685Y-28819D01*
X-249410Y-30270D01*
Y-30996D01*
X-248685Y-32447D01*
X-246508Y-33172D01*
X-244331D01*
X-242155Y-32447D01*
X-241429Y-30996D01*
X-254779Y-17936D02*
Y-30270D01*
X-255505Y-32447D01*
X-256956Y-33172D01*
X-258407D01*
X-252603Y-23015D02*
X-257682D01*
X-272556Y-17936D02*
X-278360Y-33172D01*
X-284165Y-17936D02*
X-278360Y-33172D01*
X-286124Y-20838D02*
X-287575Y-20112D01*
X-289751Y-17936D01*
Y-33172D01*
X-298023Y-31721D02*
X-297297Y-32447D01*
X-298023Y-33172D01*
X-298748Y-32447D01*
X-298023Y-31721D01*
X-306439Y-17936D02*
X-304263Y-18661D01*
X-302812Y-20838D01*
X-302086Y-24466D01*
Y-26642D01*
X-302812Y-30270D01*
X-304263Y-32447D01*
X-306439Y-33172D01*
X-307890D01*
X-310067Y-32447D01*
X-311518Y-30270D01*
X-312244Y-26642D01*
Y-24466D01*
X-311518Y-20838D01*
X-310067Y-18661D01*
X-307890Y-17936D01*
X-306439D01*
D45*
X-239210Y-237832D02*
X-240043Y-236999D01*
Y-235333D01*
X-239210Y-234499D01*
X-235877D01*
X-235044Y-235333D01*
Y-236999D01*
X-235877Y-237832D01*
X-235044Y-242830D02*
Y-239498D01*
X-238377Y-242830D01*
X-239210D01*
X-240043Y-241997D01*
Y-240331D01*
X-239210Y-239498D01*
X-235044Y-244496D02*
Y-246162D01*
Y-245329D01*
X-240043D01*
X-239210Y-244496D01*
M02*
