M48
;Layer_Color=9474304
;FILE_FORMAT=4:4
METRIC,LZ
;TYPE=PLATED
T1F00S00C0.3048
T2F00S00C0.3500
T3F00S00C0.6096
T4F00S00C0.8500
;TYPE=NON_PLATED
T5F00S00C0.9000
T6F00S00C0.9950
%
T01
X-00174825Y-00368746
X-00183388Y-00353759
X-0016891Y-00339281
X-00160606Y-00318184
X-00144272Y-00314643
X-0014859Y-00296355
X-00149352Y-00274256
X-00137414Y-00265875
X-00132929Y-00257914
X-00127762Y-00252747
X-0013003Y-00241744
X-0014732Y-00234853
X-0014859Y-00225742
X-00150114Y-00208437
X-00172517Y-00208757
X-0018034Y-00225996
X-00176578Y-00262016
X-00184769Y-00284606
X-00128524Y-00280352
X-00118364Y-0025927
X-000889Y-00263335
X-00073149
X-00086868Y-00240982
X-00105918Y-00208724
X-00056642Y-00219393
X-00047681Y-00202374
X-00033274Y-00242761
X-0003937Y-00250634
X-0001914Y-00258344
X-000127Y-00242761
X-00051816Y-00323279
X-00064008Y-00347155
X-0007239Y-00343853
X-00109728Y-00353251
X-00117856Y-00331152
X-00119126Y-00322262
X-0010287Y-00325564
X-00109982Y-00296355
X-00127974Y-00372574
X-001397Y-00376365
X-00153178Y-00357723
X-0010414Y-00408115
X-00079248Y-0042183
X-00054356Y-00421576
X-0004064Y-00420052
X-00039878Y-00393382
X-00042926Y-00382206
X-0006477Y-00391604
X-00079248Y-00383731
X-00198499Y-00345641
X-0022606Y-00338265
X-00242316Y-00338518
X-0026791Y-00337309
X-00261874Y-00299911
X-0024892Y-00297878
X-00245472Y-00310996
X-00244348Y-00277256
X-00248058Y-00263843
X-00226589Y-0026181
X-00218694Y-00269939
X-0022098Y-00290005
X-00206756Y-00280861
X-00199152Y-0028459
Y-00274445
X-00207264Y-00254191
X-00212986Y-00238928
X-00221488Y-00225996
X-00233781Y-00238188
X-00256746Y-00240728
X-00254311Y-00232044
X-00279589Y-0021768
X-00288789Y-00219148
X-00291084Y-00256985
X-0029718Y-002707
X-00291084Y-00302451
X-00316738Y-00251143
X-00322834Y-00241999
X-00333248Y-00254191
X-00245364Y-00200597
X-00230486Y-0020212
X-00207645Y-00198692
X-00193527Y-00228582
X-0020185Y-00306181
X-00211836Y-00306768
X-00224282Y-00196024
X-00237251Y-00194438
X-00225806Y-00166306
X-00276985Y-00175176
X-00309372Y-00155639
X-00314198Y-00139382
X-00304038Y-00129222
X-00322864Y-00120667
X-00338439Y-00131371
X-00339852Y-00144208
X-00326644Y-00150304
X-00344932Y-00176467
X-0033782Y-00093443
X-0032258Y-00091376
X-00292961Y-00083503
X-00294132Y-00061912
X-00264693
X-00259509Y-00083503
Y-00120412
X-00277181Y-00112018
X-00236474Y-00115807
X-00191262Y-00047688
X-00246573Y-00008041
X-00328375Y-00041439
X-00362458Y-00046418
X-00357663Y-00059403
X-00363242Y-00012126
X-0017907Y-0008147
X-00146558Y-00071311
X-00110885Y-0009911
X-00101092Y-00117793
X-00121354Y-00126703
X-0012573Y-00175196
X-00109332Y-0017533
X-00065532Y-00176569
X-00070358Y-00191961
X-00066294Y-00152591
X-00070612Y-00144761
X-0006223Y-00129222
X-0006096Y-0010814
X-00036065Y-00124145
X-00037216Y-00143569
X-00026924Y-00157416
X-00008636Y-00089345
X-00039624Y-00053784
X-000756Y-00027877
X-00177733Y-00137613
X-00174498Y-00174435
X-00153924Y-00189928
T02
X-00265979Y-00374645
X-00261579Y-00347081
X-00230894Y-00358622
X-00104405Y-00140948
T03
X-00180776Y-00394009
X-00168076
X-00155376Y-00394263
X-00142676Y-00394009
X-00129976
X-00117276
X-00193476
X-00206176
X-00218876
X-00231576
X-00244276Y-00393755
X-00256976
X-00269676
X-00282376
X-00295076
X-00307776
X-00320476
X-00333176
X-00345876
X-00354766Y-00384865
Y-00372165
Y-00359465
Y-00346765
Y-00334065
Y-00321365
Y-00308665
Y-00295965
Y-00283265
Y-00270565
Y-00257865
Y-00245165
Y-00232465
Y-00219765
X-00281614Y-00155503
X-00268914
X-00256214
X-00243514
X-00230814
X-00218114
X-00205414
X-00192714
X-00180014
X-00167314
X-00154614
X-00141914
X-00129214
X-00116514
T04
X-00320523Y-00371652
Y-00358952
Y-00346252
Y-00333552
Y-00320852
Y-00308152
X-0036258Y-00192325
Y-00179625
Y-00166925
Y-00154225
Y-00141525
Y-00128825
T05
X-0030185Y-0004
Y-0001
X-0017485
Y-0004
X-0004785
Y-0001
T06
X-00096113Y-00417518
Y-00397198
X-00019913Y-00407358
X-00260172Y-00180623
X-00183972Y-00190783
Y-00170462
M30
