G04 Layer_Color=8388736*
%FSLAX44Y44*%
%MOMM*%
G71*
G01*
G75*
%ADD31C,0.9000*%
G04:AMPARAMS|DCode=46|XSize=1.6032mm|YSize=1.4032mm|CornerRadius=0.4016mm|HoleSize=0mm|Usage=FLASHONLY|Rotation=90.000|XOffset=0mm|YOffset=0mm|HoleType=Round|Shape=RoundedRectangle|*
%AMROUNDEDRECTD46*
21,1,1.6032,0.6000,0,0,90.0*
21,1,0.8000,1.4032,0,0,90.0*
1,1,0.8032,0.3000,0.4000*
1,1,0.8032,0.3000,-0.4000*
1,1,0.8032,-0.3000,-0.4000*
1,1,0.8032,-0.3000,0.4000*
%
%ADD46ROUNDEDRECTD46*%
%ADD47R,1.4032X1.6032*%
%ADD48R,1.4224X1.6256*%
%ADD49R,0.7032X2.2032*%
%ADD50R,1.7032X0.7032*%
%ADD51R,0.8032X0.8232*%
%ADD52R,0.8232X0.8032*%
%ADD53R,0.7532X0.7532*%
%ADD54R,0.4826X1.6764*%
%ADD55R,1.6764X0.4826*%
%ADD56R,1.1532X1.0532*%
%ADD57R,1.0532X1.1532*%
%ADD58R,1.7532X1.2032*%
%ADD59R,0.7532X0.7532*%
%ADD60R,0.8532X0.5032*%
%ADD61R,1.8034X2.5532*%
%ADD62R,1.0532X0.8532*%
%ADD63R,1.7272X1.5240*%
%ADD64R,2.7032X1.2032*%
%ADD65O,2.7032X1.2032*%
%ADD66C,1.2192*%
%ADD67C,1.1032*%
%ADD68C,0.8128*%
%ADD69C,0.9032*%
D31*
X-47850Y-40000D02*
D03*
Y-10000D02*
D03*
X-301850Y-40000D02*
D03*
Y-10000D02*
D03*
X-174850Y-40000D02*
D03*
Y-10000D02*
D03*
D46*
X-75600Y-8000D02*
D03*
X-20100D02*
D03*
X-75600Y-42000D02*
D03*
X-329600Y-8000D02*
D03*
X-274100D02*
D03*
X-329600Y-42000D02*
D03*
X-202600Y-8000D02*
D03*
X-147100D02*
D03*
X-202600Y-42000D02*
D03*
D47*
X-20100D02*
D03*
X-274100D02*
D03*
X-147100D02*
D03*
D48*
X-132223Y-209698D02*
D03*
Y-187522D02*
D03*
X-116095Y-209698D02*
D03*
Y-187522D02*
D03*
D49*
X-96826Y-368512D02*
D03*
X-86826D02*
D03*
X-76826D02*
D03*
X-66826D02*
D03*
X-56826D02*
D03*
X-46825D02*
D03*
X-36825D02*
D03*
X-106826D02*
D03*
X-116826D02*
D03*
Y-278512D02*
D03*
X-106826D02*
D03*
X-96826D02*
D03*
X-86826D02*
D03*
X-56826D02*
D03*
X-66826D02*
D03*
X-46825D02*
D03*
X-36825D02*
D03*
D50*
X-131826Y-348512D02*
D03*
Y-338512D02*
D03*
Y-318512D02*
D03*
Y-328512D02*
D03*
Y-298512D02*
D03*
Y-288512D02*
D03*
Y-308512D02*
D03*
Y-358512D02*
D03*
D51*
X-309753Y-173428D02*
D03*
X-300553D02*
D03*
X-92577Y-158880D02*
D03*
X-83377D02*
D03*
X-89710Y-178460D02*
D03*
X-80509D02*
D03*
X-290340Y-190096D02*
D03*
X-281140D02*
D03*
X-99332Y-219285D02*
D03*
X-90132D02*
D03*
X-100157Y-230212D02*
D03*
X-109357D02*
D03*
D52*
X-259509Y-93546D02*
D03*
Y-102746D02*
D03*
X-215318Y-92702D02*
D03*
Y-101902D02*
D03*
X-297115Y-128952D02*
D03*
Y-138153D02*
D03*
X-248309Y-93680D02*
D03*
Y-102880D02*
D03*
X-59413Y-166208D02*
D03*
Y-157008D02*
D03*
X-300463Y-219032D02*
D03*
Y-209832D02*
D03*
X-300304Y-229472D02*
D03*
Y-238672D02*
D03*
D53*
X-27373Y-108213D02*
D03*
X-18373D02*
D03*
X-27871Y-124145D02*
D03*
X-18871D02*
D03*
X-28058Y-139953D02*
D03*
X-19058D02*
D03*
X-27933Y-148854D02*
D03*
X-18933D02*
D03*
X-28058Y-164164D02*
D03*
X-19058D02*
D03*
X-28121Y-172927D02*
D03*
X-19121D02*
D03*
X-28140Y-188280D02*
D03*
X-19140D02*
D03*
X-147264Y-59111D02*
D03*
X-156264D02*
D03*
X-20055Y-58367D02*
D03*
X-29055D02*
D03*
X-109087Y-239797D02*
D03*
X-100087D02*
D03*
D54*
X-180448Y-213502D02*
D03*
X-185528D02*
D03*
X-190608D02*
D03*
X-195434D02*
D03*
X-200514D02*
D03*
X-205594D02*
D03*
X-210420D02*
D03*
X-215500D02*
D03*
X-220580D02*
D03*
X-225660D02*
D03*
X-230486D02*
D03*
X-235566D02*
D03*
X-240646D02*
D03*
X-245472D02*
D03*
X-250552D02*
D03*
X-255632D02*
D03*
Y-325770D02*
D03*
X-250552D02*
D03*
X-245472D02*
D03*
X-240646D02*
D03*
X-235566D02*
D03*
X-230486D02*
D03*
X-225660D02*
D03*
X-220580D02*
D03*
X-215500D02*
D03*
X-210420D02*
D03*
X-205594D02*
D03*
X-200514D02*
D03*
X-195434D02*
D03*
X-190608D02*
D03*
X-185528D02*
D03*
X-180448D02*
D03*
D55*
X-274174Y-232044D02*
D03*
Y-237124D02*
D03*
Y-242204D02*
D03*
Y-247030D02*
D03*
Y-252110D02*
D03*
Y-257190D02*
D03*
Y-262016D02*
D03*
Y-267096D02*
D03*
Y-272176D02*
D03*
Y-277256D02*
D03*
Y-282082D02*
D03*
Y-287162D02*
D03*
Y-292242D02*
D03*
Y-297068D02*
D03*
Y-302148D02*
D03*
Y-307228D02*
D03*
X-161906D02*
D03*
Y-302148D02*
D03*
Y-297068D02*
D03*
Y-292242D02*
D03*
Y-287162D02*
D03*
Y-282082D02*
D03*
Y-277256D02*
D03*
Y-272176D02*
D03*
Y-267096D02*
D03*
Y-262016D02*
D03*
Y-257190D02*
D03*
Y-252110D02*
D03*
Y-247030D02*
D03*
Y-242204D02*
D03*
Y-237124D02*
D03*
Y-232044D02*
D03*
D56*
X-110885Y-65745D02*
D03*
Y-46245D02*
D03*
X-96670Y-65745D02*
D03*
Y-46245D02*
D03*
X-125100Y-65745D02*
D03*
Y-46245D02*
D03*
X-314527Y-79686D02*
D03*
Y-60186D02*
D03*
X-39965Y-159512D02*
D03*
Y-179012D02*
D03*
X-85762Y-207875D02*
D03*
Y-188375D02*
D03*
X-99501Y-195675D02*
D03*
Y-176175D02*
D03*
X-88961Y-229633D02*
D03*
Y-249133D02*
D03*
D57*
X-369325Y-87614D02*
D03*
X-349825D02*
D03*
X-312461Y-116919D02*
D03*
X-292961D02*
D03*
D58*
X-315805Y-286074D02*
D03*
Y-260073D02*
D03*
D59*
X-252477Y-40696D02*
D03*
Y-49696D02*
D03*
D60*
X-370076Y-54052D02*
D03*
Y-60552D02*
D03*
Y-67052D02*
D03*
Y-73551D02*
D03*
X-342576D02*
D03*
Y-67052D02*
D03*
Y-60552D02*
D03*
Y-54052D02*
D03*
D61*
X-356326Y-63801D02*
D03*
D62*
X-99950Y-28050D02*
D03*
X-114450Y-19550D02*
D03*
X-99950D02*
D03*
X-114450Y-28050D02*
D03*
D63*
X-231470Y-77385D02*
D03*
Y-96537D02*
D03*
D64*
X-320523Y-308152D02*
D03*
X-362580Y-128825D02*
D03*
D65*
X-320523Y-320852D02*
D03*
Y-333552D02*
D03*
Y-358952D02*
D03*
Y-346252D02*
D03*
Y-371652D02*
D03*
X-362580Y-141525D02*
D03*
Y-154225D02*
D03*
Y-179625D02*
D03*
Y-166925D02*
D03*
Y-192325D02*
D03*
D66*
X-281614Y-155503D02*
D03*
X-268914D02*
D03*
X-256214D02*
D03*
X-243514D02*
D03*
X-230814D02*
D03*
X-218114D02*
D03*
X-205414D02*
D03*
X-116514D02*
D03*
X-129214D02*
D03*
X-141914D02*
D03*
X-154614D02*
D03*
X-167314D02*
D03*
X-180014D02*
D03*
X-192714D02*
D03*
X-256976Y-393755D02*
D03*
X-244276D02*
D03*
X-231576Y-394009D02*
D03*
X-218876D02*
D03*
X-206176D02*
D03*
X-269676Y-393755D02*
D03*
X-282376D02*
D03*
X-295076D02*
D03*
X-307776D02*
D03*
X-320476D02*
D03*
X-333176D02*
D03*
X-345876D02*
D03*
X-117276Y-394009D02*
D03*
X-129976D02*
D03*
X-180776D02*
D03*
X-193476D02*
D03*
X-354766Y-308665D02*
D03*
Y-321365D02*
D03*
Y-334065D02*
D03*
Y-346765D02*
D03*
Y-359465D02*
D03*
Y-372165D02*
D03*
Y-384865D02*
D03*
Y-295965D02*
D03*
Y-283265D02*
D03*
Y-270565D02*
D03*
Y-257865D02*
D03*
Y-245165D02*
D03*
Y-232465D02*
D03*
Y-219765D02*
D03*
X-155376Y-394263D02*
D03*
X-142676Y-394009D02*
D03*
X-168076D02*
D03*
D67*
X-19913Y-407358D02*
D03*
X-96113Y-397198D02*
D03*
Y-417518D02*
D03*
X-183972Y-170462D02*
D03*
Y-190783D02*
D03*
X-260172Y-180623D02*
D03*
D68*
X-322864Y-120667D02*
D03*
X-338439Y-131371D02*
D03*
X-109332Y-175330D02*
D03*
X-121354Y-126703D02*
D03*
X-172517Y-208757D02*
D03*
X-246573Y-8041D02*
D03*
X-363242Y-12126D02*
D03*
X-357663Y-59403D02*
D03*
X-328375Y-41439D02*
D03*
X-177733Y-137613D02*
D03*
X-237251Y-194438D02*
D03*
X-127974Y-372574D02*
D03*
X-174825Y-368746D02*
D03*
X-160606Y-318184D02*
D03*
X-153178Y-357723D02*
D03*
X-198499Y-345641D02*
D03*
X-248920Y-297878D02*
D03*
X-248058Y-263843D02*
D03*
X-230486Y-202120D02*
D03*
X-118364Y-259270D02*
D03*
X-88900Y-263335D02*
D03*
X-117856Y-331152D02*
D03*
X-150114Y-208437D02*
D03*
X-64008Y-347155D02*
D03*
X-211836Y-306768D02*
D03*
X-206756Y-280861D02*
D03*
X-221488Y-225996D02*
D03*
X-153924Y-189928D02*
D03*
X-191262Y-47688D02*
D03*
X-75600Y-27877D02*
D03*
X-259509Y-83503D02*
D03*
X-292961D02*
D03*
X-304038Y-129222D02*
D03*
X-144272Y-314643D02*
D03*
X-64770Y-391604D02*
D03*
X-40640Y-420052D02*
D03*
X-79248Y-421830D02*
D03*
Y-383731D02*
D03*
X-109728Y-353251D02*
D03*
X-102870Y-325564D02*
D03*
X-119126Y-322262D02*
D03*
X-101092Y-117793D02*
D03*
X-259509Y-120412D02*
D03*
X-180340Y-225996D02*
D03*
X-207645Y-198692D02*
D03*
X-146558Y-71311D02*
D03*
X-8636Y-89345D02*
D03*
X-12700Y-242761D02*
D03*
X-33274D02*
D03*
X-56642Y-219393D02*
D03*
X-86868Y-240982D02*
D03*
X-226589Y-261810D02*
D03*
X-225806Y-166306D02*
D03*
X-245364Y-200597D02*
D03*
X-149352Y-274256D02*
D03*
X-137414Y-265875D02*
D03*
X-218694Y-269939D02*
D03*
X-339852Y-144208D02*
D03*
X-337820Y-93443D02*
D03*
X-39624Y-53784D02*
D03*
X-179070Y-81470D02*
D03*
X-130030Y-241744D02*
D03*
X-110885Y-99110D02*
D03*
X-132929Y-257914D02*
D03*
X-62230Y-129222D02*
D03*
X-127762Y-252747D02*
D03*
X-201850Y-306181D02*
D03*
X-226060Y-338265D02*
D03*
X-183388Y-353759D02*
D03*
X-168910Y-339281D02*
D03*
X-72390Y-343853D02*
D03*
X-51816Y-323279D02*
D03*
X-39370Y-250634D02*
D03*
X-70358Y-191961D02*
D03*
X-242316Y-338518D02*
D03*
X-322834Y-241999D02*
D03*
X-322580Y-91376D02*
D03*
X-148590Y-296355D02*
D03*
X-109982D02*
D03*
X-73149Y-263335D02*
D03*
X-220980Y-290005D02*
D03*
X-199152Y-284590D02*
D03*
X-176578Y-262016D02*
D03*
X-233781Y-238188D02*
D03*
X-212986Y-238928D02*
D03*
X-199152Y-274445D02*
D03*
X-128524Y-280352D02*
D03*
X-279589Y-217680D02*
D03*
X-125730Y-175196D02*
D03*
X-148590Y-225742D02*
D03*
X-261874Y-299911D02*
D03*
X-316738Y-251143D02*
D03*
X-244348Y-277256D02*
D03*
X-193527Y-228582D02*
D03*
X-362458Y-46418D02*
D03*
X-224282Y-196024D02*
D03*
X-174498Y-174435D02*
D03*
X-326644Y-150304D02*
D03*
X-309372Y-155639D02*
D03*
X-207264Y-254191D02*
D03*
X-139700Y-376365D02*
D03*
X-297180Y-270700D02*
D03*
X-333248Y-254191D02*
D03*
X-288789Y-219148D02*
D03*
X-105918Y-208724D02*
D03*
X-147320Y-234853D02*
D03*
X-314198Y-139382D02*
D03*
X-277181Y-112018D02*
D03*
X-70612Y-144761D02*
D03*
X-254311Y-232044D02*
D03*
X-19140Y-258344D02*
D03*
X-291084Y-256985D02*
D03*
Y-302451D02*
D03*
X-245472Y-310996D02*
D03*
X-267910Y-337309D02*
D03*
X-344932Y-176467D02*
D03*
X-264693Y-61912D02*
D03*
X-294132D02*
D03*
X-236474Y-115807D02*
D03*
X-26924Y-157416D02*
D03*
X-256746Y-240728D02*
D03*
X-47681Y-202374D02*
D03*
X-66294Y-152591D02*
D03*
X-42926Y-382206D02*
D03*
X-65532Y-176569D02*
D03*
X-60960Y-108140D02*
D03*
X-36065Y-124145D02*
D03*
X-37216Y-143569D02*
D03*
X-54356Y-421576D02*
D03*
X-104140Y-408115D02*
D03*
X-39878Y-393382D02*
D03*
X-184769Y-284606D02*
D03*
X-276985Y-175176D02*
D03*
D69*
X-104405Y-140948D02*
D03*
X-265979Y-374645D02*
D03*
X-230894Y-358622D02*
D03*
X-261579Y-347081D02*
D03*
M02*
