  0
SECTION
  2
HEADER
  9
$EXTMIN
 10
-37.338000
 20
-41.376600
  9
$EXTMAX
 10
-0.152400
 20
-0.076200
  9
$LIMMIN
 10
-37.338000
 20
-41.376600
  9
$LIMMAX
 10
-0.152400
 20
-0.076200
  9
$FILLMODE
 70
  1
  0
ENDSEC
  0
SECTION
  2
TABLES
  0
TABLE
  2
LTYPE
 70
  1
  0
LTYPE
  2
CONTINUOUS
 70
 64
  3
Solid line
 72
 65
 73
  0
 40
0.0
  0
ENDTAB
  0
TABLE
  2
LAYER
 70
 1
  0
LAYER
  2
0
 70
  0
 62
7
  6
CONTINUOUS
  0
LAYER
  2
gtp
 70
  0
 62
8
  6
CONTINUOUS
  0
ENDTAB
  0
TABLE
  2
STYLE
 70
  1
  0
STYLE
  2
STANDARD
 70
  0
 40
0.0
 41
1.0
 50
0.0
 71
  0
 42
0.2
  3
txt
  4

  0
ENDTAB
  0
ENDSEC
  0
SECTION
  2
BLOCKS
  0
BLOCK
  8
0
  2
D10
 70
64
 10
0.0
 20
0.0
  3
D10
  0
POLYLINE
  8
0
 66
1
 10
0.0
 20
0.0
 70
1
 40
0.0
 41
0.0
  0
VERTEX
  8
0
 10
-0.474999
 20
-0.424999
  0
VERTEX
  8
0
 10
0.474999
 20
-0.424999
  0
VERTEX
  8
0
 10
0.474999
 20
0.424999
  0
VERTEX
  8
0
 10
-0.474999
 20
0.424999
  0
SEQEND
  8
0
 0
ENDBLK
  8
0
  0
BLOCK
  8
0
  2
D11
 70
64
 10
0.0
 20
0.0
  3
D11
  0
POLYLINE
  8
0
 66
1
 10
0.0
 20
0.0
 70
1
 40
0.0
 41
0.0
  0
VERTEX
  8
0
 10
-0.274999
 20
-0.274999
  0
VERTEX
  8
0
 10
0.274999
 20
-0.274999
  0
VERTEX
  8
0
 10
0.274999
 20
0.274999
  0
VERTEX
  8
0
 10
-0.274999
 20
0.274999
  0
SEQEND
  8
0
 0
ENDBLK
  8
0
  0
BLOCK
  8
0
  2
D12
 70
64
 10
0.0
 20
0.0
  3
D12
  0
POLYLINE
  8
0
 66
1
 10
0.0
 20
0.0
 70
1
 40
0.0
 41
0.0
  0
VERTEX
  8
0
 10
-0.299999
 20
-0.309999
  0
VERTEX
  8
0
 10
0.299999
 20
-0.309999
  0
VERTEX
  8
0
 10
0.299999
 20
0.309999
  0
VERTEX
  8
0
 10
-0.299999
 20
0.309999
  0
SEQEND
  8
0
 0
ENDBLK
  8
0
  0
BLOCK
  8
0
  2
D13
 70
64
 10
0.0
 20
0.0
  3
D13
  0
POLYLINE
  8
0
 66
1
 10
0.0
 20
0.0
 70
1
 40
0.0
 41
0.0
  0
VERTEX
  8
0
 10
-0.761998
 20
-0.660399
  0
VERTEX
  8
0
 10
0.761998
 20
-0.660399
  0
VERTEX
  8
0
 10
0.761998
 20
0.660399
  0
VERTEX
  8
0
 10
-0.761998
 20
0.660399
  0
SEQEND
  8
0
 0
ENDBLK
  8
0
  0
BLOCK
  8
0
  2
D14
 70
64
 10
0.0
 20
0.0
  3
D14
  0
POLYLINE
  8
0
 66
1
 10
0.0
 20
0.0
 70
1
 40
0.0
 41
0.0
  0
VERTEX
  8
0
 10
-0.424999
 20
-0.474999
  0
VERTEX
  8
0
 10
0.424999
 20
-0.474999
  0
VERTEX
  8
0
 10
0.424999
 20
0.474999
  0
VERTEX
  8
0
 10
-0.424999
 20
0.474999
  0
SEQEND
  8
0
 0
ENDBLK
  8
0
  0
BLOCK
  8
0
  2
D15
 70
64
 10
0.0
 20
0.0
  3
D15
  0
POLYLINE
  8
0
 66
1
 10
0.0
 20
0.0
 70
1
 40
0.0
 41
0.0
  0
VERTEX
  8
0
 10
-0.424999
 20
-0.324999
  0
VERTEX
  8
0
 10
0.424999
 20
-0.324999
  0
VERTEX
  8
0
 10
0.424999
 20
0.324999
  0
VERTEX
  8
0
 10
-0.424999
 20
0.324999
  0
SEQEND
  8
0
 0
ENDBLK
  8
0
  0
BLOCK
  8
0
  2
D16
 70
64
 10
0.0
 20
0.0
  3
D16
  0
POLYLINE
  8
0
 66
1
 10
0.0
 20
0.0
 70
1
 40
0.0
 41
0.0
  0
VERTEX
  8
0
 10
-0.324999
 20
-0.150000
  0
VERTEX
  8
0
 10
0.324999
 20
-0.150000
  0
VERTEX
  8
0
 10
0.324999
 20
0.150000
  0
VERTEX
  8
0
 10
-0.324999
 20
0.150000
  0
SEQEND
  8
0
 0
ENDBLK
  8
0
  0
BLOCK
  8
0
  2
D17
 70
64
 10
0.0
 20
0.0
  3
D17
  0
POLYLINE
  8
0
 66
1
 10
0.0
 20
0.0
 70
1
 40
0.0
 41
0.0
  0
VERTEX
  8
0
 10
-0.800098
 20
-1.174998
  0
VERTEX
  8
0
 10
0.800098
 20
-1.174998
  0
VERTEX
  8
0
 10
0.800098
 20
1.174998
  0
VERTEX
  8
0
 10
-0.800098
 20
1.174998
  0
SEQEND
  8
0
 0
ENDBLK
  8
0
  0
BLOCK
  8
0
  2
D18
 70
64
 10
0.0
 20
0.0
  3
D18
  0
POLYLINE
  8
0
 66
1
 10
0.0
 20
0.0
 70
1
 40
0.0
 41
0.0
  0
VERTEX
  8
0
 10
-0.274999
 20
-0.274999
  0
VERTEX
  8
0
 10
0.274999
 20
-0.274999
  0
VERTEX
  8
0
 10
0.274999
 20
0.274999
  0
VERTEX
  8
0
 10
-0.274999
 20
0.274999
  0
SEQEND
  8
0
 0
ENDBLK
  8
0
  0
BLOCK
  8
0
  2
D19
 70
64
 10
0.0
 20
0.0
  3
D19
  0
POLYLINE
  8
0
 66
1
 10
0.0
 20
0.0
 70
1
 40
0.0
 41
0.0
  0
VERTEX
  8
0
 10
-0.309999
 20
-0.299999
  0
VERTEX
  8
0
 10
0.309999
 20
-0.299999
  0
VERTEX
  8
0
 10
0.309999
 20
0.299999
  0
VERTEX
  8
0
 10
-0.309999
 20
0.299999
  0
SEQEND
  8
0
 0
ENDBLK
  8
0
  0
BLOCK
  8
0
  2
D20
 70
64
 10
0.0
 20
0.0
  3
D20
  0
POLYLINE
  8
0
 66
1
 10
0.0
 20
0.0
 70
1
 40
0.0
 41
0.0
  0
VERTEX
  8
0
 10
-0.774998
 20
-0.499999
  0
VERTEX
  8
0
 10
0.774998
 20
-0.499999
  0
VERTEX
  8
0
 10
0.774998
 20
0.499999
  0
VERTEX
  8
0
 10
-0.774998
 20
0.499999
  0
SEQEND
  8
0
 0
ENDBLK
  8
0
  0
BLOCK
  8
0
  2
D21
 70
64
 10
0.0
 20
0.0
  3
D21
  0
POLYLINE
  8
0
 66
1
 10
0.0
 20
0.0
 70
1
 40
0.0
 41
0.0
  0
VERTEX
  8
0
 10
-0.736599
 20
-0.139700
  0
VERTEX
  8
0
 10
0.736599
 20
-0.139700
  0
VERTEX
  8
0
 10
0.736599
 20
0.139700
  0
VERTEX
  8
0
 10
-0.736599
 20
0.139700
  0
SEQEND
  8
0
 0
ENDBLK
  8
0
  0
BLOCK
  8
0
  2
D22
 70
64
 10
0.0
 20
0.0
  3
D22
  0
POLYLINE
  8
0
 66
1
 10
0.0
 20
0.0
 70
1
 40
0.0
 41
0.0
  0
VERTEX
  8
0
 10
-0.139700
 20
-0.736599
  0
VERTEX
  8
0
 10
0.139700
 20
-0.736599
  0
VERTEX
  8
0
 10
0.139700
 20
0.736599
  0
VERTEX
  8
0
 10
-0.139700
 20
0.736599
  0
SEQEND
  8
0
 0
ENDBLK
  8
0
  0
BLOCK
  8
0
  2
D23
 70
64
 10
0.0
 20
0.0
  3
D23
  0
POLYLINE
  8
0
 66
1
 10
0.0
 20
0.0
 70
1
 40
0.0
 41
0.0
  0
VERTEX
  8
0
 10
-0.749999
 20
-0.250000
  0
VERTEX
  8
0
 10
0.749999
 20
-0.250000
  0
VERTEX
  8
0
 10
0.749999
 20
0.250000
  0
VERTEX
  8
0
 10
-0.749999
 20
0.250000
  0
SEQEND
  8
0
 0
ENDBLK
  8
0
  0
BLOCK
  8
0
  2
D24
 70
64
 10
0.0
 20
0.0
  3
D24
  0
POLYLINE
  8
0
 66
1
 10
0.0
 20
0.0
 70
1
 40
0.0
 41
0.0
  0
VERTEX
  8
0
 10
-0.250000
 20
-0.999998
  0
VERTEX
  8
0
 10
0.250000
 20
-0.999998
  0
VERTEX
  8
0
 10
0.250000
 20
0.999998
  0
VERTEX
  8
0
 10
-0.250000
 20
0.999998
  0
SEQEND
  8
0
 0
ENDBLK
  8
0
  0
BLOCK
  8
0
  2
D25
 70
64
 10
0.0
 20
0.0
  3
D25
  0
POLYLINE
  8
0
 66
1
 10
0.0
 20
0.0
 70
1
 40
0.0
 41
0.0
  0
VERTEX
  8
0
 10
-0.609599
 20
-0.711199
  0
VERTEX
  8
0
 10
0.609599
 20
-0.711199
  0
VERTEX
  8
0
 10
0.609599
 20
0.711199
  0
VERTEX
  8
0
 10
-0.609599
 20
0.711199
  0
SEQEND
  8
0
 0
ENDBLK
  8
0
  0
BLOCK
  8
0
  2
D26
 70
64
 10
0.0
 20
0.0
  3
D26
  0
POLYLINE
  8
0
 66
1
 10
0.0
 20
0.0
 70
1
 40
0.0
 41
0.0
  0
VERTEX
  8
0
 10
-0.599999
 20
-0.699999
  0
VERTEX
  8
0
 10
0.599999
 20
-0.699999
  0
VERTEX
  8
0
 10
0.599999
 20
0.699999
  0
VERTEX
  8
0
 10
-0.599999
 20
0.699999
  0
SEQEND
  8
0
 0
ENDBLK
  8
0
  0
BLOCK
  8
0
  2
D27
 70
64
 10
0.0
 20
0.0
  3
D27
  0
POLYLINE
  8
0
 66
1
 10
0.0
 20
0.0
 40
0
 41
0
 70
1
  0
VERTEX
  8
0
 10
-0.599440
 20
0.398780
 42
0
  0
VERTEX
  8
0
 10
-0.599440
 20
-0.398780
 42
0
  0
VERTEX
  8
0
 10
-0.299720
 20
-0.701040
 42
0
  0
VERTEX
  8
0
 10
0.299720
 20
-0.701040
 42
0
  0
VERTEX
  8
0
 10
0.599440
 20
-0.398780
 42
0
  0
VERTEX
  8
0
 10
0.599440
 20
0.398780
 42
0
  0
VERTEX
  8
0
 10
0.299720
 20
0.701040
 42
0
  0
VERTEX
  8
0
 10
-0.299720
 20
0.701040
 42
0
  0
SEQEND
  8
0
  0
CIRCLE
  8
0
 10
-0.299720
 20
0.398780
 40
0.300000
  0
CIRCLE
  8
0
 10
-0.299720
 20
-0.398780
 40
0.300000
  0
CIRCLE
  8
0
 10
0.299720
 20
-0.398780
 40
0.300000
  0
CIRCLE
  8
0
 10
0.299720
 20
0.398780
 40
0.300000
 0
ENDBLK
  8
0
  0
BLOCK
  8
0
  2
D28
 70
64
 10
0.0
 20
0.0
  3
D28
  0
CIRCLE
  8
0
 10
0.000000
 20
0.000000
 40
0.005000
 0
ENDBLK
  8
0
  0
BLOCK
  8
0
  2
D29
 70
64
 10
0.0
 20
0.0
  3
D29
  0
POLYLINE
  8
0
 66
1
 10
0.0
 20
0.0
 70
1
 40
0.0
 41
0.0
  0
VERTEX
  8
0
 10
-0.749999
 20
-0.399999
  0
VERTEX
  8
0
 10
0.749999
 20
-0.399999
  0
VERTEX
  8
0
 10
0.749999
 20
0.399999
  0
VERTEX
  8
0
 10
-0.749999
 20
0.399999
  0
SEQEND
  8
0
 0
ENDBLK
  8
0
  0
BLOCK
  8
0
  2
D30
 70
64
 10
0.0
 20
0.0
  3
D30
  0
POLYLINE
  8
0
 66
1
 10
0.0
 20
0.0
 70
1
 40
0.0
 41
0.0
  0
VERTEX
  8
0
 10
-0.949998
 20
-0.699999
  0
VERTEX
  8
0
 10
0.949998
 20
-0.699999
  0
VERTEX
  8
0
 10
0.949998
 20
0.699999
  0
VERTEX
  8
0
 10
-0.949998
 20
0.699999
  0
SEQEND
  8
0
 0
ENDBLK
  8
0
  0
BLOCK
  8
0
  2
D31
 70
64
 10
0.0
 20
0.0
  3
D31
  0
POLYLINE
  8
0
 66
1
 10
0.0
 20
0.0
 70
1
 40
0.0
 41
0.0
  0
VERTEX
  8
0
 10
-0.699999
 20
-0.899998
  0
VERTEX
  8
0
 10
0.699999
 20
-0.899998
  0
VERTEX
  8
0
 10
0.699999
 20
0.899998
  0
VERTEX
  8
0
 10
-0.699999
 20
0.899998
  0
SEQEND
  8
0
 0
ENDBLK
  8
0
  0
BLOCK
  8
0
  2
D32
 70
64
 10
0.0
 20
0.0
  3
D32
  0
POLYLINE
  8
0
 66
1
 10
0.0
 20
0.0
 70
1
 40
0.0
 41
0.0
  0
VERTEX
  8
0
 10
-0.699999
 20
-0.899998
  0
VERTEX
  8
0
 10
0.699999
 20
-0.899998
  0
VERTEX
  8
0
 10
0.699999
 20
0.899998
  0
VERTEX
  8
0
 10
-0.699999
 20
0.899998
  0
SEQEND
  8
0
 0
ENDBLK
  8
0
  0
ENDSEC
  0
SECTION
  2
ENTITIES
  0
INSERT
  8
gtp
  2
D10
 10
-8.896118
 20
-24.913350
 41
1.0
 42
1.0
 43
1.0
 50
0.0
  0
INSERT
  8
gtp
  2
D10
 10
-8.896118
 20
-22.963346
 41
1.0
 42
1.0
 43
1.0
 50
0.0
  0
INSERT
  8
gtp
  2
D10
 10
-9.950120
 20
-17.617535
 41
1.0
 42
1.0
 43
1.0
 50
0.0
  0
INSERT
  8
gtp
  2
D10
 10
-9.950120
 20
-19.567539
 41
1.0
 42
1.0
 43
1.0
 50
0.0
  0
INSERT
  8
gtp
  2
D10
 10
-8.576217
 20
-18.837538
 41
1.0
 42
1.0
 43
1.0
 50
0.0
  0
INSERT
  8
gtp
  2
D10
 10
-8.576217
 20
-20.787542
 41
1.0
 42
1.0
 43
1.0
 50
0.0
  0
INSERT
  8
gtp
  2
D10
 10
-3.996508
 20
-17.901236
 41
1.0
 42
1.0
 43
1.0
 50
0.0
  0
INSERT
  8
gtp
  2
D10
 10
-3.996508
 20
-15.951232
 41
1.0
 42
1.0
 43
1.0
 50
0.0
  0
INSERT
  8
gtp
  2
D10
 10
-31.452763
 20
-6.018612
 41
1.0
 42
1.0
 43
1.0
 50
0.0
  0
INSERT
  8
gtp
  2
D10
 10
-31.452763
 20
-7.968616
 41
1.0
 42
1.0
 43
1.0
 50
0.0
  0
INSERT
  8
gtp
  2
D10
 10
-12.510025
 20
-4.624509
 41
1.0
 42
1.0
 43
1.0
 50
0.0
  0
INSERT
  8
gtp
  2
D10
 10
-12.510025
 20
-6.574513
 41
1.0
 42
1.0
 43
1.0
 50
0.0
  0
INSERT
  8
gtp
  2
D10
 10
-9.667019
 20
-4.624509
 41
1.0
 42
1.0
 43
1.0
 50
0.0
  0
INSERT
  8
gtp
  2
D10
 10
-9.667019
 20
-6.574513
 41
1.0
 42
1.0
 43
1.0
 50
0.0
  0
INSERT
  8
gtp
  2
D10
 10
-11.088522
 20
-4.624509
 41
1.0
 42
1.0
 43
1.0
 50
0.0
  0
INSERT
  8
gtp
  2
D10
 10
-11.088522
 20
-6.574513
 41
1.0
 42
1.0
 43
1.0
 50
0.0
  0
INSERT
  8
gtp
  2
D11
 10
-10.008720
 20
-23.979748
 41
1.0
 42
1.0
 43
1.0
 50
0.0
  0
INSERT
  8
gtp
  2
D11
 10
-10.908722
 20
-23.979748
 41
1.0
 42
1.0
 43
1.0
 50
0.0
  0
INSERT
  8
gtp
  2
D11
 10
-2.905506
 20
-5.836712
 41
1.0
 42
1.0
 43
1.0
 50
0.0
  0
INSERT
  8
gtp
  2
D11
 10
-2.005504
 20
-5.836712
 41
1.0
 42
1.0
 43
1.0
 50
0.0
  0
INSERT
  8
gtp
  2
D11
 10
-15.626431
 20
-5.911112
 41
1.0
 42
1.0
 43
1.0
 50
0.0
  0
INSERT
  8
gtp
  2
D11
 10
-14.726429
 20
-5.911112
 41
1.0
 42
1.0
 43
1.0
 50
0.0
  0
INSERT
  8
gtp
  2
D11
 10
-1.914004
 20
-18.828038
 41
1.0
 42
1.0
 43
1.0
 50
0.0
  0
INSERT
  8
gtp
  2
D11
 10
-2.814006
 20
-18.828038
 41
1.0
 42
1.0
 43
1.0
 50
0.0
  0
INSERT
  8
gtp
  2
D11
 10
-1.912104
 20
-17.292735
 41
1.0
 42
1.0
 43
1.0
 50
0.0
  0
INSERT
  8
gtp
  2
D11
 10
-2.812106
 20
-17.292735
 41
1.0
 42
1.0
 43
1.0
 50
0.0
  0
INSERT
  8
gtp
  2
D11
 10
-1.905804
 20
-16.416433
 41
1.0
 42
1.0
 43
1.0
 50
0.0
  0
INSERT
  8
gtp
  2
D11
 10
-2.805806
 20
-16.416433
 41
1.0
 42
1.0
 43
1.0
 50
0.0
  0
INSERT
  8
gtp
  2
D11
 10
-1.893304
 20
-14.885430
 41
1.0
 42
1.0
 43
1.0
 50
0.0
  0
INSERT
  8
gtp
  2
D11
 10
-2.793306
 20
-14.885430
 41
1.0
 42
1.0
 43
1.0
 50
0.0
  0
INSERT
  8
gtp
  2
D11
 10
-1.905804
 20
-13.995328
 41
1.0
 42
1.0
 43
1.0
 50
0.0
  0
INSERT
  8
gtp
  2
D11
 10
-2.805806
 20
-13.995328
 41
1.0
 42
1.0
 43
1.0
 50
0.0
  0
INSERT
  8
gtp
  2
D11
 10
-1.887104
 20
-12.414525
 41
1.0
 42
1.0
 43
1.0
 50
0.0
  0
INSERT
  8
gtp
  2
D11
 10
-2.787106
 20
-12.414525
 41
1.0
 42
1.0
 43
1.0
 50
0.0
  0
INSERT
  8
gtp
  2
D11
 10
-1.837304
 20
-10.821322
 41
1.0
 42
1.0
 43
1.0
 50
0.0
  0
INSERT
  8
gtp
  2
D11
 10
-2.737305
 20
-10.821322
 41
1.0
 42
1.0
 43
1.0
 50
0.0
  0
INSERT
  8
gtp
  2
D12
 10
-10.935722
 20
-23.021246
 41
1.0
 42
1.0
 43
1.0
 50
0.0
  0
INSERT
  8
gtp
  2
D12
 10
-10.015720
 20
-23.021246
 41
1.0
 42
1.0
 43
1.0
 50
0.0
  0
INSERT
  8
gtp
  2
D12
 10
-9.013218
 20
-21.928544
 41
1.0
 42
1.0
 43
1.0
 50
0.0
  0
INSERT
  8
gtp
  2
D12
 10
-9.933220
 20
-21.928544
 41
1.0
 42
1.0
 43
1.0
 50
0.0
  0
INSERT
  8
gtp
  2
D12
 10
-28.114056
 20
-19.009638
 41
1.0
 42
1.0
 43
1.0
 50
0.0
  0
INSERT
  8
gtp
  2
D12
 10
-29.034058
 20
-19.009638
 41
1.0
 42
1.0
 43
1.0
 50
0.0
  0
INSERT
  8
gtp
  2
D12
 10
-8.050916
 20
-17.846036
 41
1.0
 42
1.0
 43
1.0
 50
0.0
  0
INSERT
  8
gtp
  2
D12
 10
-8.971018
 20
-17.846036
 41
1.0
 42
1.0
 43
1.0
 50
0.0
  0
INSERT
  8
gtp
  2
D12
 10
-8.337717
 20
-15.888032
 41
1.0
 42
1.0
 43
1.0
 50
0.0
  0
INSERT
  8
gtp
  2
D12
 10
-9.257719
 20
-15.888032
 41
1.0
 42
1.0
 43
1.0
 50
0.0
  0
INSERT
  8
gtp
  2
D12
 10
-30.055360
 20
-17.342835
 41
1.0
 42
1.0
 43
1.0
 50
0.0
  0
INSERT
  8
gtp
  2
D12
 10
-30.975362
 20
-17.342835
 41
1.0
 42
1.0
 43
1.0
 50
0.0
  0
INSERT
  8
gtp
  2
D13
 10
-23.147046
 20
-9.653719
 41
1.0
 42
1.0
 43
1.0
 50
0.0
  0
INSERT
  8
gtp
  2
D13
 10
-23.147046
 20
-7.738515
 41
1.0
 42
1.0
 43
1.0
 50
0.0
  0
INSERT
  8
gtp
  2
D14
 10
-29.296159
 20
-11.691923
 41
1.0
 42
1.0
 43
1.0
 50
0.0
  0
INSERT
  8
gtp
  2
D14
 10
-31.246162
 20
-11.691923
 41
1.0
 42
1.0
 43
1.0
 50
0.0
  0
INSERT
  8
gtp
  2
D14
 10
-34.982570
 20
-8.761418
 41
1.0
 42
1.0
 43
1.0
 50
0.0
  0
INSERT
  8
gtp
  2
D14
 10
-36.932574
 20
-8.761418
 41
1.0
 42
1.0
 43
1.0
 50
0.0
  0
INSERT
  8
gtp
  2
D15
 10
-11.445023
 20
-2.805006
 41
1.0
 42
1.0
 43
1.0
 50
0.0
  0
INSERT
  8
gtp
  2
D15
 10
-9.995020
 20
-1.955004
 41
1.0
 42
1.0
 43
1.0
 50
0.0
  0
INSERT
  8
gtp
  2
D15
 10
-11.445023
 20
-1.955004
 41
1.0
 42
1.0
 43
1.0
 50
0.0
  0
INSERT
  8
gtp
  2
D15
 10
-9.995020
 20
-2.805006
 41
1.0
 42
1.0
 43
1.0
 50
0.0
  0
INSERT
  8
gtp
  2
D16
 10
-34.257669
 20
-5.405211
 41
1.0
 42
1.0
 43
1.0
 50
0.0
  0
INSERT
  8
gtp
  2
D16
 10
-34.257669
 20
-6.055212
 41
1.0
 42
1.0
 43
1.0
 50
0.0
  0
INSERT
  8
gtp
  2
D16
 10
-34.257669
 20
-6.705213
 41
1.0
 42
1.0
 43
1.0
 50
0.0
  0
INSERT
  8
gtp
  2
D16
 10
-34.257669
 20
-7.355115
 41
1.0
 42
1.0
 43
1.0
 50
0.0
  0
INSERT
  8
gtp
  2
D16
 10
-37.007674
 20
-7.355115
 41
1.0
 42
1.0
 43
1.0
 50
0.0
  0
INSERT
  8
gtp
  2
D16
 10
-37.007674
 20
-6.705213
 41
1.0
 42
1.0
 43
1.0
 50
0.0
  0
INSERT
  8
gtp
  2
D16
 10
-37.007674
 20
-6.055212
 41
1.0
 42
1.0
 43
1.0
 50
0.0
  0
INSERT
  8
gtp
  2
D16
 10
-37.007674
 20
-5.405211
 41
1.0
 42
1.0
 43
1.0
 50
0.0
  0
INSERT
  8
gtp
  2
D17
 10
-35.632671
 20
-6.380113
 41
1.0
 42
1.0
 43
1.0
 50
0.0
  0
INSERT
  8
gtp
  2
D18
 10
-25.247750
 20
-4.969610
 41
1.0
 42
1.0
 43
1.0
 50
0.0
  0
INSERT
  8
gtp
  2
D18
 10
-25.247750
 20
-4.069608
 41
1.0
 42
1.0
 43
1.0
 50
0.0
  0
INSERT
  8
gtp
  2
D19
 10
-30.030460
 20
-23.867248
 41
1.0
 42
1.0
 43
1.0
 50
0.0
  0
INSERT
  8
gtp
  2
D19
 10
-30.030460
 20
-22.947246
 41
1.0
 42
1.0
 43
1.0
 50
0.0
  0
INSERT
  8
gtp
  2
D19
 10
-30.046360
 20
-20.983242
 41
1.0
 42
1.0
 43
1.0
 50
0.0
  0
INSERT
  8
gtp
  2
D19
 10
-30.046360
 20
-21.903244
 41
1.0
 42
1.0
 43
1.0
 50
0.0
  0
INSERT
  8
gtp
  2
D19
 10
-5.941312
 20
-15.700831
 41
1.0
 42
1.0
 43
1.0
 50
0.0
  0
INSERT
  8
gtp
  2
D19
 10
-5.941312
 20
-16.620833
 41
1.0
 42
1.0
 43
1.0
 50
0.0
  0
INSERT
  8
gtp
  2
D19
 10
-24.830950
 20
-10.288021
 41
1.0
 42
1.0
 43
1.0
 50
0.0
  0
INSERT
  8
gtp
  2
D19
 10
-24.830950
 20
-9.368019
 41
1.0
 42
1.0
 43
1.0
 50
0.0
  0
INSERT
  8
gtp
  2
D19
 10
-29.711559
 20
-13.815328
 41
1.0
 42
1.0
 43
1.0
 50
0.0
  0
INSERT
  8
gtp
  2
D19
 10
-29.711559
 20
-12.895226
 41
1.0
 42
1.0
 43
1.0
 50
0.0
  0
INSERT
  8
gtp
  2
D19
 10
-21.531843
 20
-10.190220
 41
1.0
 42
1.0
 43
1.0
 50
0.0
  0
INSERT
  8
gtp
  2
D19
 10
-21.531843
 20
-9.270219
 41
1.0
 42
1.0
 43
1.0
 50
0.0
  0
INSERT
  8
gtp
  2
D19
 10
-25.950952
 20
-10.274621
 41
1.0
 42
1.0
 43
1.0
 50
0.0
  0
INSERT
  8
gtp
  2
D19
 10
-25.950952
 20
-9.354619
 41
1.0
 42
1.0
 43
1.0
 50
0.0
  0
INSERT
  8
gtp
  2
D20
 10
-31.580563
 20
-26.007352
 41
1.0
 42
1.0
 43
1.0
 50
0.0
  0
INSERT
  8
gtp
  2
D20
 10
-31.580563
 20
-28.607457
 41
1.0
 42
1.0
 43
1.0
 50
0.0
  0
INSERT
  8
gtp
  2
D21
 10
-16.190632
 20
-23.204446
 41
1.0
 42
1.0
 43
1.0
 50
0.0
  0
INSERT
  8
gtp
  2
D21
 10
-16.190632
 20
-23.712447
 41
1.0
 42
1.0
 43
1.0
 50
0.0
  0
INSERT
  8
gtp
  2
D21
 10
-16.190632
 20
-24.220448
 41
1.0
 42
1.0
 43
1.0
 50
0.0
  0
INSERT
  8
gtp
  2
D21
 10
-16.190632
 20
-24.703049
 41
1.0
 42
1.0
 43
1.0
 50
0.0
  0
INSERT
  8
gtp
  2
D21
 10
-16.190632
 20
-25.211050
 41
1.0
 42
1.0
 43
1.0
 50
0.0
  0
INSERT
  8
gtp
  2
D21
 10
-16.190632
 20
-25.719051
 41
1.0
 42
1.0
 43
1.0
 50
0.0
  0
INSERT
  8
gtp
  2
D21
 10
-16.190632
 20
-26.201652
 41
1.0
 42
1.0
 43
1.0
 50
0.0
  0
INSERT
  8
gtp
  2
D21
 10
-16.190632
 20
-26.709653
 41
1.0
 42
1.0
 43
1.0
 50
0.0
  0
INSERT
  8
gtp
  2
D21
 10
-16.190632
 20
-27.217654
 41
1.0
 42
1.0
 43
1.0
 50
0.0
  0
INSERT
  8
gtp
  2
D21
 10
-16.190632
 20
-27.725655
 41
1.0
 42
1.0
 43
1.0
 50
0.0
  0
INSERT
  8
gtp
  2
D21
 10
-16.190632
 20
-28.208256
 41
1.0
 42
1.0
 43
1.0
 50
0.0
  0
INSERT
  8
gtp
  2
D21
 10
-16.190632
 20
-28.716257
 41
1.0
 42
1.0
 43
1.0
 50
0.0
  0
INSERT
  8
gtp
  2
D21
 10
-16.190632
 20
-29.224258
 41
1.0
 42
1.0
 43
1.0
 50
0.0
  0
INSERT
  8
gtp
  2
D21
 10
-16.190632
 20
-29.706859
 41
1.0
 42
1.0
 43
1.0
 50
0.0
  0
INSERT
  8
gtp
  2
D21
 10
-16.190632
 20
-30.214860
 41
1.0
 42
1.0
 43
1.0
 50
0.0
  0
INSERT
  8
gtp
  2
D21
 10
-16.190632
 20
-30.722861
 41
1.0
 42
1.0
 43
1.0
 50
0.0
  0
INSERT
  8
gtp
  2
D21
 10
-27.417455
 20
-30.722861
 41
1.0
 42
1.0
 43
1.0
 50
0.0
  0
INSERT
  8
gtp
  2
D21
 10
-27.417455
 20
-30.214860
 41
1.0
 42
1.0
 43
1.0
 50
0.0
  0
INSERT
  8
gtp
  2
D21
 10
-27.417455
 20
-29.706859
 41
1.0
 42
1.0
 43
1.0
 50
0.0
  0
INSERT
  8
gtp
  2
D21
 10
-27.417455
 20
-29.224258
 41
1.0
 42
1.0
 43
1.0
 50
0.0
  0
INSERT
  8
gtp
  2
D21
 10
-27.417455
 20
-28.716257
 41
1.0
 42
1.0
 43
1.0
 50
0.0
  0
INSERT
  8
gtp
  2
D21
 10
-27.417455
 20
-28.208256
 41
1.0
 42
1.0
 43
1.0
 50
0.0
  0
INSERT
  8
gtp
  2
D21
 10
-27.417455
 20
-27.725655
 41
1.0
 42
1.0
 43
1.0
 50
0.0
  0
INSERT
  8
gtp
  2
D21
 10
-27.417455
 20
-27.217654
 41
1.0
 42
1.0
 43
1.0
 50
0.0
  0
INSERT
  8
gtp
  2
D21
 10
-27.417455
 20
-26.709653
 41
1.0
 42
1.0
 43
1.0
 50
0.0
  0
INSERT
  8
gtp
  2
D21
 10
-27.417455
 20
-26.201652
 41
1.0
 42
1.0
 43
1.0
 50
0.0
  0
INSERT
  8
gtp
  2
D21
 10
-27.417455
 20
-25.719051
 41
1.0
 42
1.0
 43
1.0
 50
0.0
  0
INSERT
  8
gtp
  2
D21
 10
-27.417455
 20
-25.211050
 41
1.0
 42
1.0
 43
1.0
 50
0.0
  0
INSERT
  8
gtp
  2
D21
 10
-27.417455
 20
-24.703049
 41
1.0
 42
1.0
 43
1.0
 50
0.0
  0
INSERT
  8
gtp
  2
D21
 10
-27.417455
 20
-24.220448
 41
1.0
 42
1.0
 43
1.0
 50
0.0
  0
INSERT
  8
gtp
  2
D21
 10
-27.417455
 20
-23.712447
 41
1.0
 42
1.0
 43
1.0
 50
0.0
  0
INSERT
  8
gtp
  2
D21
 10
-27.417455
 20
-23.204446
 41
1.0
 42
1.0
 43
1.0
 50
0.0
  0
INSERT
  8
gtp
  2
D22
 10
-18.044836
 20
-32.577065
 41
1.0
 42
1.0
 43
1.0
 50
0.0
  0
INSERT
  8
gtp
  2
D22
 10
-18.552837
 20
-32.577065
 41
1.0
 42
1.0
 43
1.0
 50
0.0
  0
INSERT
  8
gtp
  2
D22
 10
-19.060838
 20
-32.577065
 41
1.0
 42
1.0
 43
1.0
 50
0.0
  0
INSERT
  8
gtp
  2
D22
 10
-19.543439
 20
-32.577065
 41
1.0
 42
1.0
 43
1.0
 50
0.0
  0
INSERT
  8
gtp
  2
D22
 10
-20.051440
 20
-32.577065
 41
1.0
 42
1.0
 43
1.0
 50
0.0
  0
INSERT
  8
gtp
  2
D22
 10
-20.559441
 20
-32.577065
 41
1.0
 42
1.0
 43
1.0
 50
0.0
  0
INSERT
  8
gtp
  2
D22
 10
-21.042042
 20
-32.577065
 41
1.0
 42
1.0
 43
1.0
 50
0.0
  0
INSERT
  8
gtp
  2
D22
 10
-21.550043
 20
-32.577065
 41
1.0
 42
1.0
 43
1.0
 50
0.0
  0
INSERT
  8
gtp
  2
D22
 10
-22.058044
 20
-32.577065
 41
1.0
 42
1.0
 43
1.0
 50
0.0
  0
INSERT
  8
gtp
  2
D22
 10
-22.566045
 20
-32.577065
 41
1.0
 42
1.0
 43
1.0
 50
0.0
  0
INSERT
  8
gtp
  2
D22
 10
-23.048646
 20
-32.577065
 41
1.0
 42
1.0
 43
1.0
 50
0.0
  0
INSERT
  8
gtp
  2
D22
 10
-23.556647
 20
-32.577065
 41
1.0
 42
1.0
 43
1.0
 50
0.0
  0
INSERT
  8
gtp
  2
D22
 10
-24.064648
 20
-32.577065
 41
1.0
 42
1.0
 43
1.0
 50
0.0
  0
INSERT
  8
gtp
  2
D22
 10
-24.547249
 20
-32.577065
 41
1.0
 42
1.0
 43
1.0
 50
0.0
  0
INSERT
  8
gtp
  2
D22
 10
-25.055250
 20
-32.577065
 41
1.0
 42
1.0
 43
1.0
 50
0.0
  0
INSERT
  8
gtp
  2
D22
 10
-25.563251
 20
-32.577065
 41
1.0
 42
1.0
 43
1.0
 50
0.0
  0
INSERT
  8
gtp
  2
D22
 10
-25.563251
 20
-21.350243
 41
1.0
 42
1.0
 43
1.0
 50
0.0
  0
INSERT
  8
gtp
  2
D22
 10
-25.055250
 20
-21.350243
 41
1.0
 42
1.0
 43
1.0
 50
0.0
  0
INSERT
  8
gtp
  2
D22
 10
-24.547249
 20
-21.350243
 41
1.0
 42
1.0
 43
1.0
 50
0.0
  0
INSERT
  8
gtp
  2
D22
 10
-24.064648
 20
-21.350243
 41
1.0
 42
1.0
 43
1.0
 50
0.0
  0
INSERT
  8
gtp
  2
D22
 10
-23.556647
 20
-21.350243
 41
1.0
 42
1.0
 43
1.0
 50
0.0
  0
INSERT
  8
gtp
  2
D22
 10
-23.048646
 20
-21.350243
 41
1.0
 42
1.0
 43
1.0
 50
0.0
  0
INSERT
  8
gtp
  2
D22
 10
-22.566045
 20
-21.350243
 41
1.0
 42
1.0
 43
1.0
 50
0.0
  0
INSERT
  8
gtp
  2
D22
 10
-22.058044
 20
-21.350243
 41
1.0
 42
1.0
 43
1.0
 50
0.0
  0
INSERT
  8
gtp
  2
D22
 10
-21.550043
 20
-21.350243
 41
1.0
 42
1.0
 43
1.0
 50
0.0
  0
INSERT
  8
gtp
  2
D22
 10
-21.042042
 20
-21.350243
 41
1.0
 42
1.0
 43
1.0
 50
0.0
  0
INSERT
  8
gtp
  2
D22
 10
-20.559441
 20
-21.350243
 41
1.0
 42
1.0
 43
1.0
 50
0.0
  0
INSERT
  8
gtp
  2
D22
 10
-20.051440
 20
-21.350243
 41
1.0
 42
1.0
 43
1.0
 50
0.0
  0
INSERT
  8
gtp
  2
D22
 10
-19.543439
 20
-21.350243
 41
1.0
 42
1.0
 43
1.0
 50
0.0
  0
INSERT
  8
gtp
  2
D22
 10
-19.060838
 20
-21.350243
 41
1.0
 42
1.0
 43
1.0
 50
0.0
  0
INSERT
  8
gtp
  2
D22
 10
-18.552837
 20
-21.350243
 41
1.0
 42
1.0
 43
1.0
 50
0.0
  0
INSERT
  8
gtp
  2
D22
 10
-18.044836
 20
-21.350243
 41
1.0
 42
1.0
 43
1.0
 50
0.0
  0
INSERT
  8
gtp
  2
D23
 10
-13.182626
 20
-35.851272
 41
1.0
 42
1.0
 43
1.0
 50
0.0
  0
INSERT
  8
gtp
  2
D23
 10
-13.182626
 20
-30.851262
 41
1.0
 42
1.0
 43
1.0
 50
0.0
  0
INSERT
  8
gtp
  2
D23
 10
-13.182626
 20
-28.851258
 41
1.0
 42
1.0
 43
1.0
 50
0.0
  0
INSERT
  8
gtp
  2
D23
 10
-13.182626
 20
-29.851260
 41
1.0
 42
1.0
 43
1.0
 50
0.0
  0
INSERT
  8
gtp
  2
D23
 10
-13.182626
 20
-32.851266
 41
1.0
 42
1.0
 43
1.0
 50
0.0
  0
INSERT
  8
gtp
  2
D23
 10
-13.182626
 20
-31.851264
 41
1.0
 42
1.0
 43
1.0
 50
0.0
  0
INSERT
  8
gtp
  2
D23
 10
-13.182626
 20
-33.851268
 41
1.0
 42
1.0
 43
1.0
 50
0.0
  0
INSERT
  8
gtp
  2
D23
 10
-13.182626
 20
-34.851270
 41
1.0
 42
1.0
 43
1.0
 50
0.0
  0
INSERT
  8
gtp
  2
D24
 10
-3.682507
 20
-27.851256
 41
1.0
 42
1.0
 43
1.0
 50
0.0
  0
INSERT
  8
gtp
  2
D24
 10
-4.682509
 20
-27.851256
 41
1.0
 42
1.0
 43
1.0
 50
0.0
  0
INSERT
  8
gtp
  2
D24
 10
-6.682613
 20
-27.851256
 41
1.0
 42
1.0
 43
1.0
 50
0.0
  0
INSERT
  8
gtp
  2
D24
 10
-5.682611
 20
-27.851256
 41
1.0
 42
1.0
 43
1.0
 50
0.0
  0
INSERT
  8
gtp
  2
D24
 10
-8.682617
 20
-27.851256
 41
1.0
 42
1.0
 43
1.0
 50
0.0
  0
INSERT
  8
gtp
  2
D24
 10
-9.682619
 20
-27.851256
 41
1.0
 42
1.0
 43
1.0
 50
0.0
  0
INSERT
  8
gtp
  2
D24
 10
-10.682621
 20
-27.851256
 41
1.0
 42
1.0
 43
1.0
 50
0.0
  0
INSERT
  8
gtp
  2
D24
 10
-11.682623
 20
-27.851256
 41
1.0
 42
1.0
 43
1.0
 50
0.0
  0
INSERT
  8
gtp
  2
D24
 10
-11.682623
 20
-36.851274
 41
1.0
 42
1.0
 43
1.0
 50
0.0
  0
INSERT
  8
gtp
  2
D24
 10
-10.682621
 20
-36.851274
 41
1.0
 42
1.0
 43
1.0
 50
0.0
  0
INSERT
  8
gtp
  2
D24
 10
-3.682507
 20
-36.851274
 41
1.0
 42
1.0
 43
1.0
 50
0.0
  0
INSERT
  8
gtp
  2
D24
 10
-4.682509
 20
-36.851274
 41
1.0
 42
1.0
 43
1.0
 50
0.0
  0
INSERT
  8
gtp
  2
D24
 10
-5.682611
 20
-36.851274
 41
1.0
 42
1.0
 43
1.0
 50
0.0
  0
INSERT
  8
gtp
  2
D24
 10
-6.682613
 20
-36.851274
 41
1.0
 42
1.0
 43
1.0
 50
0.0
  0
INSERT
  8
gtp
  2
D24
 10
-7.682615
 20
-36.851274
 41
1.0
 42
1.0
 43
1.0
 50
0.0
  0
INSERT
  8
gtp
  2
D24
 10
-8.682617
 20
-36.851274
 41
1.0
 42
1.0
 43
1.0
 50
0.0
  0
INSERT
  8
gtp
  2
D24
 10
-9.682619
 20
-36.851274
 41
1.0
 42
1.0
 43
1.0
 50
0.0
  0
INSERT
  8
gtp
  2
D25
 10
-11.609523
 20
-18.752238
 41
1.0
 42
1.0
 43
1.0
 50
0.0
  0
INSERT
  8
gtp
  2
D25
 10
-11.609523
 20
-20.969842
 41
1.0
 42
1.0
 43
1.0
 50
0.0
  0
INSERT
  8
gtp
  2
D25
 10
-13.222326
 20
-18.752238
 41
1.0
 42
1.0
 43
1.0
 50
0.0
  0
INSERT
  8
gtp
  2
D25
 10
-13.222326
 20
-20.969842
 41
1.0
 42
1.0
 43
1.0
 50
0.0
  0
INSERT
  8
gtp
  2
D26
 10
-14.710029
 20
-4.200008
 41
1.0
 42
1.0
 43
1.0
 50
0.0
  0
INSERT
  8
gtp
  2
D26
 10
-27.410055
 20
-4.200008
 41
1.0
 42
1.0
 43
1.0
 50
0.0
  0
INSERT
  8
gtp
  2
D26
 10
-2.010004
 20
-4.200008
 41
1.0
 42
1.0
 43
1.0
 50
0.0
  0
INSERT
  8
gtp
  2
D27
 10
-20.260041
 20
-4.200008
 41
1.0
 42
1.0
 43
1.0
 50
0.0
  0
INSERT
  8
gtp
  2
D27
 10
-14.710029
 20
-0.800002
 41
1.0
 42
1.0
 43
1.0
 50
0.0
  0
INSERT
  8
gtp
  2
D27
 10
-20.260041
 20
-0.800002
 41
1.0
 42
1.0
 43
1.0
 50
0.0
  0
INSERT
  8
gtp
  2
D27
 10
-32.960066
 20
-4.200008
 41
1.0
 42
1.0
 43
1.0
 50
0.0
  0
INSERT
  8
gtp
  2
D27
 10
-27.410055
 20
-0.800002
 41
1.0
 42
1.0
 43
1.0
 50
0.0
  0
INSERT
  8
gtp
  2
D27
 10
-32.960066
 20
-0.800002
 41
1.0
 42
1.0
 43
1.0
 50
0.0
  0
INSERT
  8
gtp
  2
D27
 10
-7.560015
 20
-4.200008
 41
1.0
 42
1.0
 43
1.0
 50
0.0
  0
INSERT
  8
gtp
  2
D27
 10
-2.010004
 20
-0.800002
 41
1.0
 42
1.0
 43
1.0
 50
0.0
  0
INSERT
  8
gtp
  2
D27
 10
-7.560015
 20
-0.800002
 41
1.0
 42
1.0
 43
1.0
 50
0.0
  0
ENDSEC
  0
EOF
