%FSTAX23Y23*%
%MOIN*%
%SFA1B1*%

%IPPOS*%
%ADD30C,0.006000*%
%ADD47C,0.005000*%
%ADD48C,0.002000*%
%ADD49C,0.003000*%
%ADD50R,0.000190X0.008240*%
%ADD51R,0.172240X0.008240*%
%ADD52R,0.005110X0.970110*%
%ADD53R,0.172430X0.008860*%
%ADD54R,0.008430X0.961250*%
%LNsensorrig-1*%
%LPD*%
G36*
X00315Y-00396D02*
X00315Y-00397D01*
X00316Y-00398*
X00316Y-00398*
X00316Y-00399*
X00316Y-00399*
Y-004*
Y-004*
X00316Y-004*
X00316Y-00401*
X00316Y-00401*
X00315Y-00402*
X00315Y-00402*
X00315Y-00403*
X00315Y-00403*
X00315Y-00403*
X00314Y-00403*
X00314Y-00404*
X00313Y-00404*
X00313Y-00405*
X00312Y-00405*
X00312Y-00405*
X00311Y-00406*
X00311Y-00406*
X00315*
Y-0041*
X00288*
Y-00405*
X00302*
X00303Y-00405*
X00304Y-00405*
X00305Y-00405*
X00306Y-00405*
X00307Y-00405*
X00307Y-00405*
X00307Y-00404*
X00308Y-00404*
X00308Y-00404*
X00309Y-00404*
X00309Y-00404*
X0031Y-00403*
X0031Y-00403*
X0031Y-00403*
X0031Y-00403*
X0031Y-00403*
X0031Y-00402*
X00311Y-00402*
X00311Y-00401*
X00311Y-00401*
X00311Y-00401*
X00311Y-004*
Y-004*
Y-004*
X00311Y-00399*
X00311Y-00399*
X00311Y-00398*
X00311Y-00398*
X0031Y-00397*
X0031Y-00397*
X0031Y-00397*
X0031Y-00397*
X00314Y-00395*
X00315Y-00396*
G37*
G36*
X00326Y-00054D02*
X00323D01*
Y-00048*
X00305*
Y-00044*
X00323*
Y-00037*
X00326*
Y-00054*
G37*
G36*
X00303Y-00062D02*
X00304Y-00062D01*
X00305Y-00062*
X00306Y-00063*
X00307Y-00063*
X00308Y-00063*
X00309Y-00064*
X0031Y-00064*
X0031Y-00064*
X00311Y-00065*
X00311Y-00065*
X00312Y-00065*
X00312Y-00065*
X00312Y-00066*
X00312Y-00066*
X00312Y-00066*
X00313Y-00066*
X00313Y-00067*
X00314Y-00068*
X00314Y-00069*
X00315Y-00069*
X00315Y-0007*
X00315Y-00072*
X00316Y-00072*
X00316Y-00073*
X00316Y-00074*
X00316Y-00074*
X00316Y-00074*
Y-00075*
Y-00075*
Y-00075*
X00316Y-00076*
X00316Y-00077*
X00315Y-00078*
X00315Y-0008*
X00315Y-00081*
X00314Y-00081*
X00314Y-00082*
X00314Y-00082*
X00314Y-00083*
X00313Y-00083*
X00313Y-00083*
X00313Y-00083*
X00313Y-00084*
X00313Y-00084*
X00312Y-00084*
X00311Y-00085*
X0031Y-00086*
X0031Y-00086*
X00309Y-00086*
X00308Y-00087*
X00307Y-00087*
X00306Y-00087*
X00305Y-00087*
X00304Y-00088*
X00303Y-00088*
X00303Y-00088*
X00302*
X00302Y-00088*
X00302*
X003Y-00088*
X00299Y-00088*
X00298Y-00087*
X00297Y-00087*
X00296Y-00087*
X00295Y-00087*
X00294Y-00086*
X00294Y-00086*
X00293Y-00086*
X00292Y-00085*
X00292Y-00085*
X00292Y-00085*
X00291Y-00085*
X00291Y-00084*
X00291Y-00084*
X00291Y-00084*
X0029Y-00084*
X0029Y-00083*
X00289Y-00082*
X00289Y-00081*
X00288Y-00081*
X00288Y-0008*
X00288Y-00078*
X00288Y-00078*
X00288Y-00077*
X00287Y-00076*
X00287Y-00076*
X00287Y-00076*
Y-00075*
Y-00075*
Y-00075*
X00287Y-00074*
X00288Y-00072*
X00288Y-00071*
X00288Y-0007*
X00288Y-0007*
X00289Y-00069*
X00289Y-00069*
X00289Y-00069*
X00289Y-00069*
X00289Y-00068*
Y-00068*
X0029Y-00067*
X0029Y-00066*
X00291Y-00066*
X00292Y-00065*
X00293Y-00064*
X00293Y-00064*
X00293Y-00064*
X00294Y-00064*
X00294Y-00064*
X00294*
X00295Y-00063*
X00296Y-00063*
X00298Y-00063*
X00299Y-00062*
X003Y-00062*
X003*
X00301Y-00062*
X00301Y-00062*
X00302*
X00303Y-00062*
G37*
G36*
X00315Y-00392D02*
X00288D01*
Y-00388*
X00315*
Y-00392*
G37*
G36*
X00305Y-00101D02*
X00315Y-00091D01*
Y-00097*
X00304Y-00108*
X00326*
Y-00112*
X00288*
Y-00108*
X00299*
X00302Y-00105*
X00288Y-00096*
Y-0009*
X00305Y-00101*
G37*
G36*
X00315Y-00418D02*
X00299Y-00424D01*
X00298Y-00425*
X00297Y-00425*
X00296Y-00425*
X00295Y-00426*
X00294Y-00426*
X00294Y-00426*
X00294Y-00426*
X00293Y-00426*
X00293Y-00426*
X00293Y-00426*
X00293*
X00294Y-00427*
X00295Y-00427*
X00297Y-00427*
X00298Y-00428*
X00298Y-00428*
X00299Y-00428*
X00299Y-00428*
X00299Y-00428*
X00299Y-00428*
X00299Y-00428*
X00299*
X00315Y-00434*
Y-00439*
X00288Y-00429*
X00287Y-00429*
X00287Y-00429*
X00287Y-00429*
X00287*
X00286Y-00429*
X00285Y-0043*
X00284Y-0043*
X00284Y-0043*
X00284Y-0043*
X00283Y-0043*
X00283Y-0043*
X00283*
X00283Y-00431*
X00282Y-00431*
X00282Y-00432*
X00282Y-00432*
X00282Y-00432*
Y-00432*
X00282Y-00432*
X00282Y-00433*
X00281Y-00433*
Y-00434*
X00281Y-00434*
Y-00434*
Y-00434*
X00281Y-00435*
X00282Y-00436*
X00282Y-00436*
X00282Y-00437*
X00282Y-00437*
Y-00437*
X00277Y-00436*
X00277Y-00436*
X00277Y-00435*
X00277Y-00435*
X00277Y-00434*
Y-00434*
X00277Y-00434*
Y-00434*
Y-00433*
X00277Y-00433*
X00277Y-00432*
X00277Y-00431*
X00277Y-00431*
X00278Y-0043*
X00278Y-0043*
X00278Y-0043*
X00278Y-0043*
X00278Y-00429*
X00279Y-00429*
X00279Y-00428*
X0028Y-00428*
X0028Y-00427*
X00281Y-00427*
X00281Y-00427*
X00281Y-00427*
X00282Y-00427*
X00282Y-00426*
X00283Y-00426*
X00284Y-00426*
X00285Y-00425*
X00286Y-00425*
X00286Y-00425*
X00287Y-00424*
X00287Y-00424*
X00287Y-00424*
X00287Y-00424*
X00287*
X00315Y-00414*
Y-00418*
G37*
G36*
X00326Y00082D02*
X00325Y00081D01*
X00324Y00081*
X00323Y0008*
X00322Y00079*
X00322Y00079*
X00321Y00078*
X00321Y00078*
X00321Y00078*
X00321Y00078*
X00321Y00078*
X0032Y00076*
X00319Y00075*
X00318Y00074*
X00318Y00073*
X00317Y00072*
X00317Y00072*
X00317Y00071*
X00317Y00071*
X00316Y00071*
X00316Y00071*
Y00071*
X00312*
X00312Y00072*
X00313Y00072*
X00313Y00073*
X00313Y00074*
X00314Y00075*
X00314Y00075*
X00314Y00076*
X00314Y00076*
Y00076*
X00315Y00077*
X00315Y00078*
X00316Y00078*
X00316Y00079*
X00317Y00079*
X00317Y0008*
X00317Y0008*
X00317Y0008*
X00288*
Y00085*
X00326*
Y00082*
G37*
G36*
X00309Y00062D02*
X00309D01*
X0031Y00062*
X00311Y00062*
X00312Y00062*
X00312Y00062*
X00313Y00062*
X00314Y00062*
X00314Y00062*
X00314Y00062*
X00315Y00062*
X00315Y00062*
X00315Y00062*
X00315Y00062*
X00315*
X00317Y00061*
X00318Y00061*
X00319Y00061*
X00319Y0006*
X0032Y0006*
X00321Y0006*
X00321Y00059*
X00321Y00059*
X00322Y00059*
X00323Y00058*
X00323Y00057*
X00324Y00057*
X00324Y00056*
X00324Y00056*
X00325Y00056*
X00325Y00056*
Y00056*
X00325Y00055*
X00325Y00054*
X00326Y00053*
X00326Y00052*
X00326Y00051*
X00326Y00051*
Y0005*
Y0005*
Y0005*
Y0005*
X00326Y00049*
X00326Y00047*
X00325Y00046*
X00325Y00045*
X00324Y00044*
X00324Y00044*
X00324Y00044*
X00324Y00044*
X00324Y00043*
X00324Y00043*
Y00043*
X00323Y00042*
X00322Y00042*
X00321Y00041*
X0032Y0004*
X00319Y0004*
X00318Y0004*
X00318Y0004*
X00318Y00039*
X00317Y00039*
X00317Y00039*
X00317*
X00317Y00039*
X00316Y00039*
X00314Y00038*
X00312Y00038*
X0031Y00038*
X0031Y00038*
X00309Y00038*
X00308*
X00308Y00038*
X00307*
X00305Y00038*
X00303Y00038*
X00301Y00038*
X003Y00038*
X00298Y00039*
X00297Y00039*
X00296Y00039*
X00295Y0004*
X00294Y0004*
X00293Y0004*
X00293Y00041*
X00292Y00041*
X00292Y00041*
X00291Y00041*
X00291Y00042*
X00291Y00042*
X0029Y00042*
X0029Y00043*
X00289Y00044*
X00289Y00044*
X00288Y00045*
X00288Y00046*
X00288Y00046*
X00288Y00047*
X00288Y00048*
X00287Y00048*
X00287Y00049*
X00287Y00049*
X00287Y0005*
Y0005*
Y0005*
Y0005*
X00287Y00052*
X00288Y00053*
X00288Y00054*
X00288Y00055*
X00289Y00056*
X00289Y00056*
X00289Y00057*
X00289Y00057*
X00289Y00057*
X00289Y00057*
Y00057*
X0029Y00058*
X00291Y00059*
X00292Y0006*
X00293Y0006*
X00294Y00061*
X00295Y00061*
X00295Y00061*
X00295Y00061*
X00296Y00061*
X00296Y00061*
X00296*
X00297Y00061*
X00297Y00062*
X00299Y00062*
X00301Y00062*
X00303Y00062*
X00303Y00062*
X00304Y00062*
X00305*
X00305Y00063*
X00308*
X00309Y00062*
G37*
G36*
X00326Y-00019D02*
X00309Y-00024D01*
X00326Y-0003*
Y-00035*
X00305*
Y-00032*
X00323*
X00305Y-00026*
Y-00023*
X00322Y-00017*
X00305*
Y-00014*
X00326*
Y-00019*
G37*
G36*
X00292Y00014D02*
X00293Y00015D01*
X00294Y00015*
X00294Y00016*
X00294Y00016*
X00295Y00016*
X00295Y00016*
X00295Y00016*
X00295Y00017*
X00295Y00017*
X00296Y00018*
X00297Y00018*
X00298Y00019*
X00298Y0002*
X00299Y00021*
X00299Y00021*
X00299Y00021*
X00299Y00021*
X003Y00022*
X003Y00022*
X003Y00023*
X00301Y00023*
X00302Y00024*
X00302Y00025*
X00303Y00026*
X00304Y00026*
X00304Y00027*
X00304Y00027*
X00305Y00027*
X00305Y00028*
X00306Y00028*
X00306Y00028*
X00306Y00029*
X00306Y00029*
X00307Y0003*
X00308Y0003*
X00309Y00031*
X00309Y00031*
X0031Y00031*
X0031Y00032*
X00311Y00032*
X00311Y00032*
X00312Y00032*
X00313Y00032*
X00313Y00033*
X00314Y00033*
X00315Y00033*
X00315Y00033*
X00315*
X00316Y00033*
X00317Y00033*
X00318Y00033*
X00318Y00032*
X0032Y00032*
X00321Y00031*
X00321Y00031*
X00322Y00031*
X00322Y0003*
X00322Y0003*
X00322Y0003*
X00323Y0003*
X00323Y0003*
X00323Y0003*
X00323Y00029*
X00324Y00028*
X00324Y00028*
X00325Y00027*
X00325Y00026*
X00325Y00024*
X00326Y00024*
X00326Y00023*
X00326Y00022*
X00326Y00022*
X00326Y00022*
Y00021*
Y00021*
Y00021*
X00326Y0002*
X00326Y00019*
X00326Y00018*
X00325Y00017*
X00325Y00017*
X00325Y00016*
X00325Y00015*
X00324Y00015*
X00324Y00014*
X00324Y00014*
X00324Y00013*
X00323Y00013*
X00323Y00013*
X00323Y00013*
X00323Y00012*
X00323Y00012*
X00322Y00012*
X00322Y00011*
X00321Y00011*
X00321Y0001*
X00319Y0001*
X00318Y00009*
X00317Y00009*
X00317Y00009*
X00316Y00009*
X00316Y00009*
X00315Y00009*
X00315*
X00315Y00009*
X00315*
X00314Y00013*
X00316Y00014*
X00317Y00014*
X00318Y00014*
X00319Y00014*
X00319Y00015*
X0032Y00015*
X0032Y00015*
X0032Y00015*
X00321Y00016*
X00321Y00017*
X00322Y00018*
X00322Y00019*
X00322Y0002*
X00322Y0002*
X00322Y00021*
Y00021*
Y00021*
Y00021*
X00322Y00022*
X00322Y00023*
X00321Y00024*
X00321Y00025*
X00321Y00025*
X0032Y00026*
X0032Y00026*
X0032Y00026*
X00319Y00027*
X00319Y00027*
X00318Y00028*
X00317Y00028*
X00316Y00028*
X00316Y00028*
X00316Y00028*
X00315*
X00314Y00028*
X00313Y00028*
X00313Y00027*
X00312Y00027*
X00311Y00027*
X0031Y00026*
X0031Y00026*
X0031Y00026*
X0031Y00026*
X0031*
X00309Y00025*
X00309Y00025*
X00308Y00024*
X00307Y00024*
X00306Y00022*
X00305Y00021*
X00304Y0002*
X00304Y0002*
X00303Y00019*
X00303Y00018*
X00302Y00018*
X00302Y00018*
X00302Y00018*
X00302Y00017*
X00301Y00016*
X003Y00015*
X00299Y00014*
X00298Y00013*
X00297Y00012*
X00297Y00012*
X00296Y00012*
X00296Y00011*
X00296*
X00295Y00011*
X00294Y0001*
X00293Y0001*
X00293Y00009*
X00292Y00009*
X00292Y00009*
X00291Y00008*
X00291Y00008*
X00291*
X00291Y00008*
X0029Y00008*
X00289Y00008*
X00289Y00008*
X00288Y00008*
X00288*
Y00033*
X00292*
Y00014*
G37*
G36*
X00326Y-00243D02*
X0031D01*
Y-00262*
X00326*
Y-00267*
X00288*
Y-00262*
X00306*
Y-00243*
X00288*
Y-00238*
X00326*
Y-00243*
G37*
G36*
X00303Y-00206D02*
X00304Y-00206D01*
X00305Y-00207*
X00306Y-00207*
X00307Y-00207*
X00308Y-00207*
X00309Y-00208*
X00309Y-00208*
X0031Y-00208*
X00311Y-00209*
X00311Y-00209*
X00311Y-00209*
X00312Y-00209*
X00312Y-0021*
X00312Y-0021*
X00312Y-0021*
X00313Y-0021*
X00313Y-00211*
X00314Y-00212*
X00314Y-00213*
X00315Y-00213*
X00315Y-00214*
X00315Y-00215*
X00315Y-00216*
X00316Y-00216*
X00316Y-00217*
X00316Y-00217*
X00316Y-00218*
X00316Y-00218*
Y-00219*
Y-00219*
Y-00219*
X00316Y-0022*
X00316Y-00221*
X00316Y-00222*
X00315Y-00223*
X00315Y-00223*
X00315Y-00224*
X00314Y-00225*
X00314Y-00226*
X00314Y-00226*
X00313Y-00227*
X00313Y-00227*
X00313Y-00227*
X00312Y-00228*
X00312Y-00228*
X00312Y-00228*
X00312Y-00228*
X00311Y-00229*
X0031Y-00229*
X0031Y-0023*
X00309Y-0023*
X00308Y-0023*
X00307Y-00231*
X00305Y-00231*
X00304Y-00231*
X00304Y-00231*
X00303Y-00231*
X00302Y-00232*
X00302Y-00232*
X00301*
X003Y-00232*
X00299Y-00231*
X00298Y-00231*
X00297Y-00231*
X00296Y-00231*
X00295Y-0023*
X00294Y-0023*
X00294Y-0023*
X00293Y-0023*
X00292Y-00229*
X00292Y-00229*
X00292Y-00229*
X00291Y-00228*
X00291Y-00228*
X00291Y-00228*
X00291Y-00228*
X0029Y-00227*
X0029Y-00227*
X00289Y-00226*
X00289Y-00225*
X00288Y-00224*
X00288Y-00223*
X00288Y-00222*
X00288Y-00221*
X00288Y-00221*
X00287Y-0022*
X00287Y-0022*
X00287Y-00219*
Y-00219*
Y-00219*
Y-00219*
X00287Y-00217*
X00288Y-00215*
X00288Y-00214*
X00288Y-00213*
X00288Y-00213*
X00289Y-00212*
X00289Y-00212*
X00289Y-00212*
X00289Y-00211*
X00289Y-00211*
X00289Y-00211*
X0029Y-00211*
Y-00211*
X00291Y-0021*
X00292Y-00209*
X00293Y-00208*
X00294Y-00207*
X00295Y-00207*
X00295Y-00207*
X00295Y-00207*
X00296Y-00207*
X00296Y-00207*
X00296Y-00206*
X00296*
X00297Y-00211*
X00296Y-00212*
X00295Y-00212*
X00294Y-00213*
X00293Y-00213*
X00293Y-00214*
X00293Y-00214*
X00292Y-00214*
X00292Y-00214*
X00292Y-00215*
X00292Y-00216*
X00291Y-00216*
X00291Y-00217*
X00291Y-00218*
X00291Y-00218*
Y-00218*
Y-00218*
Y-00219*
X00291Y-00219*
X00291Y-0022*
X00291Y-00221*
X00292Y-00222*
X00292Y-00223*
X00293Y-00223*
X00293Y-00224*
X00293Y-00224*
X00293Y-00224*
Y-00224*
X00294Y-00225*
X00296Y-00226*
X00297Y-00226*
X00298Y-00226*
X00299Y-00227*
X00299Y-00227*
X003Y-00227*
X003*
X003Y-00227*
X003*
Y-00206*
X00301Y-00206*
X00302*
X00303Y-00206*
G37*
G36*
X00307Y-00329D02*
X00308Y-00329D01*
X00309Y-00329*
X0031Y-00329*
X0031Y-0033*
X00311Y-0033*
X00311Y-0033*
X00311Y-0033*
X00312Y-0033*
X00313Y-00331*
X00313Y-00331*
X00314Y-00332*
X00314Y-00332*
X00314Y-00333*
X00315Y-00333*
X00315Y-00333*
X00315Y-00334*
X00315Y-00335*
X00316Y-00336*
X00316Y-00337*
X00316Y-00337*
X00316Y-00338*
Y-00338*
Y-00338*
Y-00338*
Y-00338*
X00316Y-00339*
X00316Y-0034*
X00316Y-00341*
X00315Y-00342*
X00315Y-00343*
X00314Y-00344*
X00314Y-00344*
X00314Y-00345*
X00313Y-00345*
X00313Y-00346*
X00313Y-00346*
X00312Y-00346*
X00312Y-00346*
X00312Y-00346*
X00312Y-00346*
X00326*
Y-00351*
X00288*
Y-00346*
X00303*
X00304Y-00346*
X00305Y-00346*
X00306Y-00346*
X00307Y-00346*
X00307Y-00346*
X00308Y-00346*
X00308Y-00346*
X00308Y-00346*
X00309Y-00345*
X00309Y-00345*
X0031Y-00345*
X0031Y-00344*
X0031Y-00344*
X00311Y-00343*
X00311Y-00343*
X00311Y-00343*
X00311Y-00342*
X00311Y-00342*
X00312Y-00341*
X00312Y-00341*
X00312Y-0034*
X00312Y-0034*
Y-00339*
Y-00339*
X00312Y-00338*
X00312Y-00337*
X00311Y-00337*
X00311Y-00336*
X00311Y-00336*
X00311Y-00335*
X0031Y-00335*
X0031Y-00335*
X0031Y-00335*
X00309Y-00334*
X00308Y-00334*
X00307Y-00334*
X00306Y-00334*
X00306Y-00334*
X00288*
Y-00329*
X00305*
X00307Y-00329*
G37*
G36*
X00308Y-00272D02*
X00309Y-00272D01*
X0031Y-00272*
X00312Y-00272*
X00313Y-00273*
X00314Y-00273*
X00314Y-00273*
X00315Y-00273*
X00315Y-00274*
X00316Y-00274*
X00316Y-00274*
X00316Y-00274*
X00317Y-00274*
X00317Y-00274*
X00318Y-00275*
X0032Y-00276*
X00321Y-00278*
X00321Y-00278*
X00322Y-00279*
X00322Y-00279*
X00323Y-0028*
X00323Y-0028*
X00323Y-00281*
X00323Y-00281*
X00324Y-00281*
X00324Y-00281*
X00324Y-00281*
X00324Y-00282*
X00325Y-00283*
X00325Y-00285*
X00326Y-00287*
X00326Y-00288*
X00326Y-00289*
X00326Y-00289*
X00326Y-0029*
Y-0029*
X00326Y-00291*
Y-00291*
Y-00291*
Y-00291*
Y-00292*
X00326Y-00293*
X00326Y-00295*
X00326Y-00296*
X00325Y-00297*
X00325Y-00298*
X00325Y-00298*
X00325Y-00299*
X00324Y-00299*
X00324Y-003*
X00324Y-003*
X00324Y-003*
X00324Y-00301*
X00324Y-00301*
X00323Y-00302*
X00322Y-00304*
X0032Y-00305*
X00319Y-00306*
X00319Y-00306*
X00318Y-00307*
X00318Y-00307*
X00317Y-00307*
X00317Y-00308*
X00317Y-00308*
X00317Y-00308*
X00317Y-00308*
X00316Y-00308*
X00315Y-00309*
X00313Y-00309*
X00311Y-0031*
X0031Y-0031*
X00309Y-0031*
X00309Y-0031*
X00308Y-0031*
X00308*
X00307Y-0031*
X00307*
X00306Y-0031*
X00305Y-0031*
X00303Y-0031*
X00302Y-0031*
X00301Y-00309*
X003Y-00309*
X00299Y-00309*
X00299Y-00309*
X00298Y-00309*
X00298Y-00308*
X00298Y-00308*
X00297Y-00308*
X00297Y-00308*
X00297*
X00296Y-00307*
X00294Y-00306*
X00293Y-00305*
X00292Y-00303*
X00291Y-00303*
X00291Y-00302*
X00291Y-00302*
X0029Y-00301*
X0029Y-00301*
X0029Y-00301*
X0029Y-00301*
X0029Y-00301*
X0029Y-003*
X00289Y-00299*
X00288Y-00297*
X00288Y-00296*
X00288Y-00294*
X00288Y-00293*
X00288Y-00293*
X00287Y-00292*
Y-00292*
X00287Y-00292*
Y-00291*
Y-00291*
Y-00291*
X00287Y-0029*
X00288Y-00289*
X00288Y-00287*
X00288Y-00286*
X00288Y-00285*
X00289Y-00284*
X00289Y-00284*
X00289Y-00283*
X00289Y-00283*
X0029Y-00282*
X0029Y-00282*
X0029Y-00282*
X0029Y-00281*
Y-00281*
X00291Y-0028*
X00292Y-00278*
X00293Y-00277*
X00295Y-00276*
X00295Y-00276*
X00296Y-00275*
X00296Y-00275*
X00296Y-00275*
X00297Y-00274*
X00297Y-00274*
X00297Y-00274*
X00297Y-00274*
X00298Y-00274*
X00299Y-00273*
X00301Y-00273*
X00302Y-00272*
X00304Y-00272*
X00304Y-00272*
X00305Y-00272*
X00306Y-00272*
X00306*
X00306Y-00272*
X00307*
X00308Y-00272*
G37*
G36*
X00292Y-00312D02*
X00292Y-00312D01*
X00292Y-00312*
Y-00313*
X00292Y-00313*
Y-00313*
Y-00314*
Y-00314*
Y-00314*
X00292Y-00314*
X00292Y-00315*
X00292Y-00315*
X00292Y-00315*
X00292Y-00316*
X00293Y-00316*
X00293Y-00316*
X00293Y-00316*
X00293Y-00316*
X00294Y-00316*
X00295Y-00316*
X00295Y-00316*
X00312*
Y-00312*
X00315*
Y-00316*
X00325*
X00322Y-00321*
X00315*
Y-00324*
X00312*
Y-00321*
X00294*
X00294Y-00321*
X00293Y-00321*
X00293*
X00292Y-00321*
X00292Y-00321*
X00291Y-00321*
X00291Y-00321*
X0029Y-0032*
X0029*
X0029Y-0032*
X0029Y-0032*
X00289Y-0032*
X00289Y-00319*
X00289Y-00319*
X00288Y-00319*
X00288Y-00319*
X00288Y-00319*
X00288Y-00318*
X00288Y-00317*
X00288Y-00317*
X00288Y-00316*
X00288Y-00315*
X00288Y-00315*
Y-00315*
Y-00315*
X00288Y-00313*
X00288Y-00313*
X00288Y-00312*
X00288Y-00312*
X00288Y-00311*
X00288Y-00311*
Y-00311*
X00292Y-00312*
G37*
G36*
X00326Y-00392D02*
X0032D01*
Y-00388*
X00326*
Y-00392*
G37*
G36*
X00303Y-00118D02*
X00304Y-00118D01*
X00305Y-00118*
X00306Y-00119*
X00307Y-00119*
X00308Y-00119*
X00309Y-00119*
X0031Y-0012*
X0031Y-0012*
X00311Y-0012*
X00311Y-00121*
X00312Y-00121*
X00312Y-00121*
X00312Y-00121*
X00312Y-00122*
X00312Y-00122*
X00313Y-00122*
X00313Y-00123*
X00314Y-00124*
X00314Y-00125*
X00315Y-00125*
X00315Y-00126*
X00315Y-00128*
X00316Y-00128*
X00316Y-00129*
X00316Y-00129*
X00316Y-0013*
X00316Y-0013*
Y-00131*
Y-00131*
Y-00131*
X00316Y-00132*
X00316Y-00133*
X00315Y-00134*
X00315Y-00136*
X00315Y-00136*
X00314Y-00137*
X00314Y-00138*
X00314Y-00138*
X00314Y-00138*
X00313Y-00139*
X00313Y-00139*
X00313Y-00139*
X00313Y-00139*
X00313Y-00139*
X00312Y-0014*
X00311Y-00141*
X0031Y-00141*
X0031Y-00142*
X00309Y-00142*
X00308Y-00143*
X00307Y-00143*
X00306Y-00143*
X00305Y-00143*
X00304Y-00143*
X00303Y-00144*
X00303Y-00144*
X00302*
X00302Y-00144*
X00302*
X003Y-00144*
X00299Y-00143*
X00298Y-00143*
X00297Y-00143*
X00296Y-00143*
X00295Y-00143*
X00294Y-00142*
X00294Y-00142*
X00293Y-00142*
X00292Y-00141*
X00292Y-00141*
X00292Y-00141*
X00291Y-0014*
X00291Y-0014*
X00291Y-0014*
X00291Y-0014*
X0029Y-00139*
X0029Y-00139*
X00289Y-00138*
X00289Y-00137*
X00288Y-00136*
X00288Y-00136*
X00288Y-00134*
X00288Y-00133*
X00288Y-00133*
X00287Y-00132*
X00287Y-00132*
X00287Y-00131*
Y-00131*
Y-00131*
Y-00131*
X00287Y-00129*
X00288Y-00128*
X00288Y-00127*
X00288Y-00126*
X00288Y-00125*
X00289Y-00125*
X00289Y-00125*
X00289Y-00125*
X00289Y-00124*
X00289Y-00124*
Y-00124*
X0029Y-00123*
X0029Y-00122*
X00291Y-00121*
X00292Y-00121*
X00293Y-0012*
X00293Y-0012*
X00293Y-0012*
X00294Y-0012*
X00294Y-0012*
X00294*
X00295Y-00119*
X00296Y-00119*
X00298Y-00118*
X00299Y-00118*
X003Y-00118*
X003*
X00301Y-00118*
X00301Y-00118*
X00302*
X00303Y-00118*
G37*
G36*
X00326Y-00154D02*
X00312D01*
X00313Y-00154*
X00313Y-00155*
X00314Y-00155*
X00314Y-00156*
X00314Y-00156*
X00315Y-00157*
X00315Y-00157*
X00315Y-00157*
X00315Y-00158*
X00315Y-00159*
X00316Y-00159*
X00316Y-0016*
X00316Y-00161*
X00316Y-00161*
Y-00161*
Y-00161*
Y-00161*
X00316Y-00163*
X00316Y-00164*
X00315Y-00165*
X00315Y-00166*
X00315Y-00166*
X00314Y-00167*
X00314Y-00167*
X00314Y-00167*
X00314Y-00167*
Y-00168*
X00313Y-00169*
X00313Y-00169*
X00312Y-0017*
X00311Y-00171*
X0031Y-00171*
X0031Y-00171*
X00309Y-00171*
X00309Y-00172*
X00309Y-00172*
X00309*
X00308Y-00172*
X00306Y-00172*
X00305Y-00173*
X00304Y-00173*
X00303Y-00173*
X00303*
X00302Y-00173*
X00302*
X003Y-00173*
X00299Y-00173*
X00297Y-00173*
X00296Y-00172*
X00296Y-00172*
X00295Y-00172*
X00295Y-00172*
X00295Y-00172*
X00294Y-00172*
X00294Y-00172*
X00294Y-00172*
X00294*
X00293Y-00171*
X00292Y-0017*
X00291Y-00169*
X0029Y-00169*
X0029Y-00168*
X00289Y-00168*
X00289Y-00167*
X00289Y-00167*
Y-00167*
X00288Y-00166*
X00288Y-00165*
X00288Y-00164*
X00288Y-00163*
X00287Y-00162*
X00287Y-00162*
X00287Y-00162*
Y-00161*
Y-00161*
Y-00161*
X00287Y-0016*
X00287Y-00159*
X00288Y-00159*
X00288Y-00158*
X00288Y-00157*
X00289Y-00157*
X00289Y-00156*
X00289Y-00156*
X0029Y-00155*
X0029Y-00155*
X0029Y-00154*
X00291Y-00154*
X00291Y-00154*
X00291Y-00154*
X00291Y-00154*
X00291Y-00154*
X00288*
Y-00149*
X00326*
Y-00154*
G37*
G36*
Y-00183D02*
X00312D01*
X00313Y-00184*
X00313Y-00184*
X00314Y-00185*
X00314Y-00185*
X00314Y-00186*
X00315Y-00186*
X00315Y-00186*
X00315Y-00186*
X00315Y-00187*
X00315Y-00188*
X00316Y-00189*
X00316Y-00189*
X00316Y-0019*
X00316Y-0019*
Y-00191*
Y-00191*
Y-00191*
X00316Y-00192*
X00316Y-00193*
X00315Y-00194*
X00315Y-00195*
X00315Y-00196*
X00314Y-00196*
X00314Y-00197*
X00314Y-00197*
X00314Y-00197*
Y-00197*
X00313Y-00198*
X00313Y-00199*
X00312Y-00199*
X00311Y-002*
X0031Y-002*
X0031Y-00201*
X00309Y-00201*
X00309Y-00201*
X00309Y-00201*
X00309*
X00308Y-00201*
X00306Y-00202*
X00305Y-00202*
X00304Y-00202*
X00303Y-00202*
X00303*
X00302Y-00202*
X00302*
X003Y-00202*
X00299Y-00202*
X00297Y-00202*
X00296Y-00202*
X00296Y-00201*
X00295Y-00201*
X00295Y-00201*
X00295Y-00201*
X00294Y-00201*
X00294Y-00201*
X00294Y-00201*
X00294*
X00293Y-002*
X00292Y-002*
X00291Y-00199*
X0029Y-00198*
X0029Y-00198*
X00289Y-00197*
X00289Y-00197*
X00289Y-00197*
Y-00197*
X00288Y-00196*
X00288Y-00195*
X00288Y-00194*
X00288Y-00193*
X00287Y-00192*
X00287Y-00191*
X00287Y-00191*
Y-00191*
Y-00191*
Y-00191*
X00287Y-0019*
X00287Y-00189*
X00288Y-00188*
X00288Y-00187*
X00288Y-00187*
X00289Y-00186*
X00289Y-00185*
X00289Y-00185*
X0029Y-00184*
X0029Y-00184*
X0029Y-00184*
X00291Y-00183*
X00291Y-00183*
X00291Y-00183*
X00291Y-00183*
X00291Y-00183*
X00288*
Y-00179*
X00326*
Y-00183*
G37*
G36*
X00315Y-00362D02*
X00312D01*
X00313Y-00363*
X00313Y-00364*
X00314Y-00364*
X00314Y-00365*
X00315Y-00366*
X00315Y-00366*
X00315Y-00367*
X00315Y-00368*
X00316Y-00368*
X00316Y-00369*
X00316Y-00369*
X00316Y-0037*
X00316Y-0037*
Y-0037*
Y-0037*
Y-0037*
X00316Y-00372*
X00316Y-00373*
X00315Y-00374*
X00315Y-00375*
X00315Y-00376*
X00314Y-00376*
X00314Y-00376*
X00314Y-00377*
X00314Y-00377*
Y-00377*
X00313Y-00378*
X00312Y-00379*
X00312Y-00379*
X00311Y-0038*
X0031Y-0038*
X00309Y-00381*
X00309Y-00381*
X00309Y-00381*
X00309Y-00381*
X00309*
X00308Y-00381*
X00306Y-00382*
X00305Y-00382*
X00304Y-00382*
X00303Y-00382*
X00303*
X00302Y-00382*
X00302*
X00301Y-00382*
X003Y-00382*
X00298Y-00382*
X00297Y-00382*
X00296Y-00381*
X00295Y-00381*
X00295Y-00381*
X00294Y-0038*
X00294Y-0038*
X00293Y-0038*
X00293Y-0038*
X00292Y-00379*
X00292Y-00379*
X00292Y-00379*
X00292Y-00379*
X00291Y-00379*
X00291Y-00378*
X0029Y-00377*
X0029Y-00377*
X00289Y-00376*
X00289Y-00375*
X00289Y-00374*
X00288Y-00374*
X00288Y-00373*
X00288Y-00372*
X00288Y-00372*
X00288Y-00371*
Y-00371*
X00288Y-00371*
Y-0037*
Y-0037*
X00288Y-0037*
X00288Y-00369*
X00288Y-00368*
X00288Y-00367*
X00289Y-00366*
X0029Y-00365*
X0029Y-00364*
X0029Y-00364*
X00291Y-00364*
X00291Y-00363*
X00291Y-00363*
X00291Y-00363*
X00291Y-00363*
X00291Y-00363*
X0029*
X00289Y-00363*
X00288*
X00288Y-00363*
X00287*
X00287Y-00363*
X00286Y-00363*
X00286Y-00363*
X00286Y-00363*
X00286*
X00285Y-00363*
X00284Y-00364*
X00283Y-00364*
X00283Y-00365*
X00282Y-00365*
X00282Y-00365*
X00282Y-00366*
X00282Y-00366*
X00282Y-00366*
X00281Y-00367*
X00281Y-00368*
X00281Y-00369*
X00281Y-00369*
X00281Y-0037*
Y-0037*
Y-0037*
Y-0037*
Y-00371*
X00281Y-00372*
X00281Y-00373*
X00281Y-00373*
X00281Y-00374*
X00282Y-00375*
X00282Y-00375*
X00282Y-00375*
X00282Y-00375*
X00282Y-00376*
X00283Y-00376*
X00283Y-00376*
X00284Y-00377*
X00284Y-00377*
X00285Y-00377*
X00285Y-00377*
X00285*
X00286Y-00381*
X00285*
X00284Y-00381*
X00283Y-00381*
X00283Y-00381*
X00282Y-0038*
X00281Y-0038*
X0028Y-00379*
X00279Y-00379*
X00279Y-00379*
X00279Y-00379*
X00279Y-00378*
X00278Y-00377*
X00278Y-00376*
X00277Y-00375*
X00277Y-00373*
X00277Y-00373*
X00277Y-00372*
X00277Y-00372*
Y-00371*
X00277Y-00371*
Y-00371*
Y-00371*
Y-00371*
X00277Y-00369*
X00277Y-00368*
X00277Y-00366*
X00278Y-00366*
X00278Y-00365*
X00278Y-00364*
X00278Y-00364*
X00278Y-00364*
X00278Y-00364*
X00278Y-00364*
Y-00364*
X00279Y-00363*
X0028Y-00362*
X0028Y-00361*
X00281Y-0036*
X00282Y-0036*
X00282Y-0036*
X00282Y-0036*
X00283Y-00359*
X00283*
X00283Y-00359*
X00284Y-00359*
X00284Y-00359*
X00285Y-00359*
X00287Y-00358*
X00288Y-00358*
X00289Y-00358*
X00289Y-00358*
X0029*
X00291Y-00358*
X00315*
Y-00362*
G37*
G36*
X-00232Y-00252D02*
X-00231Y-00252D01*
X-0023Y-00253*
X-00229Y-00253*
X-00228Y-00253*
X-00227Y-00254*
X-00227Y-00254*
X-00226Y-00254*
X-00226Y-00255*
X-00225Y-00255*
X-00225Y-00256*
X-00224Y-00256*
X-00224Y-00256*
X-00224Y-00257*
X-00224Y-00257*
X-00224Y-00257*
Y-00253*
X-0022*
Y-0028*
X-00224*
Y-00265*
Y-00264*
X-00224Y-00263*
X-00225Y-00263*
X-00225Y-00262*
X-00225Y-00261*
X-00225Y-00261*
X-00225Y-0026*
X-00225Y-0026*
X-00226Y-00259*
X-00226Y-00259*
X-00226Y-00259*
X-00226Y-00259*
X-00226Y-00258*
X-00226Y-00258*
X-00227Y-00257*
X-00228Y-00257*
X-00229Y-00257*
X-0023Y-00256*
X-00231Y-00256*
X-00231Y-00256*
X-00231Y-00256*
X-00232*
X-00232Y-00256*
X-00233Y-00256*
X-00233Y-00257*
X-00234Y-00257*
X-00234Y-00257*
X-00235Y-00257*
X-00235Y-00257*
X-00235Y-00257*
X-00235Y-00257*
X-00236Y-00258*
X-00236Y-00258*
X-00236Y-00259*
X-00236Y-00259*
X-00237Y-00259*
X-00237Y-00259*
Y-00259*
X-00237Y-0026*
X-00237Y-00261*
X-00237Y-00261*
X-00237Y-00262*
X-00237Y-00263*
Y-00263*
Y-00263*
Y-00264*
Y-00264*
Y-0028*
X-00242*
Y-00263*
Y-00262*
X-00242Y-00261*
X-00242Y-00261*
Y-0026*
X-00242Y-00259*
X-00242Y-00259*
X-00242Y-00259*
Y-00259*
X-00242Y-00258*
X-00241Y-00257*
X-00241Y-00257*
X-00241Y-00256*
X-00241Y-00256*
X-0024Y-00256*
X-0024Y-00256*
X-0024Y-00255*
X-0024Y-00255*
X-00239Y-00254*
X-00239Y-00254*
X-00238Y-00254*
X-00238Y-00253*
X-00237Y-00253*
X-00237Y-00253*
X-00237Y-00253*
X-00236Y-00253*
X-00235Y-00253*
X-00235Y-00252*
X-00234Y-00252*
X-00233Y-00252*
X-00233Y-00252*
X-00233*
X-00232Y-00252*
G37*
G36*
X00303Y-00442D02*
X00305Y-00442D01*
X00306Y-00442*
X00307Y-00443*
X00308Y-00443*
X00308Y-00443*
X00308Y-00443*
X00309Y-00443*
X00309Y-00443*
X00309Y-00443*
X00309*
X0031Y-00444*
X00311Y-00444*
X00312Y-00445*
X00313Y-00446*
X00313Y-00446*
X00314Y-00447*
X00314Y-00447*
X00314Y-00447*
Y-00447*
X00315Y-00448*
X00315Y-00449*
X00315Y-0045*
X00316Y-00451*
X00316Y-00452*
X00316Y-00453*
X00316Y-00453*
Y-00453*
Y-00453*
Y-00453*
Y-00453*
X00316Y-00454*
X00316Y-00455*
X00316Y-00456*
X00315Y-00457*
X00315Y-00457*
X00315Y-00458*
X00315Y-00458*
X00315Y-00458*
X00314Y-00459*
X00314Y-00459*
X00313Y-0046*
X00313Y-0046*
X00312Y-00461*
X00312Y-00461*
X00312Y-00461*
X00312Y-00461*
X00315*
Y-00466*
X00277*
Y-00461*
X00291*
X0029Y-00461*
X0029Y-0046*
X00289Y-00459*
X00289Y-00459*
X00289Y-00459*
X00288Y-00458*
X00288Y-00458*
X00288Y-00458*
X00288Y-00457*
X00288Y-00457*
X00288Y-00456*
X00287Y-00455*
X00287Y-00455*
X00287Y-00454*
Y-00454*
Y-00454*
X00287Y-00453*
X00288Y-00452*
X00288Y-00451*
X00288Y-0045*
X00288Y-00449*
X00289Y-00448*
X00289Y-00448*
X00289Y-00448*
X00289Y-00448*
Y-00448*
X0029Y-00447*
X00291Y-00446*
X00291Y-00445*
X00292Y-00445*
X00293Y-00444*
X00294Y-00444*
X00294Y-00444*
X00294Y-00443*
X00294Y-00443*
X00294*
X00295Y-00443*
X00297Y-00442*
X00298Y-00442*
X00299Y-00442*
X003Y-00442*
X00301*
X00301Y-00442*
X00302*
X00303Y-00442*
G37*
G36*
X-00323Y-0028D02*
X-00328D01*
Y-00263*
X-00335*
X-00335Y-00263*
X-00336*
X-00336Y-00264*
X-00336Y-00264*
X-00337*
X-00337Y-00264*
X-00337*
X-00338Y-00264*
X-00338Y-00264*
X-00338Y-00264*
X-00339Y-00264*
X-00339Y-00265*
X-00339Y-00265*
X-00339Y-00265*
X-00339Y-00265*
X-0034Y-00265*
X-00341Y-00266*
X-00341Y-00267*
X-00341Y-00267*
X-00341Y-00267*
X-00342Y-00267*
X-00342Y-00268*
X-00343Y-00269*
X-00343Y-0027*
X-00344Y-0027*
X-00344Y-00271*
X-00345Y-00272*
X-00345Y-00272*
X-00345Y-00272*
X-00345Y-00272*
Y-00272*
X-0035Y-0028*
X-00356*
X-0035Y-0027*
X-00349Y-00269*
X-00348Y-00268*
X-00348Y-00267*
X-00347Y-00266*
X-00346Y-00266*
X-00346Y-00265*
X-00346Y-00265*
X-00346Y-00265*
X-00345Y-00265*
X-00345Y-00264*
X-00344Y-00264*
X-00343Y-00263*
X-00343Y-00263*
X-00343Y-00263*
X-00343Y-00263*
X-00344Y-00263*
X-00345Y-00263*
X-00345Y-00262*
X-00346Y-00262*
X-00347Y-00262*
X-00348Y-00262*
X-00348Y-00261*
X-00349Y-00261*
X-00349Y-00261*
X-0035Y-0026*
X-0035Y-0026*
X-0035Y-0026*
X-0035Y-0026*
X-00351Y-0026*
X-00351Y-0026*
X-00351Y-0026*
X-00351Y-00259*
X-00352Y-00258*
X-00352Y-00257*
X-00353Y-00256*
X-00353Y-00255*
X-00353Y-00254*
X-00353Y-00254*
Y-00253*
X-00353Y-00253*
Y-00253*
Y-00253*
Y-00253*
X-00353Y-00252*
X-00353Y-00251*
X-00353Y-0025*
X-00353Y-00249*
X-00352Y-00248*
X-00352Y-00248*
X-00352Y-00247*
X-00352Y-00247*
Y-00247*
X-00351Y-00246*
X-0035Y-00245*
X-0035Y-00245*
X-00349Y-00244*
X-00348Y-00244*
X-00348Y-00244*
X-00348Y-00244*
X-00348Y-00243*
X-00348*
X-00347Y-00243*
X-00346Y-00243*
X-00345Y-00243*
X-00344Y-00243*
X-00343Y-00243*
X-00342Y-00242*
X-00341*
X-00341Y-00242*
X-00323*
Y-0028*
G37*
G36*
X-00314Y-00252D02*
X-00314Y-00252D01*
X-00313Y-00253*
X-00313Y-00253*
X-00312Y-00253*
X-00312Y-00253*
X-00312Y-00253*
X-00312Y-00253*
X-00311Y-00254*
X-00311Y-00254*
X-0031Y-00255*
X-0031Y-00255*
X-0031Y-00256*
X-00309Y-00257*
X-00309Y-00257*
X-00309Y-00257*
Y-00253*
X-00305*
Y-0028*
X-00309*
Y-00266*
X-0031Y-00265*
X-0031Y-00264*
X-0031Y-00263*
X-0031Y-00262*
X-0031Y-00261*
X-0031Y-00261*
X-0031Y-00261*
X-0031Y-0026*
X-0031Y-0026*
X-00311Y-00259*
X-00311Y-00259*
X-00311Y-00259*
X-00312Y-00258*
X-00312Y-00258*
X-00312Y-00258*
X-00312Y-00258*
X-00312Y-00258*
X-00313Y-00257*
X-00313Y-00257*
X-00314Y-00257*
X-00314Y-00257*
X-00314Y-00257*
X-00315*
X-00315Y-00257*
X-00316Y-00257*
X-00316Y-00257*
X-00317Y-00257*
X-00317Y-00258*
X-00318Y-00258*
X-00318Y-00258*
X-00318Y-00258*
X-0032Y-00254*
X-00319Y-00253*
X-00318Y-00253*
X-00317Y-00253*
X-00316Y-00252*
X-00316Y-00252*
X-00315Y-00252*
X-00315*
X-00314Y-00252*
G37*
G36*
X-002D02*
X-002Y-00252D01*
X-00199Y-00253*
X-00198Y-00253*
X-00197Y-00253*
X-00196Y-00253*
X-00195Y-00254*
X-00195Y-00254*
X-00194Y-00254*
X-00194Y-00255*
X-00193Y-00255*
X-00193Y-00255*
X-00193Y-00256*
X-00192Y-00256*
X-00192Y-00256*
X-00192Y-00256*
X-00192Y-00257*
X-00191Y-00258*
X-00191Y-00258*
X-0019Y-00259*
X-0019Y-0026*
X-0019Y-00261*
X-00189Y-00263*
X-00189Y-00264*
X-00189Y-00264*
X-00189Y-00265*
X-00189Y-00266*
X-00189Y-00266*
Y-00266*
Y-00267*
Y-00267*
X-00189Y-00268*
X-00189Y-00269*
X-00189Y-0027*
X-00189Y-00271*
X-0019Y-00272*
X-0019Y-00273*
X-0019Y-00274*
X-00191Y-00274*
X-00191Y-00275*
X-00191Y-00276*
X-00191Y-00276*
X-00192Y-00276*
X-00192Y-00277*
X-00192Y-00277*
X-00192Y-00277*
X-00192Y-00277*
X-00193Y-00278*
X-00194Y-00278*
X-00194Y-00279*
X-00195Y-00279*
X-00196Y-0028*
X-00197Y-0028*
X-00198Y-0028*
X-00199Y-0028*
X-002Y-00281*
X-002Y-00281*
X-00201Y-00281*
X-00201Y-00281*
X-00202*
X-00204Y-00281*
X-00205Y-0028*
X-00206Y-0028*
X-00207Y-0028*
X-00207Y-0028*
X-00208Y-00279*
X-00208Y-00279*
X-00209Y-00279*
X-00209Y-00279*
X-00209Y-00279*
X-00209Y-00279*
X-0021Y-00279*
X-0021*
X-00211Y-00278*
X-00212Y-00276*
X-00212Y-00275*
X-00213Y-00274*
X-00213Y-00273*
X-00213Y-00273*
X-00214Y-00273*
X-00214Y-00272*
X-00214Y-00272*
X-00214Y-00272*
Y-00272*
X-00209Y-00271*
X-00209Y-00272*
X-00208Y-00273*
X-00208Y-00274*
X-00207Y-00275*
X-00207Y-00275*
X-00207Y-00275*
X-00206Y-00276*
X-00206Y-00276*
X-00205Y-00276*
X-00205Y-00276*
X-00204Y-00277*
X-00203Y-00277*
X-00203Y-00277*
X-00202Y-00277*
X-00202*
X-00201Y-00277*
X-00201Y-00277*
X-00199Y-00277*
X-00198Y-00276*
X-00198Y-00276*
X-00197Y-00275*
X-00196Y-00275*
X-00196Y-00275*
X-00196Y-00275*
X-00196*
X-00195Y-00274*
X-00195Y-00273*
X-00194Y-00271*
X-00194Y-0027*
X-00194Y-00269*
X-00194Y-00269*
X-00194Y-00268*
Y-00268*
X-00194Y-00268*
Y-00268*
Y-00268*
X-00214*
X-00214Y-00267*
Y-00267*
Y-00267*
Y-00267*
X-00214Y-00265*
X-00214Y-00264*
X-00214Y-00263*
X-00213Y-00262*
X-00213Y-00261*
X-00213Y-0026*
X-00213Y-00259*
X-00212Y-00259*
X-00212Y-00258*
X-00212Y-00257*
X-00211Y-00257*
X-00211Y-00257*
X-00211Y-00256*
X-00211Y-00256*
X-00211Y-00256*
X-00211Y-00256*
X-0021Y-00255*
X-00209Y-00255*
X-00208Y-00254*
X-00208Y-00254*
X-00207Y-00253*
X-00206Y-00253*
X-00205Y-00253*
X-00205Y-00253*
X-00204Y-00253*
X-00203Y-00252*
X-00203Y-00252*
X-00202Y-00252*
X-00202Y-00252*
X-00202*
X-002Y-00252*
G37*
G36*
X-00381D02*
X-0038Y-00252D01*
X-00379Y-00253*
X-00378Y-00253*
X-00377Y-00253*
X-00377Y-00254*
X-00376Y-00254*
X-00376Y-00254*
X-00376Y-00254*
X-00376*
X-00375Y-00255*
X-00374Y-00256*
X-00374Y-00256*
X-00373Y-00257*
X-00373Y-00258*
X-00372Y-00259*
X-00372Y-00259*
X-00372Y-00259*
X-00372Y-00259*
Y-00259*
X-00371Y-0026*
X-00371Y-00262*
X-00371Y-00263*
X-00371Y-00264*
X-00371Y-00265*
Y-00265*
X-00371Y-00266*
Y-00266*
Y-00266*
Y-00266*
Y-00266*
X-00371Y-00267*
X-00371Y-00268*
X-00371Y-0027*
X-00371Y-00271*
X-00372Y-00272*
X-00372Y-00273*
X-00372Y-00273*
X-00372Y-00274*
X-00373Y-00275*
X-00373Y-00275*
X-00373Y-00275*
X-00373Y-00276*
X-00373Y-00276*
X-00374Y-00276*
X-00374Y-00276*
X-00374Y-00277*
X-00375Y-00277*
X-00376Y-00278*
X-00376Y-00279*
X-00377Y-00279*
X-00378Y-00279*
X-00378Y-00279*
X-00379Y-0028*
X-0038Y-0028*
X-0038Y-0028*
X-00381Y-0028*
X-00381Y-0028*
X-00382*
X-00382Y-0028*
X-00382*
X-00383Y-0028*
X-00384Y-0028*
X-00385Y-0028*
X-00385Y-0028*
X-00387Y-00279*
X-00388Y-00278*
X-00388Y-00278*
X-00389Y-00278*
X-00389Y-00277*
X-00389Y-00277*
X-0039Y-00277*
X-0039Y-00277*
X-0039Y-00277*
X-0039Y-00277*
Y-00277*
Y-00278*
X-0039Y-00279*
Y-00279*
Y-0028*
X-0039Y-0028*
Y-00281*
X-0039Y-00281*
X-0039Y-00282*
X-0039Y-00282*
X-0039Y-00282*
Y-00283*
X-00389Y-00283*
X-00389Y-00284*
X-00389Y-00285*
X-00388Y-00285*
X-00388Y-00286*
X-00388Y-00286*
X-00387Y-00286*
X-00387Y-00286*
X-00387Y-00287*
X-00386Y-00287*
X-00385Y-00287*
X-00384Y-00287*
X-00383Y-00287*
X-00383Y-00287*
X-00382*
X-00381Y-00287*
X-0038Y-00287*
X-00379Y-00287*
X-00379Y-00287*
X-00378Y-00287*
X-00378Y-00286*
X-00378Y-00286*
X-00378Y-00286*
X-00377Y-00286*
X-00377Y-00285*
X-00376Y-00285*
X-00376Y-00284*
X-00376Y-00284*
X-00376Y-00283*
X-00376Y-00283*
Y-00283*
X-00371Y-00282*
Y-00283*
X-00372Y-00284*
X-00372Y-00285*
X-00372Y-00285*
X-00372Y-00286*
X-00373Y-00287*
X-00373Y-00288*
X-00374Y-00289*
X-00374Y-00289*
X-00374Y-00289*
X-00374Y-00289*
X-00376Y-0029*
X-00377Y-0029*
X-00378Y-00291*
X-00379Y-00291*
X-0038Y-00291*
X-00381Y-00291*
X-00381Y-00291*
X-00381*
X-00382Y-00291*
X-00382*
X-00384Y-00291*
X-00385Y-00291*
X-00386Y-00291*
X-00387Y-0029*
X-00388Y-0029*
X-00388Y-0029*
X-00389Y-0029*
X-00389Y-0029*
X-00389Y-0029*
X-00389Y-0029*
X-00389*
X-0039Y-00289*
X-00391Y-00288*
X-00392Y-00288*
X-00392Y-00287*
X-00393Y-00286*
X-00393Y-00286*
X-00393Y-00286*
X-00393Y-00286*
Y-00286*
X-00394Y-00285*
X-00394Y-00284*
X-00394Y-00284*
X-00394Y-00283*
X-00394Y-00281*
X-00394Y-0028*
X-00395Y-00279*
X-00395Y-00279*
Y-00278*
X-00395Y-00278*
Y-00277*
Y-00277*
Y-00277*
Y-00276*
Y-00253*
X-0039*
Y-00256*
X-0039Y-00255*
X-00389Y-00255*
X-00388Y-00254*
X-00388Y-00254*
X-00387Y-00254*
X-00386Y-00253*
X-00386Y-00253*
X-00385Y-00253*
X-00385Y-00253*
X-00384Y-00252*
X-00384Y-00252*
X-00383Y-00252*
X-00383Y-00252*
X-00382*
X-00381Y-00252*
G37*
G36*
X-00361Y-00248D02*
X-00365D01*
Y-00242*
X-00361*
Y-00248*
G37*
G36*
X00303Y-00471D02*
X00304Y-00471D01*
X00305Y-00471*
X00306Y-00472*
X00307Y-00472*
X00308Y-00472*
X00309Y-00473*
X0031Y-00473*
X0031Y-00473*
X00311Y-00474*
X00311Y-00474*
X00312Y-00474*
X00312Y-00474*
X00312Y-00474*
X00312Y-00475*
X00312Y-00475*
X00313Y-00475*
X00313Y-00476*
X00314Y-00477*
X00314Y-00478*
X00315Y-00478*
X00315Y-00479*
X00315Y-00481*
X00316Y-00481*
X00316Y-00482*
X00316Y-00482*
X00316Y-00483*
X00316Y-00483*
Y-00484*
Y-00484*
Y-00484*
X00316Y-00485*
X00316Y-00486*
X00315Y-00487*
X00315Y-00489*
X00315Y-0049*
X00314Y-0049*
X00314Y-00491*
X00314Y-00491*
X00314Y-00492*
X00313Y-00492*
X00313Y-00492*
X00313Y-00492*
X00313Y-00492*
X00313Y-00493*
X00312Y-00493*
X00311Y-00494*
X0031Y-00494*
X0031Y-00495*
X00309Y-00495*
X00308Y-00496*
X00307Y-00496*
X00306Y-00496*
X00305Y-00496*
X00304Y-00496*
X00303Y-00497*
X00303Y-00497*
X00302*
X00302Y-00497*
X00302*
X003Y-00497*
X00299Y-00497*
X00298Y-00496*
X00297Y-00496*
X00296Y-00496*
X00295Y-00496*
X00294Y-00495*
X00294Y-00495*
X00293Y-00495*
X00292Y-00494*
X00292Y-00494*
X00292Y-00494*
X00291Y-00494*
X00291Y-00493*
X00291Y-00493*
X00291Y-00493*
X0029Y-00493*
X0029Y-00492*
X00289Y-00491*
X00289Y-0049*
X00288Y-0049*
X00288Y-00489*
X00288Y-00487*
X00288Y-00487*
X00288Y-00486*
X00287Y-00485*
X00287Y-00485*
X00287Y-00484*
Y-00484*
Y-00484*
Y-00484*
X00287Y-00483*
X00288Y-00481*
X00288Y-0048*
X00288Y-00479*
X00288Y-00478*
X00289Y-00478*
X00289Y-00478*
X00289Y-00478*
X00289Y-00477*
X00289Y-00477*
Y-00477*
X0029Y-00476*
X0029Y-00475*
X00291Y-00474*
X00292Y-00474*
X00293Y-00473*
X00293Y-00473*
X00293Y-00473*
X00294Y-00473*
X00294Y-00473*
X00294*
X00295Y-00472*
X00296Y-00472*
X00298Y-00471*
X00299Y-00471*
X003Y-00471*
X003*
X00301Y-00471*
X00301Y-00471*
X00302*
X00303Y-00471*
G37*
G36*
X00301Y-00506D02*
X003Y-00506D01*
X00299Y-00506*
X00299Y-00506*
X00298Y-00507*
X00297Y-00507*
X00297Y-00507*
X00296Y-00508*
X00296Y-00508*
X00295Y-00508*
X00295Y-00509*
X00295Y-00509*
X00294Y-00509*
X00294Y-00509*
X00294Y-00509*
X00294Y-00509*
X00294Y-0051*
X00293Y-0051*
X00293Y-00511*
X00293Y-00512*
X00292Y-00513*
X00292Y-00514*
X00292Y-00515*
X00292Y-00516*
Y-00516*
X00291Y-00516*
Y-00516*
Y-00517*
Y-00517*
X00292Y-00518*
X00292Y-00519*
X00292Y-0052*
X00292Y-00521*
X00293Y-00522*
X00293Y-00522*
X00293Y-00523*
X00293Y-00523*
X00293Y-00523*
X00293Y-00523*
Y-00523*
X00294Y-00524*
X00295Y-00525*
X00296Y-00526*
X00297Y-00526*
X00297Y-00527*
X00298Y-00527*
X00298Y-00527*
X00298Y-00527*
X00299Y-00527*
X00299*
X003Y-00528*
X00301Y-00528*
X00303Y-00528*
X00304Y-00529*
X00305Y-00529*
X00305Y-00529*
X00306*
X00306Y-00529*
X00307*
X00308Y-00529*
X0031Y-00529*
X00311Y-00528*
X00312Y-00528*
X00313Y-00528*
X00313Y-00528*
X00314Y-00528*
X00314Y-00528*
X00314Y-00528*
X00314Y-00528*
X00314*
X00316Y-00527*
X00317Y-00527*
X00318Y-00526*
X00318Y-00525*
X00319Y-00525*
X0032Y-00524*
X0032Y-00524*
X0032Y-00524*
Y-00524*
X00321Y-00522*
X00321Y-00521*
X00322Y-0052*
X00322Y-00519*
X00322Y-00518*
X00322Y-00517*
Y-00517*
X00322Y-00517*
Y-00516*
Y-00516*
Y-00516*
X00322Y-00515*
X00322Y-00514*
X00321Y-00513*
X00321Y-00512*
X00321Y-00511*
X0032Y-0051*
X0032Y-0051*
X0032Y-0051*
X00319Y-00509*
X00318Y-00508*
X00317Y-00508*
X00316Y-00507*
X00316Y-00507*
X00315Y-00506*
X00315Y-00506*
X00315Y-00506*
X00314Y-00506*
X00314Y-00506*
X00314*
X00315Y-00501*
X00316Y-00502*
X00317Y-00502*
X00318Y-00502*
X00319Y-00503*
X0032Y-00503*
X0032Y-00504*
X00321Y-00504*
X00321Y-00504*
X00322Y-00505*
X00322Y-00505*
X00323Y-00506*
X00323Y-00506*
X00323Y-00506*
X00323Y-00506*
X00323Y-00507*
X00323Y-00507*
X00324Y-00507*
X00324Y-00508*
X00325Y-00509*
X00325Y-0051*
X00326Y-00511*
X00326Y-00513*
X00326Y-00514*
X00326Y-00514*
X00326Y-00515*
X00326Y-00515*
X00326Y-00516*
Y-00516*
Y-00516*
Y-00516*
X00326Y-00518*
X00326Y-0052*
X00326Y-00521*
X00325Y-00522*
X00325Y-00523*
X00325Y-00523*
X00325Y-00524*
X00325Y-00524*
X00324Y-00525*
X00324Y-00525*
X00324Y-00525*
X00324Y-00525*
X00324Y-00525*
X00323Y-00527*
X00322Y-00528*
X00321Y-00529*
X0032Y-0053*
X00319Y-00531*
X00318Y-00531*
X00318Y-00531*
X00318Y-00531*
X00318Y-00532*
X00317Y-00532*
X00317Y-00532*
X00316Y-00532*
X00314Y-00533*
X00312Y-00533*
X00311Y-00534*
X0031Y-00534*
X00309Y-00534*
X00309Y-00534*
X00308*
X00308Y-00534*
X00307*
X00305Y-00534*
X00303Y-00534*
X00301Y-00533*
X00301Y-00533*
X003Y-00533*
X00299Y-00533*
X00299Y-00533*
X00298Y-00532*
X00298Y-00532*
X00297Y-00532*
X00297Y-00532*
X00297Y-00532*
X00297*
X00295Y-00531*
X00294Y-0053*
X00293Y-00529*
X00292Y-00529*
X00292Y-00528*
X00291Y-00528*
X00291Y-00527*
X0029Y-00527*
X0029Y-00527*
X0029Y-00527*
X0029Y-00526*
X0029Y-00526*
X0029Y-00526*
X00289Y-00525*
X00289Y-00525*
X00288Y-00523*
X00288Y-00521*
X00288Y-0052*
X00287Y-00519*
X00287Y-00518*
X00287Y-00518*
Y-00517*
X00287Y-00517*
Y-00516*
Y-00516*
Y-00516*
X00287Y-00515*
X00287Y-00514*
X00288Y-00513*
X00288Y-00512*
X00288Y-00511*
X00288Y-0051*
X00289Y-0051*
X00289Y-00509*
X00289Y-00508*
X00289Y-00508*
X0029Y-00507*
X0029Y-00507*
X0029Y-00507*
X0029Y-00506*
X0029Y-00506*
X0029Y-00506*
X00291Y-00505*
X00292Y-00505*
X00293Y-00504*
X00293Y-00504*
X00295Y-00503*
X00296Y-00502*
X00297Y-00502*
X00298Y-00501*
X00298Y-00501*
X00299Y-00501*
X00299Y-00501*
X003Y-00501*
X003Y-00501*
X003*
X00301Y-00506*
G37*
G36*
X-00361Y-0028D02*
X-00365D01*
Y-00253*
X-00361*
Y-0028*
G37*
G36*
X00301Y00121D02*
X00302Y00121D01*
X00303Y00121*
X00304Y00121*
X00305Y00121*
X00305Y0012*
X00306Y0012*
X00307Y0012*
X00307Y00119*
X00308Y00119*
X00308Y00119*
X00308Y00119*
X00309Y00118*
X00309Y00118*
X00309Y00118*
X00309Y00118*
X0031Y00118*
X0031Y00117*
X00311Y00116*
X00311Y00116*
X00311Y00115*
X00312Y00114*
X00312Y00113*
X00312Y00112*
X00312Y00112*
X00312Y00111*
X00312Y00111*
X00312Y00111*
Y0011*
Y0011*
Y0011*
X00312Y00109*
X00312Y00108*
X00312Y00107*
X00312Y00107*
X00312Y00106*
X00311Y00106*
X00311Y00105*
X00311Y00105*
Y00105*
X00311Y00104*
X0031Y00103*
X00309Y00103*
X00309Y00102*
X00308Y00102*
X00308Y00101*
X00307Y00101*
X00307Y00101*
X00308*
X00309Y00101*
X0031Y00101*
X00311Y00101*
X00312Y00101*
X00313Y00101*
X00313Y00102*
X00314Y00102*
X00314Y00102*
X00315Y00102*
X00315Y00102*
X00316Y00102*
X00316Y00102*
X00316Y00102*
X00316Y00102*
X00316*
X00317Y00103*
X00318Y00103*
X00319Y00104*
X0032Y00105*
X0032Y00105*
X0032Y00105*
X00321Y00106*
X00321Y00106*
X00321Y00106*
X00321Y00107*
X00322Y00108*
X00322Y00108*
X00322Y00109*
X00322Y00109*
Y0011*
Y0011*
X00322Y00111*
X00322Y00112*
X00321Y00112*
X00321Y00113*
X00321Y00114*
X0032Y00114*
X0032Y00114*
X0032Y00114*
X0032Y00115*
X00319Y00115*
X00318Y00115*
X00318Y00116*
X00317Y00116*
X00317Y00116*
X00316Y00116*
X00316Y00116*
X00316*
X00316Y00121*
X00318Y0012*
X00319Y0012*
X00321Y00119*
X00322Y00119*
X00322Y00118*
X00323Y00118*
X00323Y00118*
X00323Y00118*
X00323Y00117*
X00323Y00117*
X00323Y00117*
X00324Y00117*
X00324Y00116*
X00325Y00115*
X00325Y00114*
X00326Y00113*
X00326Y00112*
X00326Y00111*
Y00111*
X00326Y0011*
Y0011*
Y0011*
Y0011*
X00326Y00109*
X00326Y00108*
X00325Y00107*
X00325Y00106*
X00325Y00105*
X00324Y00104*
X00324Y00104*
X00324Y00103*
X00323Y00102*
X00323Y00102*
X00323Y00101*
X00322Y00101*
X00322Y00101*
X00322Y00101*
X00322Y001*
X00321Y001*
X0032Y001*
X00319Y00099*
X00318Y00099*
X00317Y00098*
X00316Y00098*
X00314Y00097*
X00313Y00097*
X00312Y00097*
X0031Y00097*
X00309Y00097*
X00308Y00097*
X00307Y00096*
X00307*
X00306Y00096*
X00306*
X00304Y00096*
X00302Y00097*
X00301Y00097*
X00299Y00097*
X00298Y00097*
X00297Y00098*
X00296Y00098*
X00295Y00098*
X00294Y00099*
X00293Y00099*
X00293Y00099*
X00292Y001*
X00292Y001*
X00292Y001*
X00292Y001*
X00291Y001*
X00291Y00101*
X0029Y00102*
X0029Y00102*
X00289Y00103*
X00289Y00104*
X00288Y00105*
X00288Y00105*
X00288Y00106*
X00288Y00107*
X00287Y00107*
X00287Y00108*
X00287Y00109*
Y00109*
X00287Y00109*
Y00109*
Y0011*
X00287Y00111*
X00288Y00112*
X00288Y00113*
X00288Y00114*
X00288Y00115*
X00289Y00115*
X00289Y00115*
X00289Y00116*
X00289Y00116*
Y00116*
X00289Y00117*
X0029Y00117*
X00291Y00118*
X00292Y00119*
X00292Y00119*
X00293Y0012*
X00293Y0012*
X00293Y0012*
X00293Y0012*
X00294*
X00295Y0012*
X00296Y00121*
X00297Y00121*
X00298Y00121*
X00299Y00121*
X00299*
X003Y00121*
X003*
X00301Y00121*
G37*
G36*
X-00322Y-00465D02*
X-00321Y-00466D01*
X-0032Y-00466*
X-0032Y-00467*
X-00319Y-00468*
X-00319Y-00468*
X-00318Y-00469*
X-00318Y-00469*
X-00318Y-00469*
X-00318Y-00469*
X-00317Y-0047*
X-00316Y-00471*
X-00315Y-00471*
X-00314Y-00472*
X-00313Y-00473*
X-00312Y-00473*
X-00312Y-00473*
X-00312Y-00473*
X-00312Y-00473*
X-00311Y-00473*
X-00311*
Y-00478*
X-00312Y-00477*
X-00313Y-00477*
X-00314Y-00477*
X-00315Y-00476*
X-00315Y-00476*
X-00316Y-00476*
X-00316Y-00475*
X-00316Y-00475*
X-00316*
X-00317Y-00475*
X-00318Y-00474*
X-00319Y-00474*
X-00319Y-00473*
X-0032Y-00473*
X-0032Y-00472*
X-00321Y-00472*
X-00321Y-00472*
Y-00502*
X-00325*
Y-00464*
X-00322*
X-00322Y-00465*
G37*
G36*
X-00296Y-00502D02*
X-00301D01*
Y-00496*
X-00296*
Y-00502*
G37*
G36*
X-00246D02*
X-0025D01*
X-00261Y-00474*
X-00256*
X-0025Y-00491*
X-0025Y-00492*
X-00249Y-00493*
X-00249Y-00494*
X-00249Y-00495*
X-00249Y-00495*
X-00248Y-00496*
X-00248Y-00496*
X-00248Y-00496*
X-00248Y-00495*
X-00248Y-00494*
X-00247Y-00493*
X-00247Y-00492*
X-00247Y-00492*
X-00247Y-00491*
X-00247Y-00491*
X-00247Y-00491*
X-00247Y-00491*
Y-00491*
X-00241Y-00474*
X-00236*
X-00246Y-00502*
G37*
G36*
X-00257Y-00252D02*
X-00256Y-00252D01*
X-00255Y-00252*
X-00255Y-00253*
X-00254Y-00253*
X-00254Y-00253*
X-00254Y-00253*
X-00253Y-00253*
X-00253Y-00253*
X-00252Y-00253*
X-00252Y-00254*
X-00252Y-00254*
X-00251Y-00254*
X-00251Y-00254*
X-00251Y-00254*
X-00251Y-00254*
X-0025Y-00255*
X-0025Y-00255*
X-00249Y-00256*
X-00249Y-00256*
X-00249Y-00256*
X-00249Y-00257*
X-00249Y-00257*
X-00249Y-00257*
X-00248Y-00258*
X-00248Y-00258*
X-00248Y-00259*
X-00248Y-00259*
X-00248Y-0026*
Y-0026*
Y-0026*
X-00248Y-00261*
X-00248Y-00262*
X-00248Y-00262*
X-00248Y-00263*
X-00249Y-00263*
X-00249Y-00264*
X-00249Y-00264*
X-00249Y-00264*
X-00249Y-00264*
X-0025Y-00265*
X-0025Y-00265*
X-00251Y-00266*
X-00251Y-00266*
X-00252Y-00266*
X-00252Y-00266*
X-00252Y-00266*
X-00252Y-00267*
X-00253Y-00267*
X-00254Y-00267*
X-00255Y-00267*
X-00256Y-00268*
X-00257Y-00268*
X-00258Y-00268*
X-00258Y-00268*
X-00259Y-00269*
X-00259Y-00269*
X-00259Y-00269*
X-00259*
X-0026Y-00269*
X-0026Y-00269*
X-00261Y-00269*
X-00261Y-00269*
X-00262Y-00269*
X-00262Y-0027*
X-00263Y-0027*
X-00263Y-0027*
X-00264Y-0027*
X-00264Y-0027*
X-00264Y-0027*
X-00264Y-00271*
X-00265Y-00271*
X-00265Y-00271*
X-00265Y-00272*
X-00265Y-00272*
X-00265Y-00272*
Y-00273*
Y-00273*
X-00265Y-00273*
X-00265Y-00274*
X-00265Y-00274*
X-00264Y-00275*
X-00264Y-00275*
X-00264Y-00276*
X-00264Y-00276*
X-00264Y-00276*
X-00263Y-00276*
X-00262Y-00276*
X-00261Y-00277*
X-00261Y-00277*
X-0026Y-00277*
X-00259Y-00277*
X-00259*
X-00258Y-00277*
X-00257Y-00277*
X-00256Y-00277*
X-00255Y-00276*
X-00255Y-00276*
X-00254Y-00276*
X-00254Y-00276*
X-00254Y-00276*
X-00253Y-00275*
X-00253Y-00274*
X-00253Y-00274*
X-00252Y-00273*
X-00252Y-00272*
X-00252Y-00272*
X-00252Y-00271*
Y-00271*
Y-00271*
X-00247Y-00272*
X-00248Y-00274*
X-00248Y-00275*
X-00249Y-00276*
X-00249Y-00277*
X-0025Y-00278*
X-0025Y-00278*
X-00251Y-00279*
X-00251Y-00279*
X-00251Y-00279*
X-00251Y-00279*
X-00252Y-00279*
X-00253Y-0028*
X-00255Y-0028*
X-00256Y-00281*
X-00257Y-00281*
X-00257Y-00281*
X-00258Y-00281*
X-00258*
X-00258Y-00281*
X-00259*
X-0026Y-00281*
X-00261Y-00281*
X-00262Y-0028*
X-00263Y-0028*
X-00264Y-0028*
X-00264Y-0028*
X-00265Y-0028*
X-00265Y-0028*
X-00265*
X-00266Y-00279*
X-00266Y-00279*
X-00267Y-00278*
X-00268Y-00278*
X-00268Y-00277*
X-00268Y-00277*
X-00269Y-00277*
X-00269Y-00277*
X-00269Y-00276*
X-00269Y-00275*
X-0027Y-00274*
X-0027Y-00274*
X-0027Y-00273*
X-0027Y-00273*
Y-00272*
Y-00272*
X-0027Y-00271*
X-0027Y-00271*
X-0027Y-0027*
X-00269Y-00269*
X-00269Y-00269*
X-00269Y-00268*
X-00269Y-00268*
X-00269Y-00268*
X-00268Y-00268*
X-00268Y-00267*
X-00267Y-00267*
X-00267Y-00266*
X-00266Y-00266*
X-00266Y-00266*
X-00266Y-00266*
X-00266Y-00266*
X-00265Y-00266*
X-00265Y-00265*
X-00264Y-00265*
X-00263Y-00265*
X-00262Y-00264*
X-00261Y-00264*
X-0026Y-00264*
X-0026Y-00264*
X-00259Y-00264*
X-00259Y-00264*
X-00259Y-00264*
X-00259*
X-00258Y-00263*
X-00258Y-00263*
X-00257Y-00263*
X-00257Y-00263*
X-00256Y-00263*
X-00256Y-00263*
X-00255Y-00263*
X-00255Y-00262*
X-00255Y-00262*
X-00255*
X-00254Y-00262*
X-00254Y-00262*
X-00254Y-00262*
X-00253Y-00262*
X-00253Y-00261*
X-00253Y-00261*
X-00253Y-00261*
X-00253Y-00261*
X-00253Y-00261*
X-00253Y-0026*
Y-0026*
X-00252Y-0026*
Y-0026*
Y-0026*
X-00253Y-00259*
X-00253Y-00259*
X-00253Y-00258*
X-00253Y-00258*
X-00253Y-00257*
X-00254Y-00257*
X-00254Y-00257*
X-00254Y-00257*
X-00254Y-00257*
X-00255Y-00256*
X-00256Y-00256*
X-00257Y-00256*
X-00257Y-00256*
X-00258Y-00256*
X-00258*
X-00259Y-00256*
X-0026Y-00256*
X-00261Y-00256*
X-00261Y-00257*
X-00262Y-00257*
X-00262Y-00257*
X-00263Y-00257*
X-00263Y-00257*
X-00263Y-00258*
X-00264Y-00258*
X-00264Y-00259*
X-00264Y-00259*
X-00264Y-0026*
X-00264Y-0026*
X-00264Y-0026*
Y-0026*
X-00269Y-0026*
X-00269Y-00259*
X-00269Y-00258*
X-00268Y-00257*
X-00268Y-00257*
X-00268Y-00256*
X-00267Y-00256*
X-00267Y-00256*
X-00267Y-00256*
X-00267Y-00255*
X-00266Y-00255*
X-00266Y-00254*
X-00265Y-00254*
X-00265Y-00254*
X-00264Y-00253*
X-00264Y-00253*
X-00264Y-00253*
X-00264*
X-00263Y-00253*
X-00262Y-00253*
X-00261Y-00252*
X-0026Y-00252*
X-00259Y-00252*
X-00259Y-00252*
X-00257*
X-00257Y-00252*
G37*
G36*
X-00286Y-00252D02*
X-00285Y-00252D01*
X-00283Y-00253*
X-00282Y-00253*
X-00281Y-00253*
X-0028Y-00254*
X-0028Y-00254*
X-00279Y-00254*
X-00279Y-00255*
X-00279Y-00255*
X-00278Y-00255*
X-00278Y-00255*
X-00278Y-00255*
X-00278Y-00255*
X-00277Y-00256*
X-00277Y-00257*
X-00276Y-00258*
X-00276Y-00259*
X-00275Y-00259*
X-00275Y-0026*
X-00275Y-00261*
X-00274Y-00262*
X-00274Y-00263*
X-00274Y-00264*
X-00274Y-00265*
X-00274Y-00265*
Y-00266*
X-00274Y-00266*
Y-00266*
Y-00267*
X-00274Y-00268*
X-00274Y-00269*
X-00274Y-0027*
X-00274Y-00271*
X-00275Y-00272*
X-00275Y-00273*
X-00275Y-00274*
X-00276Y-00274*
X-00276Y-00275*
X-00276Y-00276*
X-00276Y-00276*
X-00277Y-00276*
X-00277Y-00277*
X-00277Y-00277*
X-00277Y-00277*
X-00277Y-00277*
X-00278Y-00278*
X-00279Y-00278*
X-00279Y-00279*
X-0028Y-00279*
X-00281Y-0028*
X-00282Y-0028*
X-00283Y-0028*
X-00284Y-0028*
X-00285Y-00281*
X-00285Y-00281*
X-00286Y-00281*
X-00286Y-00281*
X-00287*
X-00288Y-00281*
X-00289Y-00281*
X-0029Y-0028*
X-00291Y-0028*
X-00292Y-0028*
X-00292Y-0028*
X-00293Y-00279*
X-00293Y-00279*
X-00293Y-00279*
X-00293Y-00279*
X-00293*
X-00294Y-00278*
X-00295Y-00278*
X-00296Y-00277*
X-00297Y-00276*
X-00297Y-00276*
X-00298Y-00275*
X-00298Y-00275*
X-00298Y-00275*
X-00298Y-00275*
Y-00274*
X-00298Y-00273*
X-00299Y-00272*
X-00299Y-0027*
X-00299Y-00269*
X-00299Y-00269*
Y-00268*
X-00299Y-00267*
X-00299Y-00267*
Y-00267*
Y-00266*
Y-00266*
Y-00266*
X-00299Y-00265*
X-00299Y-00264*
X-00299Y-00263*
X-00299Y-00262*
X-00299Y-00261*
X-00298Y-0026*
X-00298Y-00259*
X-00298Y-00259*
X-00297Y-00258*
X-00297Y-00257*
X-00297Y-00257*
X-00296Y-00257*
X-00296Y-00256*
X-00296Y-00256*
X-00296Y-00256*
X-00296Y-00256*
X-00295Y-00255*
X-00294Y-00255*
X-00294Y-00254*
X-00293Y-00254*
X-00292Y-00253*
X-00291Y-00253*
X-0029Y-00253*
X-00289Y-00253*
X-00289Y-00252*
X-00288Y-00252*
X-00288Y-00252*
X-00287Y-00252*
X-00287*
X-00286Y-00252*
G37*
G36*
X-00278Y-00465D02*
X-00277Y-00466D01*
X-00276Y-00466*
X-00276Y-00467*
X-00275Y-00468*
X-00275Y-00468*
X-00274Y-00469*
X-00274Y-00469*
X-00274Y-00469*
X-00274Y-00469*
X-00273Y-0047*
X-00272Y-00471*
X-00271Y-00471*
X-0027Y-00472*
X-00269Y-00473*
X-00268Y-00473*
X-00268Y-00473*
X-00268Y-00473*
X-00267Y-00473*
X-00267Y-00473*
X-00267*
Y-00478*
X-00268Y-00477*
X-00269Y-00477*
X-0027Y-00477*
X-00271Y-00476*
X-00271Y-00476*
X-00272Y-00476*
X-00272Y-00475*
X-00272Y-00475*
X-00272*
X-00273Y-00475*
X-00274Y-00474*
X-00275Y-00474*
X-00275Y-00473*
X-00276Y-00473*
X-00276Y-00472*
X-00277Y-00472*
X-00277Y-00472*
Y-00502*
X-00281*
Y-00464*
X-00278*
X-00278Y-00465*
G37*
G36*
X-00167Y-00242D02*
X-00166Y-00242D01*
X-00165Y-00242*
X-00164Y-00242*
X-00163Y-00243*
X-00163Y-00243*
X-00162Y-00243*
X-00162Y-00243*
X-00162Y-00243*
X-00162Y-00243*
X-00162*
X-00161Y-00244*
X-0016Y-00244*
X-00159Y-00245*
X-00158Y-00245*
X-00158Y-00246*
X-00157Y-00246*
X-00157Y-00247*
X-00157Y-00247*
Y-00247*
X-00156Y-00248*
X-00156Y-00249*
X-00156Y-0025*
X-00156Y-00251*
X-00156Y-00251*
X-00155Y-00252*
Y-00252*
Y-00252*
Y-00252*
Y-00252*
X-00156Y-00253*
X-00156Y-00254*
X-00156Y-00255*
X-00156Y-00256*
X-00156Y-00256*
X-00157Y-00257*
X-00157Y-00257*
X-00157Y-00257*
X-00157Y-00258*
X-00158Y-00258*
X-00159Y-00259*
X-00159Y-0026*
X-0016Y-0026*
X-0016Y-0026*
X-00161Y-0026*
X-00161Y-0026*
X-00161*
X-00161Y-00261*
X-00162Y-00261*
X-00163Y-00261*
X-00164Y-00262*
X-00165Y-00262*
X-00166Y-00262*
X-00167Y-00263*
X-00167Y-00263*
X-00168Y-00263*
X-00168Y-00263*
X-00168Y-00263*
X-00168*
X-00169Y-00263*
X-0017Y-00263*
X-00171Y-00263*
X-00171Y-00264*
X-00172Y-00264*
X-00172Y-00264*
X-00173Y-00264*
X-00173Y-00264*
X-00174Y-00264*
X-00174Y-00264*
X-00174Y-00265*
X-00175Y-00265*
X-00175Y-00265*
X-00176Y-00265*
X-00176Y-00265*
X-00177Y-00266*
X-00177Y-00266*
X-00178Y-00266*
X-00178Y-00267*
X-00178Y-00267*
X-00178Y-00267*
X-00179Y-00267*
X-00179Y-00268*
X-00179Y-00268*
X-00179Y-00269*
X-00179Y-00269*
X-00179Y-0027*
Y-0027*
Y-0027*
X-00179Y-00271*
X-00179Y-00271*
X-00179Y-00272*
X-00179Y-00272*
X-00178Y-00273*
X-00178Y-00273*
X-00178Y-00273*
X-00178Y-00273*
X-00178Y-00274*
X-00177Y-00274*
X-00177Y-00275*
X-00176Y-00275*
X-00176Y-00275*
X-00175Y-00275*
X-00175Y-00276*
X-00175Y-00276*
X-00174Y-00276*
X-00173Y-00276*
X-00172Y-00276*
X-00172Y-00276*
X-00171Y-00276*
X-0017Y-00276*
X-0017*
X-00169Y-00276*
X-00168Y-00276*
X-00167Y-00276*
X-00166Y-00276*
X-00165Y-00276*
X-00164Y-00275*
X-00164Y-00275*
X-00164Y-00275*
X-00164Y-00275*
X-00164*
X-00163Y-00275*
X-00162Y-00274*
X-00162Y-00274*
X-00161Y-00273*
X-00161Y-00273*
X-0016Y-00273*
X-0016Y-00272*
X-0016Y-00272*
X-0016Y-00272*
X-00159Y-00271*
X-00159Y-0027*
X-00159Y-00269*
X-00159Y-00269*
X-00159Y-00268*
Y-00268*
X-00159Y-00268*
Y-00268*
Y-00268*
X-00154Y-00268*
X-00154Y-00269*
X-00154Y-00271*
X-00155Y-00272*
X-00155Y-00273*
X-00155Y-00274*
X-00156Y-00274*
X-00156Y-00274*
X-00156Y-00275*
X-00156Y-00275*
X-00156Y-00275*
Y-00275*
X-00157Y-00276*
X-00158Y-00277*
X-00159Y-00278*
X-0016Y-00278*
X-0016Y-00279*
X-00161Y-00279*
X-00161Y-00279*
X-00161Y-00279*
X-00161Y-00279*
X-00162*
X-00163Y-0028*
X-00164Y-0028*
X-00166Y-0028*
X-00167Y-00281*
X-00168Y-00281*
X-00168Y-00281*
X-00169*
X-00169Y-00281*
X-0017*
X-00172Y-00281*
X-00173Y-00281*
X-00174Y-0028*
X-00175Y-0028*
X-00176Y-0028*
X-00176Y-0028*
X-00177Y-0028*
X-00177Y-00279*
X-00177Y-00279*
X-00177Y-00279*
X-00177*
X-00178Y-00279*
X-00179Y-00278*
X-0018Y-00277*
X-00181Y-00277*
X-00182Y-00276*
X-00182Y-00276*
X-00182Y-00275*
X-00182Y-00275*
Y-00275*
X-00183Y-00274*
X-00183Y-00273*
X-00184Y-00272*
X-00184Y-00271*
X-00184Y-00271*
X-00184Y-0027*
Y-0027*
Y-0027*
Y-0027*
Y-0027*
X-00184Y-00269*
X-00184Y-00267*
X-00184Y-00267*
X-00183Y-00266*
X-00183Y-00265*
X-00183Y-00265*
X-00183Y-00264*
X-00182Y-00264*
X-00182Y-00263*
X-00181Y-00263*
X-0018Y-00262*
X-00179Y-00261*
X-00179Y-00261*
X-00178Y-00261*
X-00178Y-00261*
X-00178Y-0026*
X-00178Y-0026*
X-00178*
X-00177Y-0026*
X-00177Y-0026*
X-00176Y-0026*
X-00175Y-0026*
X-00174Y-00259*
X-00173Y-00259*
X-00172Y-00259*
X-00171Y-00258*
X-00171Y-00258*
X-0017Y-00258*
X-0017Y-00258*
X-00169Y-00258*
X-00169Y-00258*
X-00169*
X-00168Y-00258*
X-00167Y-00257*
X-00166Y-00257*
X-00165Y-00257*
X-00165Y-00257*
X-00164Y-00257*
X-00164Y-00256*
X-00163Y-00256*
X-00163Y-00256*
X-00162Y-00256*
X-00162Y-00256*
X-00162Y-00255*
X-00162Y-00255*
X-00162Y-00255*
X-00161Y-00255*
X-00161Y-00254*
X-00161Y-00254*
X-0016Y-00253*
X-0016Y-00253*
X-0016Y-00252*
Y-00252*
Y-00252*
X-0016Y-00251*
X-00161Y-0025*
X-00161Y-0025*
X-00161Y-00249*
X-00162Y-00249*
X-00162Y-00248*
X-00162Y-00248*
X-00162Y-00248*
X-00163Y-00248*
X-00163Y-00247*
X-00164Y-00247*
X-00165Y-00247*
X-00166Y-00246*
X-00167Y-00246*
X-00168Y-00246*
X-00168Y-00246*
X-00169*
X-0017Y-00246*
X-00172Y-00247*
X-00173Y-00247*
X-00174Y-00247*
X-00175Y-00248*
X-00175Y-00248*
X-00175Y-00248*
X-00175Y-00248*
X-00176Y-00249*
X-00177Y-0025*
X-00177Y-00251*
X-00178Y-00251*
X-00178Y-00252*
X-00178Y-00253*
X-00178Y-00253*
X-00178Y-00253*
Y-00253*
Y-00253*
X-00183Y-00253*
X-00183Y-00252*
X-00183Y-00251*
X-00182Y-0025*
X-00182Y-00249*
X-00182Y-00248*
X-00181Y-00248*
X-00181Y-00247*
X-00181Y-00247*
X-00181Y-00247*
Y-00247*
X-0018Y-00246*
X-0018Y-00245*
X-00179Y-00245*
X-00178Y-00244*
X-00177Y-00244*
X-00177Y-00243*
X-00176Y-00243*
X-00176Y-00243*
X-00176Y-00243*
X-00176*
X-00175Y-00243*
X-00174Y-00242*
X-00172Y-00242*
X-00171Y-00242*
X-0017Y-00242*
X-0017*
X-00169Y-00242*
X-00169*
X-00167Y-00242*
G37*
%LNsensorrig-2*%
%LPC*%
G36*
X00302Y-00447D02*
X00301D01*
X003Y-00447*
X00299Y-00447*
X00298Y-00447*
X00298Y-00447*
X00297Y-00447*
X00296Y-00448*
X00296Y-00448*
X00295Y-00448*
X00295Y-00448*
X00294Y-00448*
X00294Y-00449*
X00294Y-00449*
X00294Y-00449*
X00294Y-00449*
X00294*
X00293Y-00449*
X00293Y-0045*
X00292Y-00451*
X00292Y-00451*
X00291Y-00452*
X00291Y-00453*
X00291Y-00454*
X00291Y-00454*
Y-00454*
Y-00454*
Y-00454*
X00291Y-00455*
X00291Y-00455*
X00291Y-00456*
X00292Y-00457*
X00292Y-00458*
X00293Y-00458*
X00293Y-00459*
X00294Y-00459*
X00294Y-00459*
X00294Y-0046*
X00295Y-0046*
X00296Y-00461*
X00297Y-00461*
X00298Y-00461*
X003Y-00461*
X003Y-00461*
X00301*
X00301Y-00461*
X00302*
X00303Y-00461*
X00304Y-00461*
X00305Y-00461*
X00306Y-00461*
X00306Y-00461*
X00307Y-0046*
X00307Y-0046*
X00308Y-0046*
X00308Y-0046*
X00309Y-0046*
X00309Y-00459*
X00309Y-00459*
X00309Y-00459*
X00309Y-00459*
X00309*
X0031Y-00459*
X0031Y-00458*
X00311Y-00458*
X00311Y-00457*
X00312Y-00456*
X00312Y-00456*
X00312Y-00455*
X00312Y-00454*
X00312Y-00454*
Y-00454*
Y-00454*
Y-00454*
X00312Y-00453*
X00312Y-00453*
X00312Y-00452*
X00311Y-00451*
X00311Y-0045*
X0031Y-0045*
X0031Y-00449*
X0031Y-00449*
X0031Y-00449*
X0031*
X00309Y-00448*
X00309Y-00448*
X00307Y-00448*
X00306Y-00447*
X00305Y-00447*
X00304Y-00447*
X00303Y-00447*
X00303*
X00302Y-00447*
G37*
G36*
X00302Y-00362D02*
X00301D01*
X003Y-00363*
X00299Y-00363*
X00298Y-00363*
X00298Y-00363*
X00297Y-00363*
X00297Y-00363*
X00296Y-00364*
X00296Y-00364*
X00295Y-00364*
X00295Y-00364*
X00295Y-00364*
X00294Y-00364*
X00294Y-00365*
X00294Y-00365*
X00294*
X00294Y-00365*
X00293Y-00366*
X00293Y-00366*
X00292Y-00367*
X00292Y-00368*
X00292Y-00369*
X00292Y-00369*
X00292Y-0037*
Y-0037*
Y-0037*
Y-0037*
X00292Y-00371*
X00292Y-00371*
X00292Y-00372*
X00292Y-00373*
X00293Y-00374*
X00293Y-00375*
X00294Y-00375*
X00294Y-00375*
X00294Y-00375*
X00295Y-00376*
X00295Y-00376*
X00296Y-00377*
X00298Y-00377*
X00299Y-00377*
X003Y-00377*
X00301Y-00377*
X00301*
X00302Y-00378*
X00303*
X00304Y-00377*
X00305Y-00377*
X00305Y-00377*
X00306Y-00377*
X00307Y-00377*
X00307Y-00377*
X00308Y-00376*
X00308Y-00376*
X00308Y-00376*
X00309Y-00376*
X00309Y-00376*
X00309Y-00376*
X00309Y-00376*
X00309Y-00375*
X0031*
X0031Y-00375*
X0031Y-00375*
X00311Y-00374*
X00311Y-00373*
X00312Y-00372*
X00312Y-00371*
X00312Y-00371*
X00312Y-0037*
Y-0037*
Y-0037*
Y-0037*
Y-00369*
X00312Y-00369*
X00312Y-00368*
X00311Y-00367*
X00311Y-00366*
X0031Y-00366*
X0031Y-00365*
X0031Y-00365*
X0031Y-00365*
X0031*
X00309Y-00364*
X00308Y-00364*
X00307Y-00363*
X00306Y-00363*
X00305Y-00363*
X00304Y-00363*
X00303Y-00363*
X00303*
X00302Y-00362*
G37*
G36*
X00302Y-00476D02*
X00301D01*
X003Y-00476*
X00299Y-00476*
X00298Y-00476*
X00298Y-00476*
X00297Y-00477*
X00296Y-00477*
X00296Y-00477*
X00295Y-00477*
X00295Y-00477*
X00294Y-00478*
X00294Y-00478*
X00294Y-00478*
X00294Y-00478*
X00294Y-00478*
X00294Y-00478*
X00293Y-00479*
X00293Y-00479*
X00292Y-0048*
X00292Y-00481*
X00291Y-00482*
X00291Y-00483*
X00291Y-00483*
X00291Y-00484*
Y-00484*
Y-00484*
Y-00484*
X00291Y-00485*
X00291Y-00485*
X00291Y-00486*
X00292Y-00487*
X00292Y-00488*
X00293Y-00489*
X00293Y-00489*
X00294Y-0049*
X00294Y-0049*
Y-0049*
X00294Y-0049*
X00295Y-0049*
X00296Y-00491*
X00297Y-00491*
X00299Y-00492*
X003Y-00492*
X003Y-00492*
X00301*
X00301Y-00492*
X00302*
X00303Y-00492*
X00303Y-00492*
X00304Y-00492*
X00305Y-00492*
X00306Y-00491*
X00306Y-00491*
X00307Y-00491*
X00307Y-00491*
X00308Y-00491*
X00308Y-0049*
X00309Y-0049*
X00309Y-0049*
X00309Y-0049*
X00309Y-0049*
X00309Y-0049*
X00309*
X0031Y-00489*
X0031Y-00489*
X00311Y-00488*
X00311Y-00487*
X00312Y-00486*
X00312Y-00485*
X00312Y-00484*
X00312Y-00484*
Y-00484*
Y-00484*
Y-00484*
X00312Y-00483*
X00312Y-00483*
X00312Y-00482*
X00311Y-00481*
X00311Y-0048*
X0031Y-00479*
X0031Y-00479*
X0031Y-00478*
X0031Y-00478*
X00309*
X00309Y-00478*
X00308Y-00477*
X00307Y-00477*
X00306Y-00476*
X00305Y-00476*
X00304Y-00476*
X00303Y-00476*
X00303*
X00302Y-00476*
G37*
G36*
X-00286Y-00256D02*
X-00287D01*
X-00287Y-00256*
X-00288Y-00256*
X-00289Y-00256*
X-0029Y-00257*
X-00291Y-00257*
X-00291Y-00258*
X-00292Y-00258*
X-00292Y-00259*
X-00292Y-00259*
Y-00259*
X-00293Y-00259*
X-00293Y-0026*
X-00294Y-00261*
X-00294Y-00262*
X-00294Y-00263*
X-00295Y-00265*
X-00295Y-00265*
Y-00266*
X-00295Y-00266*
Y-00266*
Y-00266*
Y-00266*
Y-00267*
X-00295Y-00268*
X-00294Y-00269*
X-00294Y-0027*
X-00294Y-00271*
X-00294Y-00271*
X-00294Y-00272*
X-00294Y-00272*
X-00293Y-00273*
X-00293Y-00273*
X-00293Y-00274*
X-00293Y-00274*
X-00293Y-00274*
X-00292Y-00274*
X-00292Y-00274*
X-00292Y-00274*
X-00292Y-00275*
X-00291Y-00275*
X-0029Y-00276*
X-00289Y-00276*
X-00289Y-00277*
X-00288Y-00277*
X-00287Y-00277*
X-00287Y-00277*
X-00287*
X-00286Y-00277*
X-00285Y-00277*
X-00284Y-00277*
X-00283Y-00276*
X-00282Y-00276*
X-00282Y-00275*
X-00281Y-00275*
X-00281Y-00275*
X-00281Y-00274*
X-00281*
X-0028Y-00274*
X-0028Y-00273*
X-0028Y-00272*
X-00279Y-00271*
X-00279Y-00269*
X-00279Y-00268*
X-00279Y-00268*
Y-00267*
X-00279Y-00267*
Y-00267*
Y-00267*
Y-00267*
X-00279Y-00266*
X-00279Y-00265*
X-00279Y-00264*
X-00279Y-00263*
X-00279Y-00262*
X-00279Y-00262*
X-00279Y-00261*
X-0028Y-00261*
X-0028Y-0026*
X-0028Y-0026*
X-0028Y-00259*
X-0028Y-00259*
X-00281Y-00259*
X-00281Y-00259*
X-00281Y-00259*
Y-00259*
X-00281Y-00258*
X-00282Y-00258*
X-00283Y-00257*
X-00284Y-00257*
X-00285Y-00256*
X-00285Y-00256*
X-00286Y-00256*
X-00286Y-00256*
G37*
G36*
X003Y00117D02*
X003D01*
X00298Y00117*
X00297Y00116*
X00296Y00116*
X00295Y00116*
X00294Y00115*
X00294Y00115*
X00294Y00115*
X00293Y00115*
X00293*
X00293Y00114*
X00293Y00114*
X00292Y00113*
X00292Y00112*
X00291Y00111*
X00291Y0011*
X00291Y0011*
X00291Y0011*
Y0011*
Y0011*
Y00109*
X00291Y00109*
X00291Y00108*
X00291Y00107*
X00292Y00107*
X00292Y00106*
X00292Y00106*
X00292Y00106*
X00292Y00106*
X00293Y00105*
X00293Y00104*
X00294Y00104*
X00294Y00103*
X00295Y00103*
X00295Y00103*
X00295Y00103*
X00296Y00103*
X00296Y00102*
X00297Y00102*
X00298Y00102*
X00299Y00102*
X00299Y00102*
X003Y00102*
X003*
X00301Y00102*
X00303Y00102*
X00304Y00102*
X00304Y00103*
X00305Y00103*
X00306Y00104*
X00306Y00104*
X00306Y00104*
X00307Y00105*
X00307Y00106*
X00308Y00107*
X00308Y00107*
X00308Y00108*
X00308Y00109*
X00308Y00109*
Y00109*
Y00109*
Y00109*
X00308Y0011*
X00308Y00111*
X00308Y00112*
X00307Y00113*
X00307Y00114*
X00306Y00114*
X00306Y00114*
X00306Y00115*
X00305Y00115*
X00304Y00116*
X00303Y00116*
X00302Y00116*
X00301Y00117*
X00301Y00117*
X00301*
X003Y00117*
G37*
G36*
X00307Y00058D02*
X00305D01*
X00303Y00058*
X00302Y00058*
X00301Y00057*
X003Y00057*
X00298Y00057*
X00298Y00057*
X00297Y00057*
X00296Y00056*
X00296Y00056*
X00295Y00056*
X00295Y00056*
X00294Y00056*
X00294Y00056*
X00294Y00056*
X00294*
X00294Y00055*
X00293Y00055*
X00293Y00054*
X00292Y00054*
X00292Y00053*
X00291Y00052*
X00291Y00051*
X00291Y00051*
X00291Y00051*
Y0005*
Y0005*
Y0005*
X00291Y0005*
X00291Y00049*
X00292Y00048*
X00292Y00047*
X00293Y00046*
X00293Y00046*
X00294Y00045*
X00294Y00045*
X00294Y00045*
X00294*
X00295Y00044*
X00296Y00044*
X00296Y00044*
X00297Y00044*
X00298Y00043*
X00299Y00043*
X00301Y00043*
X00302Y00043*
X00303Y00043*
X00304Y00043*
X00305*
X00306Y00043*
X00307*
X00308Y00043*
X0031Y00043*
X00311Y00043*
X00312Y00043*
X00314Y00043*
X00315Y00043*
X00316Y00044*
X00316Y00044*
X00317Y00044*
X00318Y00044*
X00318Y00044*
X00319Y00045*
X00319Y00045*
X00319Y00045*
X00319Y00045*
X00319*
X0032Y00045*
X0032Y00046*
X00321Y00046*
X00321Y00047*
X00321Y00047*
X00322Y00048*
X00322Y00049*
X00322Y0005*
X00322Y0005*
Y0005*
Y0005*
Y0005*
X00322Y00051*
X00322Y00051*
X00322Y00052*
X00322Y00052*
X00321Y00053*
X0032Y00054*
X0032Y00055*
X00319Y00055*
X00319Y00055*
X00319Y00056*
X00319Y00056*
X00319*
X00318Y00056*
X00317Y00056*
X00317Y00057*
X00316Y00057*
X00315Y00057*
X00314Y00057*
X00312Y00058*
X00311Y00058*
X0031Y00058*
X00309Y00058*
X00308*
X00307Y00058*
G37*
G36*
X-00328Y-00247D02*
X-0034D01*
X-00342Y-00247*
X-00343Y-00247*
X-00344Y-00247*
X-00345Y-00248*
X-00345Y-00248*
X-00346Y-00248*
X-00346Y-00248*
X-00346Y-00248*
X-00347Y-00249*
X-00347Y-0025*
X-00348Y-00251*
X-00348Y-00251*
X-00348Y-00252*
X-00348Y-00252*
X-00348Y-00253*
Y-00253*
Y-00253*
X-00348Y-00253*
X-00348Y-00254*
X-00348Y-00255*
X-00348Y-00255*
X-00347Y-00256*
X-00347Y-00256*
X-00347Y-00256*
X-00347Y-00256*
X-00347Y-00257*
X-00346Y-00257*
X-00346Y-00258*
X-00345Y-00258*
X-00345Y-00258*
X-00345Y-00258*
X-00344Y-00258*
X-00344Y-00258*
X-00343Y-00259*
X-00343Y-00259*
X-00342Y-00259*
X-00341Y-00259*
X-0034Y-00259*
X-00339Y-00259*
X-00328*
Y-00247*
G37*
G36*
X-00201Y-00256D02*
X-00202D01*
X-00202Y-00256*
X-00203Y-00256*
X-00204Y-00256*
X-00205Y-00257*
X-00206Y-00257*
X-00206Y-00258*
X-00207Y-00258*
X-00207Y-00259*
X-00207Y-00259*
Y-00259*
X-00208Y-00259*
X-00208Y-0026*
X-00209Y-00261*
X-00209Y-00262*
X-00209Y-00263*
X-00209Y-00263*
Y-00264*
X-00209Y-00264*
Y-00264*
Y-00264*
X-00194*
X-00194Y-00263*
X-00194Y-00261*
X-00195Y-0026*
X-00195Y-0026*
X-00195Y-00259*
X-00196Y-00259*
X-00196Y-00258*
X-00196Y-00258*
X-00197Y-00257*
X-00198Y-00257*
X-00199Y-00257*
X-002Y-00256*
X-002Y-00256*
X-00201Y-00256*
X-00201Y-00256*
G37*
G36*
X-00382D02*
X-00383D01*
X-00384Y-00256*
X-00385Y-00256*
X-00386Y-00257*
X-00387Y-00257*
X-00387Y-00258*
X-00388Y-00258*
X-00388Y-00258*
X-00388Y-00259*
Y-00259*
X-00388Y-00259*
X-00389Y-0026*
X-00389Y-00261*
X-0039Y-00262*
X-0039Y-00263*
X-0039Y-00264*
X-0039Y-00265*
Y-00265*
X-0039Y-00266*
Y-00266*
Y-00266*
Y-00266*
Y-00267*
X-0039Y-00268*
X-0039Y-00269*
X-0039Y-0027*
X-0039Y-0027*
X-0039Y-00271*
X-00389Y-00272*
X-00389Y-00272*
X-00389Y-00273*
X-00389Y-00273*
X-00389Y-00273*
X-00388Y-00273*
X-00388Y-00274*
X-00388Y-00274*
X-00388Y-00274*
Y-00274*
X-00388Y-00274*
X-00387Y-00275*
X-00386Y-00275*
X-00385Y-00276*
X-00385Y-00276*
X-00384Y-00276*
X-00383Y-00276*
X-00383Y-00276*
X-00383*
X-00382Y-00276*
X-00382Y-00276*
X-00381Y-00276*
X-0038Y-00276*
X-00379Y-00275*
X-00378Y-00275*
X-00378Y-00274*
X-00378Y-00274*
X-00377Y-00274*
X-00377Y-00273*
X-00377Y-00273*
X-00376Y-00272*
X-00376Y-0027*
X-00376Y-00269*
X-00375Y-00268*
X-00375Y-00267*
Y-00267*
X-00375Y-00267*
Y-00266*
Y-00266*
Y-00266*
Y-00265*
X-00375Y-00264*
X-00375Y-00264*
X-00376Y-00263*
X-00376Y-00262*
X-00376Y-00262*
X-00376Y-00261*
X-00376Y-0026*
X-00377Y-0026*
X-00377Y-0026*
X-00377Y-00259*
X-00377Y-00259*
X-00377Y-00259*
X-00377Y-00259*
X-00377Y-00259*
Y-00259*
X-00378Y-00258*
X-00378Y-00258*
X-00379Y-00257*
X-0038Y-00257*
X-00381Y-00256*
X-00382Y-00256*
X-00382Y-00256*
X-00382Y-00256*
G37*
G36*
X00302Y-00067D02*
X00301D01*
X003Y-00067*
X00299Y-00067*
X00298Y-00067*
X00298Y-00067*
X00297Y-00068*
X00296Y-00068*
X00296Y-00068*
X00295Y-00068*
X00295Y-00068*
X00294Y-00069*
X00294Y-00069*
X00294Y-00069*
X00294Y-00069*
X00294Y-00069*
X00294Y-00069*
X00293Y-0007*
X00293Y-0007*
X00292Y-00071*
X00292Y-00072*
X00291Y-00073*
X00291Y-00074*
X00291Y-00074*
X00291Y-00075*
Y-00075*
Y-00075*
Y-00075*
X00291Y-00076*
X00291Y-00076*
X00291Y-00077*
X00292Y-00078*
X00292Y-00079*
X00293Y-0008*
X00293Y-0008*
X00294Y-00081*
X00294Y-00081*
Y-00081*
X00294Y-00081*
X00295Y-00082*
X00296Y-00082*
X00297Y-00083*
X00299Y-00083*
X003Y-00083*
X003Y-00083*
X00301*
X00301Y-00083*
X00302*
X00303Y-00083*
X00303Y-00083*
X00304Y-00083*
X00305Y-00083*
X00306Y-00083*
X00306Y-00082*
X00307Y-00082*
X00307Y-00082*
X00308Y-00082*
X00308Y-00081*
X00309Y-00081*
X00309Y-00081*
X00309Y-00081*
X00309Y-00081*
X00309Y-00081*
X00309*
X0031Y-0008*
X0031Y-0008*
X00311Y-00079*
X00311Y-00078*
X00312Y-00077*
X00312Y-00076*
X00312Y-00076*
X00312Y-00075*
Y-00075*
Y-00075*
Y-00075*
X00312Y-00074*
X00312Y-00074*
X00312Y-00073*
X00311Y-00072*
X00311Y-00071*
X0031Y-0007*
X0031Y-0007*
X0031Y-00069*
X0031Y-00069*
X00309*
X00309Y-00069*
X00308Y-00068*
X00307Y-00068*
X00306Y-00067*
X00305Y-00067*
X00304Y-00067*
X00303Y-00067*
X00303*
X00302Y-00067*
G37*
G36*
X00304Y-00211D02*
X00304D01*
Y-00227*
X00305Y-00226*
X00307Y-00226*
X00308Y-00226*
X00308Y-00225*
X00309Y-00225*
X0031Y-00224*
X0031Y-00224*
X0031Y-00224*
X00311Y-00223*
X00311Y-00222*
X00312Y-00221*
X00312Y-00221*
X00312Y-0022*
X00312Y-00219*
X00312Y-00219*
Y-00219*
Y-00219*
Y-00219*
X00312Y-00218*
X00312Y-00217*
X00312Y-00216*
X00311Y-00215*
X00311Y-00215*
X0031Y-00214*
X0031Y-00213*
X00309Y-00213*
X00309Y-00213*
X00309*
X00309Y-00213*
X00308Y-00212*
X00307Y-00212*
X00306Y-00212*
X00305Y-00211*
X00305Y-00211*
X00305*
X00304Y-00211*
G37*
G36*
X00307Y-00275D02*
X00307D01*
X00305Y-00275*
X00304Y-00275*
X00302Y-00275*
X00301Y-00276*
X00301Y-00276*
X003Y-00276*
X003Y-00276*
X00299Y-00277*
X00299Y-00277*
X00299Y-00277*
X00299Y-00277*
X00299*
X00297Y-00278*
X00296Y-00279*
X00295Y-0028*
X00294Y-00281*
X00294Y-00282*
X00293Y-00282*
X00293Y-00282*
X00293Y-00283*
X00293Y-00283*
X00293Y-00283*
Y-00283*
X00292Y-00284*
X00291Y-00286*
X00291Y-00287*
X00291Y-00288*
X00291Y-00289*
X00291Y-0029*
X00291Y-0029*
Y-0029*
X00291Y-00291*
Y-00291*
Y-00291*
Y-00291*
X00291Y-00293*
X00291Y-00294*
X00291Y-00295*
X00292Y-00297*
X00292Y-00297*
X00292Y-00298*
X00292Y-00298*
X00292Y-00298*
X00293Y-00299*
X00293Y-00299*
X00293Y-00299*
Y-00299*
X00294Y-003*
X00295Y-00302*
X00296Y-00303*
X00297Y-00304*
X00297Y-00304*
X00298Y-00305*
X00298Y-00305*
X00298Y-00305*
X00299Y-00305*
X00299Y-00305*
X00299*
X003Y-00306*
X00302Y-00306*
X00303Y-00307*
X00304Y-00307*
X00305Y-00307*
X00305Y-00307*
X00306Y-00307*
X00306*
X00306Y-00307*
X00307*
X00308Y-00307*
X0031Y-00307*
X00311Y-00307*
X00312Y-00306*
X00313Y-00306*
X00313Y-00306*
X00314Y-00306*
X00314Y-00305*
X00315Y-00305*
X00315Y-00305*
X00315Y-00305*
X00315*
X00316Y-00304*
X00318Y-00303*
X00319Y-00302*
X00319Y-00301*
X0032Y-003*
X0032Y-003*
X00321Y-003*
X00321Y-00299*
X00321Y-00299*
X00321Y-00299*
Y-00299*
X00322Y-00298*
X00322Y-00296*
X00323Y-00295*
X00323Y-00294*
X00323Y-00293*
X00323Y-00293*
X00323Y-00292*
Y-00292*
X00323Y-00291*
Y-00291*
Y-00291*
Y-00291*
X00323Y-0029*
X00323Y-00288*
X00322Y-00287*
X00322Y-00286*
X00322Y-00285*
X00322Y-00284*
X00321Y-00284*
X00321Y-00284*
X00321Y-00283*
X00321Y-00283*
X00321Y-00283*
Y-00283*
X0032Y-00282*
X00319Y-0028*
X00318Y-00279*
X00317Y-00279*
X00316Y-00278*
X00316Y-00278*
X00316Y-00277*
X00315Y-00277*
X00315Y-00277*
X00315Y-00277*
X00315*
X00313Y-00276*
X00312Y-00276*
X00311Y-00275*
X00309Y-00275*
X00309Y-00275*
X00308Y-00275*
X00308Y-00275*
X00308*
X00307Y-00275*
G37*
G36*
X00302Y-00183D02*
X003D01*
X00299Y-00183*
X00299Y-00183*
X00298Y-00183*
X00297Y-00183*
X00297Y-00184*
X00296Y-00184*
X00295Y-00184*
X00295Y-00184*
X00295Y-00184*
X00294Y-00185*
X00294Y-00185*
X00294Y-00185*
X00294Y-00185*
X00294Y-00185*
X00294*
X00293Y-00185*
X00293Y-00186*
X00292Y-00187*
X00292Y-00188*
X00291Y-00188*
X00291Y-00189*
X00291Y-0019*
X00291Y-0019*
Y-0019*
Y-0019*
Y-0019*
X00291Y-00191*
X00291Y-00191*
X00291Y-00192*
X00292Y-00193*
X00292Y-00194*
X00293Y-00195*
X00293Y-00195*
X00294Y-00195*
X00294Y-00195*
Y-00195*
X00294Y-00196*
X00295Y-00196*
X00296Y-00197*
X00297Y-00197*
X00299Y-00197*
X003Y-00198*
X003Y-00198*
X00301*
X00301Y-00198*
X00303*
X00303Y-00198*
X00304Y-00197*
X00305Y-00197*
X00306Y-00197*
X00306Y-00197*
X00307Y-00197*
X00308Y-00197*
X00308Y-00196*
X00308Y-00196*
X00309Y-00196*
X00309Y-00196*
X00309Y-00196*
X00309Y-00196*
X00309Y-00196*
X0031*
X0031Y-00195*
X0031Y-00195*
X00311Y-00194*
X00311Y-00193*
X00312Y-00192*
X00312Y-00191*
X00312Y-00191*
X00312Y-00191*
Y-0019*
Y-0019*
Y-0019*
X00312Y-0019*
X00312Y-00189*
X00312Y-00188*
X00311Y-00187*
X00311Y-00186*
X0031Y-00186*
X0031Y-00185*
X0031Y-00185*
X00309Y-00185*
X00309*
X00309Y-00185*
X00308Y-00184*
X00307Y-00184*
X00306Y-00183*
X00304Y-00183*
X00304Y-00183*
X00303Y-00183*
X00303Y-00183*
X00302*
X00302Y-00183*
G37*
G36*
X00302Y-00123D02*
X00301D01*
X003Y-00123*
X00299Y-00123*
X00298Y-00123*
X00298Y-00123*
X00297Y-00123*
X00296Y-00124*
X00296Y-00124*
X00295Y-00124*
X00295Y-00124*
X00294Y-00125*
X00294Y-00125*
X00294Y-00125*
X00294Y-00125*
X00294Y-00125*
X00294Y-00125*
X00293Y-00125*
X00293Y-00126*
X00292Y-00127*
X00292Y-00128*
X00291Y-00129*
X00291Y-0013*
X00291Y-0013*
X00291Y-0013*
Y-00131*
Y-00131*
Y-00131*
X00291Y-00131*
X00291Y-00132*
X00291Y-00133*
X00292Y-00134*
X00292Y-00135*
X00293Y-00136*
X00293Y-00136*
X00294Y-00136*
X00294Y-00137*
Y-00137*
X00294Y-00137*
X00295Y-00137*
X00296Y-00138*
X00297Y-00138*
X00299Y-00139*
X003Y-00139*
X003Y-00139*
X00301*
X00301Y-00139*
X00302*
X00303Y-00139*
X00303Y-00139*
X00304Y-00139*
X00305Y-00138*
X00306Y-00138*
X00306Y-00138*
X00307Y-00138*
X00307Y-00138*
X00308Y-00138*
X00308Y-00137*
X00309Y-00137*
X00309Y-00137*
X00309Y-00137*
X00309Y-00137*
X00309Y-00137*
X00309*
X0031Y-00136*
X0031Y-00136*
X00311Y-00135*
X00311Y-00134*
X00312Y-00133*
X00312Y-00132*
X00312Y-00131*
X00312Y-00131*
Y-00131*
Y-00131*
Y-00131*
X00312Y-0013*
X00312Y-0013*
X00312Y-00128*
X00311Y-00127*
X00311Y-00127*
X0031Y-00126*
X0031Y-00125*
X0031Y-00125*
X0031Y-00125*
X00309*
X00309Y-00125*
X00308Y-00124*
X00307Y-00124*
X00306Y-00123*
X00305Y-00123*
X00304Y-00123*
X00303Y-00123*
X00303*
X00302Y-00123*
G37*
G36*
X00302Y-00153D02*
X003D01*
X00299Y-00154*
X00299Y-00154*
X00298Y-00154*
X00297Y-00154*
X00297Y-00154*
X00296Y-00154*
X00295Y-00155*
X00295Y-00155*
X00295Y-00155*
X00294Y-00155*
X00294Y-00155*
X00294Y-00155*
X00294Y-00156*
X00294Y-00156*
X00294*
X00293Y-00156*
X00293Y-00156*
X00292Y-00157*
X00292Y-00158*
X00291Y-00159*
X00291Y-0016*
X00291Y-0016*
X00291Y-00161*
Y-00161*
Y-00161*
Y-00161*
X00291Y-00161*
X00291Y-00162*
X00291Y-00163*
X00292Y-00164*
X00292Y-00165*
X00293Y-00165*
X00293Y-00166*
X00294Y-00166*
X00294Y-00166*
Y-00166*
X00294Y-00166*
X00295Y-00167*
X00296Y-00167*
X00297Y-00168*
X00299Y-00168*
X003Y-00168*
X003Y-00168*
X00301*
X00301Y-00168*
X00303*
X00303Y-00168*
X00304Y-00168*
X00305Y-00168*
X00306Y-00168*
X00306Y-00168*
X00307Y-00167*
X00308Y-00167*
X00308Y-00167*
X00308Y-00167*
X00309Y-00167*
X00309Y-00166*
X00309Y-00166*
X00309Y-00166*
X00309Y-00166*
X0031*
X0031Y-00166*
X0031Y-00165*
X00311Y-00164*
X00311Y-00164*
X00312Y-00163*
X00312Y-00162*
X00312Y-00161*
X00312Y-00161*
Y-00161*
Y-00161*
Y-00161*
X00312Y-0016*
X00312Y-0016*
X00312Y-00159*
X00311Y-00158*
X00311Y-00157*
X0031Y-00157*
X0031Y-00156*
X0031Y-00156*
X00309Y-00156*
X00309*
X00309Y-00155*
X00308Y-00155*
X00307Y-00154*
X00306Y-00154*
X00304Y-00154*
X00304Y-00154*
X00303Y-00154*
X00303Y-00154*
X00302*
X00302Y-00153*
G37*
%LNsensorrig-3*%
%LPD*%
G36*
X00304Y-00285D02*
X00303Y-00285D01*
X00302Y-00285*
X00301Y-00286*
X00301Y-00286*
X00301Y-00287*
X003Y-00287*
X003Y-00287*
X003Y-00287*
X003Y-00288*
X00299Y-00288*
X00299Y-00289*
X00299Y-0029*
X00299Y-0029*
X00299Y-00291*
Y-00291*
Y-00291*
Y-00291*
X00299Y-00292*
X00299Y-00293*
X00299Y-00294*
X003Y-00295*
X003Y-00295*
X003Y-00296*
X00301Y-00296*
X00301Y-00296*
X00302Y-00296*
X00303Y-00297*
X00304Y-00297*
X00304Y-00297*
X00305Y-00298*
X00306Y-00298*
X00306*
X00306Y-00298*
X00307*
X00308Y-00298*
X00309Y-00297*
X0031Y-00297*
X00311Y-00297*
X00312Y-00296*
X00312Y-00296*
X00313Y-00296*
X00313Y-00296*
X00313Y-00295*
X00314Y-00294*
X00314Y-00293*
X00315Y-00293*
X00315Y-00292*
X00315Y-00291*
X00315Y-00291*
Y-00291*
Y-00291*
Y-00291*
X00315Y-0029*
X00315Y-00289*
X00315Y-00289*
X00314Y-00288*
X00314Y-00288*
X00314Y-00288*
X00314Y-00287*
X00314Y-00287*
X00313Y-00287*
X00313Y-00286*
X00312Y-00286*
X00312Y-00286*
X00312Y-00285*
X00311Y-00285*
X00311Y-00285*
X00311Y-00285*
X00312Y-00282*
X00313Y-00282*
X00314Y-00283*
X00314Y-00283*
X00315Y-00284*
X00315Y-00284*
X00316Y-00285*
X00316Y-00285*
X00316Y-00285*
X00317Y-00286*
X00317Y-00287*
X00317Y-00288*
X00318Y-00289*
X00318Y-0029*
X00318Y-0029*
Y-0029*
Y-00291*
Y-00291*
Y-00291*
X00318Y-00292*
X00318Y-00293*
X00317Y-00294*
X00317Y-00295*
X00317Y-00295*
X00317Y-00296*
X00317Y-00296*
X00317Y-00296*
Y-00296*
X00316Y-00297*
X00315Y-00298*
X00315Y-00298*
X00314Y-00299*
X00314Y-00299*
X00313Y-003*
X00313Y-003*
X00313Y-003*
X00313*
X00312Y-003*
X00311Y-00301*
X0031Y-00301*
X00309Y-00301*
X00308Y-00301*
X00307Y-00301*
X00307*
X00306Y-00301*
X00305Y-00301*
X00304Y-00301*
X00303Y-00301*
X00303Y-00301*
X00302Y-003*
X00301Y-003*
X00301Y-003*
X003Y-003*
X003Y-00299*
X00299Y-00299*
X00299Y-00299*
X00299Y-00299*
X00299Y-00299*
X00299Y-00298*
X00299Y-00298*
X00298Y-00298*
X00298Y-00297*
X00297Y-00297*
X00297Y-00296*
X00296Y-00295*
X00296Y-00294*
X00296Y-00293*
X00296Y-00292*
X00296Y-00292*
X00296Y-00291*
Y-00291*
Y-00291*
Y-00291*
X00296Y-0029*
X00296Y-00289*
X00296Y-00287*
X00297Y-00287*
X00297Y-00286*
X00297Y-00285*
X00298Y-00285*
X00298Y-00285*
Y-00285*
X00298Y-00284*
X00299Y-00283*
X003Y-00283*
X00301Y-00282*
X00302Y-00282*
X00302Y-00282*
X00302Y-00282*
X00303Y-00282*
X00303Y-00282*
X00303*
X00304Y-00285*
G37*
G54D30*
X0002Y-00219D02*
Y-00179D01*
X0*
X-00005Y-00186*
Y-00199*
X0Y-00206*
X0002*
X-00019Y-00219D02*
X-00032D01*
X-00025*
Y-00179*
X-00019Y-00186*
G54D47*
X001Y-00341D02*
D01*
X00099Y-00341*
X00098Y-00341*
X00097Y-00342*
X00096Y-00342*
X00095Y-00342*
X00094Y-00342*
X00094Y-00343*
X00093Y-00343*
X00092Y-00344*
X00091Y-00344*
X00091Y-00345*
X0009Y-00345*
X0009Y-00346*
X00089Y-00347*
X00089Y-00348*
X00088Y-00348*
X00088Y-00349*
X00088Y-0035*
X00087Y-00351*
X00087Y-00352*
X00087Y-00353*
X00087Y-00353*
Y-00354*
X00087Y-00355*
X00087Y-00356*
X00087Y-00357*
X00088Y-00358*
X00088Y-00359*
X00088Y-00359*
X00089Y-0036*
X00089Y-00361*
X0009Y-00362*
X0009Y-00362*
X00091Y-00363*
X00091Y-00363*
X00092Y-00364*
X00093Y-00364*
X00094Y-00365*
X00094Y-00365*
X00095Y-00366*
X00096Y-00366*
X00097Y-00366*
X00098Y-00366*
X00099Y-00366*
X001Y-00366*
Y-00439D02*
Y-00366D01*
Y-00341D02*
Y-00266D01*
X-001D02*
X001D01*
X-001Y-00439D02*
Y-00266D01*
Y-00439D02*
X001D01*
G54D48*
X00497Y-0054D02*
Y00427D01*
X00495Y-0054D02*
Y00427D01*
X00493Y-0054D02*
Y00427D01*
X00491Y-0054D02*
Y-00424D01*
Y-00406D02*
Y00427D01*
X00489Y-0054D02*
Y-00426D01*
Y-00404D02*
Y00427D01*
X00487Y-0054D02*
Y-00428D01*
Y-00402D02*
Y00427D01*
X00485Y-0054D02*
Y-0043D01*
Y-004D02*
Y00427D01*
X00483Y-0054D02*
Y-00432D01*
Y-004D02*
Y00427D01*
X00481Y-0054D02*
Y-00494D01*
Y-0049D02*
Y-00432D01*
Y-00398D02*
Y00427D01*
X00479Y-0054D02*
Y-00498D01*
Y-00488D02*
Y-00432D01*
Y-00398D02*
Y00427D01*
X00477Y-0054D02*
Y-00498D01*
Y-00486D02*
Y-00432D01*
Y-00398D02*
Y-00344D01*
Y-00336D02*
Y00427D01*
X00475Y-0054D02*
Y-00498D01*
Y-00486D02*
Y-00432D01*
Y-00398D02*
Y-00348D01*
Y-00332D02*
Y00427D01*
X00473Y-0054D02*
Y-00498D01*
Y-00486D02*
Y-00432D01*
Y-00398D02*
Y-0035D01*
Y-0033D02*
Y00427D01*
X00471Y-0054D02*
Y-00496D01*
Y-00488D02*
Y-00432D01*
Y-00398D02*
Y-00352D01*
Y-00328D02*
Y00427D01*
X00469Y-0054D02*
Y-00432D01*
Y-004D02*
Y-00352D01*
Y-00326D02*
Y00427D01*
X00467Y-0054D02*
Y-0043D01*
Y-004D02*
Y-00352D01*
Y-00326D02*
Y00427D01*
X00465Y-0054D02*
Y-00428D01*
Y-00402D02*
Y-0037D01*
Y-00358D02*
Y-00354D01*
Y-00326D02*
Y00151D01*
Y00177D02*
Y00309D01*
Y00311D02*
Y00341D01*
Y00367D02*
Y00427D01*
X00463Y-0054D02*
Y-00496D01*
Y-00488D02*
Y-00426D01*
Y-00404D02*
Y-00374D01*
Y-00356D02*
Y-00354D01*
Y-00326D02*
Y-00262D01*
Y-00242D02*
Y-00194D01*
Y-00174D02*
Y-0016D01*
Y-0009D02*
Y-00078D01*
Y-00028D02*
Y00023D01*
Y00071D02*
Y00145D01*
Y00183D02*
Y00233D01*
Y00253D02*
Y00287D01*
Y00311D02*
Y00335D01*
Y00373D02*
Y00427D01*
X00461Y-0054D02*
Y-00498D01*
Y-00486D02*
Y-00424D01*
Y-00406D02*
Y-00374D01*
Y-00354D02*
Y-00352D01*
Y-00326D02*
Y-00262D01*
Y-00242D02*
Y-00194D01*
Y-00174D02*
Y-0016D01*
Y-0009D02*
Y-00078D01*
Y-00024D02*
Y00021D01*
Y00077D02*
Y00141D01*
Y00189D02*
Y00233D01*
Y00253D02*
Y00285D01*
Y00311D02*
Y00331D01*
Y00379D02*
Y00427D01*
X00459Y-0054D02*
Y-00498D01*
Y-00484D02*
Y-00418D01*
Y-00412D02*
Y-00376D01*
Y-00328D02*
Y-00264D01*
Y-00244D02*
Y-00196D01*
Y-00176D02*
Y-0016D01*
Y-0009D02*
Y-00078D01*
Y-0002D02*
Y00021D01*
Y00081D02*
Y00137D01*
Y00193D02*
Y00231D01*
Y00251D02*
Y00283D01*
Y00307D02*
Y00327D01*
Y00383D02*
Y00427D01*
X00457Y-0054D02*
Y-00498D01*
Y-00484D02*
Y-00376D01*
Y-00352D02*
Y-0035D01*
Y-00328D02*
Y-00264D01*
Y-00244D02*
Y-00196D01*
Y-00176D02*
Y-0016D01*
Y-0009D02*
Y-00078D01*
Y-00016D02*
Y00021D01*
Y00083D02*
Y00133D01*
Y00195D02*
Y00231D01*
Y00251D02*
Y00281D01*
Y00305D02*
Y00323D01*
Y00385D02*
Y00427D01*
X00455Y-0054D02*
Y-00498D01*
Y-00484D02*
Y-00394D01*
Y-00384D02*
Y-00376D01*
Y-00352D02*
Y-0035D01*
Y-0033D02*
Y-00264D01*
Y-00244D02*
Y-00196D01*
Y-00176D02*
Y-00162D01*
Y-00092D02*
Y-0008D01*
Y-00014D02*
Y00021D01*
Y00087D02*
Y00131D01*
Y00197D02*
Y00231D01*
Y00251D02*
Y00277D01*
Y00303D02*
Y00321D01*
Y00387D02*
Y00427D01*
X00453Y-0054D02*
Y-00498D01*
Y-00486D02*
Y-00396D01*
Y-0038D02*
Y-00376D01*
Y-00352D02*
Y-00346D01*
Y-00332D02*
Y-00264D01*
Y-00244D02*
Y-00196D01*
Y-00176D02*
Y-00162D01*
Y-00092D02*
Y-0008D01*
Y-00012D02*
Y00021D01*
Y00089D02*
Y00127D01*
Y00199D02*
Y00231D01*
Y00251D02*
Y00275D01*
Y00301D02*
Y00317D01*
Y00389D02*
Y00427D01*
X00451Y-0054D02*
Y-00494D01*
Y-00488D02*
Y-00398D01*
Y-00378D02*
Y-00376D01*
Y-00352D02*
Y-0034D01*
Y-00338D02*
Y-00264D01*
Y-00244D02*
Y-00198D01*
Y-00178D02*
Y-00162D01*
Y-00092D02*
Y-0008D01*
Y-0001D02*
Y00019D01*
Y00091D02*
Y00125D01*
Y00201D02*
Y00231D01*
Y00251D02*
Y00273D01*
Y00299D02*
Y00315D01*
Y00391D02*
Y00427D01*
X00449Y-0054D02*
Y-004D01*
Y-00378D02*
Y-00376D01*
Y-00352D02*
Y-00266D01*
Y-00246D02*
Y-00198D01*
Y-00178D02*
Y-00162D01*
Y-00092D02*
Y-0008D01*
Y-00008D02*
Y00019D01*
Y00093D02*
Y00123D01*
Y00203D02*
Y00229D01*
Y00249D02*
Y00271D01*
Y00297D02*
Y00313D01*
Y00393D02*
Y00427D01*
X00447Y-0054D02*
Y-00486D01*
Y-00478D02*
Y-00418D01*
Y-0041D02*
Y-004D01*
Y-00378D02*
Y-00374D01*
Y-00354D02*
Y-00266D01*
Y-00246D02*
Y-00198D01*
Y-00178D02*
Y-00162D01*
Y-00094D02*
Y-00082D01*
Y-00006D02*
Y00019D01*
Y00039D02*
Y00041D01*
Y00095D02*
Y00121D01*
Y00153D02*
Y00173D01*
Y00205D02*
Y00229D01*
Y00249D02*
Y00269D01*
Y00295D02*
Y00311D01*
Y00343D02*
Y00363D01*
Y00395D02*
Y00427D01*
X00445Y-0054D02*
Y-00488D01*
Y-00476D02*
Y-00422D01*
Y-00406D02*
Y-004D01*
Y-00378D02*
Y-00372D01*
Y-00356D02*
Y-00266D01*
Y-00246D02*
Y-00198D01*
Y-00178D02*
Y-00164D01*
Y-00144D02*
Y-00082D01*
Y-00062D02*
Y-00034D01*
Y-00004D02*
Y00019D01*
Y00039D02*
Y00067D01*
Y00095D02*
Y00121D01*
Y00149D02*
Y00179D01*
Y00207D02*
Y00229D01*
Y00249D02*
Y00267D01*
Y00293D02*
Y00311D01*
Y00339D02*
Y00369D01*
Y00397D02*
Y00427D01*
X00443Y-0054D02*
Y-0049D01*
Y-00474D02*
Y-00424D01*
Y-00404D02*
Y-004D01*
Y-00378D02*
Y-0037D01*
Y-00358D02*
Y-00266D01*
Y-00246D02*
Y-00198D01*
Y-00178D02*
Y-00164D01*
Y-00144D02*
Y-00082D01*
Y-00062D02*
Y-0003D01*
Y-00004D02*
Y00017D01*
Y00037D02*
Y00071D01*
Y00097D02*
Y00119D01*
Y00145D02*
Y00181D01*
Y00207D02*
Y00229D01*
Y00249D02*
Y00265D01*
Y00291D02*
Y00309D01*
Y00335D02*
Y00371D01*
Y00397D02*
Y00427D01*
X00441Y-0054D02*
Y-0049D01*
Y-00474D02*
Y-00444D01*
Y-00434D02*
Y-00424D01*
Y-00404D02*
Y-004D01*
Y-00378D02*
Y-00268D01*
Y-00248D02*
Y-002D01*
Y-0018D02*
Y-00164D01*
Y-00144D02*
Y-00082D01*
Y-00062D02*
Y-00028D01*
Y-00002D02*
Y00017D01*
Y00037D02*
Y00073D01*
Y00097D02*
Y00117D01*
Y00143D02*
Y00183D01*
Y00209D02*
Y00227D01*
Y00247D02*
Y00263D01*
Y00289D02*
Y00307D01*
Y00333D02*
Y00373D01*
Y00399D02*
Y00427D01*
X00439Y-0054D02*
Y-0049D01*
Y-00474D02*
Y-00468D01*
Y-00458D02*
Y-00446D01*
Y-00432D02*
Y-00424D01*
Y-00404D02*
Y-004D01*
Y-00378D02*
Y-00268D01*
Y-00248D02*
Y-002D01*
Y-0018D02*
Y-00164D01*
Y-00144D02*
Y-00082D01*
Y-00064D02*
Y-00024D01*
Y-00002D02*
Y00017D01*
Y00037D02*
Y00075D01*
Y00099D02*
Y00115D01*
Y00141D02*
Y00185D01*
Y00209D02*
Y00227D01*
Y00247D02*
Y00261D01*
Y00287D02*
Y00305D01*
Y00331D02*
Y00375D01*
Y00399D02*
Y00427D01*
X00437Y-0054D02*
Y-0049D01*
Y-00474D02*
Y-0047D01*
Y-00456D02*
Y-00448D01*
Y-0043D02*
Y-00424D01*
Y-00404D02*
Y-00398D01*
Y-0038D02*
Y-00268D01*
Y-00248D02*
Y-002D01*
Y-0018D02*
Y-00166D01*
Y-00146D02*
Y-00084D01*
Y-00064D02*
Y-00024D01*
Y0D02*
Y00017D01*
Y00037D02*
Y00077D01*
Y00099D02*
Y00115D01*
Y00139D02*
Y00187D01*
Y00211D02*
Y00227D01*
Y00247D02*
Y00259D01*
Y00285D02*
Y00305D01*
Y00329D02*
Y00377D01*
Y00401D02*
Y00427D01*
X00435Y-0054D02*
Y-00488D01*
Y-00476D02*
Y-0047D01*
Y-00454D02*
Y-00448D01*
Y-0043D02*
Y-00424D01*
Y-00404D02*
Y-00396D01*
Y-00382D02*
Y-00268D01*
Y-00248D02*
Y-002D01*
Y-0018D02*
Y-00166D01*
Y-00146D02*
Y-00084D01*
Y-00064D02*
Y-00022D01*
Y0D02*
Y00017D01*
Y00037D02*
Y00079D01*
Y00101D02*
Y00113D01*
Y00137D02*
Y00189D01*
Y00211D02*
Y00227D01*
Y00247D02*
Y00257D01*
Y00281D02*
Y00303D01*
Y00327D02*
Y00379D01*
Y00401D02*
Y00427D01*
X00433Y-0054D02*
Y-00486D01*
Y-00478D02*
Y-00472D01*
Y-00454D02*
Y-00448D01*
Y-00428D02*
Y-00424D01*
Y-00404D02*
Y-0039D01*
Y-00388D02*
Y-00268D01*
Y-00248D02*
Y-00202D01*
Y-00182D02*
Y-00166D01*
Y-00146D02*
Y-00084D01*
Y-00064D02*
Y-0002D01*
Y0D02*
Y00015D01*
Y00035D02*
Y00079D01*
Y00101D02*
Y00113D01*
Y00135D02*
Y00189D01*
Y00211D02*
Y00227D01*
Y00247D02*
Y00255D01*
Y00279D02*
Y00303D01*
Y00325D02*
Y00379D01*
Y00401D02*
Y00427D01*
X00431Y-0054D02*
Y-00472D01*
Y-00454D02*
Y-00448D01*
Y-0043D02*
Y-00422D01*
Y-00406D02*
Y-0027D01*
Y-0025D02*
Y-00202D01*
Y-00182D02*
Y-00166D01*
Y-00146D02*
Y-00084D01*
Y-00064D02*
Y-0002D01*
Y00001D02*
Y00015D01*
Y00035D02*
Y00079D01*
Y00101D02*
Y00111D01*
Y00133D02*
Y00191D01*
Y00211D02*
Y00225D01*
Y00245D02*
Y00253D01*
Y00277D02*
Y00301D01*
Y00323D02*
Y00381D01*
Y00401D02*
Y00427D01*
X00429Y-0054D02*
Y-0047D01*
Y-00454D02*
Y-00448D01*
Y-0043D02*
Y-0042D01*
Y-00408D02*
Y-0027D01*
Y-0025D02*
Y-00202D01*
Y-00182D02*
Y-00166D01*
Y-00146D02*
Y-00086D01*
Y-00066D02*
Y-0002D01*
Y00001D02*
Y00015D01*
Y00035D02*
Y00081D01*
Y00101D02*
Y00111D01*
Y00133D02*
Y00191D01*
Y00213D02*
Y00225D01*
Y00245D02*
Y00251D01*
Y00275D02*
Y00301D01*
Y00323D02*
Y00381D01*
Y00401D02*
Y00427D01*
X00427Y-0054D02*
Y-0047D01*
Y-00454D02*
Y-00446D01*
Y-0043D02*
Y-00416D01*
Y-00412D02*
Y-0027D01*
Y-0025D02*
Y-00202D01*
Y-00182D02*
Y-00168D01*
Y-00148D02*
Y-00086D01*
Y-00066D02*
Y-0002D01*
Y00001D02*
Y00015D01*
Y00035D02*
Y00081D01*
Y00103D02*
Y00111D01*
Y00131D02*
Y00191D01*
Y00213D02*
Y00225D01*
Y00245D02*
Y00249D01*
Y00273D02*
Y00301D01*
Y00321D02*
Y00381D01*
Y00401D02*
Y00427D01*
X00425Y-0054D02*
Y-00468D01*
Y-00456D02*
Y-00444D01*
Y-00434D02*
Y-0027D01*
Y-0025D02*
Y-00202D01*
Y-00182D02*
Y-00168D01*
Y-00148D02*
Y-00086D01*
Y-00066D02*
Y-00018D01*
Y00001D02*
Y00015D01*
Y00035D02*
Y00081D01*
Y00103D02*
Y00109D01*
Y00131D02*
Y00191D01*
Y00213D02*
Y00225D01*
Y00245D02*
Y00247D01*
Y00271D02*
Y00299D01*
Y00321D02*
Y00381D01*
Y00401D02*
Y00427D01*
X00423Y-0054D02*
Y-00464D01*
Y-0046D02*
Y-00272D01*
Y-00184D02*
Y-00168D01*
Y-001D02*
Y-00086D01*
Y-00066D02*
Y-00018D01*
Y00001D02*
Y00013D01*
Y00033D02*
Y00081D01*
Y00103D02*
Y00109D01*
Y00131D02*
Y00191D01*
Y00213D02*
Y00223D01*
Y00243D02*
Y00245D01*
Y00269D02*
Y00299D01*
Y00321D02*
Y00381D01*
Y00401D02*
Y00427D01*
X00421Y-0054D02*
Y-00424D01*
Y-00422D02*
Y-00402D01*
Y-00396D02*
Y-00272D01*
Y-00184D02*
Y-00168D01*
Y-001D02*
Y-00086D01*
Y-00068D02*
Y-00018D01*
Y00001D02*
Y00013D01*
Y00033D02*
Y00081D01*
Y00103D02*
Y00109D01*
Y00129D02*
Y00191D01*
Y00213D02*
Y00223D01*
Y00267D02*
Y00299D01*
Y00319D02*
Y00381D01*
Y00401D02*
Y00427D01*
X00419Y-0054D02*
Y-00428D01*
Y-00416D02*
Y-00406D01*
Y-00394D02*
Y-00272D01*
Y-00184D02*
Y-0017D01*
Y-001D02*
Y-00088D01*
Y-00068D02*
Y-00018D01*
Y00001D02*
Y00013D01*
Y00033D02*
Y00081D01*
Y00103D02*
Y00109D01*
Y00129D02*
Y00191D01*
Y00213D02*
Y00223D01*
Y00265D02*
Y00299D01*
Y00319D02*
Y00381D01*
Y00401D02*
Y00427D01*
X00417Y-0054D02*
Y-00452D01*
Y-00444D02*
Y-0043D01*
Y-00414D02*
Y-00408D01*
Y-00392D02*
Y-00272D01*
Y-00184D02*
Y-0017D01*
Y-001D02*
Y-00088D01*
Y-00068D02*
Y-00018D01*
Y00001D02*
Y00013D01*
Y00033D02*
Y00081D01*
Y00103D02*
Y00107D01*
Y00129D02*
Y00191D01*
Y00213D02*
Y00223D01*
Y00263D02*
Y00297D01*
Y00319D02*
Y00381D01*
Y00401D02*
Y00427D01*
X00415Y-0054D02*
Y-00454D01*
Y-0044D02*
Y-00432D01*
Y-00414D02*
Y-00408D01*
Y-0039D02*
Y-00272D01*
Y-00186D02*
Y-0017D01*
Y-00102D02*
Y-00088D01*
Y-00068D02*
Y-00018D01*
Y00001D02*
Y00011D01*
Y00031D02*
Y00081D01*
Y00103D02*
Y00107D01*
Y00129D02*
Y00191D01*
Y00213D02*
Y00223D01*
Y00263D02*
Y00297D01*
Y00319D02*
Y00381D01*
Y00401D02*
Y00427D01*
X00413Y-0054D02*
Y-00456D01*
Y-00438D02*
Y-00432D01*
Y-00414D02*
Y-00408D01*
Y-0039D02*
Y-00274D01*
Y-00186D02*
Y-0017D01*
Y-00102D02*
Y-00088D01*
Y-00068D02*
Y-00018D01*
Y00001D02*
Y00011D01*
Y00031D02*
Y00081D01*
Y00101D02*
Y00107D01*
Y00127D02*
Y00191D01*
Y00211D02*
Y00221D01*
Y00265D02*
Y00297D01*
Y00317D02*
Y00381D01*
Y00401D02*
Y00427D01*
X00411Y-0054D02*
Y-00476D01*
Y-0047D02*
Y-00458D01*
Y-00438D02*
Y-00432D01*
Y-00414D02*
Y-00408D01*
Y-0039D02*
Y-00384D01*
Y-00376D02*
Y-00274D01*
Y-00186D02*
Y-0017D01*
Y-00102D02*
Y-0009D01*
Y-0007D02*
Y-0002D01*
Y00001D02*
Y00011D01*
Y00031D02*
Y00081D01*
Y00101D02*
Y00107D01*
Y00127D02*
Y00191D01*
Y00211D02*
Y00221D01*
Y00267D02*
Y00297D01*
Y00317D02*
Y00381D01*
Y00401D02*
Y00427D01*
X00409Y-0054D02*
Y-0048D01*
Y-00466D02*
Y-00458D01*
Y-00436D02*
Y-00432D01*
Y-00414D02*
Y-00408D01*
Y-00392D02*
Y-00386D01*
Y-00372D02*
Y-00274D01*
Y-00186D02*
Y-00172D01*
Y-00102D02*
Y-0009D01*
Y-0007D02*
Y-0002D01*
Y0D02*
Y00011D01*
Y00031D02*
Y00081D01*
Y00101D02*
Y00107D01*
Y00127D02*
Y00191D01*
Y00211D02*
Y00221D01*
Y00267D02*
Y00297D01*
Y00317D02*
Y00381D01*
Y00401D02*
Y00427D01*
X00407Y-0054D02*
Y-00482D01*
Y-00464D02*
Y-00458D01*
Y-00436D02*
Y-00432D01*
Y-00414D02*
Y-00406D01*
Y-00392D02*
Y-00388D01*
Y-00372D02*
Y-00274D01*
Y-00208D02*
Y-00206D01*
Y-00186D02*
Y-00172D01*
Y-00104D02*
Y-0009D01*
Y-0007D02*
Y-0002D01*
Y0D02*
Y00011D01*
Y00031D02*
Y00079D01*
Y00101D02*
Y00107D01*
Y00127D02*
Y00189D01*
Y00211D02*
Y00221D01*
Y00269D02*
Y00297D01*
Y00317D02*
Y00379D01*
Y00401D02*
Y00427D01*
X00405Y-0054D02*
Y-00484D01*
Y-00462D02*
Y-00458D01*
Y-00436D02*
Y-0043D01*
Y-00416D02*
Y-00404D01*
Y-00394D02*
Y-00388D01*
Y-00372D02*
Y-00276D01*
Y-00256D02*
Y-00208D01*
Y-00188D02*
Y-00172D01*
Y-00152D02*
Y-0009D01*
Y-0007D02*
Y-00022D01*
Y0D02*
Y00009D01*
Y00029D02*
Y00079D01*
Y00101D02*
Y00107D01*
Y00127D02*
Y00189D01*
Y00211D02*
Y00219D01*
Y00247D02*
Y00249D01*
Y00269D02*
Y00297D01*
Y00317D02*
Y00379D01*
Y00401D02*
Y00427D01*
X00403Y-0054D02*
Y-00484D01*
Y-00462D02*
Y-00458D01*
Y-00438D02*
Y-00428D01*
Y-00418D02*
Y-00388D01*
Y-00372D02*
Y-00276D01*
Y-00256D02*
Y-00208D01*
Y-00188D02*
Y-00172D01*
Y-00152D02*
Y-0009D01*
Y-00072D02*
Y-00022D01*
Y0D02*
Y00009D01*
Y00029D02*
Y00077D01*
Y00099D02*
Y00107D01*
Y00129D02*
Y00189D01*
Y00209D02*
Y00219D01*
Y00245D02*
Y00249D01*
Y00271D02*
Y00297D01*
Y00319D02*
Y00379D01*
Y00399D02*
Y00427D01*
X00401Y-0054D02*
Y-00504D01*
Y-00492D02*
Y-00484D01*
Y-00462D02*
Y-00456D01*
Y-00438D02*
Y-00386D01*
Y-00372D02*
Y-00276D01*
Y-00256D02*
Y-00208D01*
Y-00188D02*
Y-00174D01*
Y-00154D02*
Y-00092D01*
Y-00072D02*
Y-00024D01*
Y-00002D02*
Y00009D01*
Y00029D02*
Y00077D01*
Y00099D02*
Y00107D01*
Y00129D02*
Y00187D01*
Y00209D02*
Y00219D01*
Y00243D02*
Y00251D01*
Y00273D02*
Y00297D01*
Y00319D02*
Y00377D01*
Y00399D02*
Y00427D01*
X00399Y-0054D02*
Y-00506D01*
Y-00488D02*
Y-00484D01*
Y-00462D02*
Y-00454D01*
Y-0044D02*
Y-00386D01*
Y-00374D02*
Y-00276D01*
Y-00256D02*
Y-00208D01*
Y-00188D02*
Y-00174D01*
Y-00154D02*
Y-00092D01*
Y-00072D02*
Y-00024D01*
Y-00002D02*
Y00009D01*
Y00029D02*
Y00075D01*
Y00099D02*
Y00107D01*
Y00129D02*
Y00187D01*
Y00209D02*
Y00219D01*
Y00241D02*
Y00251D01*
Y00273D02*
Y00297D01*
Y00319D02*
Y00377D01*
Y00399D02*
Y00427D01*
X00397Y-0054D02*
Y-00508D01*
Y-00486D02*
Y-00484D01*
Y-00462D02*
Y-00452D01*
Y-00444D02*
Y-00384D01*
Y-00376D02*
Y-00276D01*
Y-00256D02*
Y-0021D01*
Y-0019D02*
Y-00174D01*
Y-00154D02*
Y-00092D01*
Y-00072D02*
Y-00026D01*
Y-00002D02*
Y00007D01*
Y00027D02*
Y00075D01*
Y00097D02*
Y00109D01*
Y00129D02*
Y00185D01*
Y00207D02*
Y00219D01*
Y00239D02*
Y00253D01*
Y00275D02*
Y00299D01*
Y00319D02*
Y00375D01*
Y00397D02*
Y00427D01*
X00395Y-0054D02*
Y-0051D01*
Y-00486D02*
Y-00484D01*
Y-00462D02*
Y-00278D01*
Y-00258D02*
Y-0021D01*
Y-0019D02*
Y-00174D01*
Y-00154D02*
Y-00092D01*
Y-00072D02*
Y-00028D01*
Y-00004D02*
Y00007D01*
Y00027D02*
Y00073D01*
Y00097D02*
Y00109D01*
Y00131D02*
Y00183D01*
Y00207D02*
Y00217D01*
Y00237D02*
Y00253D01*
Y00275D02*
Y00299D01*
Y00321D02*
Y00373D01*
Y00397D02*
Y00427D01*
X00393Y-0054D02*
Y-00526D01*
Y-00518D02*
Y-0051D01*
Y-00486D02*
Y-00482D01*
Y-00464D02*
Y-00374D01*
Y-00366D02*
Y-00278D01*
Y-00258D02*
Y-0021D01*
Y-0019D02*
Y-00174D01*
Y-00154D02*
Y-00094D01*
Y-00074D02*
Y-0003D01*
Y-00006D02*
Y00007D01*
Y00027D02*
Y00071D01*
Y00095D02*
Y00109D01*
Y00131D02*
Y00183D01*
Y00205D02*
Y00217D01*
Y00237D02*
Y00255D01*
Y00277D02*
Y00299D01*
Y00321D02*
Y00373D01*
Y00395D02*
Y00427D01*
X00391Y-0054D02*
Y-0053D01*
Y-00514D02*
Y-0051D01*
Y-00484D02*
Y-0048D01*
Y-00466D02*
Y-00376D01*
Y-00364D02*
Y-00278D01*
Y-00258D02*
Y-0021D01*
Y-0019D02*
Y-00176D01*
Y-00156D02*
Y-00094D01*
Y-00074D02*
Y-00032D01*
Y-00006D02*
Y00007D01*
Y00027D02*
Y00069D01*
Y00093D02*
Y00109D01*
Y00133D02*
Y00181D01*
Y00205D02*
Y00217D01*
Y00237D02*
Y00255D01*
Y00279D02*
Y00299D01*
Y00323D02*
Y00371D01*
Y00395D02*
Y00427D01*
X00389Y-0054D02*
Y-00532D01*
Y-00512D02*
Y-0051D01*
Y-00484D02*
Y-00478D01*
Y-00468D02*
Y-00378D01*
Y-00364D02*
Y-00278D01*
Y-00258D02*
Y-0021D01*
Y-0019D02*
Y-00176D01*
Y-00156D02*
Y-00094D01*
Y-00074D02*
Y-00034D01*
Y-00008D02*
Y00007D01*
Y00027D02*
Y00065D01*
Y00093D02*
Y00111D01*
Y00135D02*
Y00179D01*
Y00203D02*
Y00217D01*
Y00237D02*
Y00257D01*
Y00279D02*
Y00301D01*
Y00325D02*
Y00369D01*
Y00393D02*
Y00427D01*
X00387Y-0054D02*
Y-00534D01*
Y-00486D02*
Y-00378D01*
Y-00364D02*
Y-0028D01*
Y-0026D02*
Y-00212D01*
Y-00192D02*
Y-00176D01*
Y-00156D02*
Y-00094D01*
Y-00074D02*
Y-00038D01*
Y-0001D02*
Y00005D01*
Y00025D02*
Y00063D01*
Y00091D02*
Y00111D01*
Y00137D02*
Y00175D01*
Y00201D02*
Y00215D01*
Y00235D02*
Y00259D01*
Y00281D02*
Y00301D01*
Y00327D02*
Y00365D01*
Y00391D02*
Y00427D01*
X00385Y-0054D02*
Y-00534D01*
Y-0051D02*
Y-00508D01*
Y-00486D02*
Y-00378D01*
Y-00364D02*
Y-0028D01*
Y-0026D02*
Y-00212D01*
Y-00192D02*
Y-00176D01*
Y-00156D02*
Y-00094D01*
Y-00074D02*
Y-00042D01*
Y-0001D02*
Y00005D01*
Y00025D02*
Y00057D01*
Y00089D02*
Y00113D01*
Y00139D02*
Y00173D01*
Y00201D02*
Y00215D01*
Y00235D02*
Y00259D01*
Y00283D02*
Y00303D01*
Y00329D02*
Y00363D01*
Y00391D02*
Y00427D01*
X00383Y-0054D02*
Y-00534D01*
Y-00488D02*
Y-00376D01*
Y-00364D02*
Y-0028D01*
Y-0026D02*
Y-00212D01*
Y-00192D02*
Y-00176D01*
Y-00158D02*
Y-00096D01*
Y-00076D02*
Y-0005D01*
Y-00012D02*
Y00005D01*
Y00025D02*
Y00051D01*
Y00087D02*
Y00113D01*
Y00143D02*
Y00169D01*
Y00199D02*
Y00215D01*
Y00235D02*
Y00261D01*
Y00283D02*
Y00303D01*
Y00333D02*
Y00359D01*
Y00389D02*
Y00427D01*
X00381Y-0054D02*
Y-00534D01*
Y-00508D02*
Y-00506D01*
Y-00488D02*
Y-00374D01*
Y-00366D02*
Y-0028D01*
Y-0026D02*
Y-00212D01*
Y-00192D02*
Y-00178D01*
Y-00108D02*
Y-00096D01*
Y-00014D02*
Y00005D01*
Y00085D02*
Y00115D01*
Y00151D02*
Y00161D01*
Y00197D02*
Y00215D01*
Y00235D02*
Y00261D01*
Y00285D02*
Y00305D01*
Y00341D02*
Y00351D01*
Y00387D02*
Y00427D01*
X00379Y-0054D02*
Y-00534D01*
Y-00508D02*
Y-00502D01*
Y-00492D02*
Y-0028D01*
Y-0026D02*
Y-00212D01*
Y-00192D02*
Y-00178D01*
Y-00108D02*
Y-00096D01*
Y-00016D02*
Y00003D01*
Y00083D02*
Y00117D01*
Y00195D02*
Y00215D01*
Y00235D02*
Y00263D01*
Y00285D02*
Y00307D01*
Y00385D02*
Y00427D01*
X00377Y-0054D02*
Y-00534D01*
Y-00508D02*
Y-00282D01*
Y-00262D02*
Y-00214D01*
Y-00194D02*
Y-00178D01*
Y-00108D02*
Y-00096D01*
Y-0002D02*
Y00003D01*
Y00081D02*
Y00119D01*
Y00193D02*
Y00213D01*
Y00233D02*
Y00265D01*
Y00287D02*
Y00309D01*
Y00383D02*
Y00427D01*
X00375Y-0054D02*
Y-00534D01*
Y-0051D02*
Y-0037D01*
Y-00368D02*
Y-00282D01*
Y-00262D02*
Y-00214D01*
Y-00194D02*
Y-00178D01*
Y-0011D02*
Y-00098D01*
Y-00022D02*
Y00003D01*
Y00077D02*
Y00121D01*
Y00191D02*
Y00213D01*
Y00233D02*
Y00265D01*
Y00289D02*
Y00311D01*
Y00381D02*
Y00427D01*
X00373Y-0054D02*
Y-00534D01*
Y-0051D02*
Y-00374D01*
Y-00364D02*
Y-00282D01*
Y-00262D02*
Y-00214D01*
Y-00194D02*
Y-0018D01*
Y-0011D02*
Y-00098D01*
Y-00026D02*
Y00003D01*
Y00075D02*
Y00123D01*
Y00187D02*
Y00213D01*
Y00233D02*
Y00267D01*
Y00289D02*
Y00313D01*
Y00377D02*
Y00427D01*
X00371Y-0054D02*
Y-00532D01*
Y-00512D02*
Y-00376D01*
Y-00364D02*
Y-00282D01*
Y-00262D02*
Y-00214D01*
Y-00194D02*
Y-0018D01*
Y-0011D02*
Y-00098D01*
Y-0003D02*
Y00003D01*
Y00071D02*
Y00125D01*
Y00185D02*
Y00213D01*
Y00233D02*
Y00267D01*
Y00291D02*
Y00315D01*
Y00375D02*
Y00427D01*
X00369Y-0054D02*
Y-0053D01*
Y-00514D02*
Y-00376D01*
Y-00364D02*
Y-00284D01*
Y-00264D02*
Y-00216D01*
Y-00196D02*
Y-0018D01*
Y-0011D02*
Y-00098D01*
Y-00034D02*
Y00001D01*
Y00067D02*
Y00129D01*
Y00181D02*
Y00211D01*
Y00231D02*
Y00269D01*
Y00291D02*
Y00319D01*
Y00371D02*
Y00427D01*
X00367Y-0054D02*
Y-00526D01*
Y-00518D02*
Y-00376D01*
Y-00364D02*
Y-00284D01*
Y-00264D02*
Y-00216D01*
Y-00196D02*
Y-0018D01*
Y-0011D02*
Y-00098D01*
Y-0004D02*
Y00001D01*
Y00061D02*
Y00133D01*
Y00177D02*
Y00211D01*
Y00231D02*
Y00269D01*
Y00293D02*
Y00323D01*
Y00367D02*
Y00427D01*
X00365Y-0054D02*
Y-00374D01*
Y-00364D02*
Y-00284D01*
Y-00264D02*
Y-00216D01*
Y-00196D02*
Y-0018D01*
Y-00112D02*
Y-00098D01*
Y-00052D02*
Y00001D01*
Y00049D02*
Y00139D01*
Y00171D02*
Y00211D01*
Y00231D02*
Y00271D01*
Y00293D02*
Y00329D01*
Y00361D02*
Y00427D01*
X00363Y-0054D02*
Y00427D01*
X00361Y-0054D02*
Y00427D01*
X00359Y-0054D02*
Y00427D01*
X00357Y-0054D02*
Y00427D01*
X00355Y-0054D02*
Y00427D01*
X00353Y-0054D02*
Y00427D01*
X00351Y-0054D02*
Y00427D01*
X00349Y-0054D02*
Y00427D01*
X00347Y-0054D02*
Y00427D01*
X00345Y-0054D02*
Y00427D01*
X00343Y-0054D02*
Y00427D01*
X00341Y-0054D02*
Y00427D01*
X00339Y-0054D02*
Y00427D01*
X00337Y-0054D02*
Y00427D01*
X00335Y-0054D02*
Y00427D01*
G54D49*
X-00314Y-00288D02*
X-00287D01*
X-00317Y-00291D02*
X-00284D01*
X-0032Y-00294D02*
X-00281D01*
X-00323Y-00297D02*
X-00278D01*
X-00323Y-003D02*
X-00275D01*
X-00188Y-00303D02*
X-00182D01*
X-00326D02*
X-00275D01*
X-00191Y-00306D02*
X-00176D01*
X-00326D02*
X-00275D01*
X-00194Y-00309D02*
X-00176D01*
X-00326D02*
X-00275D01*
X-00419D02*
X-00407D01*
X-00194Y-00312D02*
X-00176D01*
X-00326D02*
X-00275D01*
X-00425D02*
X-00401D01*
X-00194Y-00315D02*
X-00176D01*
X-00326D02*
X-00275D01*
X-00428D02*
X-00398D01*
X-00191Y-00318D02*
X-00179D01*
X-00326D02*
X-00275D01*
X-00431D02*
X-00395D01*
X-00323Y-00321D02*
X-00275D01*
X-00434D02*
X-00395D01*
X-00323Y-00324D02*
X-00278D01*
X-00434D02*
X-00395D01*
X-0032Y-00327D02*
X-00281D01*
X-00386D02*
X-00368D01*
X-00434D02*
X-00392D01*
X-00191Y-0033D02*
X-00179D01*
X-00317D02*
X-00284D01*
X-00389D02*
X-00362D01*
X-00434D02*
X-00392D01*
X-00194Y-00333D02*
X-00176D01*
X-00314D02*
X-00287D01*
X-00392D02*
X-00362D01*
X-00434D02*
X-00395D01*
X-00197Y-00336D02*
X-00176D01*
X-00305D02*
X-00296D01*
X-00431D02*
X-00359D01*
X-00197Y-00339D02*
X-00176D01*
X-00395D02*
X-00359D01*
X-00431D02*
X-00398D01*
X-00197Y-00342D02*
X-00176D01*
X-00347D02*
X-00332D01*
X-00395D02*
X-00359D01*
X-00428D02*
X-00398D01*
X-00194Y-00345D02*
X-00176D01*
X-00353D02*
X-00329D01*
X-00395D02*
X-00359D01*
X-00425D02*
X-00404D01*
X-00191Y-00348D02*
X-00182D01*
X-00356D02*
X-00326D01*
X-00395D02*
X-00359D01*
X-00416D02*
X-00413D01*
X-00356Y-00351D02*
X-00323D01*
X-00395D02*
X-00359D01*
X-00206Y-00354D02*
X-00194D01*
X-00308D02*
X-00296D01*
X-00356D02*
X-00323D01*
X-00392D02*
X-00362D01*
X-00209Y-00357D02*
X-00191D01*
X-00314D02*
X-0029D01*
X-00356D02*
X-00323D01*
X-00389D02*
X-00365D01*
X-00212Y-0036D02*
X-00188D01*
X-00317D02*
X-00287D01*
X-00356D02*
X-00323D01*
X-00386D02*
X-00368D01*
X-00212Y-00363D02*
X-00188D01*
X-00272D02*
X-00257D01*
X-00317D02*
X-00287D01*
X-00356D02*
X-00323D01*
X-00212Y-00366D02*
X-00188D01*
X-00236D02*
X-00221D01*
X-00275D02*
X-00254D01*
X-00317D02*
X-00287D01*
X-00356D02*
X-00323D01*
X-00212Y-00369D02*
X-00188D01*
X-00239D02*
X-00218D01*
X-00278D02*
X-00251D01*
X-00317D02*
X-00287D01*
X-00353D02*
X-00326D01*
X-00209Y-00372D02*
X-00191D01*
X-00242D02*
X-00218D01*
X-00278D02*
X-00251D01*
X-00317D02*
X-00287D01*
X-0035D02*
X-00329D01*
X-00206Y-00375D02*
X-00194D01*
X-00242D02*
X-00215D01*
X-00281D02*
X-00251D01*
X-00317D02*
X-00287D01*
X-00341D02*
X-00338D01*
X-00242Y-00378D02*
X-00215D01*
X-00278D02*
X-00251D01*
X-00314D02*
X-0029D01*
X-00242Y-00381D02*
X-00218D01*
X-00278D02*
X-00251D01*
X-00311D02*
X-00293D01*
X-00242Y-00384D02*
X-00218D01*
X-00278D02*
X-00254D01*
X-00305D02*
X-00299D01*
X-00239Y-00387D02*
X-00221D01*
X-00272D02*
X-00257D01*
X-00233Y-0039D02*
X-00227D01*
X-0029Y-00393D02*
X-00287D01*
X-00329D02*
X-0032D01*
X-00299Y-00396D02*
X-00281D01*
X-00332D02*
X-00314D01*
X-00257Y-00399D02*
X-00245D01*
X-00302D02*
X-00278D01*
X-00335D02*
X-00311D01*
X-00263Y-00402D02*
X-00242D01*
X-00302D02*
X-00275D01*
X-00338D02*
X-00311D01*
X-00266Y-00405D02*
X-00239D01*
X-00302D02*
X-00275D01*
X-00338D02*
X-00311D01*
X-00218Y-00408D02*
X-00209D01*
X-00266D02*
X-00236D01*
X-00302D02*
X-00275D01*
X-00338D02*
X-00311D01*
X-00359D02*
X-00347D01*
X-00224Y-00411D02*
X-00203D01*
X-00269D02*
X-00236D01*
X-00302D02*
X-00275D01*
X-00335D02*
X-00311D01*
X-00365D02*
X-00344D01*
X-00227Y-00414D02*
X-002D01*
X-00269D02*
X-00236D01*
X-00302D02*
X-00275D01*
X-00335D02*
X-00314D01*
X-00365D02*
X-00341D01*
X-0023Y-00417D02*
X-00197D01*
X-00269D02*
X-00236D01*
X-00299D02*
X-00278D01*
X-00332D02*
X-00317D01*
X-00365D02*
X-00341D01*
X-0023Y-0042D02*
X-00197D01*
X-00266D02*
X-00236D01*
X-00296D02*
X-00281D01*
X-00365D02*
X-00341D01*
X-00185Y-00423D02*
X-00167D01*
X-0023D02*
X-00197D01*
X-00266D02*
X-00239D01*
X-00365D02*
X-00344D01*
X-00191Y-00426D02*
X-00164D01*
X-0023D02*
X-00197D01*
X-00263D02*
X-00242D01*
X-00362D02*
X-00344D01*
X-00194Y-00429D02*
X-00161D01*
X-0023D02*
X-00197D01*
X-00257D02*
X-00245D01*
X-00359D02*
X-00347D01*
X-00194Y-00432D02*
X-00158D01*
X-0023D02*
X-00197D01*
X-00146Y-00435D02*
X-00134D01*
X-00194D02*
X-00158D01*
X-00227D02*
X-002D01*
X-00374D02*
X-00362D01*
X-00152Y-00438D02*
X-00128D01*
X-00197D02*
X-00158D01*
X-00224D02*
X-00203D01*
X-00377D02*
X-00359D01*
X-00155Y-00441D02*
X-00125D01*
X-00197D02*
X-00158D01*
X-00221D02*
X-00206D01*
X-00377D02*
X-00356D01*
X-00194Y-00444D02*
X-00122D01*
X-00377D02*
X-00356D01*
X-00158Y-00447D02*
X-00122D01*
X-00194D02*
X-00161D01*
X-00377D02*
X-00356D01*
X-00191Y-0045D02*
X-00122D01*
X-00377D02*
X-00359D01*
X-00161Y-00453D02*
X-00122D01*
X-00191D02*
X-00164D01*
X-00374D02*
X-00362D01*
X-00161Y-00456D02*
X-00122D01*
X-00185D02*
X-0017D01*
X-00161Y-00459D02*
X-00122D01*
X-00158Y-00462D02*
X-00122D01*
X-00371D02*
X-00368D01*
X-00158Y-00465D02*
X-00122D01*
X-00377D02*
X-00362D01*
X-00155Y-00468D02*
X-00125D01*
X-00377D02*
X-00359D01*
X-00152Y-00471D02*
X-00128D01*
X-00377D02*
X-00359D01*
X-00146Y-00474D02*
X-00134D01*
X-00377D02*
X-00359D01*
X-00377Y-00477D02*
X-00362D01*
G54D50*
X00333Y00431D03*
G54D51*
X00419Y00431D03*
G54D52*
X00336Y-00057D03*
G54D53*
X00419Y-00537D03*
G54D54*
X00501Y-00052D03*
M02*