%FSTAX23Y23*%
%MOIN*%
%SFA1B1*%

%IPPOS*%
%ADD20C,0.010000*%
%ADD27C,0.009840*%
%ADD28C,0.003940*%
%ADD29C,0.007870*%
%ADD30C,0.006000*%
%ADD31R,0.020000X0.010000*%
%LNsensorrig-1*%
%LPD*%
G54D20*
X-00224Y-00475D02*
Y-00305D01*
X-00244Y-00455D02*
X-00224Y-00475D01*
X-00229Y-00305D02*
X-00224D01*
X-00364Y-0044D02*
X-00359Y-00435D01*
X-00364Y-0044D02*
X-00344D01*
X-00364D02*
Y-0042D01*
X-00359Y-00435D02*
X-00229Y-00305D01*
X-00399D02*
X-00379Y-00285D01*
X-00399Y-00305D02*
X-00379Y-00325D01*
X-00224Y-00475D02*
X-00204Y-00455D01*
X-00399Y-00305D02*
X-00224D01*
X-00339Y-0058D02*
X-00309D01*
X-00469D02*
Y-0045D01*
Y-0031D02*
Y-0018D01*
X-00064Y-0058D02*
Y-0018D01*
X-00469Y-0045D02*
Y-0031D01*
Y-0058D02*
X-00409D01*
X-00134D02*
X-00064D01*
X-00339Y-0018D02*
X-00309D01*
X-00134D02*
X-00064D01*
X-00239D02*
X-00209D01*
X-00239Y-0058D02*
X-00209D01*
X-00439D02*
X-00429D01*
X-00434Y-00595D02*
X-00409D01*
X-00399Y-00305D02*
X-00224D01*
Y-00475D02*
X-00204Y-00455D01*
X-00399Y-00305D02*
X-00379Y-00325D01*
X-00399Y-00305D02*
X-00379Y-00285D01*
X-00359Y-00435D02*
X-00229Y-00305D01*
X-00364Y-0044D02*
Y-0042D01*
Y-0044D02*
X-00344D01*
X-00364D02*
X-00359Y-00435D01*
X-00229Y-00305D02*
X-00224D01*
Y-00475D02*
Y-00305D01*
X-00244Y-00455D02*
X-00224Y-00475D01*
X-00469Y-0018D02*
X-00414D01*
X-00143Y00404D02*
X00206D01*
X-00143Y00274D02*
X00206D01*
X-00143D02*
Y00404D01*
X00206Y00274D02*
Y00404D01*
X-00449Y00375D02*
X-00312D01*
X-00346D02*
Y00482D01*
X-00416D02*
X-00346D01*
X-00416Y00375D02*
Y00482D01*
X00351Y00375D02*
Y00482D01*
X00421*
Y00375D02*
Y00482D01*
X00317Y00375D02*
X00455D01*
G54D27*
X00428Y-00143D02*
D01*
X00428Y-00143*
X00428Y-00143*
X00428Y-00142*
X00427Y-00142*
X00427Y-00142*
X00427Y-00141*
X00427Y-00141*
X00427Y-00141*
X00427Y-0014*
X00426Y-0014*
X00426Y-0014*
X00426Y-0014*
X00426Y-00139*
X00425Y-00139*
X00425Y-00139*
X00425Y-00139*
X00425Y-00139*
X00424Y-00139*
X00424Y-00138*
X00424Y-00138*
X00423Y-00138*
X00423Y-00138*
X00423*
X00422Y-00138*
X00422Y-00138*
X00422Y-00138*
X00421Y-00139*
X00421Y-00139*
X00421Y-00139*
X0042Y-00139*
X0042Y-00139*
X0042Y-00139*
X00419Y-0014*
X00419Y-0014*
X00419Y-0014*
X00419Y-0014*
X00419Y-00141*
X00418Y-00141*
X00418Y-00141*
X00418Y-00142*
X00418Y-00142*
X00418Y-00142*
X00418Y-00143*
X00418Y-00143*
X00418Y-00143*
X00418Y-00144*
X00418Y-00144*
X00418Y-00144*
X00418Y-00145*
X00418Y-00145*
X00418Y-00145*
X00418Y-00146*
X00419Y-00146*
X00419Y-00146*
X00419Y-00146*
X00419Y-00147*
X00419Y-00147*
X0042Y-00147*
X0042Y-00147*
X0042Y-00147*
X00421Y-00148*
X00421Y-00148*
X00421Y-00148*
X00422Y-00148*
X00422Y-00148*
X00422Y-00148*
X00423Y-00148*
X00423*
X00423Y-00148*
X00424Y-00148*
X00424Y-00148*
X00424Y-00148*
X00425Y-00148*
X00425Y-00148*
X00425Y-00147*
X00425Y-00147*
X00426Y-00147*
X00426Y-00147*
X00426Y-00147*
X00426Y-00146*
X00427Y-00146*
X00427Y-00146*
X00427Y-00146*
X00427Y-00145*
X00427Y-00145*
X00427Y-00145*
X00428Y-00144*
X00428Y-00144*
X00428Y-00144*
X00428Y-00143*
X-00293Y-0009D02*
D01*
X-00293Y-0009*
X-00293Y-00089*
X-00293Y-00089*
X-00293Y-00089*
X-00293Y-00088*
X-00293Y-00088*
X-00293Y-00088*
X-00294Y-00087*
X-00294Y-00087*
X-00294Y-00087*
X-00294Y-00087*
X-00294Y-00086*
X-00295Y-00086*
X-00295Y-00086*
X-00295Y-00086*
X-00296Y-00086*
X-00296Y-00085*
X-00296Y-00085*
X-00297Y-00085*
X-00297Y-00085*
X-00297Y-00085*
X-00298Y-00085*
X-00298*
X-00298Y-00085*
X-00299Y-00085*
X-00299Y-00085*
X-00299Y-00085*
X-003Y-00085*
X-003Y-00086*
X-003Y-00086*
X-003Y-00086*
X-00301Y-00086*
X-00301Y-00086*
X-00301Y-00087*
X-00301Y-00087*
X-00302Y-00087*
X-00302Y-00087*
X-00302Y-00088*
X-00302Y-00088*
X-00302Y-00088*
X-00302Y-00089*
X-00303Y-00089*
X-00303Y-00089*
X-00303Y-0009*
X-00303Y-0009*
X-00303Y-0009*
X-00303Y-00091*
X-00303Y-00091*
X-00302Y-00091*
X-00302Y-00092*
X-00302Y-00092*
X-00302Y-00092*
X-00302Y-00093*
X-00302Y-00093*
X-00301Y-00093*
X-00301Y-00093*
X-00301Y-00094*
X-00301Y-00094*
X-003Y-00094*
X-003Y-00094*
X-003Y-00094*
X-003Y-00095*
X-00299Y-00095*
X-00299Y-00095*
X-00299Y-00095*
X-00298Y-00095*
X-00298Y-00095*
X-00298*
X-00297Y-00095*
X-00297Y-00095*
X-00297Y-00095*
X-00296Y-00095*
X-00296Y-00095*
X-00296Y-00094*
X-00295Y-00094*
X-00295Y-00094*
X-00295Y-00094*
X-00294Y-00094*
X-00294Y-00093*
X-00294Y-00093*
X-00294Y-00093*
X-00294Y-00093*
X-00293Y-00092*
X-00293Y-00092*
X-00293Y-00092*
X-00293Y-00091*
X-00293Y-00091*
X-00293Y-00091*
X-00293Y-0009*
X-00293Y-0009*
X00404Y-00255D02*
D01*
X00404Y-00255*
X00404Y-00255*
X00404Y-00254*
X00404Y-00254*
X00404Y-00254*
X00404Y-00253*
X00403Y-00253*
X00403Y-00253*
X00403Y-00253*
X00403Y-00252*
X00403Y-00252*
X00402Y-00252*
X00402Y-00252*
X00402Y-00251*
X00402Y-00251*
X00401Y-00251*
X00401Y-00251*
X00401Y-00251*
X004Y-00251*
X004Y-00251*
X004Y-00251*
X00399Y-0025*
X00399*
X00399Y-00251*
X00398Y-00251*
X00398Y-00251*
X00398Y-00251*
X00397Y-00251*
X00397Y-00251*
X00397Y-00251*
X00396Y-00251*
X00396Y-00252*
X00396Y-00252*
X00396Y-00252*
X00395Y-00252*
X00395Y-00253*
X00395Y-00253*
X00395Y-00253*
X00395Y-00253*
X00394Y-00254*
X00394Y-00254*
X00394Y-00254*
X00394Y-00255*
X00394Y-00255*
X00394Y-00255*
X00394Y-00256*
X00394Y-00256*
X00394Y-00256*
X00394Y-00257*
X00394Y-00257*
X00395Y-00257*
X00395Y-00258*
X00395Y-00258*
X00395Y-00258*
X00395Y-00259*
X00396Y-00259*
X00396Y-00259*
X00396Y-00259*
X00396Y-00259*
X00397Y-0026*
X00397Y-0026*
X00397Y-0026*
X00398Y-0026*
X00398Y-0026*
X00398Y-0026*
X00399Y-0026*
X00399Y-0026*
X00399*
X004Y-0026*
X004Y-0026*
X004Y-0026*
X00401Y-0026*
X00401Y-0026*
X00401Y-0026*
X00402Y-0026*
X00402Y-00259*
X00402Y-00259*
X00402Y-00259*
X00403Y-00259*
X00403Y-00259*
X00403Y-00258*
X00403Y-00258*
X00403Y-00258*
X00404Y-00257*
X00404Y-00257*
X00404Y-00257*
X00404Y-00256*
X00404Y-00256*
X00404Y-00256*
X00404Y-00255*
X00188Y-00661D02*
D01*
X00188Y-00661*
X00188Y-0066*
X00188Y-0066*
X00188Y-0066*
X00188Y-00659*
X00188Y-00659*
X00188Y-00659*
X00188Y-00658*
X00188Y-00658*
X00187Y-00658*
X00187Y-00658*
X00187Y-00657*
X00187Y-00657*
X00186Y-00657*
X00186Y-00657*
X00186Y-00656*
X00185Y-00656*
X00185Y-00656*
X00185Y-00656*
X00184Y-00656*
X00184Y-00656*
X00184Y-00656*
X00183*
X00183Y-00656*
X00183Y-00656*
X00182Y-00656*
X00182Y-00656*
X00182Y-00656*
X00181Y-00656*
X00181Y-00657*
X00181Y-00657*
X00181Y-00657*
X0018Y-00657*
X0018Y-00658*
X0018Y-00658*
X0018Y-00658*
X00179Y-00658*
X00179Y-00659*
X00179Y-00659*
X00179Y-00659*
X00179Y-0066*
X00179Y-0066*
X00179Y-0066*
X00179Y-00661*
X00179Y-00661*
X00179Y-00661*
X00179Y-00662*
X00179Y-00662*
X00179Y-00662*
X00179Y-00663*
X00179Y-00663*
X00179Y-00663*
X00179Y-00664*
X0018Y-00664*
X0018Y-00664*
X0018Y-00664*
X0018Y-00665*
X00181Y-00665*
X00181Y-00665*
X00181Y-00665*
X00181Y-00665*
X00182Y-00665*
X00182Y-00666*
X00182Y-00666*
X00183Y-00666*
X00183Y-00666*
X00183Y-00666*
X00184*
X00184Y-00666*
X00184Y-00666*
X00185Y-00666*
X00185Y-00666*
X00185Y-00665*
X00186Y-00665*
X00186Y-00665*
X00186Y-00665*
X00187Y-00665*
X00187Y-00665*
X00187Y-00664*
X00187Y-00664*
X00188Y-00664*
X00188Y-00664*
X00188Y-00663*
X00188Y-00663*
X00188Y-00663*
X00188Y-00662*
X00188Y-00662*
X00188Y-00662*
X00188Y-00661*
X00188Y-00661*
G54D28*
X-00029Y-00741D02*
Y-00713D01*
X0001Y-00741D02*
Y-00713D01*
X-00029Y-00741D02*
X0001D01*
X-00029Y-00713D02*
X0001D01*
X00401Y00335D02*
X00429D01*
X00401Y00295D02*
X00429D01*
X00401D02*
Y00335D01*
X00429Y00295D02*
Y00335D01*
X00132Y00452D02*
X0016D01*
X00132Y00492D02*
X0016D01*
Y00452D02*
Y00492D01*
X00132Y00452D02*
Y00492D01*
X-00004Y0048D02*
X00014Y005D01*
Y0046D02*
Y005D01*
X-00004Y00479D02*
X00014Y0046D01*
X-00006D02*
Y005D01*
X-00012Y0046D02*
Y005D01*
Y0046D02*
X-00006D01*
X-00012Y005D02*
X-00006D01*
X-00142Y00186D02*
X-00114D01*
X-00142Y00226D02*
X-00114D01*
Y00186D02*
Y00226D01*
X-00142Y00186D02*
Y00226D01*
X-00221Y00117D02*
X-00193D01*
X-00221Y00157D02*
X-00193D01*
Y00117D02*
Y00157D01*
X-00221Y00117D02*
Y00157D01*
X-00266Y00281D02*
Y0031D01*
X-00226Y00281D02*
Y0031D01*
X-00266Y00281D02*
X-00226D01*
X-00266Y0031D02*
X-00226D01*
X00299Y-00197D02*
X00327D01*
X00299Y-00157D02*
X00327D01*
Y-00197D02*
Y-00157D01*
X00299Y-00197D02*
Y-00157D01*
X00157Y-00201D02*
Y-00173D01*
X00117Y-00201D02*
Y-00173D01*
X00157*
X00117Y-00201D02*
X00157D01*
X00403Y-00357D02*
Y-00329D01*
X00443Y-00357D02*
Y-00329D01*
X00403Y-00357D02*
X00443D01*
X00403Y-00329D02*
X00443D01*
X00472Y-00477D02*
Y-00449D01*
X00432Y-00477D02*
Y-00449D01*
X00472*
X00432Y-00477D02*
X00472D01*
X00235Y-00603D02*
Y-00575D01*
X00275Y-00603D02*
Y-00575D01*
X00235Y-00603D02*
X00275D01*
X00235Y-00575D02*
X00275D01*
X-00259Y-00678D02*
X-00231D01*
X-00259Y-00718D02*
X-00231D01*
X-00259D02*
Y-00678D01*
X-00231Y-00718D02*
Y-00678D01*
X-00148Y-00741D02*
Y-00713D01*
X-00108Y-00741D02*
Y-00713D01*
X-00148Y-00741D02*
X-00108D01*
X-00148Y-00713D02*
X-00108D01*
X00412Y-0022D02*
Y-00191D01*
X00452Y-0022D02*
Y-00191D01*
X00412Y-0022D02*
X00452D01*
X00412Y-00191D02*
X00452D01*
G54D29*
X-00063Y00463D02*
Y00499D01*
X00358Y-0013D02*
Y00216D01*
X00295Y-0013D02*
Y00216D01*
Y-0013D02*
X00358D01*
X00295Y00216D02*
X00358D01*
X-00372Y-00078D02*
X-0034D01*
X-00372D02*
Y-00047D01*
Y00039D02*
X-0034D01*
X-00372Y00007D02*
Y00039D01*
X00194Y-00383D02*
Y-0032D01*
X00386Y-00383D02*
Y-0032D01*
X00194Y-00383D02*
X00386D01*
X00194Y-0032D02*
X00386D01*
X0011Y-00649D02*
X00141D01*
X0011D02*
Y-00618D01*
Y-00531D02*
X00141D01*
X0011Y-00562D02*
Y-00531D01*
X-004Y-0048D02*
Y-00454D01*
X-00374Y-0048*
Y-00454*
X-00195Y-00495D02*
X-00175D01*
X-00169Y-00489*
Y-00469*
X-00162*
X-00155Y-00476*
Y-00482*
X-00169Y-00469D02*
X-00195D01*
X-00439Y-0032D02*
X-00413Y-00294D01*
X-00426Y-00307*
X-00439Y-00294*
X-00413Y-0032*
X-00439D02*
X-00413Y-00294D01*
X-00426Y-00307*
X-00439Y-00294*
X-00413Y-0032*
X-00195Y-00495D02*
X-00175D01*
X-00169Y-00489*
Y-00469*
X-00162*
X-00155Y-00476*
Y-00482*
X-00169Y-00469D02*
X-00195D01*
X-004Y-0048D02*
Y-00454D01*
X-00374Y-0048*
Y-00454*
G54D30*
X-00492Y-00107D02*
Y-0014D01*
X-00485Y-00147*
X-00472*
X-00465Y-0014*
Y-00107*
X-00425Y-00147D02*
X-00452D01*
X-00425Y-0012*
Y-00114*
X-00432Y-00107*
X-00445*
X-00452Y-00114*
X00262Y00348D02*
X00256Y00354D01*
X00242*
X00236Y00348*
Y00341*
X00242Y00334*
X00256*
X00262Y00328*
Y00321*
X00256Y00314*
X00242*
X00236Y00321*
X00302Y00314D02*
X00276D01*
X00302Y00341*
Y00348*
X00296Y00354*
X00282*
X00276Y00348*
X-00229Y00446D02*
X-00235Y00453D01*
X-00249*
X-00255Y00446*
Y0044*
X-00249Y00433*
X-00235*
X-00229Y00426*
Y0042*
X-00235Y00413*
X-00249*
X-00255Y0042*
X-00215Y00413D02*
X-00202D01*
X-00209*
Y00453*
X-00215Y00446*
X00127Y-00423D02*
X0016D01*
X00167Y-00416*
Y-00403*
X0016Y-00396*
X00127*
X00167Y-00363D02*
X00127D01*
X00147Y-00383*
Y-00356*
X-00423Y00089D02*
Y00055D01*
X-00416Y00049*
X-00403*
X-00396Y00055*
Y00089*
X-00383Y00082D02*
X-00376Y00089D01*
X-00363*
X-00356Y00082*
Y00075*
X-00363Y00069*
X-00369*
X-00363*
X-00356Y00062*
Y00055*
X-00363Y00049*
X-00376*
X-00383Y00055*
X00295Y00276D02*
Y00242D01*
X00301Y00236*
X00315*
X00321Y00242*
Y00276*
X00335Y00236D02*
X00348D01*
X00341*
Y00276*
X00335Y00269*
X00119Y-00477D02*
Y-00517D01*
X00139*
X00145Y-00511*
Y-00484*
X00139Y-00477*
X00119*
X00159Y-00517D02*
X00172D01*
X00165*
Y-00477*
X00159Y-00484*
X00468Y-00189D02*
X00461Y-00196D01*
Y-00209*
X00468Y-00216*
X00495*
X00501Y-00209*
Y-00196*
X00495Y-00189*
X00501Y-00176D02*
Y-00163D01*
Y-00169*
X00461*
X00468Y-00176*
X-00239Y-00744D02*
X-00245Y-00737D01*
X-00259*
X-00265Y-00744*
Y-0077*
X-00259Y-00777*
X-00245*
X-00239Y-0077*
X-00199Y-00777D02*
X-00225D01*
X-00199Y-0075*
Y-00744*
X-00205Y-00737*
X-00219*
X-00225Y-00744*
X0038Y-00544D02*
X00373Y-0055D01*
Y-00564*
X0038Y-0057*
X00406*
X00413Y-00564*
Y-0055*
X00406Y-00544*
X0038Y-0053D02*
X00373Y-00524D01*
Y-0051*
X0038Y-00504*
X00386*
X00393Y-0051*
Y-00517*
Y-0051*
X004Y-00504*
X00406*
X00413Y-0051*
Y-00524*
X00406Y-0053*
X-00492Y00114D02*
X-00499Y00107D01*
Y00094*
X-00492Y00087*
X-00465*
X-00459Y00094*
Y00107*
X-00465Y00114*
X-00499Y00154D02*
Y00127D01*
X-00479*
X-00485Y00141*
Y00147*
X-00479Y00154*
X-00465*
X-00459Y00147*
Y00134*
X-00465Y00127*
X-00465Y00318D02*
X-00472Y00325D01*
X-00485*
X-00492Y00318*
Y00292*
X-00485Y00285*
X-00472*
X-00465Y00292*
X-00432Y00285D02*
Y00325D01*
X-00452Y00305*
X-00425*
X-00155Y0053D02*
Y0049D01*
X-00135*
X-00128Y00496*
Y00523*
X-00135Y0053*
X-00155*
X-00088Y0049D02*
X-00115D01*
X-00088Y00516*
Y00523*
X-00095Y0053*
X-00108*
X-00115Y00523*
X-00039Y00256D02*
X-00026D01*
X-00032*
Y00216*
X-00039*
X-00026*
X0002Y00249D02*
X00013Y00256D01*
X0*
X-00006Y00249*
Y00223*
X0Y00216*
X00013*
X0002Y00223*
X0006Y00249D02*
X00053Y00256D01*
X0004*
X00033Y00249*
Y00243*
X0004Y00236*
X00053*
X0006Y00229*
Y00223*
X00053Y00216*
X0004*
X00033Y00223*
X00073Y00216D02*
Y00256D01*
X00093*
X001Y00249*
Y00236*
X00093Y00229*
X00073*
X00113Y00216D02*
X00127D01*
X0012*
Y00256*
X00113Y00249*
X00413Y00236D02*
Y00276D01*
X00433*
X0044Y00269*
Y00256*
X00433Y00249*
X00413*
X00426D02*
X0044Y00236D01*
X0048D02*
X00453D01*
X0048Y00262*
Y00269*
X00473Y00276*
X0046*
X00453Y00269*
X-00334Y00295D02*
Y00335D01*
X-00314*
X-00307Y00328*
Y00315*
X-00314Y00308*
X-00334*
X-00321D02*
X-00307Y00295D01*
X-00294D02*
X-00281D01*
X-00287*
Y00335*
X-00294Y00328*
X00091Y00499D02*
Y00538D01*
X0011*
X00117Y00532*
Y00518*
X0011Y00512*
X00091*
X00104D02*
X00117Y00499D01*
X0013Y00532D02*
X00137Y00538D01*
X0015*
X00157Y00532*
Y00525*
X0015Y00518*
X00144*
X0015*
X00157Y00512*
Y00505*
X0015Y00499*
X00137*
X0013Y00505*
X-00031Y-0064D02*
Y-006D01*
X-00011*
X-00004Y-00607*
Y-0062*
X-00011Y-00627*
X-00031*
X-00017D02*
X-00004Y-0064D01*
X00028D02*
Y-006D01*
X00008Y-0062*
X00035*
X-00127Y-00659D02*
Y-00619D01*
X-00107*
X-00101Y-00626*
Y-00639*
X-00107Y-00646*
X-00127*
X-00114D02*
X-00101Y-00659D01*
X-00061Y-00619D02*
X-00087D01*
Y-00639*
X-00074Y-00632*
X-00067*
X-00061Y-00639*
Y-00652*
X-00067Y-00659*
X-00081*
X-00087Y-00652*
X-00191Y00233D02*
Y00273D01*
X-00171*
X-00165Y00266*
Y00253*
X-00171Y00246*
X-00191*
X-00178D02*
X-00165Y00233D01*
X-00125Y00273D02*
X-00138Y00266D01*
X-00151Y00253*
Y00239*
X-00145Y00233*
X-00131*
X-00125Y00239*
Y00246*
X-00131Y00253*
X-00151*
X-00265Y00177D02*
Y00217D01*
X-00245*
X-00239Y0021*
Y00197*
X-00245Y0019*
X-00265*
X-00252D02*
X-00239Y00177D01*
X-00225Y00217D02*
X-00199D01*
Y0021*
X-00225Y00183*
Y00177*
X00177Y-00177D02*
Y-00137D01*
X00197*
X00203Y-00143*
Y-00157*
X00197Y-00163*
X00177*
X0019D02*
X00203Y-00177D01*
X00217Y-00143D02*
X00223Y-00137D01*
X00237*
X00243Y-00143*
Y-0015*
X00237Y-00157*
X00243Y-00163*
Y-0017*
X00237Y-00177*
X00223*
X00217Y-0017*
Y-00163*
X00223Y-00157*
X00217Y-0015*
Y-00143*
X00223Y-00157D02*
X00237D01*
X00501Y-00314D02*
X00461D01*
Y-00294*
X00468Y-00288*
X00481*
X00488Y-00294*
Y-00314*
Y-00301D02*
X00501Y-00288D01*
X00495Y-00274D02*
X00501Y-00268D01*
Y-00254*
X00495Y-00248*
X00468*
X00461Y-00254*
Y-00268*
X00468Y-00274*
X00475*
X00481Y-00268*
Y-00248*
X00039Y-00295D02*
Y-00255D01*
X00059*
X00066Y-00261*
Y-00275*
X00059Y-00281*
X00039*
X00052D02*
X00066Y-00295D01*
X00079D02*
X00092D01*
X00086*
Y-00255*
X00079Y-00261*
X00112D02*
X00119Y-00255D01*
X00132*
X00139Y-00261*
Y-00288*
X00132Y-00295*
X00119*
X00112Y-00288*
Y-00261*
X00334Y-00629D02*
X00294D01*
Y-00609*
X00301Y-00603*
X00314*
X00321Y-00609*
Y-00629*
Y-00616D02*
X00334Y-00603D01*
Y-00589D02*
Y-00576D01*
Y-00583*
X00294*
X00301Y-00589*
X00334Y-00556D02*
Y-00543D01*
Y-00549*
X00294*
X00301Y-00556*
G54D31*
X-00374Y00102D03*
Y00152D03*
X-00383Y00211D03*
Y00261D03*
M02*