%FSTAX23Y23*%
%MOIN*%
%SFA1B1*%

%IPPOS*%
%ADD10R,0.037400X0.033470*%
%ADD11R,0.033470X0.037400*%
%ADD12C,0.031100*%
%ADD13R,0.060000X0.060000*%
%ADD14O,0.078740X0.027560*%
%ADD15R,0.057090X0.023620*%
%ADD16O,0.027560X0.078740*%
%ADD17R,0.064960X0.041340*%
%ADD18C,0.015000*%
%ADD19C,0.008000*%
%ADD20C,0.010000*%
%ADD21R,0.050000X0.100000*%
%ADD22C,0.035430*%
%ADD23R,0.064960X0.041340*%
%ADD24C,0.028000*%
%ADD25C,0.024000*%
%LNsensorrig-1*%
%LPD*%
G36*
X00422Y00489D02*
Y00487D01*
Y00431*
Y00374*
X0045*
Y00341*
X00429*
Y00288*
X00478*
Y00341*
X00474*
Y00374*
X00503*
Y00431*
Y00488*
X00506Y00492*
X00511Y00491*
Y-00551*
X00255Y-00807*
X-00255*
X-00511Y-00551*
Y00487*
Y00492*
X-00506*
X-00503*
X-00499Y00491*
Y00487*
Y00465*
X-00414*
Y00491*
X-00409Y00492*
X-00349*
X-00345Y00489*
Y00487*
Y00431*
Y00374*
X-00274*
X-00263Y00364*
X-00265Y00359*
X-00272*
Y00309*
X-00219*
Y00359*
X-00233*
Y00364*
X-00234Y00368*
X-00237Y00372*
X-00264Y004*
Y00431*
Y00487*
Y00489*
X-0026Y00492*
X-00063*
Y00485*
X-00009*
Y00492*
X00015*
Y00453*
X00065*
Y0046*
X00083*
Y00445*
X00133*
Y00492*
X0016*
Y00445*
X00205*
X00205Y00444*
X0021Y00436*
X00217Y00432*
X00226Y0043*
X00234Y00432*
X00242Y00436*
X00247Y00444*
X00248Y00452*
X00247Y00461*
X00242Y00468*
X00234Y00473*
X00226Y00475*
X00222Y00474*
X00215Y00481*
X00211Y00483*
X0021Y00484*
Y00492*
X00263*
X00268Y00491*
Y00487*
Y00465*
X00353*
Y00491*
X00358Y00492*
X00418*
X00422Y00489*
G37*
%LNsensorrig-2*%
%LPC*%
G36*
X-00379Y00122D02*
X-00414D01*
Y00087*
X-00379*
Y00122*
G37*
G36*
X-00424D02*
X-00459D01*
Y00087*
X-00424*
Y00122*
G37*
G36*
X-00447Y0008D02*
Y00064D01*
X-00431*
X-00432Y00067*
X-00436Y00074*
X-00444Y00079*
X-00447Y0008*
G37*
G36*
X-00424Y00167D02*
X-00459D01*
Y00132*
X-00424*
Y00167*
G37*
G36*
X-00388Y00231D02*
X-00423D01*
Y00196*
X-00388*
Y00231*
G37*
G36*
X-00433D02*
X-00468D01*
Y00196*
X-00433*
Y00231*
G37*
G36*
X-00379Y00167D02*
X-00414D01*
Y00132*
X-00379*
Y00167*
G37*
G36*
X-00457Y0008D02*
X-00461Y00079D01*
X-00468Y00074*
X-00473Y00067*
X-00474Y00064*
X-00457*
Y0008*
G37*
G36*
X00481Y-00506D02*
X00457D01*
Y-00528*
X00481*
Y-00506*
G37*
G36*
X00447Y-00474D02*
X00424D01*
Y-00496*
X00447*
Y-00474*
G37*
G36*
X00481D02*
X00457D01*
Y-00496*
X00481*
Y-00474*
G37*
G36*
X00447Y-00506D02*
X00424D01*
Y-00528*
X00447*
Y-00506*
G37*
G36*
X00461Y-0014D02*
X00437D01*
Y-00162*
X00461*
Y-0014*
G37*
G36*
X00427D02*
X00404D01*
Y-00162*
X00427*
Y-0014*
G37*
G36*
X00461Y-00172D02*
X00437D01*
Y-00194*
X00461*
Y-00172*
G37*
G36*
X-00414Y00398D02*
X-00451D01*
Y00372*
X-00414*
Y00398*
G37*
G36*
X00306D02*
X00268D01*
Y00372*
X00306*
Y00398*
G37*
G36*
X-00393Y00355D02*
X-00401Y00353D01*
X-00408Y00349*
X-00412Y00342*
X-00414Y00334*
X-00412Y00326*
X-00408Y0032*
X-00401Y00315*
X-00393Y00314*
X-00385Y00315*
X-00379Y0032*
X-00374Y00326*
X-00373Y00334*
X-00374Y00342*
X-00379Y00349*
X-00385Y00353*
X-00393Y00355*
G37*
G36*
X-00461Y00398D02*
X-00499D01*
Y00372*
X-00461*
Y00398*
G37*
G36*
X00353D02*
X00316D01*
Y00372*
X00353*
Y00398*
G37*
G36*
X-00041Y00475D02*
X-00063D01*
Y00451*
X-00041*
Y00475*
G37*
G36*
X-00009D02*
X-00031D01*
Y00451*
X-00009*
Y00475*
G37*
G36*
X-00414Y00455D02*
X-00499D01*
Y00429*
Y00408*
X-00414*
Y00429*
Y00455*
G37*
G36*
X00353D02*
X00268D01*
Y00429*
Y00408*
X00353*
Y00429*
Y00455*
G37*
G36*
X-00086Y00458D02*
X-00177D01*
X-00183Y00457*
X-00188Y00454*
X-00191Y00448*
X-00192Y00442*
Y00273*
X-00219*
Y00282*
X-00272*
Y00273*
X-003*
Y00274*
X-00376*
Y00198*
X-0036*
Y00165*
X-00367*
Y00089*
X-00344*
X-00343Y00086*
X-0034Y00081*
X-00314Y00055*
Y00037*
X-00334*
Y00033*
X-00441*
X-00443Y00038*
X-00443Y00038*
X-00436Y00043*
X-00432Y0005*
X-00431Y00054*
X-00474*
X-00473Y0005*
X-00468Y00043*
X-00461Y00038*
X-00458Y00037*
Y00032*
X-0046Y00032*
X-00465Y00028*
X-00483Y00011*
X-00487Y00006*
X-00488Y0*
Y-00314*
X-00487Y-00321*
X-00483Y-00326*
X-00389Y-00419*
Y-00522*
X-00407*
Y-00638*
X-00341*
X-00336Y-0064*
X-00309Y-00667*
X-00308Y-00671*
Y-00725*
X-00291*
X-00229Y-00786*
X-00224Y-0079*
X-00218Y-00791*
X00228*
X00234Y-0079*
X00239Y-00786*
X00375Y-0065*
X00378Y-00645*
X00379Y-00639*
Y-00588*
X00401Y-00565*
Y-0044*
X00426*
Y-00449*
X00479*
Y-0042*
X00483Y-00416*
X00487Y-00411*
X00488Y-00405*
Y-00246*
X00487Y-0024*
X00483Y-00234*
X00478Y-00231*
X00472Y-0023*
X00459*
Y-00219*
X0043*
X00409Y-00198*
X00411Y-00194*
X00427*
Y-00172*
X00404*
Y-00186*
X00399Y-00188*
X00377Y-00166*
X00376Y-00165*
Y-0015*
X00367*
Y-00118*
X00372Y-00116*
X00372Y-00116*
X00376Y-00119*
X00379Y-0012*
X00381Y-00123*
X00389Y-00128*
X00397Y-0013*
X00448*
X00457Y-00128*
X00464Y-00123*
X00469Y-00116*
X00471Y-00108*
X00469Y-00099*
X00464Y-00092*
X00457Y-00087*
X00448Y-00086*
X00397*
X00389Y-00087*
X00388Y-00088*
X00383Y-00086*
Y-0008*
X00388Y-00078*
X00389Y-00078*
X00397Y-0008*
X00448*
X00457Y-00078*
X00464Y-00073*
X00469Y-00066*
X00471Y-00058*
X00469Y-00049*
X00464Y-00042*
X00457Y-00037*
X00448Y-00036*
X00404*
X00403Y-00035*
X00406Y-0003*
X00448*
X00457Y-00028*
X00464Y-00023*
X00469Y-00016*
X00471Y-00008*
X00469Y0*
X00464Y00007*
X00457Y00012*
X00448Y00013*
X00397*
X00389Y00012*
X00381Y00007*
X0038Y00007*
X00375Y00012*
X00376Y00017*
X00382Y00018*
X00387Y00022*
X00389Y00021*
X00397Y00019*
X00448*
X00457Y00021*
X00464Y00026*
X00469Y00033*
X00471Y00041*
X00469Y0005*
X00464Y00057*
X00457Y00062*
X00448Y00063*
X00397*
X00389Y00062*
X00384Y00058*
X00382Y0006*
X00375Y00061*
X00373Y00065*
X00372Y00066*
X00375Y0007*
X00376Y00075*
X00381Y00076*
X00381Y00076*
X00389Y00071*
X00397Y00069*
X00448*
X00457Y00071*
X00464Y00076*
X00469Y00083*
X00471Y00091*
X00469Y001*
X00464Y00107*
X00457Y00112*
X00448Y00113*
X00397*
X00389Y00112*
X00381Y00107*
X00381Y00106*
X00378Y00106*
X00377Y00107*
X00375Y00111*
X00376Y00118*
X00376Y0012*
X0038Y00125*
X00381Y00126*
X00382Y00125*
X00389Y00121*
X00397Y00119*
X00448*
X00457Y00121*
X00464Y00126*
X00469Y00133*
X00471Y00141*
X00469Y0015*
X00464Y00157*
X00457Y00162*
X00448Y00163*
X00397*
X00389Y00162*
X00381Y00157*
X00379Y00154*
X00374Y00154*
X00284Y00244*
X00284Y00244*
X00285Y00249*
X00347*
X00384Y00213*
X00383Y00208*
X00381Y00207*
X00377Y002*
X00375Y00191*
X00377Y00183*
X00381Y00176*
X00389Y00171*
X00397Y00169*
X00448*
X00457Y00171*
X00464Y00176*
X00469Y00183*
X00471Y00191*
X00469Y002*
X00464Y00207*
X00457Y00212*
X00448Y00213*
X00418*
X00361Y0027*
X00357Y00273*
X00352Y00274*
X00201*
X00199Y00279*
X002Y0028*
X00205Y00286*
X00207Y00292*
X00208Y00299*
X00207Y00307*
X00205Y00313*
X002Y00319*
X00195Y00324*
X00188Y00326*
X00181Y00327*
X00173Y00326*
X00167Y00324*
X00161Y00319*
X00159Y00317*
X00154Y00318*
X00153Y00324*
X00148Y00331*
X0014Y00337*
X00138Y00337*
Y00342*
X0014Y00342*
X00148Y00347*
X00153Y00355*
X00154Y00361*
X00159Y00362*
X00161Y0036*
X00167Y00355*
X00173Y00353*
X00181Y00352*
X00188Y00353*
X00195Y00355*
X002Y0036*
X00205Y00366*
X00207Y00372*
X00208Y00373*
X00212Y00375*
X00284Y00303*
X00289Y003*
X00295Y00299*
X00352*
Y00288*
X00402*
Y00341*
X00352*
Y0033*
X00302*
X00206Y00426*
X00201Y00429*
X00195Y0043*
X-00051*
X-00075Y00454*
X-0008Y00457*
X-00086Y00458*
G37*
G36*
X-00433Y00276D02*
X-00468D01*
Y00241*
X-00433*
Y00276*
G37*
G36*
X-00388D02*
X-00423D01*
Y00241*
X-00388*
Y00276*
G37*
%LNsensorrig-3*%
%LPD*%
G36*
X-00334Y-00002D02*
X-00263D01*
X-00261*
X-00258Y-00005*
Y-00033*
X-00261Y-00037*
X-00263*
X-00334*
Y-00041*
X-00352*
Y-00024*
X-0039*
Y-00014*
X-00352*
Y00001*
X-00334*
Y-00002*
G37*
G36*
X-00437Y-0008D02*
X-00434Y-00079D01*
X-00433Y-00079*
X-0043Y-00083*
X-00434Y-00087*
X-00437Y-00092*
X-00439Y-00098*
Y-00285*
X-00437Y-00291*
X-00434Y-00296*
X-00429Y-003*
X-00423Y-00301*
X-00131*
X-00129Y-00306*
X-00133Y-00308*
X-00138Y-00316*
X-00139Y-00319*
X-00096*
X-00097Y-00316*
X-00102Y-00308*
X-00106Y-00306*
X-00104Y-00301*
X-00054*
X-00051Y-00304*
Y-0032*
X-00051Y-00324*
X-00051Y-00328*
Y-00495*
X00146*
Y-00663*
X00309*
X00343Y-00626*
X00348Y-00628*
Y-00633*
X00221Y-00759*
X00016*
Y-00741*
X-00036*
Y-00759*
X-00052*
X-00054Y-00754*
X-00053Y-00754*
X-00048Y-00746*
X-00046Y-00738*
X-00048Y-00729*
X-00053Y-00722*
X-00056Y-00719*
Y-00706*
X-00036*
Y-00714*
X00016*
Y-00664*
X-00036*
Y-00681*
X-00056*
Y-00649*
X-00057Y-00644*
X-0006Y-0064*
X-00129Y-00572*
X-00133Y-00569*
X-00137Y-00568*
X-00141*
Y-00545*
X-00136Y-00544*
X-00133Y-00547*
X-00126Y-00552*
X-00123Y-00552*
Y-00531*
Y-0051*
X-00126Y-0051*
X-00133Y-00515*
X-00137Y-0052*
X-00141Y-00522*
X-00143*
X-00207*
Y-00638*
X-00141*
Y-00601*
X-00136Y-00599*
X-00081Y-00654*
Y-00693*
Y-00719*
X-00084Y-00722*
X-00089Y-00729*
X-00091Y-00738*
X-00089Y-00746*
X-00084Y-00754*
X-00083Y-00754*
X-00084Y-00759*
X-00101*
Y-00741*
X-00154*
Y-00759*
X-00211*
X-00259Y-00712*
Y-00671*
X-00267*
Y-0067*
X-00269Y-00664*
X-00272Y-00659*
X-00289Y-00643*
X-00287Y-00638*
X-00277*
Y-00639*
X-00277Y-00644*
X-00274Y-00648*
X-0027Y-00651*
X-00265Y-00652*
X-00251*
X-00236Y-00666*
X-00233Y-00669*
Y-00693*
X-0018*
Y-00671*
X-00162*
X-00154Y-00679*
Y-00714*
X-00101*
Y-00664*
X-00135*
X-00149Y-0065*
X-00153Y-00648*
X-00157Y-00647*
X-00221*
X-00237Y-00631*
X-00241Y-00628*
Y-00522*
X-00307*
Y-00618*
X-00311Y-0062*
X-00341Y-00591*
Y-00522*
X-00358*
Y-00413*
X-00359Y-00407*
X-00362Y-00402*
X-00456Y-00308*
Y-00081*
X-00452Y-00079*
X-00451Y-00079*
X-00447Y-0008*
Y-00059*
X-00437*
Y-0008*
G37*
G36*
X00196Y00071D02*
X002Y0007D01*
Y00065*
X00195Y00064*
X00187Y00058*
X00182Y00051*
X00181Y00046*
X0023*
Y00036*
X00181*
X00182Y00032*
X00187Y00024*
X00195Y00019*
X002Y00018*
Y00013*
X00196Y00012*
X00189Y00007*
X00184Y0*
X00182Y-00008*
X00184Y-00016*
X00189Y-00023*
X00196Y-00028*
X00204Y-0003*
X00255*
X00264Y-00028*
X00271Y-00024*
X00277*
X00336Y-00082*
Y-00147*
X00332Y-0015*
X00327*
X00326Y-00145*
Y-00117*
X00325Y-00112*
X00322Y-00108*
X00317Y-00103*
Y-00078*
X00316Y-00074*
X00313Y-0007*
X00293Y-00049*
X00289Y-00046*
X00284Y-00046*
X00273*
X00271Y-00042*
X00264Y-00037*
X00255Y-00036*
X00204*
X00196Y-00037*
X00189Y-00042*
X00184Y-00049*
X00182Y-00058*
X00182Y-00059*
X00129Y-00113*
X00126Y-00117*
X00125Y-00121*
Y-00124*
X00116*
X00115Y-00119*
X00117Y-00117*
X00117Y-00117*
X00117Y-00117*
X00134Y-00098*
X00134Y-00097*
X00134Y-00097*
X00147Y-00075*
X00147Y-00075*
X00148Y-00074*
X00157Y-00051*
X00157Y-00051*
X00158Y-0005*
X00163Y-00026*
X00163Y-00025*
X00164Y-00025*
X00166Y0*
X00166Y0*
X00166Y0*
X00164Y00025*
X00163Y00025*
X00163Y00026*
X00158Y0005*
X00157Y00051*
X00157Y00051*
X00151Y00066*
X00155Y00069*
X00158Y00067*
X00167Y00066*
X00175Y00067*
X00183Y00072*
X00184Y00074*
X00189Y00076*
X00196Y00071*
G37*
G36*
X-00041Y00305D02*
X-00035Y00297D01*
X-00031Y00294*
Y00294*
X-0003Y00289*
X-00027Y00285*
X00075Y00183*
X00079Y0018*
X00083Y00179*
X00186*
X00189Y00176*
X00196Y00171*
X00204Y00169*
X00255*
X00264Y00171*
X00271Y00176*
X00276Y00183*
X00278Y00191*
X00276Y002*
X00271Y00207*
X00264Y00212*
X00255Y00213*
X00241*
X0024Y00218*
X00242Y0022*
X00244Y00223*
X0027*
X00299Y00195*
X00297Y0019*
X00294Y00189*
X00287Y00184*
X00282Y00177*
X0028Y00169*
X00282Y0016*
X00287Y00153*
X0029Y00151*
Y00116*
X00284Y0011*
X00281Y00106*
X0028Y00102*
X00278Y00101*
X00275Y00101*
X00271Y00107*
X00264Y00112*
X00255Y00113*
X00204*
X00196Y00112*
X00189Y00107*
X00187Y00104*
X00182*
X00175Y00109*
X00167Y00111*
X00158Y00109*
X00151Y00104*
X00146Y00097*
X00145Y00089*
X00141Y00088*
X0014Y00088*
X00134Y00097*
X00134Y00097*
X00134Y00098*
X00117Y00117*
X00117Y00117*
X00117Y00117*
X00098Y00134*
X00097Y00134*
X00097Y00134*
X00075Y00147*
X00075Y00147*
X00074Y00148*
X00051Y00157*
X00051Y00157*
X0005Y00158*
X00026Y00163*
X00025Y00163*
X00025Y00164*
X0Y00166*
X0Y00166*
X0Y00166*
X-00025Y00164*
X-00025Y00163*
X-00026Y00163*
X-0005Y00158*
X-00051Y00157*
X-00051Y00157*
X-00074Y00148*
X-00075Y00147*
X-00075Y00147*
X-00097Y00134*
X-00097Y00134*
X-00098Y00134*
X-00117Y00117*
X-00117Y00117*
X-00117Y00117*
X-00134Y00098*
X-00134Y00097*
X-00134Y00097*
X-00147Y00075*
X-00147Y00075*
X-00148Y00074*
X-00157Y00051*
X-00157Y00051*
X-00158Y0005*
X-00163Y00026*
X-00163Y00025*
X-00164Y00025*
X-00166Y0*
X-00166Y0*
X-00166Y0*
X-00164Y-00025*
X-00163Y-00025*
X-00163Y-00026*
X-00158Y-0005*
X-00157Y-00051*
X-00157Y-00051*
X-00148Y-00074*
X-00147Y-00075*
X-00147Y-00075*
X-00134Y-00097*
X-00134Y-00097*
X-00134Y-00098*
X-00117Y-00117*
X-00117Y-00117*
X-00117Y-00117*
X-00098Y-00134*
X-00097Y-00134*
X-00097Y-00134*
X-00075Y-00147*
X-00075Y-00147*
X-00074Y-00148*
X-00051Y-00157*
X-00051Y-00157*
X-0005Y-00158*
X-00026Y-00163*
X-00025Y-00163*
X-00025Y-00164*
X0Y-00166*
X0Y-00166*
X0Y-00166*
X00025Y-00164*
X00025Y-00163*
X00026Y-00163*
X0005Y-00158*
X00051Y-00157*
X00051Y-00157*
X00074Y-00148*
X00075Y-00147*
X00075Y-00147*
X00097Y-00134*
X00097Y-00134*
X00098Y-00134*
X00106Y-00127*
X00111Y-00129*
Y-00174*
X00164*
Y-00124*
X00159*
X00157Y-00119*
X00179Y-00097*
X00183Y-00099*
X00184Y-001*
X00182Y-00108*
X00184Y-00116*
X00189Y-00123*
X00196Y-00128*
X00204Y-0013*
X00218*
Y-00151*
X00219Y-00156*
X00221Y-0016*
X0025Y-00188*
Y-00204*
X00251*
Y-00212*
X00248Y-00214*
X00243Y-00221*
X00241Y-0023*
Y-00281*
X00243Y-00289*
X00248Y-00297*
X00249Y-00297*
X00247Y-00302*
X0023*
X00229Y-00297*
X00229Y-00297*
X00234Y-00289*
X00236Y-00281*
Y-0023*
X00234Y-00221*
X0023Y-00214*
X00234Y-00207*
X00236Y-00199*
X00234Y-0019*
X0023Y-00183*
X00222Y-00178*
X00214Y-00176*
X00205Y-00178*
X00198Y-00183*
X00193Y-0019*
X00191Y-00199*
X00193Y-00207*
X00198Y-00214*
X00193Y-00221*
X00191Y-0023*
Y-00281*
X00193Y-00289*
X00198Y-00297*
X00199Y-00297*
X00197Y-00302*
X00189*
X00188Y-00296*
X00183Y-00289*
X00181Y-00287*
Y-00229*
X00166*
Y-00199*
X00142*
Y-00226*
X00132*
Y-00199*
X00109*
Y-00229*
X00055*
X00053Y-00224*
X00068Y-00209*
X00068Y-00209*
X00077Y-00207*
X00084Y-00202*
X00089Y-00195*
X00091Y-00187*
X00089Y-00178*
X00084Y-00171*
X00077Y-00166*
X00068Y-00164*
X0006Y-00166*
X00053Y-00171*
X00048Y-00178*
X00046Y-00187*
X00046Y-00187*
X00004Y-00229*
X-00051*
Y-00269*
X-00104*
X-00106Y-00264*
X-00102Y-00261*
X-00097Y-00254*
X-00096Y-00251*
X-00139*
X-00138Y-00254*
X-00133Y-00261*
X-00129Y-00264*
X-00131Y-00269*
X-00407*
Y-0024*
X-00379*
Y-0018*
Y-0012*
X-00407*
Y-00104*
X-00375Y-00072*
X-00334*
Y-00076*
X-00263*
X-00261*
X-00258Y-0008*
Y-00122*
X-00307*
Y-00238*
X-00241*
Y-00165*
X-00237Y-00161*
X-00234Y-00157*
X-00233Y-00152*
Y00055*
X-00178Y0011*
X-00144*
Y00164*
X-00154*
Y00179*
X-00142*
Y00233*
X-00191*
Y00179*
X-00179*
Y00164*
X-00193*
Y0013*
X-00214Y00109*
X-00219Y00112*
Y00112*
Y00112*
Y00132*
X-0024*
Y00108*
X-00222*
X-00222*
X-00222*
X-00221Y00108*
X-00219Y00103*
X-00254Y00069*
X-00257Y00065*
X-00258Y0006*
Y00041*
X-00261Y00037*
X-00263*
X-00282*
Y00062*
X-00283Y00068*
X-00287Y00073*
X-00299Y00085*
X-00297Y00089*
X-00291*
Y00165*
X-00328*
Y00198*
X-003*
Y00241*
X-00272*
Y00232*
X-00219*
Y00241*
X-00132*
X-00114Y00223*
Y00179*
X-00065*
Y00233*
X-00079*
X-00103Y00257*
X-0007Y00291*
X-00068Y0029*
X-00059Y00292*
X-00051Y00297*
X-00046Y00305*
X-00046Y00307*
X-00041*
X-00041Y00305*
G37*
G36*
X00009Y00309D02*
X00009Y00308D01*
X00011Y00302*
X00016Y00296*
X00021Y00292*
X00027Y0029*
X00034Y00289*
X00035Y00289*
X00038Y00284*
X00038Y00284*
X00037Y0028*
X0008*
X00079Y00284*
X00078Y00286*
X00081Y0029*
X00086Y00292*
X00125Y00253*
X00129Y0025*
X00133Y00249*
X00203*
X00206Y00245*
X00205Y00244*
X00203Y00236*
X00205Y00227*
X0021Y0022*
X00212Y00218*
X00211Y00213*
X00204*
X00196Y00212*
X00189Y00207*
X00186Y00203*
X00088*
X-00002Y00295*
X-00001Y00297*
X00003Y00305*
X00004Y00309*
X00009Y00309*
G37*
%LNsensorrig-4*%
%LPC*%
G36*
X00086Y-00681D02*
X00068D01*
X00068Y-00685*
X00074Y-00693*
X00082Y-00698*
X00086Y-00699*
Y-00681*
G37*
G36*
X-00096Y-00536D02*
X-00113D01*
Y-00552*
X-00109Y-00552*
X-00102Y-00547*
X-00097Y-0054*
X-00096Y-00536*
G37*
G36*
X-00083Y-00549D02*
X-00087Y-0055D01*
X-00094Y-00555*
X-00099Y-00562*
X-001Y-00565*
X-00083*
Y-00549*
G37*
G36*
X-00073D02*
Y-00565D01*
X-00057*
X-00058Y-00562*
X-00062Y-00555*
X-0007Y-0055*
X-00073Y-00549*
G37*
G36*
X-00123Y-00487D02*
X-00139D01*
X-00138Y-0049*
X-00133Y-00498*
X-00126Y-00503*
X-00123Y-00503*
Y-00487*
G37*
G36*
Y-0046D02*
X-00126Y-00461D01*
X-00133Y-00466*
X-00138Y-00473*
X-00139Y-00477*
X-00123*
Y-0046*
G37*
G36*
X-00113Y-0051D02*
Y-00526D01*
X-00096*
X-00097Y-00522*
X-00102Y-00515*
X-00109Y-0051*
X-00113Y-0051*
G37*
G36*
X-00096Y-00487D02*
X-00113D01*
Y-00503*
X-00109Y-00503*
X-00102Y-00498*
X-00097Y-0049*
X-00096Y-00487*
G37*
G36*
X-0018Y-00703D02*
X-00202D01*
Y-00727*
X-0018*
Y-00703*
G37*
G36*
X00086Y-00595D02*
X00052D01*
Y-00612*
X00086*
Y-00595*
G37*
G36*
X-00212Y-00703D02*
X-00233D01*
Y-00727*
X-00212*
Y-00703*
G37*
G36*
X00096Y-00652D02*
Y-00671D01*
X00115*
X00114Y-00666*
X00108Y-00658*
X001Y-00653*
X00096Y-00652*
G37*
G36*
X00086D02*
X00082Y-00653D01*
X00074Y-00658*
X00068Y-00666*
X00068Y-00671*
X00086*
Y-00652*
G37*
G36*
X0013Y-00595D02*
X00096D01*
Y-00612*
X0013*
Y-00595*
G37*
G36*
X00086Y-00568D02*
X00052D01*
Y-00585*
X00086*
Y-00568*
G37*
G36*
X0013D02*
X00096D01*
Y-00585*
X0013*
Y-00568*
G37*
G36*
X-00057Y-00575D02*
X-00073D01*
Y-00592*
X-0007Y-00591*
X-00062Y-00586*
X-00058Y-00579*
X-00057Y-00575*
G37*
G36*
X00115Y-00681D02*
X00096D01*
Y-00699*
X001Y-00698*
X00108Y-00693*
X00114Y-00685*
X00115Y-00681*
G37*
G36*
X-00083Y-00575D02*
X-001D01*
X-00099Y-00579*
X-00094Y-00586*
X-00087Y-00591*
X-00083Y-00592*
Y-00575*
G37*
G36*
X-00113Y-00165D02*
Y-00182D01*
X-00096*
X-00097Y-00178*
X-00102Y-00171*
X-00109Y-00166*
X-00113Y-00165*
G37*
G36*
X-00339Y-0012D02*
X-00369D01*
Y-00175*
X-00339*
Y-0012*
G37*
G36*
X-00096Y-00192D02*
X-00113D01*
Y-00208*
X-00109Y-00207*
X-00102Y-00202*
X-00097Y-00195*
X-00096Y-00192*
G37*
G36*
X-00339Y-00185D02*
X-00369D01*
Y-0024*
X-00339*
Y-00185*
G37*
G36*
X-00141Y-00122D02*
X-00207D01*
Y-00238*
X-00144*
X-00142Y-00241*
X-00123*
Y-00224*
X-00126Y-00225*
X-00133Y-0023*
X-00136Y-00233*
X-00141Y-00231*
Y-00201*
X-00136Y-00199*
X-00133Y-00202*
X-00126Y-00207*
X-00123Y-00208*
Y-00187*
Y-00165*
X-00126Y-00166*
X-00133Y-00171*
X-00136Y-00174*
X-00141Y-00172*
Y-00122*
G37*
G36*
X-0025Y00132D02*
X-00272D01*
Y00108*
X-0025*
Y00132*
G37*
G36*
X00054Y0027D02*
X00037D01*
X00038Y00267*
X00043Y00259*
X0005Y00254*
X00054Y00254*
Y0027*
G37*
G36*
X0008D02*
X00064D01*
Y00254*
X00067Y00254*
X00074Y00259*
X00079Y00267*
X0008Y0027*
G37*
G36*
X-00219Y00166D02*
X-0024D01*
Y00142*
X-00219*
Y00166*
G37*
G36*
X00157Y0017D02*
X00148Y00168D01*
X00141Y00163*
X00136Y00156*
X00135Y00147*
X00136Y00139*
X00141Y00131*
X00148Y00126*
X00157Y00125*
X00166Y00126*
X00173Y00131*
X00175Y00135*
X00183*
X00184Y00133*
X00189Y00126*
X00196Y00121*
X00204Y00119*
X00255*
X00264Y00121*
X00271Y00126*
X00276Y00133*
X00278Y00141*
X00276Y0015*
X00271Y00157*
X00264Y00162*
X00255Y00163*
X00204*
X00196Y00162*
X00192Y00159*
X00175*
X00173Y00163*
X00166Y00168*
X00157Y0017*
G37*
G36*
X-0025Y00166D02*
X-00272D01*
Y00142*
X-0025*
Y00166*
G37*
G36*
X-00113Y-00224D02*
Y-00241D01*
X-00096*
X-00097Y-00237*
X-00102Y-0023*
X-00109Y-00225*
X-00113Y-00224*
G37*
G36*
X-00123Y-00401D02*
X-00126Y-00402D01*
X-00133Y-00407*
X-00138Y-00414*
X-00139Y-00418*
X-00123*
Y-00401*
G37*
G36*
X-00113D02*
Y-00418D01*
X-00096*
X-00097Y-00414*
X-00102Y-00407*
X-00109Y-00402*
X-00113Y-00401*
G37*
G36*
X-00096Y-00428D02*
X-00113D01*
Y-00444*
X-00109Y-00443*
X-00102Y-00439*
X-00097Y-00431*
X-00096Y-00428*
G37*
G36*
X-00113Y-0046D02*
Y-00477D01*
X-00096*
X-00097Y-00473*
X-00102Y-00466*
X-00109Y-00461*
X-00113Y-0046*
G37*
G36*
X-00123Y-00428D02*
X-00139D01*
X-00138Y-00431*
X-00133Y-00439*
X-00126Y-00443*
X-00123Y-00444*
Y-00428*
G37*
G36*
X-00096Y-00379D02*
X-00113D01*
Y-00395*
X-00109Y-00394*
X-00102Y-00389*
X-00097Y-00382*
X-00096Y-00379*
G37*
G36*
Y-00329D02*
X-00113D01*
Y-00346*
X-00109Y-00345*
X-00102Y-0034*
X-00097Y-00333*
X-00096Y-00329*
G37*
G36*
X-00123D02*
X-00139D01*
X-00138Y-00333*
X-00133Y-0034*
X-00126Y-00345*
X-00123Y-00346*
Y-00329*
G37*
G36*
X-00113Y-00352D02*
Y-00369D01*
X-00096*
X-00097Y-00365*
X-00102Y-00358*
X-00109Y-00353*
X-00113Y-00352*
G37*
G36*
X-00123Y-00379D02*
X-00139D01*
X-00138Y-00382*
X-00133Y-00389*
X-00126Y-00394*
X-00123Y-00395*
Y-00379*
G37*
G36*
Y-00352D02*
X-00126Y-00353D01*
X-00133Y-00358*
X-00138Y-00365*
X-00139Y-00369*
X-00123*
Y-00352*
G37*
%LNsensorrig-5*%
%LPD*%
G54D10*
X-00009Y-00689D03*
Y-00766D03*
X-00246Y00334D03*
Y00257D03*
X00137Y-00226D03*
Y-00149D03*
X00423Y-00305D03*
Y-00382D03*
X00452Y-00501D03*
Y-00424D03*
X00255Y-00551D03*
Y-00628D03*
X-00128Y-00689D03*
Y-00766D03*
X00432Y-00167D03*
Y-00244D03*
G54D11*
X00454Y00315D03*
X00377D03*
X00108Y00472D03*
X00185D03*
X0004Y0048D03*
X-00036D03*
X-00167Y00206D03*
X-0009D03*
X-00245Y00137D03*
X-00168D03*
X00275Y-00177D03*
X00351D03*
X-00207Y-00698D03*
X-00283D03*
G54D12*
X00031Y00364D03*
X-00068D03*
X00081D03*
X-00068Y00314D03*
X00081D03*
X-00018Y00364D03*
X00131D03*
X-00018Y00314D03*
X00034D03*
X00131D03*
G54D13*
X-00419Y00127D03*
X-00329D03*
X-00428Y00236D03*
X-00338D03*
G54D14*
X00423Y00041D03*
Y00091D03*
Y00141D03*
Y00191D03*
X0023Y-00108D03*
Y-00058D03*
Y-00008D03*
Y00041D03*
Y00091D03*
Y00141D03*
Y00191D03*
X00423Y-00108D03*
Y-00058D03*
Y-00008D03*
G54D15*
X-00298Y-00057D03*
Y00017D03*
X-0039Y-00019D03*
X00184Y-00627D03*
Y-00553D03*
X00091Y-0059D03*
G54D16*
X00214Y-00448D03*
X00264D03*
X00314D03*
X00364D03*
X00214Y-00255D03*
X00264D03*
X00314D03*
X00364D03*
G54D17*
X-00456Y00403D03*
X-00305D03*
X00462D03*
X00311D03*
G54D18*
X-00344Y00143D02*
X-00329Y00127D01*
X-00344Y00143D02*
Y00212D01*
X-00381Y-00057D02*
X-00298D01*
X-00029Y-00285D02*
X00068Y-00187D01*
X-00423Y-00285D02*
X-00029D01*
X-00423D02*
Y-00098D01*
X-00381Y-00057*
X-00329Y00092D02*
Y00127D01*
Y00092D02*
X-00298Y00062D01*
Y00017D02*
Y00062D01*
X-00454Y00017D02*
X-00298D01*
X-00472Y0D02*
X-00454Y00017D01*
X-00472Y-00314D02*
Y0D01*
Y-00314D02*
X-00374Y-00413D01*
Y-0058D02*
Y-00413D01*
X00364Y-00448D02*
X00388Y-00424D01*
X00452*
X0023Y-00008D02*
X00283D01*
X00452Y-00424D02*
X00472Y-00405D01*
X-00317Y00257D02*
X-00246D01*
X-00338Y00236D02*
X-00317Y00257D01*
X-00126D02*
X-00068Y00314D01*
X-00058Y00415D02*
X00195D01*
X00295Y00315*
X00377*
X-00246Y00257D02*
X-00177D01*
X-00126*
X00228Y-00775D02*
X00364Y-00639D01*
Y-00448*
X-00218Y-00775D02*
X00228D01*
X-00283Y-0071D02*
X-00218Y-00775D01*
X-00283Y-0071D02*
Y-0067D01*
X-00374Y-0058D02*
X-00283Y-0067D01*
X-0009Y00206D02*
Y00221D01*
X-00126Y00257D02*
X-0009Y00221D01*
X00264Y-00541D02*
Y-00375D01*
X00252Y-00364D02*
X00264Y-00375D01*
X00305Y-00334D02*
X00314Y-00343D01*
X-00019Y-00334D02*
X00305D01*
X00472Y-00405D02*
Y-00246D01*
X00423Y-00395D02*
Y-00382D01*
Y-00395D02*
X00452Y-00424D01*
X00434Y-00246D02*
X00472D01*
X00351Y-00177D02*
X00365D01*
X00432Y-00244*
X00434Y-00246*
X00283Y-00008D02*
X00351Y-00076D01*
Y-00177D02*
Y-00076D01*
X00184Y-00553D02*
X00254D01*
X00255Y-00551*
X00184Y-00627D02*
X00255D01*
X00255Y-00628*
X00306*
X00314Y-0062*
Y-00343*
X0023Y00041D02*
X00273D01*
X00285Y00029*
X-00177Y00257D02*
Y00442D01*
X-00086*
X-00058Y00415*
X00039Y-00364D02*
X00252D01*
X00029Y-00374D02*
X00039Y-00364D01*
X00025Y-00374D02*
X00029D01*
X-00029Y-00324D02*
X-00019Y-00334D01*
X00169Y-00448D02*
X00214D01*
X00091Y-00526D02*
X00169Y-00448D01*
X00091Y-00676D02*
Y-0059D01*
Y-00526*
X0Y-0057D02*
X0002Y-0059D01*
X-00078Y-0057D02*
X0D01*
X0002Y-0059D02*
X00091D01*
G54D19*
X00083Y00191D02*
X0023D01*
X-00018Y00294D02*
X00083Y00191D01*
X-00018Y00294D02*
Y00314D01*
X-00088Y00384D02*
Y00403D01*
Y00384D02*
X-00068Y00364D01*
X0023Y-00151D02*
Y-00108D01*
Y-00151D02*
X00264Y-00185D01*
Y-00255D02*
Y-00185D01*
X0023Y-00058D02*
X00284D01*
X00214Y-00255D02*
Y-00199D01*
X00157Y00147D02*
X00224D01*
X0023Y00141*
X00364Y-00299D02*
Y-00255D01*
X0037Y00141D02*
X00423D01*
X00275Y00236D02*
X0037Y00141D01*
X00226Y00236D02*
X00275D01*
X00133Y00262D02*
X00352D01*
X00423Y00191*
X00081Y00314D02*
X00133Y00262D01*
X00326Y00141D02*
X00328Y00143D01*
X00462Y00323D02*
Y00403D01*
X00454Y00315D02*
X00462Y00323D01*
X00038Y00472D02*
X00068D01*
X-00301Y00407D02*
Y00464D01*
X-00305Y00403D02*
X-00301Y00407D01*
X-00305Y00403D02*
X-00285D01*
X-00246Y00364*
Y00334D02*
Y00364D01*
X00108Y00472D02*
X00108Y00472D01*
X00068Y00472D02*
X00108D01*
X00205Y00472D02*
X00205Y00472D01*
X00206*
X00226Y00452*
X00185Y00472D02*
X00205D01*
X00302Y00168D02*
X00303Y00169D01*
X00324Y00088D02*
X00354Y00118D01*
X00308Y00095D02*
X00326Y00113D01*
Y00141*
X00292Y00101D02*
X00302Y00111D01*
Y00168*
X00354Y00078D02*
X00367Y00091D01*
X00423*
X-00137Y-0058D02*
X-00068Y-00649D01*
X-00174Y-0058D02*
X-00137D01*
X-00015Y-00693D02*
X-00009Y-00699D01*
X-00068Y-00693D02*
X-00015D01*
X-00068Y-00738D02*
Y-00693D01*
Y-00649*
X-00157Y-00659D02*
X-00128Y-00689D01*
X-00226Y-00659D02*
X-00157D01*
X-00246Y-00639D02*
X-00226Y-00659D01*
X-00265Y-00639D02*
X-00246D01*
X-00265D02*
Y-00588D01*
X-00274Y-0058D02*
X-00265Y-00588D01*
X-00167Y00139D02*
Y00206D01*
X-00246Y-00152D02*
Y0006D01*
X-00274Y-0018D02*
X-00246Y-00152D01*
Y0006D02*
X-00168Y00137D01*
X-00167Y00139*
X00034Y003D02*
Y00314D01*
Y003D02*
X00059Y00275D01*
X-00442Y-00019D02*
X-0039D01*
X00462Y00403D02*
Y0046D01*
X00364Y-00255D02*
X00374Y-00246D01*
X00348Y-00314D02*
X00364Y-00299D01*
X00167Y-00305D02*
X00177Y-00314D01*
X00348*
X00284Y-00058D02*
X00305Y-00078D01*
Y-00108D02*
Y-00078D01*
Y-00108D02*
X00314Y-00117D01*
Y-00255D02*
Y-00117D01*
X00364Y-00299D02*
X00417D01*
X00423Y-00305*
X00381Y-00108D02*
X00423D01*
X00371Y-00098D02*
X00381Y-00108D01*
X00371Y-00098D02*
Y-00046D01*
X00387Y-00058D02*
X00423D01*
X00387D02*
Y-00039D01*
X00378Y-00008D02*
X00423D01*
X00325Y00022D02*
X00387Y-00039D01*
X00325Y00022D02*
Y00046D01*
X00308Y00062D02*
X00325Y00046D01*
X00308Y00062D02*
Y00095D01*
X00324Y00069D02*
Y00088D01*
Y00069D02*
X00341Y00052D01*
Y00028D02*
Y00052D01*
Y00028D02*
X00378Y-00008D01*
X0042Y00039D02*
X00423Y00041D01*
X00374Y00039D02*
X0042D01*
X00309Y00015D02*
X00371Y-00046D01*
X00292Y00056D02*
Y00101D01*
Y00056D02*
X00309Y00039D01*
Y00015D02*
Y00039D01*
X00137Y-00149D02*
Y-00121D01*
X00201Y-00058*
X0023*
G54D20*
X0017Y00091D02*
X0023D01*
X00167Y00088D02*
X0017Y00091D01*
G54D21*
X-00374Y-0058D03*
X-00274D03*
X-00174D03*
X-00374Y-0018D03*
X-00274D03*
X-00174D03*
G54D22*
X00181Y00299D03*
Y00379D03*
X-00118Y00339D03*
G54D23*
X-00305Y0046D03*
X-00456Y0046D03*
X00311D03*
X00462Y0046D03*
G54D24*
X00025Y-00374D03*
X-00088Y00403D03*
X00214Y-00199D03*
X00157Y00147D03*
X00167Y00088D03*
X00068Y-00187D03*
X00167Y-00305D03*
X00226Y00236D03*
X00303Y00169D03*
X00328Y00143D03*
X00354Y00118D03*
X00226Y00452D03*
X00354Y00078D03*
X-00068Y-00738D03*
X00374Y00039D03*
X00091Y-00676D03*
X-00029Y-00324D03*
G54D25*
X-00442Y-00019D03*
Y-00059D03*
X-00452Y00059D03*
X-00393Y00334D03*
X00059Y00275D03*
X-00118Y-00531D03*
Y-00482D03*
Y-00423D03*
Y-00374D03*
Y-00324D03*
Y-00246D03*
Y-00187D03*
X-00078Y-0057D03*
X00285Y00029D03*
M02*