%FSTAX23Y23*%
%MOIN*%
%SFA1B1*%

%IPPOS*%
%ADD18C,0.015000*%
%ADD19C,0.008000*%
%ADD21R,0.050000X0.100000*%
%ADD22C,0.035430*%
%ADD23R,0.064960X0.041340*%
%ADD24C,0.028000*%
%ADD25C,0.024000*%
%ADD26R,0.028000X0.050000*%
%LNsensorrig-1*%
%LPD*%
G36*
X-00345Y00489D02*
Y00487D01*
Y00431*
X-00313*
Y00005*
X-00312Y00001*
X-00309Y-00002*
X-00194Y-00118*
X-00196Y-00122*
X-00207*
Y-00238*
X-00144*
X-00142Y-00241*
X-00123*
Y-00224*
X-00126Y-00225*
X-00133Y-0023*
X-00136Y-00233*
X-00141Y-00231*
Y-00201*
X-00136Y-00199*
X-00133Y-00202*
X-00126Y-00207*
X-00123Y-00208*
Y-00187*
Y-00165*
X-00126Y-00166*
X-00133Y-00171*
X-00136Y-00174*
X-00141Y-00172*
Y-00122*
X-00161*
Y-00121*
X-00162Y-00116*
X-00165Y-00112*
X-00288Y0001*
Y00431*
X-00264*
Y00452*
X0014*
X0018Y00412*
X00178Y00407*
X00173Y00406*
X00167Y00404*
X00161Y00399*
X00157Y00393*
X00154Y00387*
X00153Y00379*
X00154Y00372*
X00157Y00366*
X00161Y0036*
X00167Y00355*
X00173Y00353*
X00181Y00352*
X00188Y00353*
X00195Y00355*
X002Y0036*
X00205Y00366*
X00207Y00372*
X00208Y00377*
X00213Y00379*
X00291Y00301*
Y00187*
X00287Y00184*
X00282Y00177*
X0028Y00169*
X00282Y0016*
X00287Y00153*
X00294Y00148*
X00303Y00146*
X00306Y00142*
X00308Y00134*
X00313Y00127*
X0032Y00122*
X00328Y00121*
X00332Y00116*
X00333Y00109*
X00338Y00102*
X0034Y001*
Y00095*
X00338Y00094*
X00333Y00087*
X00331Y00078*
X00333Y0007*
X00338Y00062*
X00345Y00058*
X00353Y00056*
X00355Y00053*
X00355Y00051*
X00353Y00047*
X00351Y00039*
X00353Y0003*
X00358Y00023*
X00365Y00018*
X00374Y00016*
X00401Y-0001*
Y-00316*
X00191*
X0019Y-00316*
X00188Y-00313*
X00189Y-00305*
X00188Y-00296*
X00183Y-00289*
X00181Y-00287*
Y-00229*
X00179*
Y-00214*
X00188Y-00205*
X00193Y-00206*
X00193Y-00207*
X00198Y-00215*
X00205Y-00219*
X00214Y-00221*
X00222Y-00219*
X0023Y-00215*
X00234Y-00207*
X00236Y-00199*
X00234Y-0019*
X0023Y-00183*
X00226Y-0018*
Y0009*
X00225Y00095*
X00222Y00099*
X00179Y00143*
X00179Y00147*
X00178Y00156*
X00173Y00163*
X00166Y00168*
X00157Y0017*
X00148Y00168*
X00141Y00163*
X00136Y00156*
X00135Y00147*
X00136Y00139*
X00141Y00131*
X00148Y00126*
X00157Y00125*
X00161Y00126*
X00172Y00115*
X0017Y0011*
X00167Y00111*
X00158Y00109*
X00151Y00104*
X00146Y00097*
X00145Y00089*
X00141Y00088*
X0014Y00088*
X00134Y00097*
X00134Y00097*
X00134Y00098*
X00117Y00117*
X00117Y00117*
X00117Y00117*
X00098Y00134*
X00097Y00134*
X00097Y00134*
X00075Y00147*
X00075Y00147*
X00074Y00148*
X00051Y00157*
X00051Y00157*
X0005Y00158*
X00026Y00163*
X00025Y00163*
X00025Y00164*
X0Y00166*
X0Y00166*
X0Y00166*
X-00025Y00164*
X-00025Y00163*
X-00026Y00163*
X-0005Y00158*
X-00051Y00157*
X-00051Y00157*
X-00074Y00148*
X-00075Y00147*
X-00075Y00147*
X-00097Y00134*
X-00097Y00134*
X-00098Y00134*
X-00117Y00117*
X-00117Y00117*
X-00117Y00117*
X-00134Y00098*
X-00134Y00097*
X-00134Y00097*
X-00147Y00075*
X-00147Y00075*
X-00148Y00074*
X-00157Y00051*
X-00157Y00051*
X-00158Y0005*
X-00163Y00026*
X-00163Y00025*
X-00164Y00025*
X-00166Y0*
X-00166Y0*
X-00166Y0*
X-00164Y-00025*
X-00163Y-00025*
X-00163Y-00026*
X-00158Y-0005*
X-00157Y-00051*
X-00157Y-00051*
X-00148Y-00074*
X-00147Y-00075*
X-00147Y-00075*
X-00134Y-00097*
X-00134Y-00097*
X-00134Y-00098*
X-00117Y-00117*
X-00117Y-00117*
X-00117Y-00117*
X-00098Y-00134*
X-00097Y-00134*
X-00097Y-00134*
X-00075Y-00147*
X-00075Y-00147*
X-00074Y-00148*
X-00051Y-00157*
X-00051Y-00157*
X-0005Y-00158*
X-00026Y-00163*
X-00025Y-00163*
X-00025Y-00164*
X0Y-00166*
X0Y-00166*
X0Y-00166*
X00025Y-00164*
X00025Y-00163*
X00026Y-00163*
X0005Y-00158*
X00051Y-00157*
X00051Y-00157*
X00074Y-00148*
X00075Y-00147*
X00075Y-00147*
X00097Y-00134*
X00097Y-00134*
X00098Y-00134*
X00117Y-00117*
X00117Y-00117*
X00117Y-00117*
X00134Y-00098*
X00134Y-00097*
X00134Y-00097*
X00147Y-00075*
X00147Y-00075*
X00148Y-00074*
X00157Y-00051*
X00157Y-00051*
X00158Y-0005*
X00163Y-00026*
X00163Y-00025*
X00164Y-00025*
X00166Y0*
X00166Y0*
X00166Y0*
X00164Y00025*
X00163Y00025*
X00163Y00026*
X00158Y0005*
X00157Y00051*
X00157Y00051*
X00151Y00066*
X00155Y00069*
X00158Y00067*
X00167Y00066*
X00171Y00067*
X00184Y00053*
Y-00174*
X00158Y-002*
X00156Y-00204*
X00155Y-00209*
Y-00229*
X00084*
Y-00202*
X00084Y-00202*
X00089Y-00195*
X00091Y-00187*
X00089Y-00178*
X00084Y-00171*
X00077Y-00166*
X00068Y-00164*
X0006Y-00166*
X00053Y-00171*
X00048Y-00178*
X00046Y-00187*
X00048Y-00195*
X00053Y-00202*
X00053Y-00202*
Y-00229*
X-00051*
Y-00234*
X-0007*
Y-00269*
Y-00304*
X-00054*
X-00051Y-00307*
Y-0032*
X-00051Y-00324*
X-00051Y-00328*
Y-00404*
X-0007*
Y-00439*
Y-00474*
X-00054*
X-00051Y-00477*
Y-00495*
X00146*
Y-00663*
X00297*
X00298Y-00668*
X0027Y-00696*
X00112*
X0011Y-00691*
X00114Y-00685*
X00115Y-00681*
X00068*
X00068Y-00685*
X00072Y-00691*
X0007Y-00696*
X-00201*
X-00254Y-00643*
X-00252Y-00638*
X-00241*
Y-00522*
X-00307*
Y-00638*
X-00286*
Y-00641*
X-00285Y-00646*
X-00282Y-00649*
X-00215Y-00717*
X-00211Y-00719*
X-00206Y-0072*
X-00089*
X-00087Y-00725*
X-00089Y-00729*
X-00091Y-00738*
X-00089Y-00746*
X-00084Y-00754*
X-00077Y-00758*
X-00068Y-0076*
X-0006Y-00758*
X-00053Y-00754*
X-0005Y-0075*
X00271*
X00275Y-00749*
X00279Y-00746*
X00441Y-00585*
X00444Y-00581*
X00445Y-00576*
Y-00002*
X00444Y00002*
X00441Y00006*
X00412Y00035*
Y0005*
X00411Y00054*
X00408Y00058*
X00391Y00076*
X00387Y00079*
X00382Y00079*
X00376*
X00375Y00087*
X0037Y00094*
X00368Y00095*
Y001*
X0037Y00102*
X00372Y00105*
X00374*
X00378Y00106*
X00382Y00109*
X00475Y00201*
X00477Y00205*
X00478Y0021*
Y00431*
X00503*
Y00488*
X00506Y00492*
X00511Y00491*
Y-00551*
X00255Y-00807*
X-00255*
X-00511Y-00551*
Y00492*
X-00503*
X-00499Y00491*
Y00487*
Y00465*
X-00414*
Y00491*
X-00409Y00492*
X-00349*
X-00345Y00489*
G37*
G36*
X00314Y00522D02*
Y00492D01*
X0031Y00491*
X00268*
Y00465*
X00353*
Y00491*
X00358Y00492*
X00418*
X00422Y00489*
Y00487*
Y00431*
X00454*
Y00215*
X00372Y00133*
X0037Y00133*
X00362Y00138*
X00354Y0014*
X00351Y00144*
X00349Y00152*
X00344Y00159*
X00341Y00161*
Y00359*
X0034Y00364*
X00338Y00368*
X0028Y00425*
X00282Y00429*
X00306*
Y00455*
X00268*
Y00444*
X00263Y00442*
X00247Y00458*
X00247Y00461*
X00242Y00468*
X00234Y00473*
X00226Y00475*
X00217Y00473*
X0021Y00468*
X00205Y00461*
X00203Y00452*
X00205Y00444*
X0021Y00436*
X00217Y00432*
X00226Y0043*
X00234Y00432*
X00237Y00433*
X00317Y00354*
Y00316*
X00312Y00315*
X00312Y00315*
X00154Y00473*
X0015Y00475*
X00145Y00476*
X-00264*
Y00489*
X-00311*
X-00314Y00492*
Y00494*
Y00522*
X-00082Y0055*
X-00078Y00547*
Y00511*
X00078*
Y00547*
X00082Y0055*
X00314Y00522*
G37*
%LNsensorrig-2*%
%LPC*%
G36*
X-00123Y-00379D02*
X-00139D01*
X-00138Y-00382*
X-00133Y-00389*
X-00126Y-00394*
X-00123Y-00395*
Y-00379*
G37*
G36*
Y-00352D02*
X-00126Y-00353D01*
X-00133Y-00358*
X-00138Y-00365*
X-00139Y-00369*
X-00123*
Y-00352*
G37*
G36*
X-00113D02*
Y-00369D01*
X-00096*
X-00097Y-00365*
X-00102Y-00358*
X-00109Y-00353*
X-00113Y-00352*
G37*
G36*
X-00123Y-00428D02*
X-00139D01*
X-00138Y-00431*
X-00133Y-00439*
X-00126Y-00443*
X-00123Y-00444*
Y-00428*
G37*
G36*
Y-00401D02*
X-00126Y-00402D01*
X-00133Y-00407*
X-00138Y-00414*
X-00139Y-00418*
X-00123*
Y-00401*
G37*
G36*
X-00096Y-00379D02*
X-00113D01*
Y-00395*
X-00109Y-00394*
X-00102Y-00389*
X-00097Y-00382*
X-00096Y-00379*
G37*
G36*
Y-00329D02*
X-00113D01*
Y-00346*
X-00109Y-00345*
X-00102Y-0034*
X-00097Y-00333*
X-00096Y-00329*
G37*
G36*
X-0008Y-00274D02*
X-00099D01*
Y-00304*
X-0008*
Y-00274*
G37*
G36*
X-00123Y-00251D02*
X-00139D01*
X-00138Y-00254*
X-00133Y-00261*
X-00126Y-00266*
X-00123Y-00267*
Y-00251*
G37*
G36*
X-00113Y-00224D02*
Y-00246D01*
Y-00267*
X-00109Y-00266*
X-00104Y-00263*
X-00101Y-00264*
X-0008*
Y-00234*
X-00099*
X-00102Y-0023*
X-00102Y-0023*
X-00109Y-00225*
X-00113Y-00224*
G37*
G36*
X-00123Y-00329D02*
X-00139D01*
X-00138Y-00333*
X-00133Y-0034*
X-00126Y-00345*
X-00123Y-00346*
Y-00329*
G37*
G36*
Y-00303D02*
X-00126Y-00304D01*
X-00133Y-00308*
X-00138Y-00316*
X-00139Y-00319*
X-00123*
Y-00303*
G37*
G36*
X-00113D02*
Y-00319D01*
X-00096*
X-00097Y-00316*
X-00102Y-00308*
X-00109Y-00304*
X-00113Y-00303*
G37*
G36*
Y-00401D02*
Y-00423D01*
Y-00444*
X-00109Y-00443*
X-00104Y-0044*
X-00099Y-00442*
Y-00462*
X-00104Y-00465*
X-00109Y-00461*
X-00113Y-0046*
Y-00477*
X-00095*
X-00093Y-00474*
X-0008*
Y-00439*
Y-00404*
X-00099*
X-00104Y-00406*
X-00109Y-00402*
X-00113Y-00401*
G37*
G36*
X-00083Y-00575D02*
X-001D01*
X-00099Y-00579*
X-00094Y-00586*
X-00087Y-00591*
X-00083Y-00592*
Y-00575*
G37*
G36*
X-00057D02*
X-00073D01*
Y-00592*
X-0007Y-00591*
X-00062Y-00586*
X-00058Y-00579*
X-00057Y-00575*
G37*
G36*
X-00083Y-00549D02*
X-00087Y-0055D01*
X-00094Y-00555*
X-00099Y-00562*
X-001Y-00565*
X-00083*
Y-00549*
G37*
G36*
X00086Y-00652D02*
X00082Y-00653D01*
X00074Y-00658*
X00068Y-00666*
X00068Y-00671*
X00086*
Y-00652*
G37*
G36*
X00096D02*
Y-00671D01*
X00115*
X00114Y-00666*
X00108Y-00658*
X001Y-00653*
X00096Y-00652*
G37*
G36*
X-00341Y-00522D02*
X-00407D01*
Y-00638*
X-00341*
Y-00522*
G37*
G36*
X-00073Y-00549D02*
Y-00565D01*
X-00057*
X-00058Y-00562*
X-00062Y-00555*
X-0007Y-0055*
X-00073Y-00549*
G37*
G36*
X-00096Y-00487D02*
X-00113D01*
Y-00503*
X-00109Y-00503*
X-00102Y-00498*
X-00097Y-0049*
X-00096Y-00487*
G37*
G36*
X-00123D02*
X-00139D01*
X-00138Y-0049*
X-00133Y-00498*
X-00126Y-00503*
X-00123Y-00503*
Y-00487*
G37*
G36*
Y-0046D02*
X-00126Y-00461D01*
X-00133Y-00466*
X-00138Y-00473*
X-00139Y-00477*
X-00123*
Y-0046*
G37*
G36*
Y-0051D02*
X-00126Y-0051D01*
X-00133Y-00515*
X-00137Y-0052*
X-00141Y-00522*
X-00143*
X-00207*
Y-00638*
X-00141*
Y-00545*
X-00136Y-00544*
X-00133Y-00547*
X-00126Y-00552*
X-00123Y-00552*
Y-00531*
Y-0051*
G37*
G36*
X-00096Y-00536D02*
X-00113D01*
Y-00552*
X-00109Y-00552*
X-00102Y-00547*
X-00097Y-0054*
X-00096Y-00536*
G37*
G36*
X-00113Y-0051D02*
Y-00526D01*
X-00096*
X-00097Y-00522*
X-00102Y-00515*
X-00109Y-0051*
X-00113Y-0051*
G37*
G36*
X-00379Y-00185D02*
X-00409D01*
Y-0024*
X-00379*
Y-00185*
G37*
G36*
X-00457Y0008D02*
X-00461Y00079D01*
X-00468Y00074*
X-00473Y00067*
X-00474Y00064*
X-00457*
Y0008*
G37*
G36*
X-00447D02*
Y00064D01*
X-00431*
X-00432Y00067*
X-00436Y00074*
X-00444Y00079*
X-00447Y0008*
G37*
G36*
X-00088Y00425D02*
X-00097Y00424D01*
X-00104Y00419*
X-00109Y00412*
X-00111Y00403*
X-00109Y00394*
X-00104Y00387*
X-00097Y00382*
X-00088Y00381*
X-0008Y00382*
X-00072Y00387*
X-0007Y00391*
X-00029*
X00058Y00302*
X00056Y00297*
X0005Y00296*
X00043Y00291*
X00038Y00284*
X00037Y0028*
X00059*
Y00275*
X00064*
Y00254*
X00067Y00254*
X00074Y00259*
X00079Y00267*
X00081Y00273*
X00086Y00275*
X00124Y00237*
X00128Y00234*
X00132Y00233*
X00204*
X00205Y00227*
X0021Y0022*
X00217Y00215*
X00226Y00213*
X00234Y00215*
X00242Y0022*
X00247Y00227*
X00248Y00236*
X00247Y00244*
X00242Y00252*
X00234Y00256*
X00226Y00258*
X00224Y00258*
X00137*
X-00016Y00412*
X-0002Y00414*
X-00024Y00415*
X-0007*
X-00072Y00419*
X-0008Y00424*
X-00088Y00425*
G37*
G36*
X0029Y0005D02*
Y00034D01*
X00306*
X00306Y00038*
X00301Y00045*
X00294Y0005*
X0029Y0005*
G37*
G36*
X-00457Y00054D02*
X-00474D01*
X-00473Y0005*
X-00468Y00043*
X-00461Y00038*
X-00457Y00037*
Y00054*
G37*
G36*
X-00431D02*
X-00447D01*
Y00037*
X-00444Y00038*
X-00436Y00043*
X-00432Y0005*
X-00431Y00054*
G37*
G36*
X00054Y0027D02*
X00037D01*
X00038Y00267*
X00043Y00259*
X0005Y00254*
X00054Y00254*
Y0027*
G37*
G36*
X-00461Y00455D02*
X-00499D01*
Y00429*
X-00461*
Y00455*
G37*
G36*
X-00414D02*
X-00451D01*
Y00429*
X-00414*
Y00455*
G37*
G36*
X00353D02*
X00316D01*
Y00429*
X00353*
Y00455*
G37*
G36*
X00181Y00327D02*
X00173Y00326D01*
X00167Y00324*
X00161Y00319*
X00157Y00313*
X00154Y00307*
X00153Y00299*
X00154Y00292*
X00157Y00286*
X00161Y0028*
X00167Y00275*
X00173Y00273*
X00181Y00272*
X00188Y00273*
X00195Y00275*
X002Y0028*
X00205Y00286*
X00207Y00292*
X00208Y00299*
X00207Y00307*
X00205Y00313*
X002Y00319*
X00195Y00324*
X00188Y00326*
X00181Y00327*
G37*
G36*
X-00118Y00367D02*
X-00126Y00366D01*
X-00132Y00364*
X-00138Y00359*
X-00142Y00353*
X-00145Y00347*
X-00146Y00339*
X-00145Y00332*
X-00142Y00326*
X-00138Y0032*
X-00132Y00315*
X-00126Y00313*
X-00118Y00312*
X-00111Y00313*
X-00104Y00315*
X-00099Y0032*
X-00094Y00326*
X-00092Y00332*
X-00091Y00339*
X-00092Y00347*
X-00094Y00353*
X-00099Y00359*
X-00104Y00364*
X-00111Y00366*
X-00118Y00367*
G37*
G36*
X-00393Y00355D02*
X-00401Y00353D01*
X-00408Y00349*
X-00412Y00342*
X-00414Y00334*
X-00412Y00326*
X-00408Y0032*
X-00401Y00315*
X-00393Y00314*
X-00385Y00315*
X-00379Y0032*
X-00374Y00326*
X-00373Y00334*
X-00374Y00342*
X-00379Y00349*
X-00385Y00353*
X-00393Y00355*
G37*
G36*
X0028Y0005D02*
X00276Y0005D01*
X00269Y00045*
X00264Y00038*
X00264Y00034*
X0028*
Y0005*
G37*
G36*
X-00113Y-00165D02*
Y-00182D01*
X-00096*
X-00097Y-00178*
X-00102Y-00171*
X-00109Y-00166*
X-00113Y-00165*
G37*
G36*
X-00379Y-0012D02*
X-00409D01*
Y-00175*
X-00379*
Y-0012*
G37*
G36*
X-00339D02*
X-00369D01*
Y-00175*
X-00339*
Y-0012*
G37*
G36*
Y-00185D02*
X-00369D01*
Y-0024*
X-00339*
Y-00185*
G37*
G36*
X-00241Y-00122D02*
X-00307D01*
Y-00238*
X-00241*
Y-00122*
G37*
G36*
X-00096Y-00192D02*
X-00113D01*
Y-00208*
X-00109Y-00207*
X-00102Y-00202*
X-00097Y-00195*
X-00096Y-00192*
G37*
G36*
X-00447Y-00064D02*
X-00464D01*
X-00463Y-00067*
X-00458Y-00074*
X-00451Y-00079*
X-00447Y-0008*
Y-00064*
G37*
G36*
X-00437Y00001D02*
Y-00014D01*
X-00421*
X-00422Y-00011*
X-00427Y-00003*
X-00434Y00001*
X-00437Y00001*
G37*
G36*
X0028Y00024D02*
X00264D01*
X00264Y0002*
X00269Y00013*
X00276Y00008*
X0028Y00008*
Y00024*
G37*
G36*
X00306D02*
X0029D01*
Y00008*
X00294Y00008*
X00301Y00013*
X00306Y0002*
X00306Y00024*
G37*
G36*
X-00421Y-00064D02*
X-00437D01*
Y-0008*
X-00434Y-00079*
X-00427Y-00074*
X-00422Y-00067*
X-00421Y-00064*
G37*
G36*
Y-00024D02*
X-00464D01*
X-00463Y-00028*
X-00458Y-00035*
X-00456Y-00036*
Y-00041*
X-00458Y-00043*
X-00463Y-0005*
X-00464Y-00054*
X-00421*
X-00422Y-0005*
X-00427Y-00043*
X-00429Y-00041*
Y-00036*
X-00427Y-00035*
X-00422Y-00028*
X-00421Y-00024*
G37*
G36*
X-00447Y00001D02*
X-00451Y00001D01*
X-00458Y-00003*
X-00463Y-00011*
X-00464Y-00014*
X-00447*
Y00001*
G37*
%LNsensorrig-3*%
%LPD*%
G54D18*
X00075Y-00439D02*
Y-00269D01*
X00068Y-00263D02*
Y-00187D01*
Y-00263D02*
X00075Y-00269D01*
X-00029Y-00434D02*
X-00025Y-00439D01*
X-00029Y-00324D02*
X-00025Y-0032D01*
X00025Y-00269D02*
X00029Y-00273D01*
X00025Y-00278D02*
X00029Y-00273D01*
X-00029Y-00434D02*
Y-00324D01*
X-00025Y-0032D02*
Y-00269D01*
X00025Y-00439D02*
Y-00269D01*
G54D19*
X00214Y-00199D02*
Y0009D01*
X00157Y00147D02*
X00214Y0009D01*
X00167Y00088D02*
X00196Y00059D01*
Y-00179D02*
Y00059D01*
X00354Y00118D02*
X00374D01*
X00466Y0021*
Y00464*
X00328Y00143D02*
X00329Y00144D01*
Y00359*
X00236Y00452D02*
X00329Y00359D01*
X00226Y00452D02*
X00236D01*
X00303Y00169D02*
Y00306D01*
X00145Y00464D02*
X00303Y00306D01*
X-00301Y00464D02*
X00145D01*
X-00174Y-0018D02*
Y-00121D01*
X-00301Y00005D02*
X-00174Y-00121D01*
X-00301Y00005D02*
Y00464D01*
X00354Y00078D02*
X00365Y00067D01*
X-00206Y-00708D02*
X00275D01*
X-00274Y-00641D02*
X-00206Y-00708D01*
X-00274Y-00641D02*
Y-0058D01*
X-00068Y-00738D02*
X00271D01*
X00413Y-0057D02*
Y-00005D01*
X00271Y-00738D02*
X00433Y-00576D01*
Y-00002*
X00275Y-00708D02*
X00413Y-0057D01*
X00167Y-00305D02*
Y-00209D01*
X00196Y-00179*
X-00088Y00403D02*
X-00024D01*
X00132Y00246*
X00226*
X00374Y00034D02*
X00413Y-00005D01*
X00374Y00034D02*
Y00039D01*
X004Y0003D02*
X00433Y-00002D01*
X004Y0003D02*
Y0005D01*
X00382Y00067D02*
X004Y0005D01*
X00365Y00067D02*
X00382D01*
G54D21*
X-00374Y-0058D03*
X-00274D03*
X-00174D03*
X-00374Y-0018D03*
X-00274D03*
X-00174D03*
G54D22*
X00181Y00299D03*
Y00379D03*
X-00118Y00339D03*
G54D23*
X-00305Y0046D03*
X-00456Y0046D03*
X00311D03*
X00462Y0046D03*
G54D24*
X00025Y-00374D03*
X-00088Y00403D03*
X00214Y-00199D03*
X00157Y00147D03*
X00167Y00088D03*
X00068Y-00187D03*
X00167Y-00305D03*
X00226Y00236D03*
X00303Y00169D03*
X00328Y00143D03*
X00354Y00118D03*
X00226Y00452D03*
X00354Y00078D03*
X-00068Y-00738D03*
X00374Y00039D03*
X00091Y-00676D03*
X-00029Y-00324D03*
G54D25*
X-00442Y-00019D03*
Y-00059D03*
X-00452Y00059D03*
X-00393Y00334D03*
X00059Y00275D03*
X-00118Y-00531D03*
Y-00482D03*
Y-00423D03*
Y-00374D03*
Y-00324D03*
Y-00246D03*
Y-00187D03*
X-00078Y-0057D03*
X00285Y00029D03*
G54D26*
X00075Y-00439D03*
X00025D03*
X-00025D03*
X-00075D03*
X00075Y-00269D03*
X00025D03*
X-00025D03*
X-00075D03*
M02*