%FSTAX23Y23*%
%MOMM*%
%SFA1B1*%

%IPPOS*%
%AMD12*
4,1,8,0.000000,0.508000,0.000000,0.508000,-0.508000,0.000000,-0.508000,0.000000,0.000000,-0.508000,0.000000,-0.508000,0.508000,0.000000,0.508000,0.000000,0.000000,0.508000,0.0*
1,1,1.016000,0.000000,0.000000*
1,1,1.016000,0.000000,0.000000*
1,1,1.016000,0.000000,0.000000*
1,1,1.016000,0.000000,0.000000*
%
G04~CAMADD=12~8~0.0~0.0~400.0~400.0~200.0~0.0~15~0.0~0.0~0.0~0.0~0~0.0~0.0~0.0~0.0~0~0.0~0.0~0.0~0.0~400.0~400.0*
%ADD12D12*%
%ADD31C,0.299999*%
%ADD32C,0.349999*%
%ADD37C,0.899998*%
%ADD38C,0.699999*%
%ADD39C,0.999998*%
%ADD40C,0.949998*%
%ADD41C,0.789998*%
%ADD42R,1.399997X1.799996*%
%ADD43R,1.399997X1.799996*%
%ADD44R,1.899996X1.399997*%
%ADD45R,1.499997X0.799998*%
%LNdatapcb-1*%
%LPD*%
G36*
X0Y-22166D02*
X-0093D01*
Y-23066*
Y-23966*
X0*
Y-39776*
X-00119Y-39895*
X-37994*
X-38099Y-39852*
Y0*
X0*
Y-22166*
G37*
%LNdatapcb-2*%
%LPC*%
G36*
X-0228Y-10441D02*
X-03255D01*
Y-11166*
X-0228*
Y-10441*
G37*
G36*
X-17628Y-11165D02*
Y-11516D01*
X-17277*
X-17285Y-11476*
X-17406Y-11294*
X-17588Y-11173*
X-17628Y-11165*
G37*
G36*
X-32973Y-10327D02*
X-33456D01*
X-33456Y-10329*
X-33388Y-10493*
X-33279Y-10634*
X-33138Y-10742*
X-32974Y-1081*
X-32973Y-1081*
Y-10327*
G37*
G36*
X-00955Y-10441D02*
X-0193D01*
Y-11166*
X-00955*
Y-10441*
G37*
G36*
X-17277Y-11866D02*
X-17628D01*
Y-12217*
X-17588Y-12209*
X-17406Y-12088*
X-17285Y-11906*
X-17277Y-11866*
G37*
G36*
X-04946Y-34762D02*
X-05297D01*
Y-35113*
X-05258Y-35105*
X-05076Y-34983*
X-04954Y-34801*
X-04946Y-34762*
G37*
G36*
X-05647Y-34061D02*
X-05687Y-34069D01*
X-05869Y-3419*
X-0599Y-34372*
X-05998Y-34412*
X-05647*
Y-34061*
G37*
G36*
Y-34762D02*
X-05998D01*
X-0599Y-34801*
X-05869Y-34983*
X-05687Y-35105*
X-05647Y-35113*
Y-34762*
G37*
G36*
X-25619Y-09294D02*
X-2597D01*
X-25962Y-09334*
X-2584Y-09516*
X-25658Y-09637*
X-25619Y-09645*
Y-09294*
G37*
G36*
X-32144Y-09383D02*
X-33196D01*
X-33188Y-09423*
X-33125Y-09518*
X-33138Y-09563*
X-33279Y-09671*
X-33388Y-09812*
X-33456Y-09976*
X-33456Y-09977*
X-3214*
X-3214Y-09976*
X-32208Y-09812*
X-32258Y-09747*
X-32274Y-09605*
X-32152Y-09423*
X-32144Y-09383*
G37*
G36*
X-32797Y-07511D02*
X-33041Y-0756D01*
X-33248Y-07698*
X-33386Y-07904*
X-33435Y-08148*
X-33386Y-08392*
X-33248Y-08599*
X-33112Y-0869*
X-3307Y-08802*
X-33089Y-08846*
X-33188Y-08994*
X-33196Y-09033*
X-32144*
X-32152Y-08994*
X-32274Y-08812*
X-32355Y-08757*
Y-08605*
X-32347Y-08599*
X-32209Y-08392*
X-3216Y-08148*
X-32209Y-07904*
X-32347Y-07698*
X-32553Y-0756*
X-32797Y-07511*
G37*
G36*
X-24918Y-09294D02*
X-25269D01*
Y-09645*
X-25229Y-09637*
X-25047Y-09516*
X-24926Y-09334*
X-24918Y-09294*
G37*
G36*
X-00955Y-09366D02*
X-0193D01*
Y-10091*
X-00955*
Y-09366*
G37*
G36*
X-29579Y-10414D02*
X-29619Y-10422D01*
X-29801Y-10543*
X-29922Y-10725*
X-2993Y-10765*
X-29579*
Y-10414*
G37*
G36*
X-3214Y-10327D02*
X-32623D01*
Y-1081*
X-32622Y-1081*
X-32458Y-10742*
X-32317Y-10634*
X-32208Y-10493*
X-3214Y-10329*
X-3214Y-10327*
G37*
G36*
X-0228Y-09366D02*
X-03255D01*
Y-10091*
X-0228*
Y-09366*
G37*
G36*
X-29229Y-10414D02*
Y-10765D01*
X-28878*
X-28886Y-10725*
X-29008Y-10543*
X-29189Y-10422*
X-29229Y-10414*
G37*
G36*
X-14208Y-28774D02*
X-14247Y-28782D01*
X-14429Y-28904*
X-14551Y-29086*
X-14559Y-29125*
X-14208*
Y-28774*
G37*
G36*
X-13858D02*
Y-29125D01*
X-13507*
X-13514Y-29086*
X-13636Y-28904*
X-13818Y-28782*
X-13858Y-28774*
G37*
G36*
X-14208Y-29475D02*
X-14559D01*
X-14551Y-29515*
X-14429Y-29697*
X-14247Y-29818*
X-14208Y-29826*
Y-29475*
G37*
G36*
X-13507D02*
X-13858D01*
Y-29826*
X-13818Y-29818*
X-13636Y-29697*
X-13514Y-29515*
X-13507Y-29475*
G37*
G36*
X-05345Y-28663D02*
X-05696D01*
Y-29014*
X-05656Y-29006*
X-05474Y-28884*
X-05353Y-28702*
X-05345Y-28663*
G37*
G36*
X-0128Y-23241D02*
X-02255D01*
Y-23966*
X-0128*
Y-23241*
G37*
G36*
Y-22166D02*
X-02255D01*
Y-22891*
X-0128*
Y-22166*
G37*
G36*
X-3134Y-28549D02*
X-31691D01*
Y-289*
X-31652Y-28892*
X-3147Y-28771*
X-31348Y-28589*
X-3134Y-28549*
G37*
G36*
X-08197Y-2854D02*
X-08548D01*
X-0854Y-2858*
X-08419Y-28762*
X-08237Y-28883*
X-08197Y-28891*
Y-2854*
G37*
G36*
X-06715Y-3239D02*
X-07066D01*
Y-32741*
X-07026Y-32733*
X-06844Y-32612*
X-06723Y-3243*
X-06715Y-3239*
G37*
G36*
X-07416Y-31689D02*
X-07455Y-31697D01*
X-07637Y-31819*
X-07759Y-32001*
X-07767Y-3204*
X-07416*
Y-31689*
G37*
G36*
X-05297Y-34061D02*
Y-34412D01*
X-04946*
X-04954Y-34372*
X-05076Y-3419*
X-05258Y-34069*
X-05297Y-34061*
G37*
G36*
X-07416Y-3239D02*
X-07767D01*
X-07759Y-3243*
X-07637Y-32612*
X-07455Y-32733*
X-07416Y-32741*
Y-3239*
G37*
G36*
X-07066Y-31689D02*
Y-3204D01*
X-06715*
X-06723Y-32001*
X-06844Y-31819*
X-07026Y-31697*
X-07066Y-31689*
G37*
G36*
X-26117Y-29925D02*
X-26156Y-29932D01*
X-26338Y-30054*
X-2646Y-30236*
X-26468Y-30276*
X-26117*
Y-29925*
G37*
G36*
X-25767D02*
Y-30276D01*
X-25416*
X-25424Y-30236*
X-25545Y-30054*
X-25727Y-29932*
X-25767Y-29925*
G37*
G36*
X-26117Y-30626D02*
X-26468D01*
X-2646Y-30665*
X-26338Y-30847*
X-26156Y-30969*
X-26117Y-30976*
Y-30626*
G37*
G36*
X-25416D02*
X-25767D01*
Y-30976*
X-25727Y-30969*
X-25545Y-30847*
X-25424Y-30665*
X-25416Y-30626*
G37*
G36*
X-25619Y-08593D02*
X-25658Y-08601D01*
X-2584Y-08723*
X-25962Y-08905*
X-2597Y-08944*
X-25619*
Y-08593*
G37*
G36*
X-03376Y-02129D02*
X-03727D01*
Y-0248*
X-03688Y-02472*
X-03506Y-02351*
X-03384Y-02169*
X-03376Y-02129*
G37*
G36*
X-04077D02*
X-04428D01*
X-0442Y-02169*
X-04299Y-02351*
X-04117Y-02472*
X-04077Y-0248*
Y-02129*
G37*
G36*
X-16536Y-02124D02*
X-16887D01*
Y-02475*
X-16847Y-02467*
X-16665Y-02345*
X-16544Y-02163*
X-16536Y-02124*
G37*
G36*
X-17237D02*
X-17588D01*
X-1758Y-02163*
X-17458Y-02345*
X-17276Y-02467*
X-17237Y-02475*
Y-02124*
G37*
G36*
X-05439Y-02376D02*
Y-02727D01*
X-05088*
X-05096Y-02687*
X-05218Y-02506*
X-054Y-02384*
X-05439Y-02376*
G37*
G36*
X-3637Y-01807D02*
X-36542Y-01829D01*
X-36702Y-01895*
X-3684Y-02001*
X-36945Y-02138*
X-37011Y-02298*
X-37034Y-0247*
X-37011Y-02642*
X-36945Y-02802*
X-3684Y-0294*
X-36702Y-03045*
X-36542Y-03111*
X-3637Y-03134*
X-36199Y-03111*
X-36038Y-03045*
X-35901Y-0294*
X-35796Y-02802*
X-35729Y-02642*
X-35707Y-0247*
X-35729Y-02298*
X-35796Y-02138*
X-35901Y-02001*
X-36038Y-01895*
X-36199Y-01829*
X-3637Y-01807*
G37*
G36*
X-05088Y-03077D02*
X-05439D01*
Y-03428*
X-054Y-0342*
X-05218Y-03299*
X-05096Y-03117*
X-05088Y-03077*
G37*
G36*
X-05789Y-02376D02*
X-05829Y-02384D01*
X-06011Y-02506*
X-06133Y-02687*
X-0614Y-02727*
X-05789*
Y-02376*
G37*
G36*
X-18589Y-02775D02*
X-18629Y-02783D01*
X-18811Y-02905*
X-18933Y-03087*
X-1894Y-03126*
X-18589*
Y-02775*
G37*
G36*
X-26465Y-01182D02*
X-26816D01*
Y-01533*
X-26776Y-01525*
X-26594Y-01403*
X-26473Y-01221*
X-26465Y-01182*
G37*
G36*
X-27166D02*
X-27517D01*
X-27509Y-01221*
X-27387Y-01403*
X-27205Y-01525*
X-27166Y-01533*
Y-01182*
G37*
G36*
X-26816Y-00481D02*
Y-00832D01*
X-26465*
X-26473Y-00792*
X-26594Y-0061*
X-26776Y-00489*
X-26816Y-00481*
G37*
G36*
X-27166D02*
X-27205Y-00489D01*
X-27387Y-0061*
X-27509Y-00792*
X-27517Y-00832*
X-27166*
Y-00481*
G37*
G36*
X-04784Y-00388D02*
X-05019Y-00434D01*
X-05217Y-00567*
X-0535Y-00765*
X-05396Y-00999*
X-0535Y-01234*
X-05217Y-01432*
X-05019Y-01565*
X-04784Y-01611*
X-0455Y-01565*
X-04352Y-01432*
X-04219Y-01234*
X-04173Y-00999*
X-04219Y-00765*
X-04352Y-00567*
X-0455Y-00434*
X-04784Y-00388*
G37*
G36*
X-03727Y-01428D02*
Y-01779D01*
X-03376*
X-03384Y-0174*
X-03506Y-01558*
X-03688Y-01436*
X-03727Y-01428*
G37*
G36*
X-04077D02*
X-04117Y-01436D01*
X-04299Y-01558*
X-0442Y-0174*
X-04428Y-01779*
X-04077*
Y-01428*
G37*
G36*
X-30184Y-00388D02*
X-30419Y-00434D01*
X-30617Y-00567*
X-3075Y-00765*
X-30796Y-00999*
X-3075Y-01234*
X-30617Y-01432*
X-30419Y-01565*
X-30184Y-01611*
X-2995Y-01565*
X-29752Y-01432*
X-29619Y-01234*
X-29573Y-00999*
X-29619Y-00765*
X-29752Y-00567*
X-2995Y-00434*
X-30184Y-00388*
G37*
G36*
X-17484D02*
X-17719Y-00434D01*
X-17917Y-00567*
X-1805Y-00765*
X-18096Y-00999*
X-1805Y-01234*
X-17917Y-01432*
X-17719Y-01565*
X-17608Y-01587*
X-1756Y-01704*
X-1758Y-01734*
X-17588Y-01774*
X-16536*
X-16544Y-01734*
X-16665Y-01552*
X-16847Y-01431*
X-16915Y-01417*
X-16964Y-013*
X-16919Y-01234*
X-16873Y-00999*
X-16919Y-00765*
X-17052Y-00567*
X-1725Y-00434*
X-17484Y-00388*
G37*
G36*
X-27518Y-04426D02*
X-27713Y-04465D01*
X-27878Y-04575*
X-27989Y-04741*
X-28028Y-04936*
X-27989Y-05131*
X-27878Y-05296*
X-27824Y-05333*
Y-06539*
X-27829Y-06543*
X-27939Y-06708*
X-27978Y-06903*
X-27939Y-07098*
X-27829Y-07264*
X-27663Y-07374*
X-27468Y-07413*
X-27273Y-07374*
X-27108Y-07264*
X-26997Y-07098*
X-26959Y-06903*
X-26997Y-06708*
X-27108Y-06543*
X-27212Y-06473*
Y-05333*
X-27157Y-05296*
X-27047Y-05131*
X-27008Y-04936*
X-27047Y-04741*
X-27157Y-04575*
X-27323Y-04465*
X-27518Y-04426*
G37*
G36*
X-25513Y-06699D02*
X-25766Y-06749D01*
X-2598Y-06892*
X-26123Y-07106*
X-26173Y-07359*
X-26123Y-07612*
X-2598Y-07826*
X-25766Y-07969*
X-25513Y-08019*
X-2526Y-07969*
X-25046Y-07826*
X-24903Y-07612*
X-24853Y-07359*
X-24903Y-07106*
X-25046Y-06892*
X-2526Y-06749*
X-25513Y-06699*
G37*
G36*
X-21191Y-05112D02*
X-21542D01*
X-21534Y-05152*
X-21412Y-05334*
X-2123Y-05455*
X-21191Y-05463*
Y-05112*
G37*
G36*
X-06738Y-057D02*
X-06909Y-05722D01*
X-0707Y-05789*
X-07207Y-05894*
X-07312Y-06032*
X-07379Y-06192*
X-07401Y-06364*
X-07379Y-06535*
X-07312Y-06695*
X-07207Y-06833*
X-0707Y-06938*
X-06909Y-07005*
X-06738Y-07027*
X-06566Y-07005*
X-06406Y-06938*
X-06268Y-06833*
X-06163Y-06695*
X-06097Y-06535*
X-06074Y-06364*
X-06097Y-06192*
X-06163Y-06032*
X-06268Y-05894*
X-06406Y-05789*
X-06566Y-05722*
X-06738Y-057*
G37*
G36*
X-037Y-07862D02*
Y-08213D01*
X-03349*
X-03357Y-08173*
X-03478Y-07991*
X-0366Y-0787*
X-037Y-07862*
G37*
G36*
X-0405Y-08563D02*
X-04401D01*
X-04393Y-08602*
X-04271Y-08784*
X-04089Y-08906*
X-0405Y-08914*
Y-08563*
G37*
G36*
X-25269Y-08593D02*
Y-08944D01*
X-24918*
X-24926Y-08905*
X-25047Y-08723*
X-25229Y-08601*
X-25269Y-08593*
G37*
G36*
X-0405Y-07862D02*
X-04089Y-0787D01*
X-04271Y-07991*
X-04393Y-08173*
X-04401Y-08213*
X-0405*
Y-07862*
G37*
G36*
X-03349Y-08563D02*
X-037D01*
Y-08914*
X-0366Y-08906*
X-03478Y-08784*
X-03357Y-08602*
X-03349Y-08563*
G37*
G36*
X-04784Y-03388D02*
X-05019Y-03434D01*
X-05217Y-03567*
X-0535Y-03765*
X-05396Y-03999*
X-0535Y-04234*
X-05217Y-04432*
X-05019Y-04565*
X-04784Y-04611*
X-0455Y-04565*
X-04352Y-04432*
X-04219Y-04234*
X-04173Y-03999*
X-04219Y-03765*
X-04352Y-03567*
X-0455Y-03434*
X-04784Y-03388*
G37*
G36*
X-18239Y-02775D02*
Y-03301D01*
Y-03827*
X-182Y-0382*
X-18188Y-03812*
X-18074Y-03888*
X-18096Y-03999*
X-1805Y-04234*
X-17917Y-04432*
X-17719Y-04565*
X-17484Y-04611*
X-1725Y-04565*
X-17052Y-04432*
X-16919Y-04234*
X-16873Y-03999*
X-16919Y-03765*
X-17052Y-03567*
X-1725Y-03434*
X-17484Y-03388*
X-17719Y-03434*
X-17756Y-03459*
X-1787Y-03383*
X-17854Y-03301*
X-17896Y-03087*
X-18018Y-02905*
X-182Y-02783*
X-18239Y-02775*
G37*
G36*
X-05789Y-03077D02*
X-0614D01*
X-06133Y-03117*
X-06011Y-03299*
X-05829Y-0342*
X-05789Y-03428*
Y-03077*
G37*
G36*
X-18589Y-03476D02*
X-1894D01*
X-18933Y-03516*
X-18811Y-03698*
X-18629Y-0382*
X-18589Y-03827*
Y-03476*
G37*
G36*
X-30184Y-03388D02*
X-30419Y-03434D01*
X-30617Y-03567*
X-3075Y-03765*
X-30796Y-03999*
X-3075Y-04234*
X-30617Y-04432*
X-30419Y-04565*
X-30184Y-04611*
X-2995Y-04565*
X-29752Y-04432*
X-29619Y-04234*
X-29573Y-03999*
X-29619Y-03765*
X-29752Y-03567*
X-2995Y-03434*
X-30184Y-03388*
G37*
G36*
X-17833Y-04969D02*
D01*
X-19625*
X-19742Y-04992*
X-19842Y-05058*
X-20649Y-05866*
X-20715Y-05965*
X-20739Y-06082*
Y-06273*
X-20826Y-06331*
X-20933Y-06491*
X-21027Y-06492*
X-21068Y-06483*
X-21194Y-06295*
X-21391Y-06163*
X-21448Y-06152*
Y-06724*
X-21798*
Y-06152*
X-21855Y-06163*
X-22052Y-06295*
X-22183Y-06492*
X-2223Y-06724*
X-22417*
X-2246Y-06511*
X-2258Y-06331*
X-22667Y-06273*
Y-0606*
X-2268Y-05994*
X-2259Y-05858*
X-22551Y-05663*
X-2259Y-05468*
X-227Y-05303*
X-22866Y-05192*
X-23061Y-05153*
X-23256Y-05192*
X-23421Y-05303*
X-23532Y-05468*
X-2357Y-05663*
X-23532Y-05858*
X-23421Y-06024*
X-23279Y-06119*
Y-06273*
X-23366Y-06331*
X-23486Y-06511*
X-23529Y-06724*
X-23687*
X-2373Y-06511*
X-2385Y-06331*
X-2403Y-06211*
X-241Y-06197*
Y-05936*
X-24045Y-05899*
X-23935Y-05734*
X-23896Y-05539*
X-23935Y-05344*
X-24045Y-05178*
X-24211Y-05068*
X-24406Y-05029*
X-24601Y-05068*
X-24766Y-05178*
X-24877Y-05344*
X-24916Y-05539*
X-24877Y-05734*
X-24766Y-05899*
X-24712Y-05936*
Y-06444*
X-24756Y-06511*
X-24799Y-06724*
X-24756Y-06937*
X-24636Y-07117*
X-24456Y-07237*
X-24243Y-0728*
Y-07438*
X-24456Y-07481*
X-24636Y-07601*
X-24756Y-07781*
X-24799Y-07994*
X-24756Y-08207*
X-24636Y-08387*
X-24549Y-08445*
Y-09682*
Y-09682*
X-24525Y-09799*
X-24459Y-09898*
X-23633Y-10725*
X-23534Y-10791*
X-23417Y-10814*
X-23296*
X-21798Y-12312*
Y-12745*
X-21916Y-12793*
X-23224Y-11485*
X-23324Y-11418*
X-23441Y-11395*
X-28894*
X-28962Y-11268*
X-28886Y-11155*
X-28878Y-11115*
X-2993*
X-29922Y-11155*
X-29846Y-11268*
X-29914Y-11395*
X-3003*
X-30147Y-11418*
X-30247Y-11485*
X-30262Y-115*
X-32448*
X-32565Y-11523*
X-32614Y-11556*
X-32799Y-11519*
X-33043Y-11568*
X-33249Y-11706*
X-33387Y-11913*
X-33436Y-12156*
X-33387Y-124*
X-33264Y-12584*
X-33304Y-12711*
X-34261*
X-34378Y-12735*
X-34477Y-12801*
X-34543Y-129*
X-34567Y-13017*
X-34543Y-13134*
X-34477Y-13234*
X-34468Y-13242*
Y-23082*
Y-23082*
X-34445Y-23199*
X-34379Y-23298*
X-33213Y-24463*
Y-2459*
X-33259Y-24636*
X-35863*
X-35863*
X-3598Y-24659*
X-36079Y-24726*
X-37442Y-26089*
X-37508Y-26188*
X-37532Y-26305*
Y-26305*
Y-28661*
X-37508Y-28778*
X-37442Y-28877*
X-37343Y-28944*
X-37279Y-28956*
X-33735Y-32501*
Y-3321*
X-33789Y-33247*
X-339Y-33412*
X-33939Y-33607*
X-339Y-33802*
X-33789Y-33968*
X-33624Y-34078*
X-33429Y-34117*
X-33234Y-34078*
X-33068Y-33968*
X-32958Y-33802*
X-32919Y-33607*
X-32958Y-33412*
X-33068Y-33247*
X-33123Y-3321*
Y-32374*
X-33146Y-32257*
X-33213Y-32158*
X-3692Y-2845*
Y-2718*
X-36798Y-27109*
X-36726Y-27147*
Y-28192*
X-36703Y-28309*
X-36636Y-28408*
X-36169Y-28875*
X-3607Y-28942*
X-35953Y-28965*
X-35139*
X-35057Y-2902*
X-34861Y-29059*
X-34666Y-2902*
X-34501Y-28909*
X-3439Y-28744*
X-34317Y-28714*
X-34233Y-2877*
X-34193Y-28778*
Y-28252*
X-33843*
Y-28778*
X-33803Y-2877*
X-33622Y-28648*
X-33522Y-285*
X-33412Y-28484*
X-33375Y-28491*
X-33311Y-28588*
X-33145Y-28699*
X-3295Y-28738*
X-32755Y-28699*
X-3259Y-28588*
X-32531Y-28501*
X-32397Y-28528*
X-32384Y-28589*
X-32263Y-28771*
X-32081Y-28892*
X-32041Y-289*
Y-28374*
X-31866*
Y-28199*
X-3134*
X-31348Y-2816*
X-31429Y-28039*
X-31463Y-27909*
X-31332Y-27713*
X-31286Y-27481*
X-31098*
X-31056Y-27693*
X-30935Y-27873*
X-30848Y-27932*
Y-28155*
X-30939Y-28215*
X-31049Y-28381*
X-31088Y-28576*
X-31049Y-28771*
X-30939Y-28936*
X-30773Y-29047*
X-30578Y-29086*
X-30383Y-29047*
X-30218Y-28936*
X-30107Y-28771*
X-30068Y-28576*
X-30107Y-28381*
X-30218Y-28215*
X-30237Y-28203*
Y-27932*
X-3015Y-27873*
X-30029Y-27693*
X-29987Y-27481*
X-29828*
X-29786Y-27693*
X-29665Y-27873*
X-29485Y-27994*
X-29272Y-28036*
X-292Y-28022*
X-28845Y-28377*
X-28737Y-28449*
X-28693Y-28457*
X-28663Y-28503*
X-28498Y-28614*
X-28302Y-28652*
X-28107Y-28614*
X-27942Y-28503*
X-27923Y-28474*
X-26853*
X-22626Y-32701*
X-22519Y-32773*
X-22392Y-32798*
X-19824*
X-19697Y-32773*
X-1959Y-32701*
X-1657Y-29681*
X-16498Y-29574*
X-16473Y-29447*
Y-28177*
X-16292Y-27996*
X-16219Y-2801*
X-16147Y-27996*
X-15792Y-28351*
X-15684Y-28422*
X-1564Y-28431*
X-1561Y-28477*
X-15444Y-28587*
X-15249Y-28626*
X-15054Y-28587*
X-14889Y-28477*
X-14778Y-28311*
X-1474Y-28116*
X-14778Y-27921*
X-14889Y-27756*
X-15054Y-27645*
X-15249Y-27607*
X-15444Y-27645*
X-15513Y-27691*
X-15678Y-27527*
X-15664Y-27454*
X-15706Y-27242*
X-15826Y-27061*
X-16007Y-26941*
X-16219Y-26899*
Y-2674*
X-16007Y-26698*
X-15826Y-26577*
X-15706Y-26397*
X-15692Y-26328*
X-15553*
X-15485Y-26455*
X-15559Y-26567*
X-1561Y-26819*
X-15559Y-27072*
X-15416Y-27286*
X-15202Y-27429*
X-14949Y-27479*
X-14697Y-27429*
X-14482Y-27286*
X-14339Y-27072*
X-14313Y-2694*
X-14175Y-26899*
X-13323Y-27751*
Y-30258*
X-14674Y-31609*
X-1707*
X-17197Y-31634*
X-17304Y-31706*
X-18822Y-33224*
X-18894Y-33332*
X-1892Y-33459*
Y-34891*
X-22063Y-38034*
X-24304*
X-24323Y-38005*
X-24489Y-37895*
X-24684Y-37856*
X-24879Y-37895*
X-25044Y-38005*
X-25155Y-38171*
X-25193Y-38366*
X-25155Y-38561*
X-25044Y-38726*
X-24879Y-38837*
X-24684Y-38876*
X-24489Y-38837*
X-24323Y-38726*
X-24304Y-38697*
X-21926*
X-21799Y-38672*
X-21692Y-386*
X-18354Y-35262*
X-18282Y-35155*
X-18257Y-35028*
Y-33596*
X-16933Y-32272*
X-14537*
X-1441Y-32247*
X-14302Y-32175*
X-12757Y-3063*
X-12686Y-30523*
X-1266Y-30396*
Y-27614*
X-12686Y-27487*
X-12757Y-27379*
X-14374Y-25762*
X-14482Y-25691*
X-14609Y-25665*
X-15888*
Y-24892*
X-15913Y-24766*
X-15985Y-24658*
X-16992Y-23652*
X-17099Y-2358*
X-17226Y-23555*
X-1731*
X-1737Y-23443*
X-17346Y-23406*
X-17307Y-23211*
X-17346Y-23016*
X-17456Y-22851*
X-17622Y-2274*
X-17817Y-22701*
X-18012Y-2274*
X-18177Y-22851*
X-18313Y-22826*
X-18983Y-22156*
Y-21828*
X-18986Y-21814*
X-18881Y-21687*
X-15956*
X-14961Y-22681*
Y-23526*
X-14938Y-23643*
X-14872Y-23742*
X-14795Y-23819*
Y-23819*
X-14695Y-23885*
X-14578Y-23908*
X-14347*
X-14311Y-23963*
X-14145Y-24074*
X-1395Y-24112*
X-13755Y-24074*
X-1359Y-23963*
X-13479Y-23798*
X-13446Y-23629*
X-13328Y-23567*
X-13146Y-23749*
Y-239*
X-13201Y-23937*
X-13312Y-24102*
X-1335Y-24297*
X-13312Y-24492*
X-13201Y-24658*
X-13036Y-24768*
X-12841Y-24807*
X-12646Y-24768*
X-1248Y-24658*
X-1237Y-24492*
X-12331Y-24297*
X-1237Y-24102*
X-1248Y-23937*
X-12535Y-239*
Y-23703*
X-12451Y-23602*
X-12411Y-23592*
X-09237*
Y-24508*
X-09364Y-2452*
X-0939Y-24388*
X-09501Y-24222*
X-09666Y-24112*
X-09861Y-24073*
X-10056Y-24112*
X-10222Y-24222*
X-10332Y-24388*
X-10371Y-24583*
X-10332Y-24778*
X-10222Y-24943*
X-10056Y-25054*
X-09861Y-25093*
X-09795Y-25079*
X-09705Y-25169*
X-09747Y-25307*
X-09879Y-25333*
X-10094Y-25476*
X-10237Y-2569*
X-10287Y-25943*
X-10237Y-26196*
X-10094Y-2641*
X-09879Y-26553*
X-09627Y-26603*
X-09374Y-26553*
X-0916Y-2641*
X-09019Y-262*
X-09016Y-26196*
X-08881Y-26162*
X-0888Y-26163*
X-08912Y-26324*
X-0887Y-26537*
X-0875Y-26717*
X-08569Y-26837*
X-08412Y-26869*
Y-26998*
X-08589Y-27034*
X-08786Y-27165*
X-08917Y-27362*
X-0896Y-27578*
X-09008Y-27602*
X-09088Y-27617*
X-0916Y-27508*
X-09374Y-27365*
X-09627Y-27315*
X-09879Y-27365*
X-10094Y-27508*
X-10237Y-27722*
X-10287Y-27975*
X-10237Y-28228*
X-10094Y-28442*
X-09879Y-28585*
X-09627Y-28635*
X-09374Y-28585*
X-0916Y-28442*
X-09017Y-28228*
X-08967Y-2798*
X-08952Y-2797*
X-08845Y-27934*
X-08786Y-28023*
X-08589Y-28155*
X-08543Y-28164*
X-08548Y-2819*
X-08022*
Y-28365*
X-07847*
Y-28891*
X-07808Y-28883*
X-07626Y-28762*
X-07527Y-28614*
X-07416Y-28598*
X-0738Y-28605*
X-07315Y-28702*
X-0715Y-28812*
X-06954Y-28851*
X-06759Y-28812*
X-06594Y-28702*
X-06536Y-28615*
X-06401Y-28641*
X-06389Y-28702*
X-06267Y-28884*
X-06085Y-29006*
X-06046Y-29014*
Y-28488*
X-05871*
Y-28313*
X-05345*
X-05353Y-28273*
X-05433Y-28153*
X-05468Y-28023*
X-05336Y-27826*
X-0529Y-27594*
X-05102*
X-0506Y-27807*
X-0494Y-27987*
X-04853Y-28045*
Y-28268*
X-04943Y-28329*
X-05054Y-28494*
X-05092Y-28689*
X-05054Y-28884*
X-04943Y-2905*
X-04778Y-2916*
X-04583Y-29199*
X-04387Y-2916*
X-04222Y-2905*
X-04112Y-28884*
X-04073Y-28689*
X-04112Y-28494*
X-04222Y-28329*
X-04241Y-28316*
Y-28045*
X-04154Y-27987*
X-04033Y-27807*
X-03991Y-27594*
X-03832*
X-0379Y-27807*
X-0367Y-27987*
X-03489Y-28107*
X-03277Y-2815*
X-03204Y-28135*
X-02849Y-2849*
X-02742Y-28562*
X-02697Y-28675*
X-02725Y-28731*
X-06925Y-32931*
X-16311*
X-1633Y-32902*
X-16495Y-32792*
X-16691Y-32753*
X-16886Y-32792*
X-17051Y-32902*
X-17162Y-33068*
X-172Y-33263*
X-17162Y-33458*
X-17051Y-33623*
X-16886Y-33734*
X-16691Y-33773*
X-16495Y-33734*
X-1633Y-33623*
X-16311Y-33594*
X-07008*
X-06973Y-33617*
X-06967Y-33624*
X-06934Y-33757*
X-11226Y-3805*
X-11438*
X-11474Y-37995*
X-1164Y-37885*
X-11835Y-37846*
X-1203Y-37885*
X-12195Y-37995*
X-12306Y-38161*
X-12345Y-38356*
X-12306Y-38551*
X-12195Y-38716*
X-1203Y-38827*
X-11835Y-38866*
X-1164Y-38827*
X-11474Y-38716*
X-11438Y-38662*
X-111*
Y-38662*
X-10983Y-38638*
X-10883Y-38572*
X-00993Y-28682*
X-00927Y-28582*
X-00903Y-28465*
Y-25864*
X-00927Y-25747*
X-00993Y-25648*
X-01092Y-25582*
X-01209Y-25558*
X-02511*
Y-25132*
X-02535Y-25015*
X-02601Y-24916*
X-03536Y-23981*
X-03569Y-23876*
X-03543Y-23806*
X-03465Y-2369*
X-03427Y-23494*
X-03465Y-23299*
X-03576Y-23134*
X-03741Y-23023*
X-03749Y-23022*
X-03769Y-22888*
X-03666Y-22734*
X-03627Y-22539*
X-03666Y-22344*
X-03776Y-22178*
X-03942Y-22068*
X-04137Y-22029*
X-04332Y-22068*
X-04497Y-22178*
X-04608Y-22344*
X-04647Y-22539*
X-04638Y-22581*
X-04725Y-22679*
X-06802*
X-06855Y-22552*
X-04466Y-20163*
X-04418Y-20173*
X-04223Y-20134*
X-04057Y-20024*
X-03947Y-19858*
X-03908Y-19663*
X-03947Y-19468*
X-04055Y-19306*
Y-18206*
X-04455*
Y-17106*
X-04055*
Y-16006*
X-03855*
Y-1502*
X-03729Y-14915*
X-03534Y-14876*
X-03368Y-14766*
X-03258Y-146*
X-03219Y-14405*
X-03258Y-1421*
X-03368Y-14045*
X-03534Y-13934*
X-03697Y-13902*
X-03735Y-13886*
X-03805Y-13781*
Y-13431*
X-05705*
Y-13806*
X-05855*
Y-14005*
X-06078*
X-06195Y-14029*
X-06294Y-14095*
X-07224Y-15025*
X-07298Y-1501*
X-07351Y-14978*
Y-13566*
X-06237Y-12452*
X-05855*
Y-12706*
X-05705*
Y-13081*
X-03805*
Y-12656*
X-03815Y-12529*
X-03781Y-12507*
X-03671Y-12341*
X-03632Y-12146*
X-03671Y-11951*
X-03781Y-11786*
X-03946Y-11675*
X-04055Y-11654*
Y-11373*
X-03989Y-11319*
X-03794Y-1128*
X-03629Y-1117*
X-03518Y-11005*
X-0348Y-10809*
X-03518Y-10614*
X-03629Y-10449*
X-03794Y-10338*
X-03989Y-103*
X-04185Y-10338*
X-0435Y-10449*
X-04386Y-10504*
X-06809*
X-06926Y-10527*
X-07025Y-10593*
X-07745Y-11313*
X-07863Y-11255*
X-07902Y-1106*
X-08012Y-10894*
X-08178Y-10784*
X-08373Y-10745*
X-08568Y-10784*
X-08733Y-10894*
X-0877Y-10949*
X-14405*
Y-10816*
X-16105*
Y-12869*
X-16232Y-12908*
X-16299Y-12807*
X-16465Y-12697*
X-1666Y-12658*
X-16855Y-12697*
X-1702Y-12807*
X-17131Y-12973*
X-1717Y-13168*
X-17157Y-13232*
X-18173Y-14249*
X-18291Y-142*
Y-12162*
X-18164Y-12111*
X-18018Y-12209*
X-17978Y-12217*
Y-11691*
Y-11165*
X-18018Y-11173*
X-18164Y-11271*
X-18291Y-1122*
Y-10327*
X-17892Y-09928*
X-17176*
Y-09928*
X-17059Y-09905*
X-1696Y-09839*
X-16517Y-09395*
X-16411Y-09466*
X-16434Y-09583*
Y-09762*
X-16489Y-09799*
X-16599Y-09964*
X-16638Y-10159*
X-16599Y-10355*
X-16489Y-1052*
X-16324Y-1063*
X-16128Y-10669*
X-15933Y-1063*
X-15768Y-1052*
X-15657Y-10355*
X-15619Y-10159*
X-15657Y-09964*
X-15768Y-09799*
X-15767Y-09654*
X-15577Y-09465*
X-15373*
X-15256Y-09441*
X-15157Y-09375*
X-15018Y-09236*
X-14801*
X-14801*
X-14684Y-09212*
X-14585Y-09146*
X-14185Y-08747*
X-10736*
X-10696Y-0879*
X-10647Y-0891*
X-10757Y-09075*
X-10796Y-0927*
X-10757Y-09466*
X-10647Y-09631*
X-10482Y-09741*
X-10286Y-0978*
X-10091Y-09741*
X-09926Y-09631*
X-09889Y-09576*
X-09233*
X-09195Y-0977*
X-09084Y-09935*
X-08919Y-10046*
X-08724Y-10085*
X-08528Y-10046*
X-08363Y-09935*
X-08253Y-0977*
X-08214Y-09575*
X-08253Y-0938*
X-08363Y-09214*
X-08528Y-09104*
X-08724Y-09065*
X-08829Y-09086*
X-08861Y-09054*
X-0896Y-08988*
X-09077Y-08965*
X-09889*
X-09926Y-0891*
X-10018Y-08848*
Y-08696*
X-09994Y-0868*
X-09884Y-08514*
X-09845Y-08319*
X-09884Y-08124*
X-09994Y-07959*
X-1016Y-07848*
X-10355Y-07809*
X-1055Y-07848*
X-10557Y-07853*
X-10565Y-07849*
X-1066Y-07769*
X-10628Y-07609*
X-10667Y-07414*
X-10777Y-07249*
X-10942Y-07138*
X-11138Y-07099*
X-11333Y-07138*
X-11498Y-07249*
X-11535Y-07303*
X-12173*
X-12279Y-07324*
X-12327Y-07295*
X-12392Y-07242*
X-12366Y-07114*
X-12405Y-06919*
X-12516Y-06754*
X-12681Y-06643*
X-12876Y-06605*
X-13071Y-06643*
X-13237Y-06754*
X-13273Y-06808*
X-14258*
X-14375Y-06832*
X-14474Y-06898*
X-153Y-07724*
X-15451*
X-15468Y-07698*
X-15634Y-07588*
X-15829Y-07549*
X-16024Y-07588*
X-16189Y-07698*
X-163Y-07864*
X-16339Y-08059*
X-163Y-08254*
Y-08256*
X-16363Y-08388*
X-16397Y-0841*
X-16663Y-08676*
X-1679Y-08624*
Y-07031*
X-16663Y-06992*
X-16642Y-07024*
X-16476Y-07134*
X-16281Y-07173*
X-16086Y-07134*
X-15921Y-07024*
X-15884Y-06969*
X-14918*
X-14801Y-06946*
X-14702Y-06879*
X-14422Y-06599*
X-14355Y-065*
X-14332Y-06383*
Y-06148*
X-14277Y-06111*
X-14167Y-05946*
X-14128Y-05751*
X-14167Y-05556*
X-14277Y-0539*
X-14443Y-0528*
X-14638Y-05241*
X-14833Y-0528*
X-14998Y-0539*
X-15109Y-05556*
X-15148Y-05751*
X-15109Y-05946*
X-14998Y-06111*
X-14961Y-06136*
X-14953Y-06265*
X-15045Y-06357*
X-15884*
X-15921Y-06303*
X-16086Y-06192*
X-16281Y-06153*
X-16476Y-06192*
X-16642Y-06303*
X-16663Y-06334*
X-1679Y-06295*
Y-06013*
X-16813Y-05896*
X-16879Y-05796*
Y-05796*
X-17617Y-05058*
X-17716Y-04992*
X-17833Y-04969*
G37*
G36*
X-2049Y-05112D02*
X-20841D01*
Y-05463*
X-20801Y-05455*
X-20619Y-05334*
X-20498Y-05152*
X-2049Y-05112*
G37*
G36*
X-20841Y-04411D02*
Y-04762D01*
X-2049*
X-20498Y-04722*
X-20619Y-04541*
X-20801Y-04419*
X-20841Y-04411*
G37*
G36*
X-21191D02*
X-2123Y-04419D01*
X-21412Y-04541*
X-21534Y-04722*
X-21542Y-04762*
X-21191*
Y-04411*
G37*
%LNdatapcb-3*%
%LPD*%
G36*
X-04856Y-19418D02*
X-04889Y-19468D01*
X-04928Y-19663*
X-04912Y-19743*
X-07829Y-22661*
X-07839Y-2266*
X-07955Y-22582*
Y-22544*
X-07833Y-22362*
X-07825Y-22322*
X-08351*
Y-21972*
X-07825*
X-07833Y-21933*
X-07955Y-21751*
X-08136Y-21629*
X-08351Y-21587*
X-08436Y-21604*
X-08499Y-21486*
X-06768Y-19756*
X-0663Y-19798*
X-06617Y-19864*
X-06496Y-20046*
X-06314Y-20167*
X-06274Y-20175*
Y-19649*
X-06099*
Y-19474*
X-05573*
X-05581Y-19435*
X-05592Y-19418*
X-05532Y-19306*
X-04916*
X-04856Y-19418*
G37*
G36*
X-18592Y-2412D02*
X-18484Y-24192D01*
X-18357Y-24217*
X-17537*
X-17536Y-24217*
X-17363*
X-16551Y-2503*
Y-2575*
X-16612Y-25791*
X-16733Y-25972*
X-16764Y-26129*
X-16894*
X-16929Y-25952*
X-1706Y-25756*
X-16971Y-25623*
X-16963Y-25583*
X-17489*
Y-25408*
X-17664*
Y-24882*
X-17704Y-2489*
X-17886Y-25011*
X-17895Y-25025*
X-18055Y-25036*
X-18171Y-24959*
X-18366Y-2492*
X-18562Y-24959*
X-18727Y-25069*
X-18837Y-25235*
X-18876Y-2543*
X-18859Y-25519*
X-18951Y-25667*
X-18972Y-25671*
X-19152Y-25791*
X-19273Y-25972*
X-19315Y-26184*
X-19474*
X-19516Y-25972*
X-19636Y-25791*
X-19817Y-25671*
X-20029Y-25629*
X-20242Y-25671*
X-20422Y-25791*
X-20543Y-25972*
X-20585Y-26184*
X-20744*
X-20786Y-25972*
X-20906Y-25791*
X-21087Y-25671*
X-21204Y-25648*
X-21227Y-25577*
Y-25514*
X-21107Y-25422*
X-21003Y-25286*
X-20937Y-25128*
X-20915Y-24958*
X-20937Y-24788*
X-21003Y-2463*
X-21107Y-24495*
X-21243Y-2439*
X-21401Y-24325*
X-2157Y-24302*
X-2174Y-24325*
X-21898Y-2439*
X-22034Y-24495*
X-22138Y-2463*
X-22204Y-24788*
X-22226Y-24958*
X-22205Y-25115*
X-22234Y-25147*
X-22313Y-25196*
X-22317Y-25193*
X-22569Y-25143*
X-22822Y-25193*
X-23036Y-25336*
X-23179Y-25551*
X-23229Y-25803*
X-23179Y-26056*
X-23036Y-2627*
X-22822Y-26413*
X-22569Y-26463*
X-22317Y-26413*
X-22102Y-2627*
X-21959Y-26056*
X-21909Y-25803*
X-2194Y-25646*
X-21829Y-25554*
X-2174Y-25591*
X-21641Y-25604*
X-2161Y-25737*
X-21692Y-25791*
X-21813Y-25972*
X-21855Y-26184*
X-21835Y-26287*
X-2228Y-26732*
X-23042*
X-23172Y-26645*
X-23367Y-26607*
X-23562Y-26645*
X-23727Y-26756*
X-23838Y-26921*
X-23877Y-27116*
X-23838Y-27311*
X-23727Y-27477*
X-23562Y-27587*
X-23367Y-27626*
X-23293Y-27611*
X-23203Y-27701*
X-23229Y-27835*
X-23179Y-28088*
X-23036Y-28302*
X-22822Y-28445*
X-22569Y-28495*
X-22317Y-28445*
X-22102Y-28302*
X-21959Y-28088*
X-2191Y-2784*
X-21895Y-2783*
X-21788Y-27794*
X-21728Y-27883*
X-21531Y-28015*
X-21486Y-28024*
X-21491Y-28051*
X-20965*
Y-28226*
X-2079*
Y-28752*
X-2075Y-28744*
X-20568Y-28622*
X-20469Y-28474*
X-20358Y-28458*
X-20322Y-28465*
X-20258Y-28562*
X-20092Y-28673*
X-19897Y-28711*
X-19702Y-28673*
X-19537Y-28562*
X-19478Y-28475*
X-19343Y-28502*
X-19331Y-28563*
X-1921Y-28745*
X-19028Y-28866*
X-18988Y-28874*
Y-28348*
X-18813*
Y-28173*
X-18287*
X-18295Y-28133*
X-18376Y-28013*
X-1841Y-27883*
X-18279Y-27686*
X-18233Y-27454*
X-18045*
X-18003Y-27667*
X-17882Y-27847*
X-17795Y-27905*
Y-28129*
X-17886Y-28189*
X-17996Y-28354*
X-18035Y-28549*
X-17996Y-28745*
X-17886Y-2891*
X-1772Y-2902*
X-17525Y-29059*
X-1733Y-2902*
X-17263Y-28976*
X-17136Y-29043*
Y-2931*
X-19451Y-31625*
X-19566Y-3156*
X-19565Y-31557*
X-19916*
Y-31908*
X-19913Y-31907*
X-19848Y-32022*
X-19961Y-32135*
X-22255*
X-26481Y-27908*
X-26589Y-27836*
X-26716Y-27811*
X-27923*
X-27942Y-27782*
X-28107Y-27672*
X-28302Y-27633*
X-28498Y-27672*
X-28567Y-27718*
X-28731Y-27553*
X-28717Y-27481*
X-28759Y-27268*
X-2888Y-27088*
X-2906Y-26967*
X-29272Y-26925*
Y-26766*
X-2906Y-26724*
X-2888Y-26603*
X-28759Y-26423*
X-28717Y-26211*
X-28759Y-25998*
X-28775Y-25974*
X-28699Y-25859*
X-28589Y-25881*
X-28393Y-25843*
X-28228Y-25732*
X-28192Y-25677*
X-27819*
X-27751Y-25804*
X-27795Y-25869*
X-27834Y-26065*
X-27824Y-26113*
X-27914Y-26203*
X-28002Y-26185*
X-28255Y-26236*
X-28469Y-26379*
X-28612Y-26593*
X-28663Y-26846*
X-28612Y-27098*
X-28469Y-27312*
X-28255Y-27455*
X-28002Y-27506*
X-2775Y-27455*
X-27536Y-27312*
X-27393Y-27098*
X-27342Y-26846*
X-27372Y-26694*
X-27363Y-2667*
X-27271Y-26564*
X-27129Y-26536*
X-26963Y-26425*
X-26853Y-2626*
X-26814Y-26065*
X-26814Y-26063*
X-261Y-25349*
X-26036Y-25361*
X-25841Y-25323*
X-25717Y-2524*
X-25671Y-25266*
X-25614Y-25324*
X-25648Y-25496*
X-2561Y-25691*
X-25499Y-25856*
X-25334Y-25967*
X-25139Y-26005*
X-24943Y-25967*
X-24778Y-25856*
X-24668Y-25691*
X-24636Y-25534*
X-24539Y-2548*
X-24505Y-25475*
X-24438Y-25526*
X-2428Y-25591*
X-2411Y-25614*
X-23941Y-25591*
X-23783Y-25526*
X-23647Y-25422*
X-23543Y-25286*
X-23477Y-25128*
X-23455Y-24958*
X-23477Y-24788*
X-23543Y-2463*
X-23647Y-24495*
X-23783Y-2439*
X-23941Y-24325*
X-2411Y-24302*
X-2428Y-24325*
X-24438Y-2439*
X-24574Y-24495*
X-24678Y-2463*
X-24706Y-24697*
X-24833Y-24672*
Y-24427*
X-24856Y-2431*
X-24922Y-24211*
X-25148Y-23985*
X-25247Y-23919*
X-25364Y-23896*
X-26422*
X-26539Y-23919*
X-26638Y-23985*
X-27718Y-25066*
X-28192*
X-28228Y-25011*
X-28393Y-24901*
X-28589Y-24862*
X-28784Y-24901*
X-28949Y-25011*
X-2906Y-25176*
X-29098Y-25372*
X-29078Y-25476*
X-29175Y-25605*
X-2924Y-2561*
X-29458Y-25391*
X-29422Y-25248*
X-29359Y-25205*
X-28572Y-24418*
X-28463Y-24438*
X-28435Y-24457*
X-2841Y-24579*
X-283Y-24744*
X-28135Y-24854*
X-27939Y-24893*
X-27744Y-24854*
X-27579Y-24744*
X-27468Y-24579*
X-27467Y-2457*
X-26219Y-23322*
X-1939*
X-18592Y-2412*
G37*
G36*
X-04206Y-2445D02*
D01*
X-03931*
X-03619Y-24763*
X-03681Y-2488*
X-03776Y-24861*
X-0399Y-24904*
X-04172Y-25025*
X-04294Y-25207*
X-04302Y-25247*
X-03776*
Y-25597*
X-04302*
X-04294Y-25637*
X-04293Y-25638*
X-04369Y-25753*
X-04372Y-25752*
Y-26324*
X-04722*
Y-25732*
X-04788Y-25639*
X-04749Y-25444*
X-04788Y-25249*
X-04899Y-25083*
X-05064Y-24973*
X-05259Y-24934*
X-05454Y-24973*
X-05619Y-25083*
X-0573Y-25249*
X-05769Y-25444*
X-05756Y-25508*
X-05881Y-25633*
X-05906Y-25629*
X-06006Y-25484*
X-05993Y-2542*
X-06032Y-25225*
X-06143Y-2506*
X-06308Y-24949*
X-06366Y-24938*
X-06408Y-248*
X-0605Y-24441*
X-04251*
X-04206Y-2445*
G37*
G36*
X-08733Y-11615D02*
X-08568Y-11726D01*
X-08373Y-11765*
X-08314Y-11882*
X-08323Y-11891*
X-0839Y-11991*
X-08413Y-12108*
Y-17171*
X-09034Y-17792*
X-09286*
X-09323Y-17737*
X-09488Y-17627*
X-09683Y-17588*
X-09878Y-17627*
X-10044Y-17737*
X-10154Y-17903*
X-10193Y-18098*
X-10154Y-18293*
X-10044Y-18458*
X-09878Y-18569*
X-09876Y-18569*
X-09865Y-18672*
X-09868Y-187*
X-10027Y-18806*
X-10039Y-18824*
X-10192*
X-10243Y-18747*
X-10409Y-18636*
X-10604Y-18598*
X-10799Y-18636*
X-10964Y-18747*
X-11075Y-18912*
X-11114Y-19107*
X-11075Y-19302*
X-10964Y-19468*
X-10901Y-1951*
X-10886Y-19582*
X-1082Y-19681*
X-10434Y-20067*
X-10335Y-20133*
X-10218Y-20156*
X-1*
X-09932Y-20283*
X-09995Y-20378*
X-10034Y-20573*
X-09995Y-20769*
X-09885Y-20934*
X-0972Y-21044*
X-09524Y-21083*
X-09329Y-21044*
X-09164Y-20934*
X-09053Y-20769*
X-09021Y-20606*
X-08663*
X-08609Y-20731*
X-09287Y-2141*
X-09309Y-21396*
X-09504Y-21357*
X-09699Y-21396*
X-09865Y-21506*
X-09975Y-21672*
X-10014Y-21867*
X-09975Y-22062*
X-09865Y-22227*
X-09699Y-22338*
X-09504Y-22376*
X-09309Y-22338*
X-09144Y-22227*
X-09033Y-22062*
X-09024Y-22061*
X-08912Y-22147*
X-08869Y-22362*
X-08748Y-22544*
X-0867Y-22596*
X-08635Y-22771*
X-0867Y-22825*
X-08692Y-22933*
X-088Y-22995*
X-08833Y-23*
X-08933Y-2298*
X-12316*
X-13098Y-22198*
Y-21065*
X-12993Y-21028*
X-12971Y-21024*
X-12793Y-21143*
X-12753Y-21151*
Y-20625*
X-12578*
Y-2045*
X-12052*
X-1206Y-2041*
X-12182Y-20229*
X-12364Y-20107*
X-12578Y-20064*
X-12641Y-20077*
X-12704Y-1996*
X-12297Y-19553*
X-12156Y-19647*
X-11961Y-19686*
X-11766Y-19647*
X-116Y-19536*
X-1149Y-19371*
X-11451Y-19176*
X-1149Y-18981*
X-116Y-18815*
X-11766Y-18705*
X-11961Y-18666*
X-12156Y-18705*
X-12321Y-18815*
X-12358Y-18871*
X-12469Y-18893*
X-12569Y-18959*
X-12812Y-19203*
X-12929Y-19141*
X-1292Y-19092*
X-12962Y-18878*
X-13084Y-18696*
X-13266Y-18574*
X-13306Y-18566*
Y-19092*
X-13481*
Y-19267*
X-14007*
X-13999Y-19307*
X-13927Y-19415*
X-14025Y-19495*
X-14038Y-19483*
X-14137Y-19417*
X-14254Y-19394*
X-15114*
X-15174Y-19282*
X-15149Y-19245*
X-15111Y-19049*
X-15149Y-18854*
X-15224Y-18743*
X-15157Y-18616*
X-14405*
Y-17655*
Y-16516*
X-14845*
X-14909Y-16389*
X-14822Y-16259*
X-14814Y-1622*
X-15866*
X-15858Y-16259*
X-15772Y-16389*
X-15836Y-16516*
X-16105*
Y-1726*
X-17388*
X-17437Y-17143*
X-17225Y-16932*
X-17159Y-16832*
X-17136Y-16715*
Y-15028*
X-16458Y-1435*
X-1595Y-13843*
X-15039Y-12931*
X-15029Y-12916*
X-14405*
Y-11561*
X-0877*
X-08733Y-11615*
G37*
G36*
X-25426Y-12551D02*
X-25474Y-12668D01*
X-25775*
X-25902Y-12694*
X-2601Y-12765*
X-27199Y-13955*
X-27271Y-14063*
X-27296Y-14189*
Y-21055*
X-2832Y-22078*
X-28461Y-2205*
X-28656Y-22089*
X-28822Y-22199*
X-28932Y-22364*
X-28971Y-2256*
X-28932Y-22755*
X-28822Y-2292*
X-28656Y-23031*
X-28461Y-23069*
X-28266Y-23031*
X-28101Y-2292*
X-2799Y-22755*
X-27973Y-22669*
X-26731Y-21426*
X-26659Y-21319*
X-26634Y-21192*
Y-19605*
X-26507Y-19537*
X-26433Y-19586*
X-26331Y-19607*
X-26275Y-19747*
X-26351Y-19862*
X-26359Y-19902*
X-25307*
X-25315Y-19862*
X-25437Y-1968*
X-25619Y-19559*
X-25761Y-1953*
X-25823Y-19394*
X-25767Y-19311*
X-25728Y-19115*
X-25767Y-1892*
X-25878Y-18755*
X-25998Y-18675*
Y-15492*
X-25886Y-15432*
X-25849Y-15456*
X-25653Y-15495*
X-25458Y-15456*
X-25293Y-15346*
X-25256Y-15291*
X-25057*
X-24745Y-15603*
X-24693Y-15682*
X-24236Y-16139*
X-24137Y-16205*
X-2402Y-16228*
X-23222*
X-23203Y-16324*
X-23093Y-16489*
X-22928Y-16599*
X-22732Y-16638*
X-22537Y-16599*
X-22495Y-16571*
X-22383Y-16631*
Y-17715*
X-22955Y-18287*
X-23077Y-1825*
X-23085Y-18206*
X-23196Y-18041*
X-23361Y-1793*
X-23556Y-17891*
X-23751Y-1793*
X-23917Y-18041*
X-23953Y-18095*
X-24663*
X-24687Y-18071*
X-2469Y-18069*
X-24785Y-17927*
X-2495Y-17816*
X-25145Y-17778*
X-25341Y-17816*
X-25506Y-17927*
X-25616Y-18092*
X-25655Y-18287*
X-25616Y-18483*
X-25506Y-18648*
X-25341Y-18758*
X-25145Y-18797*
X-2495Y-18758*
X-24854Y-18694*
X-2479Y-18707*
X-23953*
X-23917Y-18762*
X-23751Y-18872*
X-23708Y-18881*
X-23671Y-19002*
X-23925Y-19257*
X-23992Y-19356*
X-24015Y-19473*
Y-20904*
X-23992Y-21021*
X-23925Y-21121*
X-2382Y-21226*
X-23832Y-21291*
X-23794Y-21486*
X-23769Y-21523*
X-23829Y-21635*
X-24714*
X-24731Y-21551*
X-24841Y-21386*
X-25007Y-21275*
X-25202Y-21236*
X-25397Y-21275*
X-25562Y-21386*
X-25673Y-21551*
X-25712Y-21746*
X-25673Y-21941*
X-2565Y-21975*
X-2571Y-22087*
X-2643*
X-26547Y-2211*
X-26646Y-22177*
X-27873Y-23404*
X-28324*
X-28324*
X-28441Y-23427*
X-2854Y-23493*
X-2877Y-23724*
X-28831Y-23705*
X-28899Y-23673*
X-29011Y-23505*
X-29193Y-23384*
X-29233Y-23376*
Y-23902*
X-29408*
Y-24077*
X-29934*
X-29926Y-24117*
X-29804Y-24298*
X-29622Y-2442*
X-29602Y-24424*
X-29565Y-24546*
X-29702Y-24683*
X-29774*
X-30987Y-2347*
X-31086Y-23404*
X-31203Y-23381*
X-3241*
X-32848Y-22943*
X-32835Y-22879*
X-32874Y-22684*
X-32984Y-22518*
X-3315Y-22408*
X-33345Y-22369*
X-3354Y-22408*
X-33705Y-22518*
X-3373Y-22554*
X-33857Y-22516*
Y-21806*
X-3373Y-21768*
X-33585Y-21864*
X-3339Y-21903*
X-33195Y-21864*
X-3303Y-21754*
X-32919Y-21588*
X-3288Y-21393*
X-32919Y-21198*
X-3303Y-21033*
X-33095Y-20989*
Y-20081*
X-3304Y-20045*
X-32929Y-1988*
X-32891Y-19684*
X-32929Y-19489*
X-3304Y-19324*
X-33205Y-19213*
X-334Y-19175*
X-33596Y-19213*
X-3373Y-19303*
X-33857Y-19256*
Y-13323*
X-31891*
X-31774Y-133*
X-31675Y-13234*
X-31293Y-12852*
X-30239*
X-30218Y-12848*
X-30112Y-12918*
X-30093Y-13015*
X-29971Y-13197*
X-29789Y-13319*
X-2975Y-13327*
Y-12801*
X-29575*
Y-12626*
X-29049*
X-29057Y-12586*
X-29068Y-12569*
X-29008Y-12457*
X-2552*
X-25426Y-12551*
G37*
G36*
X-23533Y-08226D02*
X-23402Y-08423D01*
X-23267Y-08513*
X-23251Y-08596*
X-23129Y-08778*
X-22947Y-089*
X-22907Y-08907*
Y-08381*
X-22557*
Y-08907*
X-22518Y-089*
X-22336Y-08778*
X-22214Y-08596*
X-22189Y-08466*
X-2218Y-08458*
X-22049Y-08418*
X-21916Y-08507*
X-21703Y-0855*
X-216Y-08529*
X-20956Y-09173*
Y-09988*
X-20933Y-10105*
X-20867Y-10205*
X-20754Y-10317*
Y-13307*
X-20758Y-13313*
X-20782Y-1343*
Y-15045*
X-20946Y-15209*
X-21067Y-15173*
X-21071Y-15152*
X-21193Y-1497*
X-21375Y-14848*
X-21396Y-14844*
X-21432Y-14723*
X-21276Y-14566*
X-2121Y-14467*
X-21186Y-1435*
Y-12186*
X-2121Y-12069*
X-21276Y-11969*
X-22953Y-10292*
X-23053Y-10226*
X-2317Y-10202*
X-2329*
X-23937Y-09555*
Y-08445*
X-2385Y-08387*
X-2373Y-08207*
X-23698Y-08049*
X-23569*
X-23533Y-08226*
G37*
%LNdatapcb-4*%
%LPC*%
G36*
X-31772Y-16748D02*
X-31811Y-16755D01*
X-31993Y-16877*
X-32115Y-17059*
X-32123Y-17099*
X-31772*
Y-16748*
G37*
G36*
X-15515Y-15519D02*
X-15555Y-15527D01*
X-15737Y-15648*
X-15858Y-1583*
X-15866Y-1587*
X-15515*
Y-15519*
G37*
G36*
X-19916Y-30856D02*
Y-31207D01*
X-19565*
X-19573Y-31167*
X-19695Y-30985*
X-19877Y-30864*
X-19916Y-30856*
G37*
G36*
X-32799Y-15505D02*
X-32969Y-15527D01*
X-33127Y-15593*
X-33263Y-15697*
X-33367Y-15833*
X-33433Y-15991*
X-33455Y-1616*
X-33433Y-1633*
X-33367Y-16488*
X-33263Y-16624*
X-33127Y-16728*
X-32969Y-16794*
X-32799Y-16816*
X-3263Y-16794*
X-32472Y-16728*
X-32336Y-16624*
X-32232Y-16488*
X-32166Y-1633*
X-32144Y-1616*
X-32166Y-15991*
X-32232Y-15833*
X-32336Y-15697*
X-32472Y-15593*
X-3263Y-15527*
X-32799Y-15505*
G37*
G36*
X-23215Y-16666D02*
Y-17017D01*
X-22864*
X-22872Y-16977*
X-22993Y-16795*
X-23175Y-16674*
X-23215Y-16666*
G37*
G36*
X-23565D02*
X-23604Y-16674D01*
X-23786Y-16795*
X-23908Y-16977*
X-23916Y-17017*
X-23565*
Y-16666*
G37*
G36*
X-31422Y-16748D02*
Y-17099D01*
X-31071*
X-31079Y-17059*
X-312Y-16877*
X-31382Y-16755*
X-31422Y-16748*
G37*
G36*
X-20266Y-30856D02*
X-20306Y-30864D01*
X-20488Y-30985*
X-20609Y-31167*
X-20617Y-31207*
X-20266*
Y-30856*
G37*
G36*
X-12935Y-12493D02*
X-13286D01*
Y-12844*
X-13247Y-12837*
X-13065Y-12715*
X-12943Y-12533*
X-12935Y-12493*
G37*
G36*
X-13636D02*
X-13987D01*
X-1398Y-12533*
X-13858Y-12715*
X-13676Y-12837*
X-13636Y-12844*
Y-12493*
G37*
G36*
X-13286Y-11792D02*
Y-12143D01*
X-12935*
X-12943Y-12104*
X-13065Y-11922*
X-13247Y-118*
X-13286Y-11792*
G37*
G36*
X-13636D02*
X-13676Y-118D01*
X-13858Y-11922*
X-1398Y-12104*
X-13987Y-12143*
X-13636*
Y-11792*
G37*
G36*
X-15165Y-15519D02*
Y-1587D01*
X-14814*
X-14822Y-1583*
X-14944Y-15648*
X-15126Y-15527*
X-15165Y-15519*
G37*
G36*
X-20266Y-31557D02*
X-20617D01*
X-20609Y-31596*
X-20488Y-31778*
X-20306Y-319*
X-20266Y-31908*
Y-31557*
G37*
G36*
X-29049Y-12976D02*
X-294D01*
Y-13327*
X-2936Y-13319*
X-29178Y-13197*
X-29057Y-13015*
X-29049Y-12976*
G37*
G36*
X-32799Y-13505D02*
X-32969Y-13527D01*
X-33127Y-13593*
X-33263Y-13697*
X-33367Y-13833*
X-33433Y-13991*
X-33455Y-1416*
X-33433Y-1433*
X-33367Y-14488*
X-33263Y-14624*
X-33127Y-14728*
X-32969Y-14794*
X-32799Y-14816*
X-3263Y-14794*
X-32472Y-14728*
X-32336Y-14624*
X-32232Y-14488*
X-32166Y-1433*
X-32144Y-1416*
X-32166Y-13991*
X-32232Y-13833*
X-32336Y-13697*
X-32472Y-13593*
X-3263Y-13527*
X-32799Y-13505*
G37*
G36*
X-11957Y-17749D02*
X-12308D01*
X-123Y-17789*
X-12179Y-17971*
X-11997Y-18092*
X-11957Y-181*
Y-17749*
G37*
G36*
X-12052Y-208D02*
X-12403D01*
Y-21151*
X-12364Y-21143*
X-12182Y-21022*
X-1206Y-2084*
X-12052Y-208*
G37*
G36*
X-11256Y-17749D02*
X-11607D01*
Y-181*
X-11568Y-18092*
X-11386Y-17971*
X-11264Y-17789*
X-11256Y-17749*
G37*
G36*
X-29583Y-23376D02*
X-29622Y-23384D01*
X-29804Y-23505*
X-29926Y-23687*
X-29934Y-23727*
X-29583*
Y-23376*
G37*
G36*
X-26008Y-20252D02*
X-26359D01*
X-26351Y-20291*
X-2623Y-20473*
X-26048Y-20595*
X-26008Y-20603*
Y-20252*
G37*
G36*
X-05573Y-19824D02*
X-05924D01*
Y-20175*
X-05885Y-20167*
X-05703Y-20046*
X-05581Y-19864*
X-05573Y-19824*
G37*
G36*
X-13656Y-18566D02*
X-13695Y-18574D01*
X-13877Y-18696*
X-13999Y-18878*
X-14007Y-18917*
X-13656*
Y-18566*
G37*
G36*
X-25307Y-20252D02*
X-25658D01*
Y-20603*
X-25619Y-20595*
X-25437Y-20473*
X-25315Y-20291*
X-25307Y-20252*
G37*
G36*
X-32799Y-17505D02*
X-32969Y-17527D01*
X-33127Y-17593*
X-33263Y-17697*
X-33367Y-17833*
X-33433Y-17991*
X-33455Y-1816*
X-33433Y-1833*
X-33367Y-18488*
X-33263Y-18624*
X-33127Y-18728*
X-32969Y-18794*
X-32799Y-18816*
X-3263Y-18794*
X-32472Y-18728*
X-32336Y-18624*
X-32232Y-18488*
X-32166Y-1833*
X-32144Y-1816*
X-32166Y-17991*
X-32232Y-17833*
X-32336Y-17697*
X-32472Y-17593*
X-3263Y-17527*
X-32799Y-17505*
G37*
G36*
X-22864Y-17367D02*
X-23215D01*
Y-17718*
X-23175Y-1771*
X-22993Y-17588*
X-22872Y-17406*
X-22864Y-17367*
G37*
G36*
X-23565D02*
X-23916D01*
X-23908Y-17406*
X-23786Y-17588*
X-23604Y-1771*
X-23565Y-17718*
Y-17367*
G37*
G36*
X-11607Y-17048D02*
Y-17399D01*
X-11256*
X-11264Y-1736*
X-11386Y-17178*
X-11568Y-17056*
X-11607Y-17048*
G37*
G36*
X-11957D02*
X-11997Y-17056D01*
X-12179Y-17178*
X-123Y-1736*
X-12308Y-17399*
X-11957*
Y-17048*
G37*
G36*
X-18287Y-28523D02*
X-18638D01*
Y-28874*
X-18599Y-28866*
X-18417Y-28745*
X-18295Y-28563*
X-18287Y-28523*
G37*
G36*
X-17314Y-24882D02*
Y-25233D01*
X-16963*
X-16971Y-25193*
X-17093Y-25011*
X-17275Y-2489*
X-17314Y-24882*
G37*
G36*
X-31772Y-17449D02*
X-32123D01*
X-32115Y-17488*
X-31993Y-1767*
X-31811Y-17792*
X-31772Y-17799*
Y-17449*
G37*
G36*
X-2114Y-28401D02*
X-21491D01*
X-21483Y-2844*
X-21361Y-28622*
X-21179Y-28744*
X-2114Y-28752*
Y-28401*
G37*
G36*
X-31071Y-17449D02*
X-31422D01*
Y-17799*
X-31382Y-17792*
X-312Y-1767*
X-31079Y-17488*
X-31071Y-17449*
G37*
%LNdatapcb-5*%
%LPD*%
G54D12*
X-3637Y-0247D03*
X-06738Y-06364D03*
G54D31*
X-01209Y-28465D02*
Y-25864D01*
X-111Y-38356D02*
X-01209Y-28465D01*
X-11835Y-38356D02*
X-111D01*
X-33429Y-33607D02*
Y-32374D01*
X-37142Y-28661D02*
X-33429Y-32374D01*
X-37226Y-28661D02*
X-37142D01*
X-37226D02*
Y-26305D01*
X-35863Y-24942*
X-33132*
X-32717Y-24527*
X-34972Y-28659D02*
X-34861Y-28549D01*
X-35953Y-28659D02*
X-34972D01*
X-3642Y-28192D02*
X-35953Y-28659D01*
X-3642Y-28192D02*
Y-26772D01*
X-36576Y-26616D02*
X-3642Y-26772D01*
X-26422Y-24202D02*
X-25364D01*
X-27592Y-25372D02*
X-26422Y-24202D01*
X-28589Y-25372D02*
X-27592D01*
X-25364Y-24202D02*
X-25139Y-24427D01*
Y-25496D02*
Y-24427D01*
X-29901Y-24989D02*
X-29575D01*
X-28758Y-24171*
Y-24143D02*
X-28324Y-2371D01*
X-28758Y-24171D02*
Y-24143D01*
X-28324Y-2371D02*
X-27747D01*
X-2643Y-22393*
X-25475*
X-31203Y-23687D02*
X-29901Y-24989D01*
X-27249Y-26065D02*
X-26036Y-24852D01*
X-27324Y-26065D02*
X-27249D01*
X-32717Y-24527D02*
X-31063D01*
X-34162Y-23082D02*
X-32717Y-24527D01*
X-32537Y-23687D02*
X-31203D01*
X-33345Y-22879D02*
X-32537Y-23687D01*
X-30095Y-25495D02*
X-29787D01*
X-31063Y-24527D02*
X-30095Y-25495D01*
X-29787D02*
X-2932Y-25962D01*
X-31812Y-26211D02*
Y-26046D01*
X-32408Y-25451D02*
X-31812Y-26046D01*
X-34162Y-23082D02*
Y-13116D01*
X-22153Y-27038D02*
X-21299Y-26184D01*
X-23288Y-27038D02*
X-22153D01*
X-23367Y-27116D02*
X-23288Y-27038D01*
X-22421Y-22393D02*
X-21871Y-21843D01*
X-24929Y-22393D02*
X-22421D01*
X-24933Y-22396D02*
X-24929Y-22393D01*
X-25471Y-22396D02*
X-24933D01*
X-25475Y-22393D02*
X-25471Y-22396D01*
X-18759Y-26184D02*
X-18366Y-25791D01*
Y-2543*
X-30542Y-2854D02*
Y-27481D01*
X-30578Y-28576D02*
X-30542Y-2854D01*
X-33118Y-27516D02*
X-3295Y-27684D01*
Y-28228D02*
Y-27684D01*
X-17489Y-28514D02*
Y-27454D01*
X-17525Y-28549D02*
X-17489Y-28514D01*
X-20065Y-2749D02*
X-19897Y-27658D01*
Y-28202D02*
Y-27658D01*
X-06954Y-28341D02*
Y-27798D01*
X-07122Y-2763D02*
X-06954Y-27798D01*
X-04547Y-26324D02*
Y-26193D01*
X-03776Y-25422*
X-02817Y-25864D02*
X-01209D01*
X-03805Y-24144D02*
X-02817Y-25132D01*
Y-25864D02*
Y-25132D01*
X-03277Y-26324D02*
X-02817Y-25864D01*
X-08357Y-26324D02*
Y-26085D01*
X-09859Y-24583D02*
X-08357Y-26085D01*
X-09861Y-24583D02*
X-09859D01*
X-08931Y-24734D02*
Y-23288D01*
X-08933Y-23286D02*
X-08931Y-23288D01*
X-12443Y-23286D02*
X-08933D01*
X-0855Y-25115D02*
X-07919D01*
X-08931Y-24734D02*
X-0855Y-25115D01*
X-13404Y-22325D02*
X-12443Y-23286D01*
X-06546Y-25377D02*
X-06503Y-2542D01*
X-0741Y-25377D02*
X-06546D01*
X-08357Y-26324D02*
X-0741Y-25377D01*
X-04206Y-24144D02*
X-03805D01*
X-04215Y-24136D02*
X-04206Y-24144D01*
X-06176Y-24136D02*
X-04215D01*
X-0684Y-24799D02*
X-06176Y-24136D01*
X-05817Y-26002D02*
X-05259Y-25444D01*
X-05817Y-26324D02*
Y-26002D01*
X-07378Y-24799D02*
X-0684D01*
X-07384Y-24794D02*
X-07378Y-24799D01*
X-07598Y-24794D02*
X-07384D01*
X-07919Y-25115D02*
X-07598Y-24794D01*
X-04583Y-28689D02*
X-04547Y-28653D01*
Y-27594*
X-08281Y-24465D02*
Y-24402D01*
X-12841Y-24297D02*
Y-23622D01*
X-14026Y-22436D02*
X-12841Y-23622D01*
X-14026Y-22436D02*
Y-19927D01*
X-14578Y-23603D02*
X-1395D01*
X-14655Y-23526D02*
X-14578Y-23603D01*
X-07026Y-1526D02*
X-06078Y-14311D01*
X-06576Y-17201D02*
X-05869Y-16494D01*
X-06576Y-18263D02*
Y-17201D01*
X-07026Y-18077D02*
Y-1526D01*
X-088Y-19851D02*
X-07026Y-18077D01*
X-08614Y-20301D02*
X-06576Y-18263D01*
X-06126Y-17919D02*
X-05948Y-17741D01*
X-06126Y-18682D02*
Y-17919D01*
X-09311Y-21867D02*
X-06126Y-18682D01*
X-05869Y-16494D02*
X-04971D01*
X-04435Y-197D02*
Y-18851D01*
X-07756Y-2302D02*
X-04435Y-197D01*
X-08199Y-2302D02*
X-07756D01*
X-06078Y-14311D02*
X-04955D01*
Y-14356D02*
X-04906Y-14405D01*
X-03729*
X-13404Y-22325D02*
Y-20228D01*
X-12352Y-19176*
X-11961*
X-08107Y-17298D02*
Y-12108D01*
X-08907Y-18098D02*
X-08107Y-17298D01*
X-08961Y-19167D02*
X-07657Y-17863D01*
X-09667Y-19167D02*
X-08961D01*
X-07657Y-17863D02*
Y-13439D01*
X-09683Y-18098D02*
X-08907D01*
X-10604Y-19465D02*
Y-19107D01*
X-14254Y-19699D02*
X-14026Y-19927D01*
X-17595Y-19699D02*
X-14254D01*
X-17995Y-19299D02*
X-17595Y-19699D01*
X-1562Y-19049D02*
Y-19006D01*
X-15678Y-18948D02*
X-1562Y-19006D01*
X-17709Y-18948D02*
X-15678D01*
X-18214Y-1796D02*
Y-17488D01*
X-1816Y-17906D02*
X-1782Y-17566D01*
X-15255*
X-15157Y-11255D02*
X-08373D01*
X-15255Y-12715D02*
Y-11866D01*
X-17441Y-14901D02*
X-15255Y-12715D01*
X-17561Y-11449D02*
X-16764D01*
X-06364Y-12146D02*
X-04142D01*
X-07657Y-13439D02*
X-06364Y-12146D01*
X-18597Y-102D02*
X-18019Y-09622D01*
X-18597Y-16128D02*
Y-102D01*
X-19075Y-15743D02*
Y-10028D01*
X-1822Y-09172*
X-19531Y-155D02*
Y-14216D01*
X-19548Y-142D02*
X-19531Y-14216D01*
X-19981Y-15314D02*
Y-14403D01*
X-19998Y-14386D02*
X-19981Y-14403D01*
X-19548Y-142D02*
Y-09864D01*
X-19998Y-14386D02*
Y-09678D01*
X-2065Y-09988D02*
X-20448Y-10191D01*
Y-13403D02*
Y-10191D01*
X-20476Y-1343D02*
X-20448Y-13403D01*
X-19548Y-09864D02*
X-19405Y-09722D01*
X-19998Y-09678D02*
X-19993Y-09673D01*
X-20476Y-15172D02*
Y-1343D01*
X-20926Y-14703D02*
Y-12116D01*
X-21589Y-15366D02*
X-20926Y-14703D01*
X-21081Y-19399D02*
X-19099Y-21381D01*
X-18851Y-20931D02*
X-15575D01*
X-20515Y-19266D02*
X-18851Y-20931D01*
X-19099Y-21381D02*
X-15829D01*
X-14655Y-22555*
X-15575Y-20931D02*
X-1531Y-21197D01*
X-14746*
Y-21255D02*
Y-21197D01*
X-14655Y-23526D02*
Y-22555D01*
X-23709Y-20904D02*
X-23323Y-21291D01*
X-23709Y-20904D02*
Y-19473D01*
X-22077Y-17841*
Y-16487*
X-2479Y-18401D02*
X-23556D01*
X-24903Y-18287D02*
X-2479Y-18401D01*
X-23241Y-20453D02*
Y-19959D01*
X-21627Y-18345D02*
Y-16673D01*
X-23241Y-19959D02*
X-21627Y-18345D01*
X-2402Y-15922D02*
X-22684D01*
X-24477Y-15466D02*
X-2402Y-15922D01*
X-24477Y-15466D02*
Y-1544D01*
X-24931Y-14985D02*
X-24477Y-1544D01*
X-25653Y-14985D02*
X-24931D01*
X-32799Y-12156D02*
X-32448Y-11806D01*
X-30135*
X-3003Y-11701*
X-23441*
X-21991Y-1315*
Y-13729D02*
Y-1315D01*
Y-13729D02*
X-21942Y-13778D01*
X-22605Y-14441D02*
X-21942Y-13778D01*
X-22605Y-14477D02*
Y-14441D01*
X-22239Y-15097D02*
X-21492Y-1435D01*
X-22239Y-15636D02*
Y-15097D01*
X-17441Y-16715D02*
Y-14901D01*
X-18214Y-17488D02*
X-17441Y-16715D01*
X-18214Y-1796D02*
X-1816Y-17906D01*
X-19557Y-18541D02*
Y-17558D01*
X-20091Y-1682D02*
Y-15424D01*
X-20558Y-17286D02*
X-20091Y-1682D01*
X-19641Y-17006D02*
Y-1561D01*
X-20217Y-17582D02*
X-19641Y-17006D01*
X-19191Y-17192D02*
Y-15859D01*
X-19557Y-17558D02*
X-19191Y-17192D01*
X-18974Y-17611D02*
X-17891Y-16529D01*
X-18974Y-18185D02*
Y-17611D01*
Y-18185D02*
X-1831Y-18849D01*
X-18895Y-19299D02*
X-17995D01*
X-18922Y-19272D02*
X-18895Y-19299D01*
X-17809Y-18849D02*
X-17709Y-18948D01*
X-1831Y-18849D02*
X-17809D01*
X-21477Y-16174D02*
X-20476Y-15172D01*
X-20091Y-15424D02*
X-19981Y-15314D01*
X-19641Y-1561D02*
X-19531Y-155D01*
X-19191Y-15859D02*
X-19075Y-15743D01*
X-18091Y-14599D02*
X-1666Y-13168D01*
X-18091Y-15659D02*
Y-14599D01*
Y-15659D02*
X-17891Y-15859D01*
Y-16529D02*
Y-15859D01*
X-21927Y-16337D02*
Y-15948D01*
X-21477Y-16523D02*
Y-16174D01*
X-22239Y-15636D02*
X-21927Y-15948D01*
X-22732Y-16128D02*
Y-1597D01*
X-22684Y-15922*
X-25393Y-12151D02*
X-24149Y-13395D01*
X-29844Y-12151D02*
X-25393D01*
X-22732Y-10309D02*
X-20926Y-12116D01*
X-22732Y-10309D02*
Y-08381D01*
X-21492Y-1435D02*
Y-12186D01*
X-2317Y-10508D02*
X-21492Y-12186D01*
X-23417Y-10508D02*
X-2317D01*
X-22077Y-16487D02*
X-21927Y-16337D01*
X-21627Y-16673D02*
X-21477Y-16523D01*
X-20954Y-16636D02*
X-20827D01*
X-20667Y-17286D02*
X-20558D01*
X-20667Y-1908D02*
Y-17286D01*
X-20217Y-18894D02*
Y-17582D01*
X-21177Y-16859D02*
X-20954Y-16636D01*
X-20515Y-19266D02*
Y-19232D01*
X-20065Y-1908D02*
X-18879Y-20266D01*
X-20065Y-1908D02*
Y-19046D01*
X-20217Y-18894D02*
X-20065Y-19046D01*
X-20667Y-1908D02*
X-20515Y-19232D01*
X-18582Y-20266D02*
X-18264Y-19949D01*
X-18879Y-20266D02*
X-18582D01*
X-20924Y-20192D02*
X-19289Y-21828D01*
X-21843Y-20192D02*
X-20924D01*
X-21177Y-18532D02*
Y-16859D01*
X-22729Y-20083D02*
X-21177Y-18532D01*
X-19289Y-22283D02*
Y-21828D01*
X-20304Y-21764D02*
Y-21574D01*
Y-21764D02*
X-20127Y-21942D01*
X-21762Y-21193D02*
X-20685D01*
X-21871Y-21843D02*
X-21081D01*
X-21051Y-21874*
X-18361Y-23211D02*
X-17817D01*
X-19289Y-22283D02*
X-18361Y-23211D01*
X-22729Y-20226D02*
X-21762Y-21193D01*
X-20685D02*
X-20304Y-21574D01*
X-22729Y-20226D02*
Y-20083D01*
X-25024Y-18408D02*
X-24903Y-18287D01*
X-23241Y-20453D02*
X-22673Y-21021D01*
Y-2156D02*
Y-21021D01*
X-23053Y-21941D02*
X-22673Y-2156D01*
X-25202Y-21941D02*
X-23053D01*
X-25145Y-18287D02*
X-25024Y-18408D01*
X-26303Y-1905D02*
X-26238Y-19115D01*
X-26303Y-1905D02*
Y-14483D01*
X-24243Y-09682D02*
X-23417Y-10508D01*
X-24243Y-09682D02*
Y-07994D01*
X-3142Y-12546D02*
X-30239D01*
X-29844Y-12151*
X-34261Y-13017D02*
X-34162Y-13116D01*
X-334Y-21307D02*
Y-19684D01*
X-09504Y-21867D02*
X-09311D01*
X-31891Y-13017D02*
X-3142Y-12546D01*
X-34261Y-13017D02*
X-31891D01*
X-334Y-21307D02*
X-33352Y-21355D01*
X-20433Y-06724D02*
Y-06082D01*
X-19625Y-05275*
X-17833*
X-17095Y-06013*
X-22973Y-06724D02*
Y-0606D01*
X-27518Y-06854D02*
Y-04936D01*
X-24149Y-13395D02*
X-22666D01*
X-22641Y-13419*
X-26303Y-14483D02*
X-25496Y-13675D01*
X-19509Y-07994D02*
X-19163D01*
X-19738Y-08223D02*
X-19509Y-07994D01*
X-19405Y-09094D02*
X-19397Y-09102D01*
X-19738Y-08282D02*
Y-08223D01*
X-19397Y-09102D02*
X-19185Y-08889D01*
X-13098Y-07985D02*
X-13093Y-07991D01*
X-10476Y-08441D02*
X-10355Y-08319D01*
X-14638Y-06383D02*
Y-05751D01*
X-08107Y-12108D02*
X-06809Y-10809D01*
X-07109Y-24226D02*
Y-24149D01*
Y-24226D02*
X-06378Y-23494D01*
X-03936*
X-04583Y-22985D02*
X-04137Y-22539D01*
X-06864Y-22985D02*
X-04583D01*
X-08281Y-24402D02*
X-06864Y-22985D01*
X-10604Y-19465D02*
X-10218Y-19851D01*
X-088*
X-09524Y-20573D02*
X-09252Y-20301D01*
X-08614*
X-18414Y-03301D02*
X-17062Y-01949D01*
X-05614Y-02902D02*
X-04667Y-01954D01*
X-03902*
X-19405Y-09722D02*
Y-09094D01*
X-19993Y-09673D02*
D01*
X-202Y-09466D02*
X-19993Y-09673D01*
X-202Y-09466D02*
Y-08744D01*
X-19738Y-08282*
X-21703Y-07994D02*
X-2065Y-09046D01*
X-19185Y-08889D02*
X-19176D01*
X-2065Y-09988D02*
Y-09046D01*
X-06809Y-10809D02*
X-03989D01*
X-24406Y-0666D02*
Y-05539D01*
Y-0666D02*
X-24168Y-06898D01*
X-17803Y-11691D02*
X-17561Y-11449D01*
X-14918Y-06663D02*
X-14638Y-06383D01*
X-16281Y-06663D02*
X-14918D01*
X-1618Y-08627D02*
D01*
X-16098Y-08709*
X-17095Y-08705D02*
Y-06013D01*
X-1822Y-09172D02*
X-17563D01*
X-17095Y-08705*
X-18019Y-09622D02*
X-17176D01*
X-1618Y-08627*
X-15829Y-08059D02*
X-158Y-0803D01*
X-15174*
X-1556Y-08709D02*
X-15331Y-0848D01*
X-14987*
X-16128Y-09583D02*
X-15704Y-09159D01*
X-15373*
X-15144Y-0893*
X-14801*
X-14312Y-08441*
X-16098Y-08709D02*
X-1556D01*
X-14312Y-08441D02*
X-10476D01*
X-14987Y-0848D02*
X-14493Y-07985D01*
X-13098*
X-16128Y-10159D02*
Y-09583D01*
X-13093Y-07991D02*
X-12554D01*
X-12173Y-07609*
X-11138*
X-14258Y-07114D02*
X-12876D01*
X-15174Y-0803D02*
X-14258Y-07114D01*
X-09077Y-0927D02*
X-08724Y-09624D01*
X-10286Y-0927D02*
X-09077D01*
G54D32*
X-16804Y-29447D02*
Y-28039D01*
X-19824Y-32466D02*
X-16804Y-29447D01*
X-22392Y-32466D02*
X-19824D01*
X-1707Y-3194D02*
X-14537D01*
X-18588Y-33459D02*
X-1707Y-3194D01*
X-18588Y-35028D02*
Y-33459D01*
X-21926Y-38366D02*
X-18588Y-35028D01*
X-14609Y-25997D02*
X-12992Y-27614D01*
Y-30396D02*
Y-27614D01*
X-14537Y-3194D02*
X-12992Y-30396D01*
X-24684Y-38366D02*
X-21926D01*
X-16804Y-28039D02*
X-16219Y-27454D01*
X-26716Y-28143D02*
X-22392Y-32466D01*
X-28302Y-28143D02*
X-26716D01*
X-20091Y-29393D02*
X-19505D01*
X-20546D02*
X-20091D01*
Y-31382D02*
Y-29393D01*
X-20965Y-28974D02*
X-20546Y-29393D01*
X-16691Y-33263D02*
X-06893D01*
X-06841Y-33315*
X-02307Y-28781*
Y-28256*
X-07241Y-30211D02*
X-06504Y-29474D01*
X-07241Y-32215D02*
Y-30211D01*
X-28461Y-22688D02*
X-26965Y-21192D01*
X-28182Y-23235D02*
X-27786Y-22839D01*
X-28574Y-23235D02*
X-28182D01*
X-27939Y-24383D02*
X-27749D01*
X-26356Y-22991*
X-19252*
X-29408Y-23902D02*
X-29241D01*
X-28574Y-23235*
X-27786Y-22839D02*
X-27774D01*
X-25833Y-20898*
Y-20077*
X-28461Y-22688D02*
Y-2256D01*
X-34018Y-29D02*
Y-28252D01*
X-30542Y-26211D02*
Y-26175D01*
X-3142Y-25297D02*
X-30542Y-26175D01*
X-16219Y-25997D02*
X-14609D01*
X-16219D02*
Y-24892D01*
Y-26184D02*
Y-25997D01*
X-19252Y-22991D02*
X-18357Y-23886D01*
X-17537D02*
X-17537Y-23886D01*
X-18357Y-23886D02*
X-17537D01*
X-17537Y-23886D02*
X-17226D01*
X-16219Y-24892*
X-17489Y-26184D02*
Y-25408D01*
X-31892Y-28348D02*
Y-27481D01*
Y-28348D02*
X-31866Y-28374D01*
X-33658Y-2936D02*
X-325D01*
X-31866Y-28727*
Y-28374*
X-34018Y-29D02*
X-33658Y-2936D01*
X-34352Y-27917D02*
X-34018Y-28252D01*
X-34352Y-27917D02*
Y-27481D01*
X-29272D02*
X-2861Y-28143D01*
X-28302*
X-32558Y-29419D02*
X-325Y-2936D01*
X-18839Y-28322D02*
Y-27454D01*
Y-28322D02*
X-18813Y-28348D01*
X-19447Y-29334D02*
X-18813Y-28701D01*
Y-28348*
X-20965Y-28974D02*
Y-28226D01*
X-21299Y-27891D02*
X-20965Y-28226D01*
X-21299Y-27891D02*
Y-27454D01*
X-16219D02*
X-15557Y-28116D01*
X-15249*
X-02992Y-21374D02*
X-00898Y-23468D01*
X-08898Y-22714D02*
X-06099Y-19915D01*
X-02615Y-28256D02*
X-02307D01*
X-03277Y-27594D02*
X-02615Y-28256D01*
X-08357Y-28031D02*
Y-27594D01*
Y-28031D02*
X-08022Y-28365D01*
Y-29114D02*
Y-28365D01*
Y-29114D02*
X-07663Y-29474D01*
X-05871Y-2884D02*
Y-28488D01*
X-06504Y-29474D02*
X-05871Y-2884D01*
X-07663Y-29474D02*
X-06504D01*
X-05897Y-28462D02*
X-05871Y-28488D01*
X-05897Y-28462D02*
Y-27594D01*
X-06099Y-19915D02*
Y-19649D01*
X-12578Y-20625D02*
X-10489Y-22714D01*
X-23827Y-15196D02*
Y-14389D01*
X-25216Y-13D02*
X-23827Y-14389D01*
X-26965Y-21192D02*
Y-14189D01*
X-3267Y-09438D02*
X-31169Y-1094D01*
X-3267Y-09438D02*
Y-09208D01*
X-31169Y-1094D02*
X-29404D01*
X-29575Y-13096D02*
Y-12801D01*
X-31597Y-20899D02*
Y-17273D01*
X-31715Y-21017D02*
X-31597Y-20899D01*
X-29222Y-17273D02*
Y-13448D01*
X-31597Y-17273D02*
X-29222D01*
X-29575Y-13096D02*
X-29222Y-13448D01*
X-25775Y-13D02*
X-25216D01*
X-26965Y-14189D02*
X-25775Y-13D01*
X-21623Y-05544D02*
X-21016Y-04937D01*
X-25444Y-09119D02*
Y-08591D01*
X-26335Y-077D02*
X-25444Y-08591D01*
X-26335Y-077D02*
Y-06213D01*
X-25287Y-05164*
X-22249Y-05809D02*
X-21679D01*
X-21623Y-06724D02*
Y-05544D01*
X-10489Y-22714D02*
X-08898D01*
X-25287Y-05164D02*
Y-02689D01*
X-26991Y-01007D02*
Y-00985D01*
X-25287Y-02689*
X-02992Y-18009D02*
X-02988Y-18005D01*
X-03989Y-13209D02*
X-02988D01*
Y-18005D02*
Y-13209D01*
Y-11609*
X-03875Y-08388D02*
X-03424D01*
X-02114Y-09697*
Y-10736D02*
Y-09697D01*
X-02988Y-11609D02*
X-02114Y-10736D01*
X-02992Y-21374D02*
Y-18009D01*
X-22249Y-05809D02*
Y-0552D01*
X-24986Y-04864D02*
X-22905D01*
X-25287Y-05164D02*
X-24986Y-04864D01*
X-22905D02*
X-22249Y-0552D01*
G54D37*
X-28002Y-26846D03*
X-35622Y-2583D03*
Y-27862D03*
X-14949Y-26819D03*
X-22569Y-25803D03*
Y-27835D03*
X-02007Y-26959D03*
X-09627Y-25943D03*
Y-27975D03*
X-30184Y-00999D03*
Y-03999D03*
X-17484Y-00999D03*
Y-03999D03*
X-04784Y-00999D03*
Y-03999D03*
X-17893Y-06343D03*
Y-08375D03*
X-25513Y-07359D03*
G54D38*
X-25942Y-3045D03*
X-14033Y-293D03*
X-20091Y-31382D03*
X-16691Y-33263D03*
X-07241Y-32215D03*
X-33429Y-33607D03*
X-36576Y-26616D03*
X-34861Y-28549D03*
X-25139Y-25496D03*
X-25833Y-20077D03*
X-29408Y-23902D03*
X-27939Y-24383D03*
X-28461Y-2256D03*
X-28589Y-25372D03*
X-26036Y-24852D03*
X-27324Y-26065D03*
X-34029Y-25592D03*
X-34018Y-28252D03*
X-3142Y-25297D03*
X-32408Y-25451D03*
X-24684Y-38366D03*
X-23367Y-27116D03*
X-17489Y-25408D03*
X-18366Y-2543D03*
X-30578Y-28576D03*
X-31866Y-28374D03*
X-28302Y-28143D03*
X-3295Y-28228D03*
X-17525Y-28549D03*
X-18813Y-28348D03*
X-15249Y-28116D03*
X-20965Y-28226D03*
X-19897Y-28202D03*
X-06954Y-28341D03*
X-08022Y-28365D03*
X-03776Y-25422D03*
X-05472Y-34587D03*
X-11835Y-38356D03*
X-02307Y-28256D03*
X-09861Y-24583D03*
X-06503Y-2542D03*
X-05259Y-25444D03*
X-05871Y-28488D03*
X-04583Y-28689D03*
X-08281Y-24465D03*
X-1395Y-23603D03*
X-12841Y-24297D03*
X-04971Y-16494D03*
X-05833Y-17747D03*
X-06099Y-19649D03*
X-03729Y-14405D03*
X-13481Y-19092D03*
X-11961Y-19176D03*
X-09683Y-18098D03*
X-10604Y-19107D03*
X-12578Y-20625D03*
X-1562Y-19049D03*
X-03989Y-10809D03*
X-04142Y-12146D03*
X-05565Y-15591D03*
X-2339Y-17192D03*
X-11782Y-17574D03*
X-14746Y-21255D03*
X-23556Y-18401D03*
X-22605Y-14477D03*
X-23827Y-15196D03*
X-1816Y-17906D03*
X-22732Y-16128D03*
X-21589Y-15366D03*
X-13461Y-12318D03*
X-20827Y-16636D03*
X-19557Y-18541D03*
X-18541Y-16128D03*
X-18264Y-19949D03*
X-18922Y-19303D03*
X-20127Y-21942D03*
X-21051Y-21874D03*
X-21165Y-19501D03*
X-21843Y-20192D03*
X-23323Y-21291D03*
X-25202Y-21746D03*
X-25145Y-18287D03*
X-26238Y-19115D03*
X-29404Y-1094D03*
X-22732Y-08381D03*
X-29575Y-12801D03*
X-17817Y-23211D03*
X-33345Y-22879D03*
X-334Y-19684D03*
X-3339Y-21393D03*
X-09504Y-21867D03*
X-31597Y-17273D03*
X-1666Y-13168D03*
X-18927Y-06195D03*
X-3267Y-09208D03*
X-27468Y-06903D03*
X-27518Y-04936D03*
X-25496Y-13675D03*
X-22641Y-13419D03*
X-25653Y-14985D03*
X-10355Y-08319D03*
X-14638Y-05751D03*
X-1534Y-16045D03*
X-21016Y-04937D03*
X-25444Y-09119D03*
X-11138Y-07609D03*
X-08724Y-09575D03*
X-08373Y-11255D03*
X-07109Y-24149D03*
X-04137Y-22539D03*
X-03936Y-23494D03*
X-08199Y-2302D03*
X-09667Y-19167D03*
X-09524Y-20573D03*
X-26991Y-01007D03*
X-18414Y-03301D03*
X-17062Y-01949D03*
X-05614Y-02902D03*
X-03902Y-01954D03*
X-08351Y-22147D03*
X-19176Y-08889D03*
X-03875Y-08388D03*
X-04418Y-19663D03*
X-23061Y-05663D03*
X-24406Y-05539D03*
X-17803Y-11691D03*
X-16281Y-06663D03*
X-15829Y-08059D03*
X-16128Y-10159D03*
X-12876Y-07114D03*
X-10286Y-0927D03*
G54D39*
X-2411Y-24958D03*
X-2157D03*
X-32799Y-1416D03*
Y-1616D03*
Y-1816D03*
G54D40*
X-32798Y-10152D03*
X-32797Y-08148D03*
X-32799Y-12156D03*
G54D41*
X-34352Y-26211D03*
X-33082D03*
X-34352Y-27481D03*
X-33082D03*
X-29272D03*
Y-26211D03*
X-30542Y-27481D03*
Y-26211D03*
X-31892Y-27481D03*
X-31812Y-26211D03*
X-21299Y-26184D03*
X-20029D03*
X-21299Y-27454D03*
X-20029D03*
X-16219D03*
Y-26184D03*
X-17489Y-27454D03*
Y-26184D03*
X-18839Y-27454D03*
X-18759Y-26184D03*
X-08357Y-26324D03*
X-07087D03*
X-08357Y-27594D03*
X-07087D03*
X-03277D03*
Y-26324D03*
X-04547Y-27594D03*
Y-26324D03*
X-05897Y-27594D03*
X-05817Y-26324D03*
X-21703Y-07994D03*
X-21623Y-06724D03*
X-22973Y-07994D03*
Y-06724D03*
X-24243Y-07994D03*
Y-06724D03*
X-20433D03*
X-19163D03*
X-20433Y-07994D03*
X-19163D03*
G54D42*
X-15255Y-17566D03*
G54D43*
X-15255Y-11866D03*
G54D44*
X-02105Y-10266D03*
X-01105Y-23066D03*
G54D45*
X-04955Y-11056D03*
Y-12156D03*
X-04755Y-13256D03*
X-04955Y-14356D03*
X-04755Y-15456D03*
X-04955Y-16556D03*
X-05355Y-17656D03*
X-04955Y-18756D03*
M02*