M48
;Layer_Color=9474304
;FILE_FORMAT=4:4
METRIC,LZ
;TYPE=PLATED
T1F00S00C0.3500
T2F00S00C0.6500
;TYPE=NON_PLATED
T3F00S00C0.9000
T4F00S00C0.9950
%
T01
X-00118353Y-00383563
X-00166911Y-00332633
X-00175257Y-002855
X-00188138Y-00283485
X-0018367Y-00254302
X-00174899Y-00254085
X-00178172Y-00232117
X-00182649Y-00199496
X-00147469Y-00212554
X-00125788Y-00206256
X-0009525Y-0020574
X-00095048Y-00218672
X-00083516Y-0022148
X-00082Y-00230207
X-00082815Y-00244656
X-00071096Y-00241497
X-00065036Y-00254208
X-00052595Y-00254443
X-00037763Y-00254224
X-0003937Y-0023495
X-00041375Y-00225392
X-00045831Y-00286898
X-00058712Y-00284883
X-0006955Y-00283419
X-00080229Y-0028366
X-00072414Y-00322157
X-00054727Y-00345874
X-00023073Y-00282566
X-00098617Y-00245833
X-00128412Y-00242978
X-00139508Y-00236031
X-00140331Y-00293007
X-00152499Y-00281169
X-00198976Y-00282021
X-00209655Y-00282262
X-00233674Y-00271169
X-00251391Y-00254961
X-00260362Y-00248521
X-002794Y-0024384
X-00285891Y-00253721
X-00273244Y-00260651
X-0028303Y-00281431
X-00305788Y-00285763
X-00318669Y-00283748
X-00329507Y-00282284
X-00340186Y-00282525
X-0034862Y-00285494
X-00365763Y-00266166
X-00340293Y-00255925
X-00324081Y-00254517
X-00314209Y-00252977
X-00294082Y-00239025
X-00284617Y-00225601
X-00252025Y-00217468
X-00258338Y-00200772
X-00233232Y-00212911
X-0021844Y-0020193
X-00210511Y-00218749
X-00201273Y-00219425
X-00200917Y-00313823
X-00259422Y-0030451
X-00246842Y-00383664
X-00334294Y-00336079
X-00333454Y-00228792
X-00333906Y-00213939
X-0033401Y-0019685
X-00315972Y-0017274
X-00295753Y-00128014
X-00294046Y-00109405
X-00326708Y-00092089
X-00254442Y-00091196
X-0022733Y-0008382
X-00230612Y-00056636
X-00244063Y-00055394
X-00275183Y-00049363
X-00274689Y-00069038
X-00269913Y-00010072
X-00210163Y-00049376
X-00189272Y-00061958
X-0019177Y-000889
X-00226419Y-001342
X-0022606Y-0014478
X-0022733Y-0016129
X-00233904Y-00171923
X-00235569Y-00184018
X-0025146Y-0018288
X-00262387Y-0019116
X-0025654Y-0014986
X-00254963Y-00136753
X-00238271Y-00151969
X-002159Y-0015367
X-0020828Y-0016637
X-0019558Y-0018542
X-0018923Y-0019304
X-0021166Y-00195019
X-0018161Y-0017907
X-0018542Y-0016129
X-00153408Y-00160453
X-0015621Y-001905
X-00134811Y-00190927
X-00119612Y-00191763
X-00106043Y-00191079
X-00096673Y-00191675
X-00096837Y-00180985
X-00117829Y-00175747
X-0005834Y-00177471
X-00049718Y-00164946
X-0005566Y-00155917
X-00037293Y-00144059
X-00041421Y-00121467
X-000399Y-001081
X-00038752Y-00083883
X-00087241Y-00095753
X-0010287Y-0009271
X-00103552Y-00083197
X-00111381Y-00076097
X-00128766Y-00071149
X-00146384Y-00057512
X-00162817Y-00066637
X-00158295Y-00080594
X-0016129Y-001016
X-00178035Y-00116916
X-00166603Y-00131683
X-0013462Y-0012319
X-00083732Y-00112554
X-00060997Y-00196499
X-00044184Y-00196636
X-0005615Y-00029026
X-00039027Y-00019549
X-00170623Y-00019493
X-0018415Y-0003302
T02
X-00241109Y-00249587
X-00215709
X-00328Y-0018161
Y-0016161
Y-0014161
X-00327993Y-0012157
X-00327986Y-00101529
X-00327979Y-00081489
T03
X-0030185Y-0004
Y-0001
X-0017485
Y-0004
X-0004785
Y-0001
T04
X-00149499Y-00268198
X-00096273Y-00259436
Y-00279756
X-00020073Y-00269596
X-00225699Y-00278358
Y-00258038
X-0028003Y-00268461
X-0035623Y-00278621
Y-00258301
X-00255135Y-00073595
X-00178934Y-00083755
Y-00063435
M30
