%FSTAX23Y23*%
%MOMM*%
%SFA1B1*%

%IPPOS*%
%AMD54*
4,1,8,0.000000,0.609600,0.000000,0.609600,-0.609600,0.000000,-0.609600,0.000000,0.000000,-0.609600,0.000000,-0.609600,0.609600,0.000000,0.609600,0.000000,0.000000,0.609600,0.0*
1,1,1.219200,0.000000,0.000000*
1,1,1.219200,0.000000,0.000000*
1,1,1.219200,0.000000,0.000000*
1,1,1.219200,0.000000,0.000000*
%
%AMD56*
4,1,8,1.750060,0.601980,-1.750060,0.601980,-2.100580,0.248920,-2.100580,-0.248920,-1.750060,-0.601980,1.750060,-0.601980,2.100580,-0.248920,2.100580,0.248920,1.750060,0.601980,0.0*
1,1,0.703200,1.750060,0.248920*
1,1,0.703200,-1.750060,0.248920*
1,1,0.703200,-1.750060,-0.248920*
1,1,0.703200,1.750060,-0.248920*
%
%AMD69*
4,1,8,-0.701040,0.398780,-0.701040,-0.398780,-0.299720,-0.802640,0.299720,-0.802640,0.701040,-0.398780,0.701040,0.398780,0.299720,0.802640,-0.299720,0.802640,-0.701040,0.398780,0.0*
1,1,0.803200,-0.299720,0.398780*
1,1,0.803200,-0.299720,-0.398780*
1,1,0.803200,0.299720,-0.398780*
1,1,0.803200,0.299720,0.398780*
%
%ADD37C,0.899998*%
%ADD52R,2.203196X0.703199*%
%ADD53R,0.703199X1.703197*%
G04~CAMADD=54~8~0.0~0.0~480.0~480.0~240.0~0.0~15~0.0~0.0~0.0~0.0~0~0.0~0.0~0.0~0.0~0~0.0~0.0~0.0~0.0~480.0~480.0*
%ADD54D54*%
%ADD55R,4.203192X1.203198*%
G04~CAMADD=56~8~0.0~0.0~1654.8~473.7~138.4~0.0~15~0.0~0.0~0.0~0.0~0~0.0~0.0~0.0~0.0~0~0.0~0.0~0.0~0.0~1654.8~473.7*
%ADD56D56*%
%ADD57R,0.823198X0.803198*%
%ADD58R,0.803198X0.823198*%
%ADD59R,0.753198X0.753198*%
%ADD60R,0.482599X1.676397*%
%ADD61R,1.676397X0.482599*%
%ADD62R,1.153198X1.053198*%
%ADD63R,1.053198X1.153198*%
%ADD64R,1.753196X1.203198*%
%ADD65R,0.753198X0.753198*%
%ADD66R,0.853198X0.503199*%
%ADD67R,1.803396X2.553195*%
%ADD68R,1.403197X1.603197*%
G04~CAMADD=69~8~0.0~0.0~631.2~552.4~158.1~0.0~15~0.0~0.0~0.0~0.0~0~0.0~0.0~0.0~0.0~0~0.0~0.0~0.0~90.0~554.0~631.0*
%ADD69D69*%
%ADD70R,1.053198X0.853198*%
%ADD71R,1.727197X1.523997*%
%ADD72R,1.422397X1.625597*%
%ADD73C,1.103198*%
%ADD74C,0.903198*%
%ADD75C,1.203198*%
%ADD76C,1.153198*%
%LNdatapcb-1*%
%LPD*%
G36*
X-25522Y-15948D02*
X-25275Y-1605D01*
X-25063Y-16213*
X-249Y-16425*
X-24797Y-16673*
X-24763Y-16938*
Y-16938*
X-24764Y-16938*
X-24797Y-17193*
X-24899Y-17438*
X-2506Y-17649*
X-25271Y-1781*
X-25516Y-17912*
X-25779Y-17947*
X-25787Y-17946*
X-25787Y-17947*
X-25787*
X-26048Y-17912*
X-26292Y-17811*
X-26501Y-17651*
X-26661Y-17442*
X-26762Y-17199*
X-26796Y-16938*
Y-16938*
X-26795Y-16938*
X-26796Y-1693*
X-26761Y-16667*
X-2666Y-16421*
X-26498Y-16211*
X-26288Y-16049*
X-26043Y-15948*
X-25787Y-15914*
X-25787Y-15913*
X-25787*
X-25522Y-15948*
G37*
G36*
X-06472Y-05374D02*
X-06225Y-05476D01*
X-06013Y-05639*
X-0585Y-05851*
X-05748Y-06098*
X-05713Y-06363*
Y-06364*
X-05714Y-06364*
X-05748Y-06619*
X-05849Y-06864*
X-06011Y-07075*
X-06221Y-07236*
X-06466Y-07338*
X-0673Y-07372*
X-06738Y-07371*
X-06738Y-07372*
X-06738*
X-06999Y-07338*
X-07242Y-07237*
X-07451Y-07077*
X-07611Y-06868*
X-07712Y-06625*
X-07746Y-06364*
Y-06364*
X-07745Y-06364*
X-07746Y-06355*
X-07712Y-06092*
X-0761Y-05847*
X-07449Y-05637*
X-07238Y-05475*
X-06993Y-05373*
X-06738Y-0534*
X-06738Y-05339*
X-06738Y-05339*
X-06472Y-05374*
G37*
G36*
X-36105Y-0148D02*
X-35858Y-01583D01*
X-35646Y-01746*
X-35483Y-01958*
X-3538Y-02205*
X-35346Y-0247*
Y-0247*
X-35347*
X-3538Y-02725*
X-35482Y-02971*
X-35643Y-03181*
X-35854Y-03343*
X-36099Y-03444*
X-36362Y-03479*
X-3637Y-03478*
X-3637Y-03479*
X-3637*
X-36631Y-03444*
X-36875Y-03344*
X-37084Y-03183*
X-37244Y-02975*
X-37345Y-02731*
X-37379Y-0247*
Y-0247*
X-37378*
X-37379Y-02462*
X-37344Y-02199*
X-37243Y-01954*
X-37081Y-01743*
X-36871Y-01582*
X-36626Y-0148*
X-3637Y-01447*
Y-01445*
X-3637*
X-36105Y-0148*
G37*
G54D37*
X-30184Y-00999D03*
Y-03999D03*
X-17484Y-00999D03*
Y-03999D03*
X-04784Y-00999D03*
Y-03999D03*
G54D52*
X-10579Y-33361D03*
Y-34361D03*
Y-35361D03*
Y-36361D03*
Y-37361D03*
Y-38361D03*
Y-39361D03*
Y-32361D03*
Y-31361D03*
X-01579D03*
Y-32361D03*
Y-33361D03*
Y-34361D03*
Y-37361D03*
Y-36361D03*
Y-38361D03*
Y-39361D03*
X-23549Y-33362D03*
Y-34362D03*
Y-35362D03*
Y-36362D03*
Y-37362D03*
Y-38362D03*
Y-39362D03*
Y-32362D03*
Y-31362D03*
X-14549D03*
Y-32362D03*
Y-33362D03*
Y-34362D03*
Y-37362D03*
Y-36362D03*
Y-38362D03*
Y-39362D03*
X-36518Y-33362D03*
Y-34362D03*
Y-35362D03*
Y-36362D03*
Y-37362D03*
Y-38362D03*
Y-39362D03*
Y-32362D03*
Y-31362D03*
X-27518D03*
Y-32362D03*
Y-33362D03*
Y-34362D03*
Y-37362D03*
Y-36362D03*
Y-38362D03*
Y-39362D03*
G54D53*
X-08579Y-29861D03*
X-07579D03*
X-05579D03*
X-06579D03*
X-03579D03*
X-02579D03*
X-04579D03*
X-09579D03*
X-21549Y-29862D03*
X-20549D03*
X-18549D03*
X-19549D03*
X-16549D03*
X-15549D03*
X-17549D03*
X-22549D03*
X-34518D03*
X-33518D03*
X-31518D03*
X-32518D03*
X-29518D03*
X-28518D03*
X-30518D03*
X-35518D03*
G54D54*
X-25787Y-16938D03*
X-3637Y-0247D03*
X-06738Y-06364D03*
G54D55*
X-36027Y-24093D03*
G54D56*
X-36027Y-22823D03*
Y-21553D03*
Y-19013D03*
Y-20283D03*
Y-15203D03*
Y-13933D03*
Y-16473D03*
Y-17743D03*
Y-11393D03*
Y-12663D03*
Y-10123D03*
G54D57*
X-01051Y-29157D03*
Y-28237D03*
X-26342Y-30077D03*
Y-29157D03*
X-13696Y-28977D03*
Y-28057D03*
X-2595Y-09354D03*
Y-10274D03*
X-21531Y-0927D03*
Y-1019D03*
X-29711Y-12895D03*
Y-13815D03*
X-2483Y-09367D03*
Y-10287D03*
X-05941Y-1662D03*
Y-157D03*
X-30046Y-21903D03*
Y-20983D03*
X-3003Y-22947D03*
Y-23867D03*
G54D58*
X-30975Y-17342D03*
X-30055D03*
X-14322Y-19011D03*
X-15242D03*
X-14609Y-17053D03*
X-15529D03*
X-19423Y-25016D03*
X-20343D03*
X-13647Y-12971D03*
X-14567D03*
X-13564Y-11878D03*
X-12644D03*
G54D59*
X-02737Y-10821D03*
X-01837D03*
X-02787Y-12414D03*
X-01887D03*
X-02805Y-13995D03*
X-01905D03*
X-02793Y-14885D03*
X-01893D03*
X-02805Y-16416D03*
X-01905D03*
X-02812Y-17292D03*
X-01912D03*
X-02813Y-18827D03*
X-01913D03*
X-14726Y-05911D03*
X-15626D03*
X-02005Y-05836D03*
X-02905D03*
X-12671Y-1092D03*
X-13571D03*
G54D60*
X-1877Y-11952D03*
X-19278D03*
X-19786D03*
X-20269D03*
X-20777D03*
X-21285D03*
X-21767D03*
X-22275D03*
X-22783D03*
X-23291D03*
X-23774D03*
X-24282D03*
X-2479D03*
X-25273D03*
X-25781D03*
X-26289D03*
Y-23179D03*
X-25781D03*
X-25273D03*
X-2479D03*
X-24282D03*
X-23774D03*
X-23291D03*
X-22783D03*
X-22275D03*
X-21767D03*
X-21285D03*
X-20777D03*
X-20269D03*
X-19786D03*
X-19278D03*
X-1877D03*
G54D61*
X-28143Y-13806D03*
Y-14314D03*
Y-14822D03*
Y-15305D03*
Y-15813D03*
Y-16321D03*
Y-16803D03*
Y-17311D03*
Y-17819D03*
Y-18327D03*
Y-1881D03*
Y-19318D03*
Y-19826D03*
Y-20308D03*
Y-20816D03*
Y-21324D03*
X-16916D03*
Y-20816D03*
Y-20308D03*
Y-19826D03*
Y-19318D03*
Y-1881D03*
Y-18327D03*
Y-17819D03*
Y-17311D03*
Y-16803D03*
Y-16321D03*
Y-15813D03*
Y-15305D03*
Y-14822D03*
Y-14314D03*
Y-13806D03*
G54D62*
X-11088Y-06574D03*
Y-04624D03*
X-09666Y-06574D03*
Y-04624D03*
X-12509Y-06574D03*
Y-04624D03*
X-31452Y-07968D03*
Y-06018D03*
X-03996Y-15951D03*
Y-17901D03*
X-15004Y-14112D03*
Y-16062D03*
X-1363Y-15332D03*
Y-17282D03*
X-14684Y-11936D03*
Y-09986D03*
G54D63*
X-36932Y-08761D03*
X-34982D03*
X-31246Y-11691D03*
X-29296D03*
G54D64*
X-31533Y-23872D03*
Y-21272D03*
G54D65*
X-34335Y-0201D03*
Y-0291D03*
G54D66*
X-37007Y-05405D03*
Y-06055D03*
Y-06705D03*
Y-07355D03*
X-34257D03*
Y-06705D03*
Y-06055D03*
Y-05405D03*
G54D67*
X-35632Y-0638D03*
G54D68*
X-27409Y-04199D03*
X-14709D03*
X-02009D03*
G54D69*
X-32959Y-04199D03*
X-27409Y-00799D03*
X-32959D03*
X-20259Y-04199D03*
X-14709Y-00799D03*
X-20259D03*
X-07559Y-04199D03*
X-02009Y-00799D03*
X-07559D03*
G54D70*
X-09994Y-02804D03*
X-11444Y-01954D03*
X-09994D03*
X-11444Y-02804D03*
G54D71*
X-23146Y-07738D03*
Y-09653D03*
G54D72*
X-10358Y-1393D03*
Y-16147D03*
X-11971Y-1393D03*
Y-16147D03*
G54D73*
X-28002Y-26846D03*
X-35622Y-2583D03*
Y-27862D03*
X-14949Y-26819D03*
X-22569Y-25803D03*
Y-27835D03*
X-02007Y-26959D03*
X-09627Y-25943D03*
Y-27975D03*
X-17893Y-06343D03*
Y-08375D03*
X-25513Y-07359D03*
G54D74*
X-25942Y-3045D03*
X-14033Y-293D03*
X-20091Y-31382D03*
X-16691Y-33263D03*
X-07241Y-32215D03*
X-33429Y-33607D03*
X-36576Y-26616D03*
X-34861Y-28549D03*
X-25139Y-25496D03*
X-25833Y-20077D03*
X-29408Y-23902D03*
X-27939Y-24383D03*
X-28461Y-2256D03*
X-28589Y-25372D03*
X-26036Y-24852D03*
X-27324Y-26065D03*
X-34029Y-25592D03*
X-34018Y-28252D03*
X-3142Y-25297D03*
X-32408Y-25451D03*
X-24684Y-38366D03*
X-23367Y-27116D03*
X-17489Y-25408D03*
X-18366Y-2543D03*
X-30578Y-28576D03*
X-31866Y-28374D03*
X-28302Y-28143D03*
X-3295Y-28228D03*
X-17525Y-28549D03*
X-18813Y-28348D03*
X-15249Y-28116D03*
X-20965Y-28226D03*
X-19897Y-28202D03*
X-06954Y-28341D03*
X-08022Y-28365D03*
X-03776Y-25422D03*
X-05472Y-34587D03*
X-11835Y-38356D03*
X-02307Y-28256D03*
X-09861Y-24583D03*
X-06503Y-2542D03*
X-05259Y-25444D03*
X-05871Y-28488D03*
X-04583Y-28689D03*
X-08281Y-24465D03*
X-1395Y-23603D03*
X-12841Y-24297D03*
X-04971Y-16494D03*
X-05833Y-17747D03*
X-06099Y-19649D03*
X-03729Y-14405D03*
X-13481Y-19092D03*
X-11961Y-19176D03*
X-09683Y-18098D03*
X-10604Y-19107D03*
X-12578Y-20625D03*
X-1562Y-19049D03*
X-03989Y-10809D03*
X-04142Y-12146D03*
X-05565Y-15591D03*
X-2339Y-17192D03*
X-11782Y-17574D03*
X-14746Y-21255D03*
X-23556Y-18401D03*
X-22605Y-14477D03*
X-23827Y-15196D03*
X-1816Y-17906D03*
X-22732Y-16128D03*
X-21589Y-15366D03*
X-13461Y-12318D03*
X-20827Y-16636D03*
X-19557Y-18541D03*
X-18541Y-16128D03*
X-18264Y-19949D03*
X-18922Y-19303D03*
X-20127Y-21942D03*
X-21051Y-21874D03*
X-21165Y-19501D03*
X-21843Y-20192D03*
X-23323Y-21291D03*
X-25202Y-21746D03*
X-25145Y-18287D03*
X-26238Y-19115D03*
X-29404Y-1094D03*
X-22732Y-08381D03*
X-29575Y-12801D03*
X-17817Y-23211D03*
X-33345Y-22879D03*
X-334Y-19684D03*
X-3339Y-21393D03*
X-09504Y-21867D03*
X-31597Y-17273D03*
X-1666Y-13168D03*
X-18927Y-06195D03*
X-3267Y-09208D03*
X-27468Y-06903D03*
X-27518Y-04936D03*
X-25496Y-13675D03*
X-22641Y-13419D03*
X-25653Y-14985D03*
X-10355Y-08319D03*
X-14638Y-05751D03*
X-1534Y-16045D03*
X-21016Y-04937D03*
X-25444Y-09119D03*
X-11138Y-07609D03*
X-08724Y-09575D03*
X-08373Y-11255D03*
X-07109Y-24149D03*
X-04137Y-22539D03*
X-03936Y-23494D03*
X-08199Y-2302D03*
X-09667Y-19167D03*
X-09524Y-20573D03*
X-26991Y-01007D03*
X-18414Y-03301D03*
X-17062Y-01949D03*
X-05614Y-02902D03*
X-03902Y-01954D03*
X-08351Y-22147D03*
X-19176Y-08889D03*
X-03875Y-08388D03*
X-04418Y-19663D03*
X-23061Y-05663D03*
X-24406Y-05539D03*
X-17803Y-11691D03*
X-16281Y-06663D03*
X-15829Y-08059D03*
X-16128Y-10159D03*
X-12876Y-07114D03*
X-10286Y-0927D03*
G54D75*
X-2411Y-24958D03*
X-2157D03*
X-32799Y-1416D03*
Y-1616D03*
Y-1816D03*
G54D76*
X-32798Y-10152D03*
X-32797Y-08148D03*
X-32799Y-12156D03*
M02*