%FSTAX23Y23*%
%MOMM*%
%SFA1B1*%

%IPPOS*%
%AMD12*
4,1,8,0.000000,0.508000,0.000000,0.508000,-0.508000,0.000000,-0.508000,0.000000,0.000000,-0.508000,0.000000,-0.508000,0.508000,0.000000,0.508000,0.000000,0.000000,0.508000,0.0*
1,1,1.016000,0.000000,0.000000*
1,1,1.016000,0.000000,0.000000*
1,1,1.016000,0.000000,0.000000*
1,1,1.016000,0.000000,0.000000*
%
%AMD14*
4,1,8,1.750060,0.500380,-1.750060,0.500380,-1.998980,0.248920,-1.998980,-0.248920,-1.750060,-0.500380,1.750060,-0.500380,1.998980,-0.248920,1.998980,0.248920,1.750060,0.500380,0.0*
1,1,0.500000,1.750060,0.248920*
1,1,0.500000,-1.750060,0.248920*
1,1,0.500000,-1.750060,-0.248920*
1,1,0.500000,1.750060,-0.248920*
%
%AMD27*
4,1,8,-0.599440,0.398780,-0.599440,-0.398780,-0.299720,-0.701040,0.299720,-0.701040,0.599440,-0.398780,0.599440,0.398780,0.299720,0.701040,-0.299720,0.701040,-0.599440,0.398780,0.0*
1,1,0.600000,-0.299720,0.398780*
1,1,0.600000,-0.299720,-0.398780*
1,1,0.600000,0.299720,-0.398780*
1,1,0.600000,0.299720,0.398780*
%
%ADD10R,1.999996X0.499999*%
%ADD11R,0.499999X1.499997*%
G04~CAMADD=12~8~0.0~0.0~400.0~400.0~200.0~0.0~15~0.0~0.0~0.0~0.0~0~0.0~0.0~0.0~0.0~0~0.0~0.0~0.0~0.0~400.0~400.0*
%ADD12D12*%
%ADD13R,3.999992X0.999998*%
G04~CAMADD=14~8~0.0~0.0~1574.8~393.7~98.4~0.0~15~0.0~0.0~0.0~0.0~0~0.0~0.0~0.0~0.0~0~0.0~0.0~0.0~0.0~1574.8~393.7*
%ADD14D14*%
%ADD15R,0.619999X0.599999*%
%ADD16R,0.599999X0.619999*%
%ADD17R,0.549999X0.549999*%
%ADD18R,0.279399X1.473197*%
%ADD19R,1.473197X0.279399*%
%ADD20R,0.949998X0.849998*%
%ADD21R,0.849998X0.949998*%
%ADD22R,1.549997X0.999998*%
%ADD23R,0.549999X0.549999*%
%ADD24R,0.649999X0.299999*%
%ADD25R,1.600197X2.349995*%
%ADD26R,1.199998X1.399997*%
G04~CAMADD=27~8~0.0~0.0~551.2~472.4~118.1~0.0~15~0.0~0.0~0.0~0.0~0~0.0~0.0~0.0~0.0~0~0.0~0.0~0.0~90.0~474.0~551.0*
%ADD27D27*%
%ADD28R,0.849998X0.649999*%
%ADD29R,1.523997X1.320797*%
%ADD30R,1.219198X1.422397*%
%ADD31C,0.299999*%
%ADD32C,0.349999*%
%ADD33C,0.250000*%
%ADD34C,0.599999*%
%ADD35C,0.399999*%
%ADD36C,0.253999*%
%ADD37C,0.899998*%
%ADD38C,0.699999*%
%ADD39C,0.999998*%
%ADD40C,0.949998*%
%LNdatapcb-1*%
%LPD*%
G36*
X-24776Y-0623D02*
X-24458Y-06549D01*
X-24359Y-06615*
X-24241Y-06639*
X-22118*
X-20843Y-07914*
Y-09277*
X-20894Y-09317*
X-21021Y-09254*
Y-0877*
X-21124*
X-21204Y-08678*
X-21227Y-08561*
X-21294Y-08462*
X-21985Y-0777*
X-22085Y-07704*
X-22184Y-07684*
Y-06878*
X-22971*
Y-07738*
X-23321*
Y-06878*
X-24108*
Y-07736*
X-24159Y-0777*
X-25086Y-08697*
X-25229Y-08601*
X-25269Y-08593*
Y-09119*
X-25619*
Y-08593*
X-25658Y-08601*
X-25775Y-08679*
Y-09354*
X-2595*
Y-09529*
X-2646*
Y-09854*
X-2641*
Y-10547*
X-26528Y-10596*
X-27162Y-09961*
Y-073*
X-27108Y-07264*
X-26997Y-07098*
X-26959Y-06903*
X-26997Y-06708*
X-27108Y-06543*
X-27273Y-06432*
X-27468Y-06393*
X-27663Y-06432*
X-27829Y-06543*
X-27939Y-06708*
X-27978Y-06903*
X-27939Y-07098*
X-27829Y-07264*
X-27774Y-073*
Y-10087*
X-27751Y-10204*
X-27685Y-10304*
X-26631Y-11357*
X-26639Y-11416*
X-26774Y-11461*
X-28779Y-09455*
X-28878Y-09389*
X-28996Y-09366*
X-31221*
X-31338Y-09389*
X-31438Y-09455*
X-32018Y-10035*
X-32138Y-09995*
X-3214Y-09976*
X-32208Y-09812*
X-32258Y-09747*
X-32274Y-09605*
X-32152Y-09423*
X-32144Y-09383*
X-33196*
X-33188Y-09423*
X-33125Y-09518*
X-33138Y-09563*
X-33279Y-09671*
X-33388Y-09812*
X-33456Y-09976*
X-33456Y-09977*
X-32798*
Y-10327*
X-33456*
X-33456Y-10329*
X-33388Y-10493*
X-33376Y-10508*
X-33432Y-10621*
X-33656*
X-33773Y-10645*
X-33872Y-10711*
X-33961Y-10621*
X-339Y-10529*
X-33869Y-10373*
Y-09873*
X-339Y-09716*
X-33988Y-09584*
X-3412Y-09496*
X-34245Y-09471*
X-34357Y-09436*
Y-08936*
X-34982*
Y-08586*
X-34357*
Y-08086*
X-34966*
X-3518Y-07872*
X-35132Y-07755*
X-34632*
Y-07655*
X-34506*
X-34491Y-07665*
X-34364Y-0769*
X-33395*
X-33328Y-07817*
X-33386Y-07904*
X-33435Y-08148*
X-33386Y-08392*
X-33248Y-08599*
X-33112Y-0869*
X-3307Y-08802*
X-33089Y-08846*
X-33188Y-08994*
X-33196Y-09033*
X-32144*
X-32152Y-08994*
X-32274Y-08812*
X-32355Y-08757*
Y-08605*
X-32347Y-08599*
X-32209Y-08392*
X-32204Y-0837*
X-32077Y-08382*
Y-08543*
X-30827*
Y-07514*
X-30456*
X-30329Y-07489*
X-30222Y-07417*
X-3015Y-0731*
X-3015Y-07309*
X-2907Y-0623*
X-24777*
X-24776Y-0623*
G37*
G36*
X-02239Y-0708D02*
Y-10299D01*
X-02312Y-10396*
X-02389*
X-03162*
Y-10504*
X-03592*
X-03629Y-10449*
X-03794Y-10338*
X-03989Y-103*
X-04185Y-10338*
X-0435Y-10449*
X-0446Y-10614*
X-04499Y-10809*
X-0446Y-11005*
X-0435Y-1117*
X-04185Y-1128*
X-03989Y-11319*
X-03794Y-1128*
X-03629Y-1117*
X-03592Y-11115*
X-03162*
Y-11246*
X-02389*
X-02312Y-11246*
X-02239Y-11343*
Y-11978*
X-02362Y-11989*
X-02439*
X-02842*
X-02901Y-1193*
X-03Y-11864*
X-03118Y-1184*
X-03745*
X-03781Y-11786*
X-03946Y-11675*
X-04142Y-11636*
X-04337Y-11675*
X-04502Y-11786*
X-04613Y-11951*
X-04651Y-12146*
X-04613Y-12341*
X-04502Y-12507*
X-04337Y-12617*
X-04142Y-12656*
X-03946Y-12617*
X-03781Y-12507*
X-03745Y-12452*
X-03244*
X-03212Y-12485*
Y-12839*
X-02439*
X-02362*
X-02239Y-1285*
Y-13483*
X-0233Y-1357*
X-0238*
X-02798*
X-02893Y-13474*
X-02992Y-13408*
X-0311Y-13385*
X-05865*
X-0587Y-13358*
X-05936Y-13259*
Y-13259*
X-07876Y-11319*
X-07863Y-11255*
X-07902Y-1106*
X-08012Y-10894*
X-08178Y-10784*
X-08373Y-10745*
X-08568Y-10784*
X-08633Y-10828*
X-08806Y-10794*
X-09176Y-10424*
Y-10009*
X-09049Y-09959*
X-08919Y-10046*
X-08724Y-10085*
X-08528Y-10046*
X-08363Y-09935*
X-08327Y-09881*
X-06939*
X-06822Y-09857*
X-06723Y-09791*
X-03193Y-06261*
X-03058*
X-02239Y-0708*
G37*
G36*
X-02759Y-04518D02*
Y-05049D01*
X-02311*
Y-05392*
X-0243Y-05411*
X-0248*
X-02557*
X-0333*
Y-05562*
X-03416Y-0562*
X-07066Y-09269*
X-08327*
X-08363Y-09214*
X-08528Y-09104*
X-08724Y-09065*
X-08919Y-09104*
X-09049Y-09191*
X-09176Y-09141*
Y-08048*
X-0836Y-07232*
X-08294Y-07133*
X-0827Y-07016*
Y-05079*
X-08143Y-05011*
X-08055Y-0507*
X-07859Y-05109*
X-07734*
Y-04199*
Y-0329*
X-07859*
X-07957Y-03309*
X-08019Y-03192*
X-07343Y-02516*
X-07277Y-02417*
X-07254Y-02299*
Y-01657*
X-07084Y-01623*
X-06935Y-01524*
X-06836Y-01375*
X-06801Y-01199*
Y-01105*
X-06172*
X-02759Y-04518*
G37*
G36*
X-33618Y-00126D02*
X-33683Y-00224D01*
X-33718Y-00399*
Y-01126*
X-34178Y-01585*
X-3476*
Y-02435*
Y-02485*
Y-03335*
X-3391*
Y-03242*
X-33553*
X-33515Y-03369*
X-3362Y-03439*
X-3373Y-03604*
X-33769Y-03799*
Y-04024*
X-32959*
Y-04199*
X-32784*
Y-05154*
X-32127Y-05812*
Y-05843*
X-31452*
Y-06018*
X-31277*
Y-06643*
X-30788*
Y-06852*
X-32975*
X-33102Y-06877*
X-33209Y-06949*
X-33288Y-07027*
X-33664*
X-33782Y-07005*
Y-06405*
Y-06355*
Y-06355*
Y-05755*
X-33732*
Y-05405*
X-33407Y-0508*
X-33259Y-05109*
X-33134*
Y-04374*
X-33769*
Y-04577*
X-34082Y-0489*
Y-05405*
X-34432*
Y-05055*
X-34632*
Y-05005*
X-35457*
Y-0638*
X-35807*
Y-05005*
X-36632*
Y-05105*
X-37105*
X-37114Y-05103*
X-37747*
X-37864Y-05126*
X-37932Y-05172*
X-37972Y-0518*
X-38013Y-05169*
X-38099Y-05123*
Y0*
X-33682*
X-33618Y-00126*
G37*
G36*
X-29808Y-10555D02*
X-29922Y-10725D01*
X-2993Y-10765*
X-29404*
Y-11115*
X-2993*
X-29922Y-11155*
X-29921Y-11157*
Y-11516*
X-28671*
Y-11232*
X-28553Y-11183*
X-27494Y-12242*
Y-13322*
X-27491Y-13339*
X-27594Y-13466*
X-2805*
X-28768Y-12748*
X-28867Y-12682*
X-28984Y-12659*
X-29057Y-12586*
X-29105Y-12514*
Y-12366*
X-28671*
Y-11866*
X-29921*
Y-12366*
X-30036Y-12395*
X-30221*
Y-12626*
X-29575*
Y-12976*
X-29711*
Y-1307*
X-30221*
Y-1309*
X-30338Y-13138*
X-30798Y-12678*
Y-12316*
X-30671*
Y-11066*
X-31346*
X-31395Y-10949*
X-30874Y-10428*
X-29838*
X-29808Y-10555*
G37*
G36*
X-20492Y-19499D02*
D01*
X-20393Y-19565*
X-20276Y-19589*
X-19333*
X-19283Y-19664*
X-19118Y-19774*
X-18922Y-19813*
X-18852Y-19799*
X-18762Y-19889*
X-18774Y-19949*
X-18735Y-20144*
X-18625Y-2031*
X-18459Y-2042*
X-18264Y-20459*
X-182Y-20446*
X-18121Y-20525*
X-18022Y-20591*
X-17905Y-20614*
X-17892Y-20641*
X-16916*
Y-20991*
X-17853*
Y-21156*
X-17803*
Y-21278*
X-1792Y-21326*
X-18946Y-20301*
X-19045Y-20234*
X-19162Y-20211*
X-19162*
X-2121*
X-21255Y-20204*
X-21351Y-20103*
X-21243Y-19996*
X-21165Y-20011*
X-2097Y-19972*
X-20805Y-19862*
X-20694Y-19696*
X-20658Y-19513*
X-20614Y-19486*
X-20535Y-19456*
X-20492Y-19499*
G37*
G36*
X-29233Y-24428D02*
X-29193Y-2442D01*
X-29011Y-24298*
X-2889Y-24117*
X-28875Y-24046*
X-28742Y-24026*
X-28695Y-24096*
X-28442Y-24349*
X-28449Y-24383*
X-2841Y-24579*
X-283Y-24744*
X-28135Y-24854*
X-27939Y-24893*
X-27744Y-24854*
X-27621Y-24772*
X-27494Y-24829*
Y-25281*
X-27471Y-25398*
X-27438Y-25448*
X-27482Y-25586*
X-27519Y-25594*
X-27684Y-25704*
X-2771Y-25742*
X-28082*
X-2815Y-25615*
X-28118Y-25567*
X-28079Y-25372*
X-28118Y-25176*
X-28228Y-25011*
X-28393Y-24901*
X-28589Y-24862*
X-28784Y-24901*
X-28949Y-25011*
X-2906Y-25176*
X-29098Y-25372*
X-29086Y-25436*
X-29291Y-25641*
X-30854*
X-30914Y-25529*
X-30902Y-25512*
X-30894Y-25472*
X-3142*
Y-25122*
X-30864*
X-30797Y-25028*
X-30623*
X-30496Y-25003*
X-30389Y-24931*
X-29824Y-24367*
X-29702*
X-29622Y-2442*
X-29583Y-24428*
Y-23902*
X-29233*
Y-24428*
G37*
G36*
X-21891Y-14906D02*
X-21986Y-1497D01*
X-22108Y-15152*
X-22115Y-15191*
X-21589*
Y-15366*
X-21414*
Y-15892*
X-21375Y-15885*
X-21236Y-15792*
X-21051Y-15977*
X-20977Y-16027*
X-20991Y-16159*
X-21023Y-16165*
X-21188Y-16276*
X-21213Y-16314*
X-21861*
X-22262Y-15912*
X-22286Y-15896*
X-22372Y-15768*
X-22537Y-15657*
X-22732Y-15619*
X-22928Y-15657*
X-23093Y-15768*
X-23203Y-15933*
X-23242Y-16128*
X-23203Y-16324*
X-23093Y-16489*
X-22928Y-16599*
X-22732Y-16638*
X-22537Y-16599*
X-22479Y-1656*
X-22204Y-16836*
X-22104Y-16902*
X-21987Y-16926*
X-21236*
X-21188Y-16997*
X-21023Y-17107*
X-20827Y-17146*
X-20632Y-17107*
X-20467Y-16997*
X-20419Y-16926*
X-19096*
X-19002Y-17019*
X-18903Y-17086*
X-18786Y-17109*
X-18215*
X-18166Y-17226*
X-18416Y-17476*
X-18521Y-17546*
X-18631Y-17711*
X-1867Y-17906*
X-18631Y-18102*
X-18538Y-18241*
X-18584Y-18338*
X-18601Y-18358*
X-18653Y-18348*
X-19086*
X-19086Y-18346*
X-19197Y-18181*
X-19362Y-1807*
X-19557Y-18032*
X-19753Y-1807*
X-19918Y-18181*
X-20028Y-18346*
X-20067Y-18541*
X-20028Y-18737*
X-19953Y-1885*
X-20017Y-18977*
X-20149*
X-20912Y-18214*
X-21012Y-18148*
X-21129Y-18124*
X-2314*
X-23196Y-18041*
X-23361Y-1793*
X-23556Y-17891*
X-23751Y-1793*
X-23917Y-18041*
X-24027Y-18206*
X-24063Y-18383*
X-2419Y-18371*
Y-15708*
X-24063Y-1564*
X-24022Y-15667*
X-23827Y-15706*
X-23631Y-15667*
X-23466Y-15557*
X-23356Y-15391*
X-23317Y-15196*
X-2333Y-15132*
X-23085Y-14888*
X-23059Y-14877*
X-22917Y-1487*
X-22801Y-14948*
X-22605Y-14987*
X-2241Y-14948*
X-22245Y-14838*
X-22206Y-14779*
X-21929*
X-21891Y-14906*
G37*
G36*
X-04683Y-19121D02*
X-047Y-19147D01*
X-04724Y-19264*
Y-19266*
X-04778Y-19303*
X-04889Y-19468*
X-04928Y-19663*
X-04889Y-19858*
X-04778Y-20024*
X-04613Y-20134*
X-04418Y-20173*
X-04223Y-20134*
X-04057Y-20024*
X-03947Y-19858*
X-03908Y-19663*
X-03947Y-19468*
X-04044Y-19323*
X-03854Y-19133*
X-03238*
Y-19252*
X-02388*
X-02366*
X-02239Y-19319*
Y-23752*
X-02214Y-23879*
X-02142Y-23986*
X-01322Y-24806*
Y-26589*
X-01449Y-26628*
X-0154Y-26492*
X-01754Y-26349*
X-02007Y-26299*
X-02259Y-26349*
X-02474Y-26492*
X-02617Y-26706*
X-02667Y-26959*
X-02617Y-27212*
X-02474Y-27426*
X-02259Y-27569*
X-02007Y-27619*
X-01754Y-27569*
X-0154Y-27426*
X-01449Y-2729*
X-01322Y-27329*
Y-27787*
X-01511*
Y-27925*
X-01927*
X-01946Y-27896*
X-02112Y-27785*
X-02307Y-27746*
X-02502Y-27785*
X-02667Y-27896*
X-02778Y-28061*
X-02817Y-28256*
X-0281Y-2829*
X-02814Y-28294*
X-02886Y-28402*
X-02911Y-28529*
Y-28961*
X-02979*
Y-30469*
X-03069Y-30543*
X-03179Y-30495*
Y-28961*
X-03274*
Y-28395*
X-03297Y-28278*
X-03363Y-28179*
X-04005Y-27537*
X-04104Y-27471*
X-04221Y-27448*
X-06404*
X-06521Y-27471*
X-06621Y-27537*
X-06921Y-27838*
X-06954Y-27832*
X-0715Y-2787*
X-07315Y-27981*
X-07395Y-281*
X-07535Y-28103*
X-07537Y-28102*
X-07626Y-27969*
X-07691Y-27925*
Y-27249*
X-04156*
X-0403Y-27223*
X-03922Y-27151*
X-03541Y-26771*
X-0347Y-26663*
X-03444Y-26536*
Y-25862*
X-03379Y-25818*
X-03258Y-25637*
X-0325Y-25597*
X-03776*
Y-25247*
X-0325*
X-03258Y-25207*
X-03379Y-25025*
X-03389Y-24929*
X-02821Y-24361*
X-02754Y-24262*
X-02731Y-24144*
Y-22083*
X-02754Y-21966*
X-02821Y-21867*
X-03465Y-21222*
X-03564Y-21156*
X-03681Y-21133*
X-04183*
X-05492Y-19824*
X-06099*
Y-19474*
X-05553*
X-05095Y-19016*
X-04805*
X-04759Y-19007*
X-04683Y-19121*
G37*
G36*
X-08218Y-00126D02*
X-08283Y-00224D01*
X-08318Y-00399*
Y-01199*
X-08283Y-01375*
X-08184Y-01524*
X-08035Y-01623*
X-07865Y-01657*
Y-02173*
X-08603Y-02911*
X-0872Y-02862*
Y-02001*
Y-02001*
X-08744Y-01884*
X-0881Y-01785*
X-08857Y-01738*
X-08956Y-01672*
X-09073Y-01649*
X-09419*
Y-01479*
X-10569*
Y-02429*
Y-03132*
X-1076Y-03323*
X-10869Y-03252*
Y-02429*
Y-01479*
X-12019*
Y-01649*
X-12817*
X-12934Y-01672*
X-13033Y-01738*
X-13735Y-0244*
X-13801Y-02539*
X-13824Y-02656*
Y-05928*
X-14055Y-06159*
X-1417Y-06148*
X-14226Y-06035*
X-14167Y-05946*
X-14128Y-05751*
X-14167Y-05556*
X-14277Y-0539*
X-14443Y-0528*
X-14443Y-0528*
Y-05049*
X-13959*
Y-03349*
X-15459*
Y-03487*
X-15577Y-03536*
X-16635Y-02478*
X-16646Y-02445*
X-16645Y-02315*
X-16605Y-02255*
X-15859*
X-15859*
X-15742Y-02231*
X-15643Y-02165*
X-15157Y-0168*
X-15009Y-01709*
X-14884*
Y-00974*
X-15519*
Y-01177*
X-15985Y-01643*
X-16605*
X-16665Y-01552*
X-16847Y-01431*
X-16915Y-01417*
X-16964Y-013*
X-16919Y-01234*
X-16873Y-00999*
X-16919Y-00765*
X-17052Y-00567*
X-1725Y-00434*
X-17484Y-00388*
X-17719Y-00434*
X-17917Y-00567*
X-1805Y-00765*
X-18096Y-00999*
X-1805Y-01234*
X-17917Y-01432*
X-17719Y-01565*
X-17608Y-01587*
X-1756Y-01704*
X-1758Y-01734*
X-17588Y-01774*
X-17062*
Y-02124*
X-17588*
X-1758Y-02163*
X-17517Y-02257*
X-17585Y-02384*
X-18275*
X-19501Y-01159*
Y-00399*
X-19536Y-00224*
X-19601Y-00126*
X-19537Y0*
X-15496*
X-15428Y-00126*
X-1548Y-00204*
X-15519Y-00399*
Y-00624*
X-139*
Y-00399*
X-13938Y-00204*
X-13991Y-00126*
X-13923Y0*
X-08282*
X-08218Y-00126*
G37*
G36*
X0Y-39877D02*
X-00018Y-39895D01*
X-00287*
X-00379Y-39811*
Y-39768*
Y-39536*
X-02779*
Y-39768*
Y-39811*
X-02871Y-39895*
X-09287*
X-09379Y-39811*
Y-39768*
Y-39536*
X-11779*
Y-39768*
Y-39811*
X-11871Y-39895*
X-13257*
X-13349Y-39812*
Y-39768*
Y-39537*
X-15749*
Y-39768*
Y-39812*
X-15842Y-39895*
X-22257*
X-22349Y-39812*
Y-39768*
Y-39537*
X-24749*
Y-39768*
Y-39812*
X-24842Y-39895*
X-26226*
X-26318Y-39812*
Y-39768*
Y-39537*
X-28718*
Y-39768*
Y-39812*
X-28811Y-39895*
X-35226*
X-35318Y-39812*
Y-39768*
Y-39537*
X-37718*
Y-39768*
Y-39812*
X-37811Y-39895*
X-37994*
X-38099Y-39852*
Y-24793*
X-36376*
X-36327Y-2491*
X-36792Y-25375*
X-36858Y-25474*
X-36882Y-25591*
Y-26219*
X-36936Y-26256*
X-37047Y-26421*
X-37086Y-26616*
X-37047Y-26811*
X-36936Y-26977*
X-36771Y-27087*
X-36618Y-27117*
X-36565Y-27243*
X-36683Y-27361*
X-36749Y-27461*
X-36772Y-27578*
Y-28145*
X-36749Y-28262*
X-36683Y-28362*
X-36169Y-28875*
X-36107Y-28917*
X-35918Y-29106*
Y-30762*
X-35118*
Y-29165*
X-35003Y-29092*
X-34918Y-29136*
Y-30762*
X-34118*
Y-28962*
X-34128Y-2892*
X-34022Y-28812*
X-34018Y-28813*
X-33803Y-2877*
X-33622Y-28648*
X-33522Y-285*
X-33412Y-28484*
X-33375Y-28491*
X-33311Y-28588*
X-33145Y-28699*
X-3295Y-28738*
X-32755Y-28699*
X-3259Y-28588*
X-32531Y-28501*
X-32397Y-28528*
X-32384Y-28589*
X-32263Y-28771*
X-32237Y-28788*
X-32185Y-28896*
X-32205Y-28962*
X-32226*
X-32918*
Y-30762*
X-32118*
Y-29053*
Y-29009*
X-32073Y-28964*
X-31954Y-28958*
X-31918Y-28977*
Y-29054*
Y-30762*
X-31118*
Y-28962*
X-31527*
X-31566Y-28835*
X-3147Y-28771*
X-31348Y-28589*
X-3134Y-28549*
X-31866*
Y-28199*
X-3134*
X-31348Y-2816*
X-31406Y-28073*
X-31338Y-27946*
X-30627*
X-30614Y-28073*
X-30773Y-28105*
X-30939Y-28215*
X-31049Y-28381*
X-31088Y-28576*
X-31049Y-28771*
X-30939Y-28936*
X-30934Y-28939*
X-30918Y-28962*
Y-30762*
X-30118*
Y-28962*
X-3015Y-28835*
X-30107Y-28771*
X-30068Y-28576*
X-30107Y-28381*
X-30145Y-28324*
X-30046Y-28244*
X-29881Y-28409*
Y-28962*
X-29918*
Y-30762*
X-29371*
X-29327Y-30889*
X-29381Y-30969*
X-29406Y-31096*
Y-32162*
X-29381Y-32289*
X-29309Y-32396*
X-29109Y-32596*
X-29001Y-32668*
X-28875Y-32693*
X-28668*
Y-32762*
X-26368*
Y-31962*
X-28556*
X-28636Y-31835*
X-28624Y-31812*
X-27693*
Y-31362*
Y-30912*
X-28128*
X-28196Y-30785*
X-28181Y-30762*
X-28118*
Y-28962*
X-28244*
Y-28641*
X-28107Y-28614*
X-27942Y-28503*
X-27923Y-28474*
X-27157*
X-26802Y-2883*
Y-29577*
X-26852*
Y-29902*
X-26342*
Y-30252*
X-26852*
Y-30577*
X-26477*
X-2646Y-30665*
X-2638Y-30785*
X-26447Y-30912*
X-27343*
Y-31187*
X-26318*
Y-31013*
X-26191Y-30945*
X-26156Y-30969*
X-26117Y-30976*
Y-3045*
X-25942*
Y-30276*
X-25416*
X-25424Y-30236*
X-25545Y-30054*
X-25727Y-29932*
X-25832Y-29912*
Y-29577*
X-25882*
Y-28707*
X-26017*
X-26077Y-28617*
X-26786Y-27908*
X-26893Y-27836*
X-2702Y-27811*
X-27923*
X-27942Y-27782*
X-28107Y-27672*
X-28302Y-27633*
X-28498Y-27672*
X-28663Y-27782*
X-28773Y-27947*
X-28812Y-28143*
X-28805Y-28177*
X-28809Y-28181*
X-28881Y-28288*
X-28907Y-28415*
Y-28962*
X-28918*
Y-3047*
X-29007Y-30544*
X-29118Y-30497*
Y-28962*
X-29269*
Y-28282*
X-29293Y-28165*
X-29359Y-28066*
X-30001Y-27424*
X-301Y-27358*
X-30217Y-27334*
X-324*
X-32517Y-27358*
X-32616Y-27424*
X-32917Y-27725*
X-3295Y-27718*
X-33145Y-27757*
X-33311Y-27867*
X-3339Y-27987*
X-33531Y-27989*
X-33533Y-27988*
X-33622Y-27855*
X-33803Y-27734*
X-33843Y-27726*
Y-28252*
X-34193*
Y-27726*
X-34233Y-27734*
X-34415Y-27855*
X-34525Y-2802*
X-34572Y-28053*
X-34654Y-28086*
X-34666Y-28078*
X-34861Y-28039*
X-34891Y-28045*
X-34981Y-27955*
X-34962Y-27862*
X-35013Y-27609*
X-35156Y-27395*
X-35331Y-27278*
X-35365Y-27133*
X-34267Y-26034*
X-34224Y-26063*
X-34029Y-26102*
X-33834Y-26063*
X-33668Y-25952*
X-33632Y-25898*
X-33313*
X-32482Y-26729*
X-32383Y-26795*
X-32266Y-26818*
X-28797*
X-28786Y-26816*
X-28768Y-26821*
X-28649Y-26915*
X-28612Y-27098*
X-28469Y-27312*
X-28255Y-27455*
X-28002Y-27506*
X-2775Y-27455*
X-27536Y-27312*
X-27393Y-27098*
X-27342Y-26846*
X-27372Y-26694*
X-27363Y-2667*
X-27271Y-26564*
X-27129Y-26536*
X-26963Y-26425*
X-26853Y-2626*
X-26844Y-26216*
X-26723Y-26179*
X-25569Y-27333*
X-2547Y-27399*
X-25353Y-27422*
X-23764*
X-23727Y-27477*
X-23673Y-27513*
Y-28876*
X-23649Y-28993*
X-23583Y-29092*
X-22949Y-29726*
Y-30762*
X-22149*
Y-28962*
X-22848*
X-23061Y-28749*
Y-28438*
X-22934Y-2837*
X-22822Y-28445*
X-22569Y-28495*
X-22317Y-28445*
X-22102Y-28302*
X-22048Y-2822*
X-21921Y-28259*
Y-28962*
X-21949*
Y-30762*
X-21149*
Y-28962*
X-21309*
Y-28792*
X-21197Y-28732*
X-21179Y-28744*
X-2114Y-28752*
Y-28226*
X-2079*
Y-28752*
X-2075Y-28744*
X-20568Y-28622*
X-20469Y-28474*
X-20358Y-28458*
X-20322Y-28465*
X-20258Y-28562*
X-20092Y-28673*
X-19897Y-28711*
X-19702Y-28673*
X-19537Y-28562*
X-19478Y-28475*
X-19343Y-28502*
X-19331Y-28563*
X-1921Y-28745*
X-19028Y-28866*
X-19026Y-28867*
X-18949Y-28962*
Y-29011*
Y-30762*
X-18149*
Y-28962*
X-18514*
X-18552Y-28835*
X-18417Y-28745*
X-18295Y-28563*
X-18287Y-28523*
X-18813*
Y-28173*
X-18287*
X-18295Y-28133*
X-18353Y-28047*
X-18285Y-2792*
X-17574*
X-17561Y-28047*
X-1772Y-28078*
X-17886Y-28189*
X-17996Y-28354*
X-18035Y-28549*
X-17996Y-28745*
X-17936Y-28835*
X-17949Y-28962*
Y-30762*
X-17149*
Y-28962*
X-17122Y-28846*
X-17054Y-28745*
X-17015Y-28549*
X-17054Y-28354*
X-17092Y-28298*
X-16993Y-28217*
X-16828Y-28382*
Y-28962*
X-16949*
Y-30762*
X-16406*
X-16358Y-30879*
X-16431Y-30952*
X-16503Y-3106*
X-16528Y-31187*
Y-32025*
X-16925Y-32422*
X-16997Y-32529*
X-17022Y-32656*
Y-32883*
X-17051Y-32902*
X-17162Y-33068*
X-172Y-33263*
X-17162Y-33458*
X-17051Y-33623*
X-16886Y-33734*
X-16691Y-33773*
X-16495Y-33734*
X-1633Y-33623*
X-1622Y-33458*
X-16181Y-33263*
X-1622Y-33068*
X-1633Y-32902*
X-16334Y-32768*
X-1619Y-32624*
X-16123Y-32668*
X-15996Y-32693*
X-15699*
Y-32762*
X-13399*
Y-31962*
X-15699*
Y-32031*
X-15859*
X-15865Y-32025*
Y-31839*
X-15749Y-31812*
X-14724*
Y-31362*
Y-30912*
X-15159*
X-15227Y-30785*
X-15212Y-30762*
X-15149*
Y-28962*
X-15191*
Y-28614*
X-15054Y-28587*
X-14889Y-28477*
X-14869Y-28448*
X-14321*
X-14206Y-28477*
Y-28774*
X-14247Y-28782*
X-14429Y-28904*
X-14551Y-29086*
X-14559Y-29125*
X-14033*
Y-293*
X-13858*
Y-29826*
X-13818Y-29818*
X-13636Y-29697*
X-13514Y-29515*
X-13507Y-29477*
X-13186*
Y-29152*
X-13696*
Y-28802*
X-13186*
Y-28477*
X-13236*
Y-27607*
X-14156*
Y-27785*
X-14869*
X-14889Y-27756*
X-15054Y-27645*
X-15249Y-27607*
X-15444Y-27645*
X-1561Y-27756*
X-1572Y-27921*
X-15759Y-28116*
X-15752Y-28151*
X-15756Y-28155*
X-15828Y-28262*
X-15853Y-28389*
Y-28962*
X-15949*
Y-3047*
X-16039Y-30544*
X-16149Y-30497*
Y-28962*
X-16216*
Y-28256*
X-16239Y-28139*
X-16306Y-28039*
X-16947Y-27398*
X-17047Y-27331*
X-17164Y-27308*
X-19347*
X-19464Y-27331*
X-19563Y-27398*
X-19864Y-27698*
X-19897Y-27692*
X-20092Y-27731*
X-20258Y-27841*
X-20337Y-2796*
X-20478Y-27963*
X-2048Y-27962*
X-20568Y-27829*
X-20634Y-27786*
Y-27109*
X-17489*
X-17363Y-27084*
X-17255Y-27012*
X-17183Y-26904*
X-17158Y-26777*
X-17159Y-26771*
X-17158Y-26766*
Y-25848*
X-17093Y-25804*
X-16971Y-25623*
X-16963Y-25583*
X-17489*
Y-25233*
X-16963*
X-16971Y-25193*
X-17093Y-25011*
X-17162Y-24965*
X-17192Y-24792*
X-17177Y-24771*
X-163*
X-16107Y-24964*
X-16007Y-2503*
X-1589Y-25054*
X-15217*
X-14521Y-2575*
X-14422Y-25816*
X-14304Y-25839*
X-12283*
X-12166Y-25816*
X-12067Y-2575*
X-103Y-23983*
X-10058*
X-10045Y-2411*
X-10056Y-24112*
X-10222Y-24222*
X-10332Y-24388*
X-10371Y-24583*
X-10358Y-24647*
X-10641Y-2493*
X-10707Y-25029*
X-1073Y-25146*
Y-28305*
X-10707Y-28422*
X-10641Y-28522*
X-10173Y-28989*
X-10074Y-29055*
X-09979Y-29074*
Y-30761*
X-09179*
Y-29857*
X-09062Y-29819*
X-08979Y-29896*
Y-30761*
X-08179*
Y-29093*
X-08063Y-28998*
X-07991Y-29016*
X-07979Y-29047*
Y-30761*
X-07179*
Y-28961*
X-07695*
X-07733Y-28834*
X-07626Y-28762*
X-07527Y-28614*
X-07416Y-28598*
X-0738Y-28605*
X-07315Y-28702*
X-0715Y-28812*
X-07Y-28842*
X-06979Y-28961*
Y-28976*
Y-30761*
X-06179*
Y-29138*
X-06065Y-29064*
X-05979Y-29109*
Y-30761*
X-05179*
Y-28961*
X-05377*
X-0544Y-28834*
X-05353Y-28702*
X-05345Y-28663*
X-05871*
Y-28313*
X-05345*
X-05353Y-28273*
X-0541Y-28187*
X-05343Y-2806*
X-04631*
X-04619Y-28187*
X-04778Y-28218*
X-04943Y-28329*
X-05054Y-28494*
X-05092Y-28689*
X-05054Y-28884*
X-04979Y-28995*
Y-30761*
X-04179*
Y-28986*
X-04112Y-28884*
X-04073Y-28689*
X-04112Y-28494*
X-04149Y-28438*
X-0405Y-28357*
X-03885Y-28522*
Y-28961*
X-03979*
Y-30761*
X-03432*
X-03388Y-30888*
X-03442Y-30968*
X-03467Y-31095*
Y-3216*
X-03442Y-32287*
X-0337Y-32395*
X-0317Y-32595*
X-03063Y-32667*
X-02936Y-32692*
X-02729*
Y-32761*
X-00429*
Y-31961*
X-02617*
X-02697Y-31834*
X-02686Y-31811*
X-01754*
Y-31361*
Y-30911*
X-02189*
X-02257Y-30784*
X-02242Y-30761*
X-02179*
Y-28961*
X-02248*
Y-28754*
X-02112Y-28727*
X-01946Y-28617*
X-01927Y-28587*
X-0166*
X-01561Y-28657*
Y-28982*
X-00541*
Y-28657*
X-00591*
Y-27787*
X-0066*
Y-24669*
X-00685Y-24542*
X-00757Y-24434*
X-01576Y-23615*
Y-19252*
X-01488*
Y-18402*
X-01576*
Y-17717*
X-01487*
Y-16867*
X-0148Y-16841*
Y-16743*
Y-15991*
X-01576*
Y-1531*
X-01468*
Y-14542*
Y-1446*
X-0148Y-1442*
Y-1357*
X-01576*
Y-12839*
X-01462*
Y-11989*
X-01576*
Y-11246*
X-01412*
Y-10396*
X-01576*
Y-06943*
X-01602Y-06816*
X-01673Y-06709*
X-02004Y-06378*
X-01955Y-06261*
X-0158*
Y-05411*
X-01699*
Y-05049*
X-01259*
Y-03349*
X-02759*
Y-03487*
X-02877Y-03535*
X-03802Y-0261*
X-03766Y-02488*
X-03688Y-02472*
X-03506Y-02351*
X-03384Y-02169*
X-03376Y-02129*
X-03902*
Y-01954*
X-04077*
Y-01428*
X-04117Y-01436*
X-04299Y-01558*
X-0442Y-0174*
X-04436Y-01818*
X-04557Y-01855*
X-0469Y-01722*
X-04648Y-01584*
X-0455Y-01565*
X-04352Y-01432*
X-04219Y-01234*
X-04173Y-00999*
X-04219Y-00765*
X-04352Y-00567*
X-0455Y-00434*
X-04784Y-00388*
X-05019Y-00434*
X-05217Y-00567*
X-0535Y-00765*
X-05369Y-00863*
X-05507Y-00905*
X-05829Y-00583*
X-05928Y-00517*
X-06045Y-00494*
X-06801*
Y-00399*
X-06836Y-00224*
X-06901Y-00126*
X-06837Y0*
X-02796*
X-02728Y-00126*
X-0278Y-00204*
X-02819Y-00399*
Y-00508*
X-02864Y-00517*
X-02964Y-00583*
X-03727Y-01347*
Y-01779*
X-03295*
X-02902Y-01386*
X-0276Y-01425*
X-0267Y-0156*
X-02505Y-0167*
X-02309Y-01709*
X-02184*
Y-00799*
X-02009*
Y-00624*
X-012*
Y-00399*
X-01238Y-00204*
X-01291Y-00126*
X-01223Y0*
X0*
Y-39877*
G37*
G36*
X-20918Y-00126D02*
X-20983Y-00224D01*
X-21018Y-00399*
Y-01199*
X-20983Y-01375*
X-20884Y-01524*
X-20735Y-01623*
X-20559Y-01658*
X-19959*
X-19826Y-01632*
X-18727Y-02731*
X-1874Y-02857*
X-18811Y-02905*
X-18933Y-03087*
X-1894Y-03126*
X-18414*
Y-03301*
X-18239*
Y-03827*
X-182Y-0382*
X-18188Y-03812*
X-18074Y-03888*
X-18096Y-03999*
X-1805Y-04234*
X-17917Y-04432*
X-17719Y-04565*
X-17484Y-04611*
X-1725Y-04565*
X-17052Y-04432*
X-16919Y-04234*
X-16873Y-03999*
X-16919Y-03765*
X-17052Y-03567*
X-1725Y-03434*
X-17484Y-03388*
X-17719Y-03434*
X-17756Y-03459*
X-1787Y-03383*
X-17854Y-03301*
X-17896Y-03087*
X-17914Y-03061*
X-17854Y-02949*
X-16962*
X-15512Y-04399*
X-15459Y-04434*
Y-05049*
X-15008*
Y-05405*
X-15038Y-0545*
X-15151Y-05486*
X-15201*
X-15278*
X-16051*
Y-05605*
X-1692*
X-17037Y-05628*
X-17137Y-05694*
X-17291Y-05849*
X-17367Y-05864*
X-17456Y-05856*
X-1764Y-05733*
X-17893Y-05683*
X-18146Y-05733*
X-1836Y-05876*
X-18478*
X-1853Y-05799*
X-18712Y-05677*
X-18752Y-05669*
Y-06195*
Y-06721*
X-18712Y-06713*
X-18612Y-06647*
X-18447Y-06679*
X-1836Y-0681*
X-18146Y-06953*
X-17893Y-07003*
X-1764Y-06953*
X-17528Y-06878*
X-17401Y-06946*
Y-07772*
X-17528Y-0784*
X-1764Y-07765*
X-17893Y-07715*
X-18146Y-07765*
X-1836Y-07908*
X-18503Y-08122*
X-18553Y-08375*
X-18503Y-08628*
X-1836Y-08842*
X-18146Y-08985*
X-18013Y-09011*
X-17972Y-09149*
X-18056Y-09234*
X-1867*
X-1873Y-09122*
X-18705Y-09085*
X-18667Y-08889*
X-18705Y-08694*
X-18816Y-08529*
X-18981Y-08418*
X-19176Y-0838*
X-19372Y-08418*
X-19442Y-08466*
X-19781Y-08127*
Y-076*
X-19804Y-07483*
X-1987Y-07384*
X-21588Y-05666*
X-21687Y-056*
X-21805Y-05577*
X-22568*
X-2259Y-05468*
X-227Y-05303*
X-22866Y-05192*
X-23061Y-05153*
X-23256Y-05192*
X-23421Y-05303*
X-23532Y-05468*
X-2357Y-05663*
X-23532Y-05858*
X-23504Y-059*
X-23572Y-06027*
X-24007*
X-24046Y-059*
X-24045Y-05899*
X-23935Y-05734*
X-23896Y-05539*
X-23935Y-05344*
X-24045Y-05178*
X-24211Y-05068*
X-24406Y-05029*
X-24601Y-05068*
X-24766Y-05178*
X-24877Y-05344*
X-24916Y-05539*
X-2498Y-05618*
X-29197*
X-29314Y-05641*
X-29413Y-05707*
X-30007Y-06302*
X-30125Y-06253*
Y-04824*
X-30143Y-04732*
X-30139Y-04682*
X-3007Y-04588*
X-2995Y-04565*
X-29752Y-04432*
X-29619Y-04234*
X-29594Y-04106*
X-29456Y-04064*
X-29104Y-04416*
X-29005Y-04482*
X-28888Y-04505*
X-28159*
Y-05049*
X-28005*
X-27989Y-05131*
X-27878Y-05296*
X-27713Y-05407*
X-27518Y-05446*
X-27323Y-05407*
X-27157Y-05296*
X-27047Y-05131*
X-27031Y-05049*
X-26659*
Y-03349*
X-28159*
Y-03894*
X-28761*
X-32072Y-00583*
X-32171Y-00517*
X-32201Y-00511*
Y-00399*
X-32236Y-00224*
X-32301Y-00126*
X-32237Y0*
X-28196*
X-28128Y-00126*
X-2818Y-00204*
X-28219Y-00399*
Y-00624*
X-26585*
X-26594Y-0061*
X-266Y-00607*
Y-00399*
X-26638Y-00204*
X-26691Y-00126*
X-26623Y0*
X-20982*
X-20918Y-00126*
G37*
%LNdatapcb-2*%
%LPC*%
G36*
X-09429Y-33961D02*
X-11729D01*
Y-34761*
X-09429*
Y-33961*
G37*
G36*
X-13399Y-33962D02*
X-15699D01*
Y-34762*
X-13399*
Y-33962*
G37*
G36*
X-00429Y-33961D02*
X-02729D01*
Y-34761*
X-00429*
Y-33961*
G37*
G36*
X-05297Y-34061D02*
Y-34412D01*
X-04946*
X-04954Y-34372*
X-05076Y-3419*
X-05258Y-34069*
X-05297Y-34061*
G37*
G36*
X-05647D02*
X-05687Y-34069D01*
X-05869Y-3419*
X-0599Y-34372*
X-05998Y-34412*
X-05647*
Y-34061*
G37*
G36*
X-26368Y-33962D02*
X-28668D01*
Y-34762*
X-26368*
Y-33962*
G37*
G36*
X-04946Y-34762D02*
X-05297D01*
Y-35113*
X-05258Y-35105*
X-05076Y-34983*
X-04954Y-34801*
X-04946Y-34762*
G37*
G36*
X-05647D02*
X-05998D01*
X-0599Y-34801*
X-05869Y-34983*
X-05687Y-35105*
X-05647Y-35113*
Y-34762*
G37*
G36*
X-35368Y-33962D02*
X-37668D01*
Y-34762*
X-35368*
Y-33962*
G37*
G36*
X-22399D02*
X-24699D01*
Y-34762*
X-22399*
Y-33962*
G37*
G36*
X-36693Y-38912D02*
X-37718D01*
Y-39187*
X-36693*
Y-38912*
G37*
G36*
X-07416Y-3239D02*
X-07767D01*
X-07759Y-3243*
X-07637Y-32612*
X-07455Y-32733*
X-07416Y-32741*
Y-3239*
G37*
G36*
X-09429Y-31961D02*
X-11729D01*
Y-32761*
X-09429*
Y-31961*
G37*
G36*
X-22399Y-31962D02*
X-24699D01*
Y-32762*
X-22399*
Y-31962*
G37*
G36*
X-06715Y-3239D02*
X-07066D01*
Y-32741*
X-07026Y-32733*
X-06844Y-32612*
X-06723Y-3243*
X-06715Y-3239*
G37*
G36*
X-20266Y-31557D02*
X-20617D01*
X-20609Y-31596*
X-20488Y-31778*
X-20306Y-319*
X-20266Y-31908*
Y-31557*
G37*
G36*
X-07066Y-31689D02*
Y-3204D01*
X-06715*
X-06723Y-32001*
X-06844Y-31819*
X-07026Y-31697*
X-07066Y-31689*
G37*
G36*
X-07416D02*
X-07455Y-31697D01*
X-07637Y-31819*
X-07759Y-32001*
X-07767Y-3204*
X-07416*
Y-31689*
G37*
G36*
X-26368Y-32962D02*
X-28668D01*
Y-33762*
X-26368*
Y-32962*
G37*
G36*
X-22399D02*
X-24699D01*
Y-33762*
X-22399*
Y-32962*
G37*
G36*
X-35368D02*
X-37668D01*
Y-33762*
X-35368*
Y-32962*
G37*
G36*
X-13399D02*
X-15699D01*
Y-33762*
X-13399*
Y-32962*
G37*
G36*
X-35368Y-31962D02*
X-37668D01*
Y-32762*
X-35368*
Y-31962*
G37*
G36*
X-00429Y-32961D02*
X-02729D01*
Y-33761*
X-00429*
Y-32961*
G37*
G36*
X-09429Y-32961D02*
X-11729D01*
Y-33761*
X-09429*
Y-32961*
G37*
G36*
Y-34961D02*
X-11729D01*
Y-35761*
X-09429*
Y-34961*
G37*
G36*
X-22349Y-38912D02*
X-23374D01*
Y-39187*
X-22349*
Y-38912*
G37*
G36*
X-13349Y-38537D02*
X-15749D01*
Y-38785*
Y-38812*
Y-38912*
Y-38939*
Y-39187*
X-13349*
Y-38939*
Y-38912*
Y-38812*
Y-38785*
Y-38537*
G37*
G36*
X-09429Y-36961D02*
X-11729D01*
Y-37722*
Y-37723*
Y-37737*
X-1182Y-37849*
X-11835Y-37846*
X-1203Y-37885*
X-12195Y-37995*
X-12306Y-38161*
X-12345Y-38356*
X-12306Y-38551*
X-12195Y-38716*
X-1203Y-38827*
X-11884Y-38856*
X-11825Y-38887*
X-11779Y-38984*
Y-39186*
X-10754*
Y-38911*
X-11404*
X-11467Y-38784*
X-1145Y-38761*
X-09429*
Y-37961*
X-11526*
X-11635Y-37888*
X-11637Y-37878*
X-11615Y-37768*
X-11614Y-37761*
X-11612*
X-09429*
Y-36961*
G37*
G36*
X-00379Y-36536D02*
X-02779D01*
Y-36784*
Y-36811*
Y-36911*
Y-36938*
Y-37186*
X-00379*
Y-36938*
Y-36911*
Y-36811*
Y-36784*
Y-36536*
G37*
G36*
X-13349Y-36537D02*
X-15749D01*
Y-36785*
Y-36812*
Y-36912*
Y-36939*
Y-37187*
X-13349*
Y-36939*
Y-36912*
Y-36812*
Y-36785*
Y-36537*
G37*
G36*
X-26318D02*
X-28718D01*
Y-36785*
Y-36812*
Y-36912*
Y-36939*
Y-37187*
X-26318*
Y-36939*
Y-36912*
Y-36812*
Y-36785*
Y-36537*
G37*
G36*
X-35368Y-36962D02*
X-37668D01*
Y-37762*
X-35368*
Y-36962*
G37*
G36*
X-26318Y-37537D02*
X-28718D01*
Y-37785*
Y-37812*
Y-37912*
Y-37939*
Y-38187*
X-26318*
Y-37939*
Y-37912*
Y-37812*
Y-37785*
Y-37537*
G37*
G36*
X-00379Y-38536D02*
X-02779D01*
Y-38784*
Y-38811*
Y-38911*
Y-38938*
Y-39186*
X-00379*
Y-38938*
Y-38911*
Y-38811*
Y-38784*
Y-38536*
G37*
G36*
X-09379Y-38911D02*
X-10404D01*
Y-39186*
X-09379*
Y-38911*
G37*
G36*
X-33429Y-33098D02*
X-33624Y-33136D01*
X-33789Y-33247*
X-339Y-33412*
X-33939Y-33607*
X-339Y-33802*
X-33789Y-33968*
X-33735Y-34004*
Y-36986*
X-34805Y-38056*
X-35368*
Y-37962*
X-37668*
Y-38762*
X-35368*
Y-38668*
X-34679*
X-34562Y-38645*
X-34462Y-38578*
X-33213Y-37328*
X-33146Y-37229*
X-33123Y-37112*
Y-34004*
X-33068Y-33968*
X-32958Y-33802*
X-32919Y-33607*
X-32958Y-33412*
X-33068Y-33247*
X-33234Y-33136*
X-33429Y-33098*
G37*
G36*
X-00379Y-37536D02*
X-02779D01*
Y-37784*
Y-37811*
Y-37911*
Y-37938*
Y-38186*
X-00379*
Y-37938*
Y-37911*
Y-37811*
Y-37784*
Y-37536*
G37*
G36*
X-13349Y-37537D02*
X-15749D01*
Y-37785*
Y-37812*
Y-37912*
Y-37939*
Y-38187*
X-13349*
Y-37939*
Y-37912*
Y-37812*
Y-37785*
Y-37537*
G37*
G36*
X-35368Y-35962D02*
X-37668D01*
Y-36762*
X-35368*
Y-35962*
G37*
G36*
X-01754Y-35911D02*
X-02779D01*
Y-36186*
X-01754*
Y-35911*
G37*
G36*
X-35318Y-38912D02*
X-36343D01*
Y-39187*
X-35318*
Y-38912*
G37*
G36*
X-26318Y-38537D02*
X-28718D01*
Y-38785*
Y-38812*
Y-38912*
Y-38939*
Y-39187*
X-26318*
Y-38939*
Y-38912*
Y-38812*
Y-38785*
Y-38537*
G37*
G36*
X-22399Y-34962D02*
X-24699D01*
Y-35762*
X-22399*
Y-34962*
G37*
G36*
X-35368D02*
X-37668D01*
Y-35762*
X-35368*
Y-34962*
G37*
G36*
X-00379Y-35911D02*
X-01404D01*
Y-36186*
X-00379*
Y-35911*
G37*
G36*
X-22399Y-36962D02*
X-24699D01*
Y-37733*
Y-37762*
X-24748Y-37869*
X-24879Y-37895*
X-25044Y-38005*
X-25155Y-38171*
X-25193Y-38366*
X-25155Y-38561*
X-25044Y-38726*
X-24879Y-38837*
X-24848Y-38843*
X-24749Y-38912*
Y-38992*
Y-39187*
X-23724*
Y-38912*
X-24239*
X-24302Y-38785*
X-24285Y-38762*
X-22399*
Y-37962*
X-24388*
X-24489Y-37895*
X-24518Y-37889*
X-24506Y-37762*
X-22399*
Y-36962*
G37*
G36*
X-27693Y-35912D02*
X-28718D01*
Y-36187*
X-27693*
Y-35912*
G37*
G36*
X-09429Y-35961D02*
X-11729D01*
Y-36761*
X-09429*
Y-35961*
G37*
G36*
X-22399Y-35962D02*
X-24699D01*
Y-36762*
X-22399*
Y-35962*
G37*
G36*
X-13349Y-35912D02*
X-14374D01*
Y-36187*
X-13349*
Y-35912*
G37*
G36*
X-14724D02*
X-15749D01*
Y-36187*
X-14724*
Y-35912*
G37*
G36*
X-26318D02*
X-27343D01*
Y-36187*
X-26318*
Y-35912*
G37*
G36*
X-19565Y-31557D02*
X-19916D01*
Y-31908*
X-19877Y-319*
X-19695Y-31778*
X-19573Y-31596*
X-19565Y-31557*
G37*
G36*
X-19102Y-0637D02*
X-19453D01*
X-19445Y-0641*
X-19323Y-06592*
X-19141Y-06713*
X-19102Y-06721*
Y-0637*
G37*
G36*
X-06738Y-057D02*
X-06909Y-05722D01*
X-0707Y-05789*
X-07207Y-05894*
X-07312Y-06032*
X-07379Y-06192*
X-07401Y-06364*
X-07379Y-06535*
X-07312Y-06695*
X-07207Y-06833*
X-0707Y-06938*
X-06909Y-07005*
X-06738Y-07027*
X-06566Y-07005*
X-06406Y-06938*
X-06268Y-06833*
X-06163Y-06695*
X-06097Y-06535*
X-06074Y-06364*
X-06097Y-06192*
X-06163Y-06032*
X-06268Y-05894*
X-06406Y-05789*
X-06566Y-05722*
X-06738Y-057*
G37*
G36*
X-25513Y-06699D02*
X-25766Y-06749D01*
X-2598Y-06892*
X-26123Y-07106*
X-26173Y-07359*
X-26123Y-07612*
X-2598Y-07826*
X-25766Y-07969*
X-25513Y-08019*
X-2526Y-07969*
X-25046Y-07826*
X-24903Y-07612*
X-24853Y-07359*
X-24903Y-07106*
X-25046Y-06892*
X-2526Y-06749*
X-25513Y-06699*
G37*
G36*
X-04784Y-03388D02*
X-05019Y-03434D01*
X-05217Y-03567*
X-0535Y-03765*
X-05396Y-03999*
X-0535Y-04234*
X-05217Y-04432*
X-05019Y-04565*
X-04784Y-04611*
X-0455Y-04565*
X-04352Y-04432*
X-04219Y-04234*
X-04173Y-03999*
X-04219Y-03765*
X-04352Y-03567*
X-0455Y-03434*
X-04784Y-03388*
G37*
G36*
X-21191Y-05112D02*
X-21542D01*
X-21534Y-05152*
X-21412Y-05334*
X-2123Y-05455*
X-21191Y-05463*
Y-05112*
G37*
G36*
X-31627Y-06193D02*
X-32127D01*
Y-06643*
X-31627*
Y-06193*
G37*
G36*
X-037Y-07862D02*
Y-08213D01*
X-03349*
X-03357Y-08173*
X-03478Y-07991*
X-0366Y-0787*
X-037Y-07862*
G37*
G36*
X-26125Y-08854D02*
X-2646D01*
Y-09179*
X-26125*
Y-08854*
G37*
G36*
X-21764Y-15541D02*
X-22115D01*
X-22108Y-15581*
X-21986Y-15763*
X-21804Y-15885*
X-21764Y-15892*
Y-15541*
G37*
G36*
X-23215Y-16666D02*
Y-17017D01*
X-22864*
X-22872Y-16977*
X-22993Y-16795*
X-23175Y-16674*
X-23215Y-16666*
G37*
G36*
X-0405Y-07862D02*
X-04089Y-0787D01*
X-04271Y-07991*
X-04393Y-08173*
X-04401Y-08213*
X-0405*
Y-07862*
G37*
G36*
X-03349Y-08563D02*
X-037D01*
Y-08914*
X-0366Y-08906*
X-03478Y-08784*
X-03357Y-08602*
X-03349Y-08563*
G37*
G36*
X-0405D02*
X-04401D01*
X-04393Y-08602*
X-04271Y-08784*
X-04089Y-08906*
X-0405Y-08914*
Y-08563*
G37*
G36*
X-139Y-00974D02*
X-14534D01*
Y-01709*
X-14409*
X-14214Y-0167*
X-14049Y-0156*
X-13938Y-01395*
X-139Y-01199*
Y-00974*
G37*
G36*
X-26991D02*
X-27234D01*
Y-01709*
X-27166*
Y-01007*
X-26991*
Y-00974*
G37*
G36*
X-27584D02*
X-28219D01*
Y-01199*
X-2818Y-01395*
X-2807Y-0156*
X-27905Y-0167*
X-27709Y-01709*
X-27584*
Y-00974*
G37*
G36*
X-26465Y-01182D02*
X-26816D01*
Y-01605*
X-26749Y-0156*
X-26685Y-01464*
X-26594Y-01403*
X-26473Y-01221*
X-26465Y-01182*
G37*
G36*
X-30184Y-00388D02*
X-30419Y-00434D01*
X-30617Y-00567*
X-3075Y-00765*
X-30796Y-00999*
X-3075Y-01234*
X-30617Y-01432*
X-30419Y-01565*
X-30184Y-01611*
X-2995Y-01565*
X-29752Y-01432*
X-29619Y-01234*
X-29573Y-00999*
X-29619Y-00765*
X-29752Y-00567*
X-2995Y-00434*
X-30184Y-00388*
G37*
G36*
X-012Y-00974D02*
X-01834D01*
Y-01709*
X-01709*
X-01514Y-0167*
X-01349Y-0156*
X-01238Y-01395*
X-012Y-01199*
Y-00974*
G37*
G36*
X-05439Y-02376D02*
Y-02727D01*
X-05088*
X-05096Y-02687*
X-05218Y-02506*
X-054Y-02384*
X-05439Y-02376*
G37*
G36*
X-05789Y-03077D02*
X-06222D01*
X-06682Y-03537*
X-06845Y-0352*
X-06899Y-03439*
X-07064Y-03328*
X-07259Y-0329*
X-07384*
Y-04199*
Y-05109*
X-07259*
X-07064Y-0507*
X-06899Y-0496*
X-06788Y-04795*
X-0675Y-04599*
Y-04452*
X-06696Y-04416*
X-05789Y-0351*
Y-03077*
G37*
G36*
X-20434Y-0329D02*
X-20559D01*
X-20755Y-03328*
X-2092Y-03439*
X-2103Y-03604*
X-21069Y-03799*
Y-04024*
X-20434*
Y-0329*
G37*
G36*
X-19959D02*
X-20084D01*
Y-04199*
X-20259*
Y-04374*
X-21069*
Y-04387*
X-2123Y-04419*
X-21412Y-04541*
X-21534Y-04722*
X-21542Y-04762*
X-21016*
Y-04937*
X-20841*
Y-05463*
X-20801Y-05455*
X-20619Y-05334*
X-20532Y-05202*
X-20395Y-05175*
X-20375Y-05179*
X-19534Y-0602*
X-19102*
Y-05588*
X-19611Y-05079*
X-19599Y-0496*
X-19488Y-04795*
X-1945Y-04599*
Y-04505*
X-19277*
X-1916Y-04482*
X-1906Y-04416*
X-18589Y-03945*
Y-03476*
X-18986*
X-19323Y-03813*
X-19372Y-03808*
X-19456Y-03767*
X-19488Y-03604*
X-19599Y-03439*
X-19764Y-03328*
X-19959Y-0329*
G37*
G36*
X-05789Y-02376D02*
X-05829Y-02384D01*
X-06011Y-02506*
X-06133Y-02687*
X-0614Y-02727*
X-05789*
Y-02376*
G37*
G36*
X-3637Y-01807D02*
X-36542Y-01829D01*
X-36702Y-01895*
X-3684Y-02001*
X-36945Y-02138*
X-37011Y-02298*
X-37034Y-0247*
X-37011Y-02642*
X-36945Y-02802*
X-3684Y-0294*
X-36702Y-03045*
X-36542Y-03111*
X-3637Y-03134*
X-36199Y-03111*
X-36038Y-03045*
X-35901Y-0294*
X-35796Y-02802*
X-35729Y-02642*
X-35707Y-0247*
X-35729Y-02298*
X-35796Y-02138*
X-35901Y-02001*
X-36038Y-01895*
X-36199Y-01829*
X-3637Y-01807*
G37*
G36*
X-05088Y-03077D02*
X-05439D01*
Y-03428*
X-054Y-0342*
X-05218Y-03299*
X-05096Y-03117*
X-05088Y-03077*
G37*
G36*
X-23565Y-16666D02*
X-23604Y-16674D01*
X-23786Y-16795*
X-23908Y-16977*
X-23916Y-17017*
X-23565*
Y-16666*
G37*
G36*
X-36693Y-30912D02*
X-37718D01*
Y-31187*
X-36693*
Y-30912*
G37*
G36*
X-00379Y-31536D02*
X-01404D01*
Y-31811*
X-00379*
Y-31536*
G37*
G36*
X-09379D02*
X-10404D01*
Y-31811*
X-09379*
Y-31536*
G37*
G36*
X-22349Y-30912D02*
X-23374D01*
Y-31187*
X-22349*
Y-30912*
G37*
G36*
X-23724D02*
X-24749D01*
Y-31187*
X-23724*
Y-30912*
G37*
G36*
X-35318D02*
X-36343D01*
Y-31187*
X-35318*
Y-30912*
G37*
G36*
X-10754Y-31536D02*
X-11779D01*
Y-31811*
X-10754*
Y-31536*
G37*
G36*
X-26318Y-31537D02*
X-27343D01*
Y-31812*
X-26318*
Y-31537*
G37*
G36*
X-35318D02*
X-36343D01*
Y-31812*
X-35318*
Y-31537*
G37*
G36*
X-36693D02*
X-37718D01*
Y-31812*
X-36693*
Y-31537*
G37*
G36*
X-13349D02*
X-14374D01*
Y-31812*
X-13349*
Y-31537*
G37*
G36*
X-22349D02*
X-23374D01*
Y-31812*
X-22349*
Y-31537*
G37*
G36*
X-23724D02*
X-24749D01*
Y-31812*
X-23724*
Y-31537*
G37*
G36*
X-00541Y-29332D02*
X-00876D01*
Y-29657*
X-00541*
Y-29332*
G37*
G36*
X-01226D02*
X-01561D01*
Y-29657*
X-01226*
Y-29332*
G37*
G36*
X-14208Y-29475D02*
X-14559D01*
X-14551Y-29515*
X-14429Y-29697*
X-14247Y-29818*
X-14208Y-29826*
Y-29475*
G37*
G36*
X-22864Y-17367D02*
X-23215D01*
Y-17718*
X-23175Y-1771*
X-22993Y-17588*
X-22872Y-17406*
X-22864Y-17367*
G37*
G36*
X-23565D02*
X-23916D01*
X-23908Y-17406*
X-23786Y-17588*
X-23604Y-1771*
X-23565Y-17718*
Y-17367*
G37*
G36*
X-14949Y-26159D02*
X-15202Y-26209D01*
X-15416Y-26352*
X-15559Y-26567*
X-1561Y-26819*
X-15559Y-27072*
X-15416Y-27286*
X-15202Y-27429*
X-14949Y-27479*
X-14697Y-27429*
X-14482Y-27286*
X-14339Y-27072*
X-14289Y-26819*
X-14339Y-26567*
X-14482Y-26352*
X-14697Y-26209*
X-14949Y-26159*
G37*
G36*
X-19149Y-28962D02*
X-19949D01*
Y-3065*
X-20064Y-30749*
X-20134Y-30735*
X-20149Y-30703*
Y-28962*
X-20949*
Y-30762*
X-20382*
X-20344Y-30889*
X-20488Y-30985*
X-20609Y-31167*
X-20617Y-31207*
X-19565*
X-19573Y-31167*
X-19695Y-30985*
X-19839Y-30889*
X-198Y-30762*
X-19149*
Y-28962*
G37*
G36*
X-09379Y-30911D02*
X-10404D01*
Y-31186*
X-09379*
Y-30911*
G37*
G36*
X-10754D02*
X-11779D01*
Y-31186*
X-10754*
Y-30911*
G37*
G36*
X-13349Y-30912D02*
X-14374D01*
Y-31187*
X-13349*
Y-30912*
G37*
G36*
X-33118Y-28962D02*
X-33918D01*
Y-30762*
X-33118*
Y-28962*
G37*
G36*
X-25416Y-30626D02*
X-25767D01*
Y-30976*
X-25727Y-30969*
X-25545Y-30847*
X-25424Y-30665*
X-25416Y-30626*
G37*
G36*
X-00379Y-30911D02*
X-01404D01*
Y-31186*
X-00379*
Y-30911*
G37*
%LNdatapcb-3*%
%LPD*%
G54D10*
X-10579Y-33361D03*
Y-34361D03*
Y-35361D03*
Y-36361D03*
Y-37361D03*
Y-38361D03*
Y-39361D03*
Y-32361D03*
Y-31361D03*
X-01579D03*
Y-32361D03*
Y-33361D03*
Y-34361D03*
Y-37361D03*
Y-36361D03*
Y-38361D03*
Y-39361D03*
X-23549Y-33362D03*
Y-34362D03*
Y-35362D03*
Y-36362D03*
Y-37362D03*
Y-38362D03*
Y-39362D03*
Y-32362D03*
Y-31362D03*
X-14549D03*
Y-32362D03*
Y-33362D03*
Y-34362D03*
Y-37362D03*
Y-36362D03*
Y-38362D03*
Y-39362D03*
X-36518Y-33362D03*
Y-34362D03*
Y-35362D03*
Y-36362D03*
Y-37362D03*
Y-38362D03*
Y-39362D03*
Y-32362D03*
Y-31362D03*
X-27518D03*
Y-32362D03*
Y-33362D03*
Y-34362D03*
Y-37362D03*
Y-36362D03*
Y-38362D03*
Y-39362D03*
G54D11*
X-08579Y-29861D03*
X-07579D03*
X-05579D03*
X-06579D03*
X-03579D03*
X-02579D03*
X-04579D03*
X-09579D03*
X-21549Y-29862D03*
X-20549D03*
X-18549D03*
X-19549D03*
X-16549D03*
X-15549D03*
X-17549D03*
X-22549D03*
X-34518D03*
X-33518D03*
X-31518D03*
X-32518D03*
X-29518D03*
X-28518D03*
X-30518D03*
X-35518D03*
G54D12*
X-25787Y-16938D03*
X-3637Y-0247D03*
X-06738Y-06364D03*
G54D13*
X-36027Y-24093D03*
G54D14*
X-36027Y-22823D03*
Y-21553D03*
Y-19013D03*
Y-20283D03*
Y-15203D03*
Y-13933D03*
Y-16473D03*
Y-17743D03*
Y-11393D03*
Y-12663D03*
Y-10123D03*
G54D15*
X-01051Y-29157D03*
Y-28237D03*
X-26342Y-30077D03*
Y-29157D03*
X-13696Y-28977D03*
Y-28057D03*
X-2595Y-09354D03*
Y-10274D03*
X-21531Y-0927D03*
Y-1019D03*
X-29711Y-12895D03*
Y-13815D03*
X-2483Y-09367D03*
Y-10287D03*
X-05941Y-1662D03*
Y-157D03*
X-30046Y-21903D03*
Y-20983D03*
X-3003Y-22947D03*
Y-23867D03*
G54D16*
X-30975Y-17342D03*
X-30055D03*
X-14322Y-19011D03*
X-15242D03*
X-14609Y-17053D03*
X-15529D03*
X-19423Y-25016D03*
X-20343D03*
X-13647Y-12971D03*
X-14567D03*
X-13564Y-11878D03*
X-12644D03*
G54D17*
X-02737Y-10821D03*
X-01837D03*
X-02787Y-12414D03*
X-01887D03*
X-02805Y-13995D03*
X-01905D03*
X-02793Y-14885D03*
X-01893D03*
X-02805Y-16416D03*
X-01905D03*
X-02812Y-17292D03*
X-01912D03*
X-02813Y-18827D03*
X-01913D03*
X-14726Y-05911D03*
X-15626D03*
X-02005Y-05836D03*
X-02905D03*
X-12671Y-1092D03*
X-13571D03*
G54D18*
X-1877Y-11952D03*
X-19278D03*
X-19786D03*
X-20269D03*
X-20777D03*
X-21285D03*
X-21767D03*
X-22275D03*
X-22783D03*
X-23291D03*
X-23774D03*
X-24282D03*
X-2479D03*
X-25273D03*
X-25781D03*
X-26289D03*
Y-23179D03*
X-25781D03*
X-25273D03*
X-2479D03*
X-24282D03*
X-23774D03*
X-23291D03*
X-22783D03*
X-22275D03*
X-21767D03*
X-21285D03*
X-20777D03*
X-20269D03*
X-19786D03*
X-19278D03*
X-1877D03*
G54D19*
X-28143Y-13806D03*
Y-14314D03*
Y-14822D03*
Y-15305D03*
Y-15813D03*
Y-16321D03*
Y-16803D03*
Y-17311D03*
Y-17819D03*
Y-18327D03*
Y-1881D03*
Y-19318D03*
Y-19826D03*
Y-20308D03*
Y-20816D03*
Y-21324D03*
X-16916D03*
Y-20816D03*
Y-20308D03*
Y-19826D03*
Y-19318D03*
Y-1881D03*
Y-18327D03*
Y-17819D03*
Y-17311D03*
Y-16803D03*
Y-16321D03*
Y-15813D03*
Y-15305D03*
Y-14822D03*
Y-14314D03*
Y-13806D03*
G54D20*
X-11088Y-06574D03*
Y-04624D03*
X-09666Y-06574D03*
Y-04624D03*
X-12509Y-06574D03*
Y-04624D03*
X-31452Y-07968D03*
Y-06018D03*
X-03996Y-15951D03*
Y-17901D03*
X-15004Y-14112D03*
Y-16062D03*
X-1363Y-15332D03*
Y-17282D03*
X-14684Y-11936D03*
Y-09986D03*
G54D21*
X-36932Y-08761D03*
X-34982D03*
X-31246Y-11691D03*
X-29296D03*
G54D22*
X-31533Y-23872D03*
Y-21272D03*
G54D23*
X-34335Y-0201D03*
Y-0291D03*
G54D24*
X-37007Y-05405D03*
Y-06055D03*
Y-06705D03*
Y-07355D03*
X-34257D03*
Y-06705D03*
Y-06055D03*
Y-05405D03*
G54D25*
X-35632Y-0638D03*
G54D26*
X-27409Y-04199D03*
X-14709D03*
X-02009D03*
G54D27*
X-32959Y-04199D03*
X-27409Y-00799D03*
X-32959D03*
X-20259Y-04199D03*
X-14709Y-00799D03*
X-20259D03*
X-07559Y-04199D03*
X-02009Y-00799D03*
X-07559D03*
G54D28*
X-09994Y-02804D03*
X-11444Y-01954D03*
X-09994D03*
X-11444Y-02804D03*
G54D29*
X-23146Y-07738D03*
Y-09653D03*
G54D30*
X-10358Y-1393D03*
Y-16147D03*
X-11971Y-1393D03*
Y-16147D03*
G54D31*
X-18751Y-23861D02*
X-16141D01*
X-1877Y-23842D02*
X-18751Y-23861D01*
X-1877Y-23842D02*
Y-23179D01*
X-18938Y-24311D02*
X-16327D01*
X-18097Y-2478D02*
X-17489Y-25388D01*
X-18636Y-2478D02*
X-18097D01*
X-18872Y-25016D02*
X-18636Y-2478D01*
X-19278Y-23971D02*
X-18938Y-24311D01*
X-16141Y-23861D02*
X-15704Y-24298D01*
X-16327Y-24311D02*
X-1589Y-24748D01*
X-17489Y-25408D02*
Y-25388D01*
X-19423Y-25016D02*
X-18872D01*
X-34679Y-38362D02*
X-33429Y-37112D01*
Y-33607*
X-36518Y-38362D02*
X-34679D01*
X-36576Y-26616D02*
Y-25591D01*
X-35955Y-2497*
X-34695*
X-34861Y-28549D02*
X-34518Y-28892D01*
Y-29862D02*
Y-28892D01*
X-36467Y-27578D02*
X-35953Y-27064D01*
X-36467Y-28145D02*
Y-27578D01*
Y-28145D02*
X-35953Y-28659D01*
X-35729Y-27064D02*
X-34257Y-25592D01*
X-35953Y-27064D02*
X-35729D01*
X-2524Y-25496D02*
Y-24452D01*
X-27189Y-25281D02*
Y-21821D01*
X-26739Y-25094D02*
Y-2207D01*
X-29247Y-21457D02*
Y-20885D01*
X-29693Y-21903D02*
X-29247Y-21457D01*
X-30046Y-21903D02*
X-29693D01*
X-26739Y-25094D02*
X-25373Y-26459D01*
X-29164Y-25947D02*
X-28589Y-25372D01*
X-3169Y-25947D02*
X-29164D01*
X-32186Y-25451D02*
X-3169Y-25947D01*
X-32408Y-25451D02*
X-32186D01*
X-26036Y-24852D02*
Y-24463D01*
X-27189Y-25281D02*
X-25353Y-27116D01*
X-2736Y-26101D02*
X-27324Y-26065D01*
X-25273Y-2442D02*
Y-23179D01*
Y-2442D02*
X-2524Y-24452D01*
X-2479Y-24279D02*
X-2411Y-24958D01*
X-28797Y-26512D02*
X-28333Y-26048D01*
X-32266Y-26512D02*
X-28797D01*
X-33186Y-25592D02*
X-32266Y-26512D01*
X-27619Y-26101D02*
X-2736D01*
X-27672Y-26048D02*
X-27619Y-26101D01*
X-28333Y-26048D02*
X-27672D01*
X-34029Y-25592D02*
X-33186D01*
X-35932Y-28659D02*
X-35575Y-29016D01*
X-35953Y-28659D02*
X-35932D01*
X-35575Y-29747D02*
Y-29016D01*
X-32917Y-24942D02*
X-32408Y-25451D01*
X-34667Y-24942D02*
X-32917D01*
X-34695Y-2497D02*
X-34667Y-24942D01*
X-34257Y-25592D02*
X-34029D01*
X-25373Y-26459D02*
X-23041D01*
X-25353Y-27116D02*
X-23367D01*
X-27189Y-21821D02*
X-26623Y-21256D01*
X-26739Y-2207D02*
X-24873Y-20204D01*
X-23367Y-28876D02*
X-22522Y-29721D01*
X-22232Y-26594D02*
X-21615D01*
X-22239Y-26601D02*
X-22232Y-26594D01*
X-229Y-26601D02*
X-22239D01*
X-23041Y-26459D02*
X-229Y-26601D01*
X-23367Y-28876D02*
Y-27116D01*
X-26036Y-24463D02*
X-25781Y-24207D01*
X-2479Y-24279D02*
Y-23179D01*
X-2157Y-24958D02*
X-21285Y-24672D01*
X-21615Y-29797D02*
Y-26594D01*
X-1876Y-25823D02*
X-18366Y-2543D01*
X-20844Y-25823D02*
X-1876D01*
X-21615Y-26594D02*
X-20844Y-25823D01*
X-21615Y-29797D02*
X-21549Y-29862D01*
X-29575Y-29747D02*
Y-28282D01*
X-30578Y-29744D02*
Y-28576D01*
Y-29744D02*
X-30575Y-29747D01*
X-324Y-2764D02*
X-30217D01*
X-29575Y-28282*
X-3295Y-2819D02*
X-324Y-2764D01*
X-3295Y-28228D02*
Y-2819D01*
X-16522Y-29721D02*
Y-28256D01*
X-17525Y-29718D02*
Y-28549D01*
Y-29718D02*
X-17522Y-29721D01*
X-19347Y-27614D02*
X-17164D01*
X-16522Y-28256*
X-19897Y-28164D02*
X-19347Y-27614D01*
X-19897Y-28202D02*
Y-28164D01*
X-06954Y-28341D02*
Y-28304D01*
X-06404Y-27754*
X-08803Y-26762D02*
X-06772Y-24731D01*
X-08803Y-29637D02*
Y-26762D01*
Y-29637D02*
X-08579Y-29861D01*
X-0613Y-19618D02*
X-05222Y-1871D01*
X-0613Y-19618D02*
X-06099Y-19649D01*
X-06483Y-19265D02*
X-0613Y-19618D01*
X-03776Y-25422D02*
Y-24883D01*
X-03037Y-24144*
Y-22083*
X-03681Y-21439D02*
X-03037Y-22083D01*
X-0431Y-21439D02*
X-03681D01*
X-06099Y-19649D02*
X-0431Y-21439D01*
X-11835Y-38356D02*
X-1183Y-38361D01*
X-05187Y-25098D02*
Y-24731D01*
X-06772D02*
X-05187D01*
Y-24675D02*
Y-24252D01*
X-10424Y-25146D02*
X-09861Y-24583D01*
X-10424Y-28305D02*
Y-25146D01*
Y-28305D02*
X-09957Y-28773D01*
X-09579*
Y-29861D02*
Y-28773D01*
X-08055Y-2367D02*
X-07575Y-24149D01*
X-12403Y-25017D02*
X-10613Y-23227D01*
X-08537Y-2367D02*
X-08055D01*
X-0898Y-23227D02*
X-08537Y-2367D01*
X-09167Y-23677D02*
X-08378Y-24465D01*
X-08281*
X-10426Y-23677D02*
X-09167D01*
X-10613Y-23227D02*
X-0898D01*
X-12283Y-25533D02*
X-10426Y-23677D01*
X-14185Y-25017D02*
X-12403D01*
X-14304Y-25533D02*
X-12283D01*
X-08868Y-22702D02*
X-08375Y-23196D01*
X-10767Y-22702D02*
X-08868D01*
X-12362Y-24297D02*
X-10767Y-22702D01*
X-12329Y-22355D02*
X-10941Y-20967D01*
X-12143Y-22805D02*
X-10754Y-21417D01*
X-10568Y-21867D02*
X-09504D01*
X-12304Y-23603D02*
X-10568Y-21867D01*
X-10754Y-21417D02*
X-1016D01*
X-10941Y-20967D02*
X-10536D01*
X-1796Y-22355D02*
X-12329D01*
X-14104Y-22805D02*
X-12143D01*
X-1395Y-23603D02*
X-12304D01*
X-12841Y-24297D02*
X-12362D01*
X-12611Y-21905D02*
X-10624Y-19918D01*
X-17774Y-21905D02*
X-12611D01*
X-04807Y-26242D02*
X-04447Y-25883D01*
X-05981Y-26242D02*
X-04807D01*
X-06503Y-2572D02*
X-05981Y-26242D01*
X-07852Y-2095D02*
X-04447Y-24355D01*
Y-25883D02*
Y-24355D01*
X-06503Y-2572D02*
Y-2542D01*
X-08302Y-21137D02*
X-05187Y-24252D01*
X-04221Y-27754D02*
X-03579Y-28395D01*
X-06404Y-27754D02*
X-04221D01*
X-04583Y-29858D02*
X-04579Y-29861D01*
X-04583Y-29858D02*
Y-28689D01*
X-03579Y-29861D02*
Y-28395D01*
X-14904Y-24298D02*
X-14185Y-25017D01*
X-1509Y-24748D02*
X-14304Y-25533D01*
X-1589Y-24748D02*
X-1509D01*
X-15704Y-24298D02*
X-14904D01*
X-10536Y-20967D02*
X-10174Y-20605D01*
X-1016Y-21417D02*
X-09344Y-20601D01*
X-10604Y-19871D02*
Y-19107D01*
X-10624Y-19892D02*
X-10604Y-19871D01*
X-10624Y-19918D02*
Y-19892D01*
X-10174Y-20605D02*
Y-20079D01*
X-04971Y-16494D02*
X-0475Y-16716D01*
X-04563Y-1717D02*
X-02934D01*
X-04569Y-17176D02*
X-04563Y-1717D01*
X-04595Y-17176D02*
X-04569D01*
X-046Y-1718D02*
X-04595Y-17176D01*
X-04638Y-1718D02*
X-046D01*
X-05204Y-17747D02*
X-04638Y-1718D01*
X-06952Y-20388D02*
Y-13312D01*
Y-20388D02*
X-05451Y-21889D01*
X-07402Y-20574D02*
Y-13498D01*
X-06483Y-19265D02*
Y-17028D01*
X-08302Y-21137D02*
Y-13871D01*
X-05833Y-17747D02*
X-05204D01*
X-06483Y-17028D02*
X-06167Y-16712D01*
X-03108Y-1457D02*
X-02793Y-14885D01*
X-03564Y-1457D02*
X-03108D01*
X-03729Y-14405D02*
X-03564Y-1457D01*
X-08373Y-11255D02*
X-06152Y-13475D01*
Y-13691D02*
Y-13475D01*
X-0311Y-13691D02*
X-02805Y-13995D01*
X-06152Y-13691D02*
X-0311D01*
X-13175Y-18166D02*
X-12063Y-19278D01*
X-14391Y-18166D02*
X-13175D01*
X-12063Y-19278D02*
X-11961Y-19176D01*
X-11311Y-18654D02*
X-10754Y-18098D01*
X-09683*
X-08359Y-11905D02*
X-06952Y-13312D01*
X-08545Y-12355D02*
X-07402Y-13498D01*
X-08732Y-12805D02*
X-07852Y-13685D01*
X-08918Y-13255D02*
X-08302Y-13871D01*
X-11311Y-19826D02*
Y-18654D01*
X-16916Y-19826D02*
X-11311D01*
X-10174Y-20079D02*
X-09667Y-19571D01*
X-07852Y-2095D02*
Y-13685D01*
X-09524Y-2042D02*
X-09344Y-20601D01*
X-14511Y-23211D02*
X-14104Y-22805D01*
X-09667Y-19571D02*
Y-19167D01*
X-14738Y-17819D02*
X-14391Y-18166D01*
X-16916Y-15305D02*
X-13678D01*
X-16916Y-17819D02*
X-14738D01*
X-18291Y-17783D02*
X-17819Y-17311D01*
X-03989Y-10809D02*
X-02773D01*
X-0276Y-10797*
X-02737Y-10821*
X-04142Y-12146D02*
X-03118D01*
X-02818Y-12446*
X-02787Y-12414*
X-2735Y-17311D02*
X-27106Y-17067D01*
X-17817Y-23211D02*
X-14511D01*
X-19348Y-20967D02*
X-1796Y-22355D01*
X-19162Y-20517D02*
X-17774Y-21905D01*
X-16916Y-21324D02*
X-14816D01*
X-14746Y-21255*
X-26323Y-15635D02*
X-25384D01*
X-27106Y-16419D02*
X-26323Y-15635D01*
X-27106Y-17067D02*
Y-16419D01*
X-24495Y-18707D02*
Y-14867D01*
X-24873Y-19084D02*
X-24495Y-18707D01*
Y-14867D02*
X-23774Y-14145D01*
X-23527Y-1843D02*
X-21129D01*
X-23556Y-18401D02*
X-23527Y-1843D01*
X-24269Y-19117D02*
X-2155D01*
X-23973Y-19567D02*
X-22469D01*
X-25781Y-24207D02*
Y-23179D01*
X-22318Y-14473D02*
X-17868D01*
X-22605Y-14477D02*
X-22539D01*
X-23827Y-15196D02*
X-23291Y-14661D01*
X-17727Y-14382D02*
Y-14314D01*
X-17868Y-14473D02*
X-17777Y-14382D01*
X-17727*
Y-14314D02*
X-16916D01*
X-18073Y-14023D02*
X-17872Y-13822D01*
X-21118Y-14023D02*
X-18073D01*
X-22275Y-12866D02*
X-21118Y-14023D01*
X-1832Y-13438D02*
X-1788Y-12999D01*
X-20777Y-13438D02*
X-1832D01*
X-20777D02*
Y-11952D01*
X-18506Y-12988D02*
X-1833Y-12813D01*
X-19271Y-12988D02*
X-18506D01*
X-19278Y-12981D02*
X-19271Y-12988D01*
X-19278Y-12981D02*
Y-11952D01*
X-18168Y-17906D02*
X-1816D01*
X-18291Y-17783D02*
X-18168Y-17906D01*
X-17819Y-17311D02*
X-16916D01*
X-22732Y-16128D02*
X-22478D01*
X-21987Y-1662*
X-1897*
X-14567Y-12971D02*
Y-11254D01*
X-14232Y-1092*
X-13571*
X-18541Y-16128D02*
Y-16067D01*
X-18786Y-16803D02*
X-16916D01*
X-1897Y-1662D02*
X-18786Y-16803D01*
X-18653Y-18653D02*
X-18008Y-19299D01*
X-19557Y-18653D02*
X-18653D01*
X-20276Y-19283D02*
X-19213D01*
X-21129Y-1843D02*
X-20276Y-19283D01*
X-17995Y-19299D02*
X-17976Y-19318D01*
X-18008Y-19299D02*
X-17995D01*
X-18264Y-19949D02*
X-17905Y-20308D01*
X-20269Y-23179D02*
Y-22084D01*
X-20127Y-21942*
X-21062Y-20967D02*
X-19348D01*
X-21249Y-20517D02*
X-19162D01*
X-21051Y-21874D02*
X-21047D01*
X-21016Y-21843*
X-21388Y-21292D02*
X-21062Y-20967D01*
X-21574Y-20842D02*
X-21249Y-20517D01*
X-22344Y-2311D02*
Y-22318D01*
Y-2311D02*
X-22275Y-23179D01*
X-21574Y-20842D02*
D01*
X-22519Y-21788D02*
X-21574Y-20842D01*
X-22519Y-22142D02*
Y-21788D01*
X-21894Y-2226D02*
X-21764Y-22389D01*
Y-23179D02*
Y-22389D01*
X-21894Y-2226D02*
Y-21798D01*
X-21388Y-21292D02*
D01*
X-21894Y-21798D02*
X-21388Y-21292D01*
X-22519Y-22142D02*
X-22344Y-22318D01*
X-2155Y-19117D02*
X-21165Y-19501D01*
X-22469Y-19567D02*
X-21843Y-20192D01*
X-23323Y-21291D02*
X-23291Y-21322D01*
X-23774Y-23179D02*
Y-21759D01*
X-23973Y-2156D02*
X-23774Y-21759D01*
X-23973Y-2156D02*
Y-19567D01*
X-24423Y-21746D02*
Y-19271D01*
Y-21746D02*
X-24282Y-21887D01*
Y-23179D02*
Y-21887D01*
X-25779Y-21746D02*
X-25202D01*
X-26289Y-22256D02*
X-25779Y-21746D01*
X-17976Y-19318D02*
X-16916D01*
X-26623Y-195D02*
X-26238Y-19115D01*
X-18363Y-16321D02*
X-16916D01*
X-18363D02*
Y-16246D01*
X-28996Y-09672D02*
X-26739Y-11929D01*
X-32477Y-10927D02*
X-31221Y-09672D01*
X-28996*
X-29182Y-10122D02*
X-27189Y-12115D01*
X-31Y-10122D02*
X-29182D01*
X-32249Y-1137D02*
X-31Y-10122D01*
X-24595Y-10735D02*
Y-10317D01*
Y-10735D02*
X-24282Y-11048D01*
Y-11952D02*
Y-11048D01*
X-2151Y-09213D02*
Y-08678D01*
X-22202Y-07986D02*
X-2151Y-08678D01*
X-23943Y-07986D02*
X-22202D01*
X-25354Y-09397D02*
X-23943Y-07986D01*
X-25709Y-09397D02*
X-25354D01*
X-22275Y-11952D02*
Y-10911D01*
X-22869Y-10317D02*
X-22275Y-10911D01*
X-24595Y-10317D02*
X-22869D01*
X-21285Y-24672D02*
Y-23179D01*
X-29197Y-05924D02*
X-24651D01*
X-30456Y-07183D02*
X-29197Y-05924D01*
X-34045Y-11317D02*
X-33656Y-10927D01*
X-33143Y-11377D02*
X-32291D01*
X-34353Y-12587D02*
X-33143Y-11377D01*
X-35943Y-12587D02*
X-34353D01*
X-32283Y-1137D02*
X-32249D01*
X-32291Y-11377D02*
X-32283Y-1137D01*
X-33656Y-10927D02*
X-32477D01*
X-31466Y-11696D02*
X-31104Y-12058D01*
Y-12805D02*
Y-12058D01*
Y-12805D02*
X-2994Y-1397D01*
X-29411Y-12965D02*
Y-11429D01*
X-21016Y-21843D02*
X-20777Y-22083D01*
Y-23179D02*
Y-22083D01*
X-24423Y-19271D02*
X-24269Y-19117D01*
X-24873Y-20204D02*
Y-19084D01*
X-33401Y-22823D02*
X-33345Y-22879D01*
X-36027Y-22823D02*
X-33401D01*
X-334Y-19684D02*
Y-19667D01*
X-32674Y-19972D02*
X-3035D01*
X-33011Y-20308D02*
X-32674Y-19972D01*
X-33105Y-20308D02*
X-33011D01*
X-33131Y-20334D02*
X-33105Y-20308D01*
X-33119Y-19047D02*
X-30002D01*
X-33131Y-19034D02*
X-33119Y-19047D01*
X-30168Y-14842D02*
X-28162D01*
X-32099Y-1291D02*
X-30168Y-14842D01*
X-34435Y-13857D02*
X-33489Y-1291D01*
X-35943Y-13857D02*
X-34435D01*
X-35943Y-11317D02*
X-34045D01*
X-30537Y-15292D02*
X-28143D01*
X-32468Y-1336D02*
X-30537Y-15292D01*
X-33191Y-1336D02*
X-32468D01*
X-33643Y-14532D02*
Y-13812D01*
X-34238Y-15127D02*
X-33643Y-14532D01*
X-31341Y-15156D02*
X-30684Y-15813D01*
X-32468Y-15156D02*
X-31341D01*
X-31266Y-15867D02*
X-30851Y-16282D01*
X-3261Y-15867D02*
X-31266D01*
X-313Y-16469D02*
X-31037Y-16732D01*
X-31788Y-16469D02*
X-313D01*
X-32892Y-14731D02*
X-32468Y-15156D01*
X-32892Y-14731D02*
Y-1416D01*
X-32228Y-16909D02*
X-31788Y-16469D01*
X-33643Y-13812D02*
X-33191Y-1336D01*
X-31037Y-16732D02*
X-2963D01*
X-30851Y-16282D02*
X-29444D01*
X-30684Y-15813D02*
X-28143D01*
X-33013Y-1627D02*
X-3261Y-15867D01*
X-25003Y-15255D02*
Y-14738D01*
X-25384Y-15635D02*
X-25003Y-15255D01*
X-28143Y-17311D02*
X-2735D01*
X-32799Y-1816D02*
X-32367Y-18593D01*
X-29819*
X-35943Y-15127D02*
X-34238D01*
X-31596Y-18081D02*
X-2952D01*
X-26728Y-13146D02*
Y-12148D01*
X-27189Y-13322D02*
Y-12115D01*
X-26739Y-12138D02*
X-26728Y-12148D01*
X-26739Y-12138D02*
Y-11929D01*
X-26728Y-13146D02*
X-26666Y-13208D01*
X-33658Y-19034D02*
X-33131D01*
X-3367Y-20334D02*
X-33131D01*
X-33696Y-20308D02*
X-3367Y-20334D01*
X-35841Y-20308D02*
X-33696D01*
X-33231Y-19497D02*
X-30188D01*
X-334Y-19667D02*
X-33231Y-19497D01*
X-3587Y-16469D02*
X-33913D01*
X-33673Y-1902D02*
X-33658Y-19034D01*
X-3035Y-19972D02*
X-30013Y-20308D01*
X-33673Y-1902D02*
D01*
X-33971Y-19318D02*
X-33673Y-1902D01*
X-30002Y-19047D02*
X-29731Y-19318D01*
X-34127D02*
X-33971D01*
X-34477Y-18968D02*
X-34127Y-19318D01*
X-29819Y-18593D02*
X-29602Y-1881D01*
X-28143*
X-2963Y-16732D02*
X-29559Y-16803D01*
X-29406Y-16321D02*
X-28143D01*
X-29444Y-16282D02*
X-29406Y-16321D01*
X-35943Y-16397D02*
X-3587Y-16469D01*
X-2952Y-18081D02*
X-29258Y-17819D01*
X-2994Y-1397D02*
X-29416D01*
X-29071Y-14314*
X-28143*
X-28984Y-12965D02*
X-28143Y-13806D01*
X-29411Y-12965D02*
X-28984D01*
X-29731Y-19318D02*
X-28143D01*
X-29859Y-19826D02*
X-28143D01*
X-30188Y-19497D02*
X-29859Y-19826D01*
X-30013Y-20308D02*
X-28143D01*
X-29178Y-20816D02*
X-28143D01*
X-29247Y-20885D02*
X-29178Y-20816D01*
X-29258Y-17819D02*
X-28143D01*
Y-15305D02*
Y-15292D01*
X-16916Y-1881D02*
X-15175D01*
X-20269Y-24942D02*
Y-23179D01*
X-07559Y-02299D02*
Y-00799D01*
X-16916Y-14822D02*
X-15767D01*
X-15022Y-14077*
X-16916Y-16803D02*
X-15779D01*
X-30024Y-17311D02*
X-28143D01*
X-19786Y-24245D02*
Y-23179D01*
Y-24245D02*
X-19423Y-24608D01*
Y-25016D02*
Y-24608D01*
X-37747Y-05409D02*
X-37114D01*
X-3785Y-05512D02*
X-37747Y-05409D01*
X-3785Y-07395D02*
X-3715D01*
Y-08543D02*
Y-07395D01*
X-36932Y-09058D02*
Y-08761D01*
Y-09058D02*
X-35943Y-10047D01*
X-34982Y-08761D02*
Y-08503D01*
X-35739Y-07746D02*
X-34982Y-08503D01*
X-35739Y-07746D02*
Y-06384D01*
X-34764Y-05409*
X-34169*
X-32959Y-04199*
Y-00799D02*
X-32288D01*
X-28888Y-04199*
X-27409*
X-34335Y-0201D02*
X-3417D01*
X-32959Y-00799*
X-29559Y-16803D02*
X-28143D01*
X-26289Y-11952D02*
Y-11267D01*
X-24615Y-10296D02*
X-24595Y-10317D01*
X-25709D02*
X-24595D01*
X-28143Y-14314D02*
X-26826D01*
X-23291Y-23179D02*
Y-21322D01*
X-21767Y-11952D02*
Y-10451D01*
X-21623Y-10307*
X-20259Y-04862D02*
Y-04199D01*
Y-04862D02*
X-18927Y-06195D01*
X-21285Y-11952D02*
Y-10942D01*
X-23291Y-14661D02*
Y-11952D01*
X-22783Y-13277D02*
Y-11952D01*
X-17905Y-20308D02*
X-16916D01*
X-21568Y-1019D02*
X-2128D01*
X-27468Y-10087D02*
X-26289Y-11267D01*
X-27468Y-10087D02*
Y-06903D01*
X-25273Y-13452D02*
Y-11952D01*
X-27189Y-13322D02*
X-2681Y-137D01*
X-26424*
X-25781Y-12884D02*
Y-11952D01*
X-26826Y-14314D02*
X-26155Y-14985D01*
X-26424Y-137D02*
X-25799Y-14325D01*
X-26666Y-13208D02*
X-26105D01*
X-25781Y-12884*
X-25496Y-13675D02*
X-25273Y-13452D01*
X-2479Y-13888D02*
Y-11952D01*
X-24282Y-14017D02*
Y-11952D01*
X-23774Y-14145D02*
Y-11952D01*
X-22275Y-12866D02*
Y-11952D01*
X-22783Y-13277D02*
X-22641Y-13419D01*
X-25799Y-14325D02*
X-25226D01*
X-2479Y-13888*
X-25003Y-14738D02*
X-24282Y-14017D01*
X-26155Y-14985D02*
X-25653D01*
X-26289Y-23179D02*
Y-22256D01*
X-26623Y-21256D02*
Y-195D01*
X-28143Y-18327D02*
X-25185D01*
X-11088Y-04624D02*
Y-04083D01*
X-09994Y-02989*
Y-02804*
Y-01954D02*
X-09073D01*
X-12443Y-03803D02*
X-11444Y-02804D01*
X-12443Y-04558D02*
Y-03803D01*
X-12509Y-04624D02*
X-12443Y-04558D01*
X-16932Y-13822D02*
X-16916Y-13806D01*
X-21285Y-10942D02*
X-21137Y-10794D01*
X-20884*
X-20269Y-11952D02*
Y-10816D01*
X-2128Y-1019D02*
X-20537Y-09447D01*
X-19786Y-11952D02*
Y-11005D01*
X-19692Y-10911*
X-20269Y-10816D02*
X-19914Y-10461D01*
X-20884Y-10794D02*
X-201Y-10011D01*
X-20537Y-09447D02*
X-20444Y-09539D01*
X-12817Y-01954D02*
X-11444D01*
X-13518Y-02656D02*
X-12817Y-01954D01*
X-09666Y-07311D02*
Y-06574D01*
X-10355Y-07999D02*
X-09666Y-07311D01*
X-10355Y-08319D02*
Y-07999D01*
X-13518Y-06055D02*
Y-02656D01*
X-13949Y-06486D02*
X-13518Y-06055D01*
X-02005Y-05836D02*
Y-04204D01*
X-02009Y-04199D02*
X-02005Y-04204D01*
X-07559Y-00799D02*
X-06045D01*
X-02424Y-04421*
X-02231*
X-02009Y-04199*
X-09073Y-01954D02*
X-09026Y-02001D01*
X-11138Y-07609D02*
Y-06624D01*
X-09666Y-04624D02*
Y-04455D01*
X-09026Y-03815*
Y-02001*
X-08576Y-03316D02*
X-07559Y-02299D01*
X-09482Y-07921D02*
X-08576Y-07016D01*
Y-03316*
X-05437Y-22539D02*
X-04137D01*
X-03868Y-21889D02*
X-03487Y-22269D01*
X-03936Y-23494D02*
X-03487Y-23045D01*
Y-22269*
X-05451Y-21889D02*
X-03868D01*
X-19278Y-23971D02*
Y-23179D01*
X-07575Y-24149D02*
X-07109D01*
X-07402Y-20574D02*
X-05437Y-22539D01*
X-09524Y-20573D02*
Y-2042D01*
X-20259Y-04199D02*
X-19277D01*
X-18414Y-03337*
Y-03301*
X-17062Y-01949D02*
X-15859D01*
X-14709Y-00799*
X-07559Y-04199D02*
X-06912D01*
X-05614Y-02902*
X-03902Y-01954D02*
X-02747Y-00799D01*
X-02009*
X-08724Y-09575D02*
X-06939D01*
X-032Y-05836*
X-1936Y-08889D02*
X-19176D01*
X-032Y-05836D02*
X-02905D01*
X-04805Y-1871D02*
X-03996Y-17901D01*
X-05222Y-1871D02*
X-04805D01*
X-02896Y-16416D02*
X-02805D01*
X-03196Y-16716D02*
X-02896Y-16416D01*
X-0475Y-16716D02*
X-03196D01*
X-03981Y-18827D02*
X-02813D01*
X-04418Y-19264D02*
X-03981Y-18827D01*
X-04418Y-19663D02*
Y-19264D01*
X-19405Y-08935D02*
X-1936Y-08889D01*
X-20537Y-09447D02*
Y-07787D01*
X-20087Y-08254D02*
Y-076D01*
Y-08254D02*
X-19405Y-08935D01*
X-23061Y-05876D02*
Y-05663D01*
X-2456Y-06014D02*
X-24241Y-06333D01*
X-21991*
X-20537Y-07787*
X-23061Y-05876D02*
X-23053Y-05883D01*
X-21805*
X-20087Y-076*
X-19692Y-10911D02*
X-17192D01*
X-16917Y-10636*
X-16478*
X-1692Y-05911D02*
X-15626D01*
Y-06213D02*
Y-05911D01*
X-13949Y-07126D02*
Y-06486D01*
X-15626Y-06213D02*
X-15301D01*
Y-0631D02*
Y-06213D01*
X-16281Y-06663D02*
X-15584D01*
X-17095Y-06086D02*
X-1692Y-05911D01*
X-15499Y-07384D02*
X-15498Y-07386D01*
X-14971*
X-15301Y-0631D02*
X-15125Y-06486D01*
X-13949*
X-15584Y-06663D02*
X-15311Y-06936D01*
X-14775*
X-16645Y-07384D02*
X-15499D01*
X-16091Y-08321D02*
X-15829Y-08059D01*
X-16091Y-09174D02*
Y-08321D01*
X-17095Y-08705D02*
Y-06086D01*
X-19914Y-10461D02*
X-17378D01*
X-16091Y-09174*
X-16645Y-08892D02*
Y-07384D01*
X-201Y-10011D02*
X-17764D01*
X-16645Y-08892*
X-20444Y-09539D02*
X-1793D01*
X-17095Y-08705*
X-16478Y-10636D02*
X-16001Y-10159D01*
X-16128D02*
X-16001D01*
X-14775Y-06936D02*
X-13924Y-07787D01*
Y-07797D02*
Y-07787D01*
X-15478Y-10429D02*
Y-0989D01*
X-15571Y-09798D02*
X-15478Y-0989D01*
X-15571Y-09798D02*
Y-08894D01*
X-17872Y-13822D02*
X-16932D01*
X-17803Y-12055D02*
Y-11691D01*
X-1833Y-12813D02*
Y-12582D01*
X-17803Y-12055*
X-1788Y-12999D02*
Y-12769D01*
X-16035Y-10923*
Y-10985D02*
Y-10923D01*
Y-10985D02*
X-15478Y-10429D01*
X-12597Y-07114D02*
X-12509Y-07027D01*
X-12876Y-07114D02*
X-12597D01*
X-13924Y-07797D02*
X-13726Y-07994D01*
X-13716*
X-15571Y-08894D02*
X-14098D01*
X-10762Y-0927D02*
X-10286D01*
X-09482Y-10551D02*
Y-07921D01*
Y-10551D02*
X-09023Y-1101D01*
Y-11524D02*
Y-1101D01*
Y-11524D02*
X-08642Y-11905D01*
X-08359*
X-09473Y-1171D02*
Y-11196D01*
Y-1171D02*
X-08828Y-12355D01*
X-08545*
X-09923Y-11897D02*
Y-11383D01*
Y-11897D02*
X-09015Y-12805D01*
X-08732*
X-10373Y-12083D02*
Y-11569D01*
Y-12083D02*
X-09201Y-13255D01*
X-08918*
X-12607Y-07764D02*
X-12589Y-07747D01*
X-12286*
X-12827Y-09114D02*
X-10373Y-11569D01*
X-13878Y-09114D02*
X-12827D01*
X-14971Y-07386D02*
X-13692Y-08664D01*
X-12641*
X-13716Y-07994D02*
X-13496Y-08214D01*
X-12455*
X-13949Y-07126D02*
X-1331Y-07764D01*
X-12607*
X-12286Y-07747D02*
X-10762Y-0927D01*
X-12455Y-08214D02*
X-09473Y-11196D01*
X-12641Y-08664D02*
X-09923Y-11383D01*
X-14098Y-08894D02*
X-13878Y-09114D01*
G54D32*
X-16691Y-33263D02*
Y-32656D01*
X-16196Y-32162*
X-15996Y-32362*
X-16196Y-31187D02*
X-15549Y-3054D01*
X-16196Y-32071D02*
Y-31187D01*
X-28461Y-23862D02*
X-27939Y-24383D01*
X-28461Y-23862D02*
Y-2256D01*
X-3003Y-24104D02*
Y-23867D01*
X-29288Y-2217D02*
X-28443Y-21324D01*
X-28143*
X-29288Y-22444D02*
Y-2217D01*
X-29683Y-22839D02*
X-29288Y-22444D01*
X-31533Y-22083D02*
X-30226D01*
X-32633Y-24506D02*
Y-20637D01*
Y-24506D02*
X-32442Y-24697D01*
X-31533*
X-30623*
X-31533Y-25185D02*
Y-24697D01*
X-2468Y-38362D02*
X-23549D01*
X-24684Y-38366D02*
X-2468Y-38362D01*
X-20782Y-26777D02*
X-17489D01*
Y-26766D02*
Y-25408D01*
X-26311Y-29176D02*
Y-28851D01*
X-2702Y-28143D02*
X-26311Y-28851D01*
X-28302Y-28143D02*
X-2702D01*
X-28575Y-29747D02*
Y-28415D01*
X-28302Y-28143*
X-15522Y-29721D02*
Y-28389D01*
X-15249Y-28116*
X-14013*
X-13994Y-28097*
X-20965Y-28226D02*
Y-26961D01*
X-20782Y-26777*
X-03776Y-26536D02*
Y-25422D01*
X-04156Y-26917D02*
X-03776Y-26536D01*
X-07839Y-26917D02*
X-04156D01*
X-08022Y-271D02*
X-07839Y-26917D01*
X-08022Y-28365D02*
Y-271D01*
X-01908Y-23752D02*
X-00991Y-24669D01*
Y-28248D02*
Y-24669D01*
X-08351Y-22147D02*
Y-21759D01*
X-01071Y-28256D02*
X-01051Y-28237D01*
X-02307Y-28256D02*
X-01071D01*
X-02579Y-28529D02*
X-02307Y-28256D01*
X-02579Y-29861D02*
Y-28529D01*
X-0878Y-2133D02*
X-08351Y-21759D01*
X-0878Y-2133D02*
Y-19883D01*
X-03136Y-3216D02*
X-02936Y-32361D01*
X-02289*
X-03136Y-3216D02*
Y-31095D01*
X-02579Y-30538*
Y-29861*
X-15996Y-32362D02*
X-15259D01*
X-15549Y-3054D02*
Y-29862D01*
X-29075Y-32162D02*
X-28875Y-32362D01*
X-28228*
X-29075Y-32162D02*
Y-31096D01*
X-28518Y-3054*
Y-29862*
X-0423Y-15717D02*
X-01919D01*
X-04355Y-15591D02*
X-0423Y-15717D01*
X-0878Y-19259D02*
Y-17452D01*
Y-19259D02*
X-08777Y-19263D01*
Y-19879D02*
Y-19263D01*
X-14242Y-19092D02*
X-13481D01*
X-09563Y-17423D02*
X-09186Y-17046D01*
X-09963Y-17423D02*
X-09563D01*
X-09986Y-17447D02*
X-09963Y-17423D01*
X-11353Y-17447D02*
X-09986D01*
X-09186Y-17046D02*
X-0878Y-17452D01*
X-1556Y-20473D02*
X-12578D01*
X-15904Y-20816D02*
X-1556Y-20473D01*
X-0878Y-19883D02*
X-08777Y-19879D01*
X-14461Y-17201D02*
X-13647D01*
X-11989Y-1681D02*
X-11353Y-17447D01*
X-11989Y-1681D02*
Y-16166D01*
X-12571Y-16147D02*
X-11971D01*
X-13625Y-17201D02*
X-12571Y-16147D01*
X-14461Y-17201D02*
X-13625D01*
Y-15251D02*
X-13485Y-15111D01*
X-13678Y-15305D02*
X-13625Y-15251D01*
X-05565Y-15591D02*
X-04355D01*
X-16916Y-20816D02*
X-15904D01*
X-20817Y-15453D02*
X-18262D01*
X-20817Y-15743D02*
Y-15453D01*
X-21193Y-15366D02*
X-20817Y-15743D01*
X-21589Y-15366D02*
X-21193D01*
X-17903Y-15813D02*
X-16916D01*
X-18262Y-15453D02*
X-17903Y-15813D01*
X-31417Y-07183D02*
X-30456D01*
X-32975D02*
X-31417D01*
X-31452Y-07968D02*
X-31417Y-07933D01*
Y-07183*
X-32797Y-08148D02*
X-32617Y-07968D01*
X-31452*
X-32959Y-04511D02*
Y-04199D01*
Y-04511D02*
X-31452Y-06018D01*
X-30959Y-0432D02*
X-30456Y-04824D01*
Y-07183D02*
Y-04824D01*
X-32291Y-0291D02*
X-30959Y-04242D01*
Y-0432D02*
Y-04242D01*
X-30623Y-20447D02*
X-30087Y-20983D01*
X-30046*
X-32633Y-20637D02*
X-32442Y-20447D01*
X-30623*
X-16916Y-13806D02*
Y-13144D01*
X-10358Y-1393D02*
X-09186Y-15101D01*
Y-17046D02*
Y-15101D01*
X-12118Y-14077D02*
X-11971Y-1393D01*
X-10358Y-16147D02*
Y-15681D01*
X-10928Y-15111D02*
X-10358Y-15681D01*
X-13485Y-15111D02*
X-10928D01*
X-15779Y-16803D02*
X-15529Y-17053D01*
X-14609D02*
Y-16457D01*
X-10769Y-12754D02*
X-10358Y-13165D01*
Y-1393D02*
Y-13165D01*
X-15253Y-15813D02*
X-15004Y-16062D01*
X-14609Y-17053D02*
X-14461Y-17201D01*
X-11989Y-16166D02*
X-11971Y-16147D01*
X-30623Y-24697D02*
X-3003Y-24104D01*
X-31533Y-22083D02*
Y-21272D01*
Y-23872D02*
Y-22954D01*
X-31526Y-22947*
X-3003*
X-35943Y-20207D02*
X-35841Y-20308D01*
X-35943Y-21477D02*
X-33473D01*
X-34364Y-07359D02*
X-33151D01*
X-34335Y-0291D02*
X-32291D01*
X-33151Y-07359D02*
X-32975Y-07183D01*
X-15022Y-14077D02*
X-12118D01*
X-13564Y-12719D02*
Y-11878D01*
X-13599Y-12754D02*
X-10769D01*
X-12644Y-11878D02*
Y-10908D01*
X-02905Y-05946D02*
X-01908Y-06943D01*
Y-23752D02*
Y-06943D01*
X-16916Y-15813D02*
X-15253D01*
X-15618Y-11846D02*
Y-11321D01*
X-15604*
X-14684Y-10401*
Y-09986*
X-16916Y-13144D02*
X-15618Y-11846D01*
G54D33*
X-33489Y-1291D02*
X-32099D01*
X-32222Y-17532D02*
X-31673Y-18081D01*
X-31596*
X-32222Y-17532D02*
Y-17456D01*
X-32311Y-17366D02*
X-32222Y-17456D01*
X-32393Y-17366D02*
X-32311D01*
X-32399Y-1736D02*
X-32393Y-17366D01*
X-33597Y-1736D02*
X-32399D01*
X-34033Y-17797D02*
X-33597Y-1736D01*
X-33913Y-16469D02*
X-33422Y-1696D01*
X-32258*
Y-16935D02*
X-32228Y-16966D01*
G54D34*
X-36057Y-24055D02*
X-32786D01*
G54D35*
X-3785Y-07395D02*
Y-05512D01*
G54D36*
X-14726Y-05911D02*
Y-04216D01*
X-15313Y-04199D02*
X-14709D01*
X-20259Y-00799D02*
X-18392Y-02667D01*
X-16845*
X-15313Y-04199*
G54D37*
X-28002Y-26846D03*
X-35622Y-2583D03*
Y-27862D03*
X-14949Y-26819D03*
X-22569Y-25803D03*
Y-27835D03*
X-02007Y-26959D03*
X-09627Y-25943D03*
Y-27975D03*
X-30184Y-00999D03*
Y-03999D03*
X-17484Y-00999D03*
Y-03999D03*
X-04784Y-00999D03*
Y-03999D03*
X-17893Y-06343D03*
Y-08375D03*
X-25513Y-07359D03*
G54D38*
X-25942Y-3045D03*
X-14033Y-293D03*
X-20091Y-31382D03*
X-16691Y-33263D03*
X-07241Y-32215D03*
X-33429Y-33607D03*
X-36576Y-26616D03*
X-34861Y-28549D03*
X-25139Y-25496D03*
X-25833Y-20077D03*
X-29408Y-23902D03*
X-27939Y-24383D03*
X-28461Y-2256D03*
X-28589Y-25372D03*
X-26036Y-24852D03*
X-27324Y-26065D03*
X-34029Y-25592D03*
X-34018Y-28252D03*
X-3142Y-25297D03*
X-32408Y-25451D03*
X-24684Y-38366D03*
X-23367Y-27116D03*
X-17489Y-25408D03*
X-18366Y-2543D03*
X-30578Y-28576D03*
X-31866Y-28374D03*
X-28302Y-28143D03*
X-3295Y-28228D03*
X-17525Y-28549D03*
X-18813Y-28348D03*
X-15249Y-28116D03*
X-20965Y-28226D03*
X-19897Y-28202D03*
X-06954Y-28341D03*
X-08022Y-28365D03*
X-03776Y-25422D03*
X-05472Y-34587D03*
X-11835Y-38356D03*
X-02307Y-28256D03*
X-09861Y-24583D03*
X-06503Y-2542D03*
X-05259Y-25444D03*
X-05871Y-28488D03*
X-04583Y-28689D03*
X-08281Y-24465D03*
X-1395Y-23603D03*
X-12841Y-24297D03*
X-04971Y-16494D03*
X-05833Y-17747D03*
X-06099Y-19649D03*
X-03729Y-14405D03*
X-13481Y-19092D03*
X-11961Y-19176D03*
X-09683Y-18098D03*
X-10604Y-19107D03*
X-12578Y-20625D03*
X-1562Y-19049D03*
X-03989Y-10809D03*
X-04142Y-12146D03*
X-05565Y-15591D03*
X-2339Y-17192D03*
X-11782Y-17574D03*
X-14746Y-21255D03*
X-23556Y-18401D03*
X-22605Y-14477D03*
X-23827Y-15196D03*
X-1816Y-17906D03*
X-22732Y-16128D03*
X-21589Y-15366D03*
X-13461Y-12318D03*
X-20827Y-16636D03*
X-19557Y-18541D03*
X-18541Y-16128D03*
X-18264Y-19949D03*
X-18922Y-19303D03*
X-20127Y-21942D03*
X-21051Y-21874D03*
X-21165Y-19501D03*
X-21843Y-20192D03*
X-23323Y-21291D03*
X-25202Y-21746D03*
X-25145Y-18287D03*
X-26238Y-19115D03*
X-29404Y-1094D03*
X-22732Y-08381D03*
X-29575Y-12801D03*
X-17817Y-23211D03*
X-33345Y-22879D03*
X-334Y-19684D03*
X-3339Y-21393D03*
X-09504Y-21867D03*
X-31597Y-17273D03*
X-1666Y-13168D03*
X-18927Y-06195D03*
X-3267Y-09208D03*
X-27468Y-06903D03*
X-27518Y-04936D03*
X-25496Y-13675D03*
X-22641Y-13419D03*
X-25653Y-14985D03*
X-10355Y-08319D03*
X-14638Y-05751D03*
X-1534Y-16045D03*
X-21016Y-04937D03*
X-25444Y-09119D03*
X-11138Y-07609D03*
X-08724Y-09575D03*
X-08373Y-11255D03*
X-07109Y-24149D03*
X-04137Y-22539D03*
X-03936Y-23494D03*
X-08199Y-2302D03*
X-09667Y-19167D03*
X-09524Y-20573D03*
X-26991Y-01007D03*
X-18414Y-03301D03*
X-17062Y-01949D03*
X-05614Y-02902D03*
X-03902Y-01954D03*
X-08351Y-22147D03*
X-19176Y-08889D03*
X-03875Y-08388D03*
X-04418Y-19663D03*
X-23061Y-05663D03*
X-24406Y-05539D03*
X-17803Y-11691D03*
X-16281Y-06663D03*
X-15829Y-08059D03*
X-16128Y-10159D03*
X-12876Y-07114D03*
X-10286Y-0927D03*
G54D39*
X-2411Y-24958D03*
X-2157D03*
X-32799Y-1416D03*
Y-1616D03*
Y-1816D03*
G54D40*
X-32798Y-10152D03*
X-32797Y-08148D03*
X-32799Y-12156D03*
M02*