%FSTAX23Y23*%
%MOIN*%
%SFA1B1*%

%IPPOS*%
%ADD10R,0.040950X0.070870*%
%ADD11R,0.037400X0.033470*%
%ADD12C,0.025000*%
%ADD13C,0.012000*%
%ADD14R,0.039370X0.118110*%
%LNpinconnector-1*%
%LPD*%
G54D10*
X00107Y00089D03*
X00157D03*
X00207D03*
X00257D03*
X00107Y00254D03*
X00157D03*
X00207D03*
X00257D03*
G54D11*
X0033Y00196D03*
Y00273D03*
X00329Y00144D03*
Y00067D03*
G54D12*
X00065Y00385D02*
X00069Y0039D01*
X00157Y00254D02*
Y00313D01*
X00144Y00325D02*
X00157Y00313D01*
X00144Y00325D02*
Y0039D01*
X00257Y00254D02*
Y00307D01*
X00294Y00344*
Y0039*
X00065Y0035D02*
Y00385D01*
Y0035D02*
X00107Y00308D01*
Y00254D02*
Y00308D01*
X00207Y00254D02*
Y00312D01*
X00219Y00324*
Y0039*
G54D13*
X00107Y00089D02*
Y00254D01*
X00157Y00089D02*
Y00254D01*
X00207Y00089D02*
Y00254D01*
X00257Y00089D02*
Y00254D01*
X00107Y00022D02*
Y00089D01*
Y00022D02*
X00109Y0002D01*
X00305*
X00329Y00044*
Y00067*
Y00144D02*
Y00196D01*
X0033Y00196*
X00275Y00273D02*
X0033D01*
X00257Y00254D02*
X00275Y00273D01*
G54D14*
X00069Y0039D03*
X00144D03*
X00219D03*
X00294D03*
M02*