G04 Layer_Color=8388736*
%FSLAX25Y25*%
%MOIN*%
G70*
G01*
G75*
%ADD35R,0.10630X0.04724*%
%ADD36O,0.10630X0.04724*%
%ADD37R,0.10787X0.05787*%
G04:AMPARAMS|DCode=38|XSize=127.87mil|YSize=57.87mil|CornerRadius=16.44mil|HoleSize=0mil|Usage=FLASHONLY|Rotation=180.000|XOffset=0mil|YOffset=0mil|HoleType=Round|Shape=RoundedRectangle|*
%AMROUNDEDRECTD38*
21,1,0.12787,0.02500,0,0,180.0*
21,1,0.09500,0.05787,0,0,180.0*
1,1,0.03287,-0.04750,0.01250*
1,1,0.03287,0.04750,0.01250*
1,1,0.03287,0.04750,-0.01250*
1,1,0.03287,-0.04750,-0.01250*
%
%ADD38ROUNDEDRECTD38*%
%ADD39R,0.06787X0.04724*%
%ADD40O,0.06787X0.04787*%
%ADD41O,0.10630X0.04724*%
%ADD42R,0.10630X0.04724*%
%ADD43O,0.07677X0.04724*%
%ADD44R,0.07677X0.04724*%
%ADD45R,0.04724X0.04724*%
%ADD46C,0.04724*%
%ADD47C,0.03556*%
%ADD48C,0.03543*%
%ADD49C,0.05787*%
D35*
X169809Y238797D02*
D03*
D36*
Y233797D02*
D03*
Y228797D02*
D03*
Y218797D02*
D03*
Y223797D02*
D03*
Y213797D02*
D03*
D37*
X236958Y154679D02*
D03*
Y144679D02*
D03*
Y134679D02*
D03*
X196958Y154679D02*
D03*
Y144679D02*
D03*
Y134679D02*
D03*
D38*
X231851Y117640D02*
D03*
Y107640D02*
D03*
Y97640D02*
D03*
X201851D02*
D03*
Y107640D02*
D03*
Y117640D02*
D03*
D39*
X244992Y101524D02*
D03*
D40*
Y96524D02*
D03*
D41*
X172492Y153024D02*
D03*
Y163024D02*
D03*
Y158024D02*
D03*
Y168024D02*
D03*
Y173024D02*
D03*
Y148024D02*
D03*
D42*
Y178024D02*
D03*
D43*
Y138024D02*
D03*
Y143024D02*
D03*
Y133024D02*
D03*
Y128024D02*
D03*
D44*
Y123024D02*
D03*
D45*
X171992Y184524D02*
D03*
D46*
X166992D02*
D03*
X171992Y189524D02*
D03*
X166992D02*
D03*
X171992Y194524D02*
D03*
X166992D02*
D03*
X171992Y199524D02*
D03*
X166992D02*
D03*
D47*
X194033Y207944D02*
D03*
X229709Y183333D02*
D03*
X222081Y190732D02*
D03*
X228934Y170727D02*
D03*
X228887Y197099D02*
D03*
X229431Y210740D02*
D03*
X220294Y219178D02*
D03*
D48*
X181134Y223774D02*
D03*
X188949Y179110D02*
D03*
D49*
X186565Y191960D02*
D03*
M02*
