G04 Layer_Color=32896*
%FSLAX25Y25*%
%MOIN*%
G70*
G01*
G75*
%ADD32C,0.00300*%
%ADD34C,0.00787*%
%ADD57C,0.00984*%
%ADD58C,0.00630*%
%ADD59C,0.00394*%
%ADD60C,0.00591*%
%ADD61C,0.01000*%
%ADD62R,0.02000X0.01000*%
%ADD63R,0.01000X0.02000*%
G36*
X246690Y180255D02*
X246783Y180245D01*
X246876Y180223D01*
X246957Y180195D01*
X247039Y180168D01*
X247110Y180135D01*
X247176Y180097D01*
X247236Y180059D01*
X247285Y180021D01*
X247334Y179982D01*
X247372Y179950D01*
X247405Y179922D01*
X247432Y179895D01*
X247449Y179873D01*
X247460Y179862D01*
X247465Y179857D01*
X247514Y179791D01*
X247552Y179720D01*
X247591Y179649D01*
X247618Y179578D01*
X247667Y179436D01*
X247700Y179300D01*
X247711Y179234D01*
X247716Y179180D01*
X247722Y179131D01*
X247727Y179087D01*
X247733Y179049D01*
Y179021D01*
Y179005D01*
Y179000D01*
X247727Y178896D01*
X247716Y178803D01*
X247700Y178710D01*
X247684Y178623D01*
X247656Y178546D01*
X247629Y178475D01*
X247602Y178404D01*
X247569Y178344D01*
X247536Y178290D01*
X247509Y178246D01*
X247481Y178202D01*
X247454Y178170D01*
X247438Y178142D01*
X247422Y178126D01*
X247410Y178115D01*
X247405Y178110D01*
X247340Y178050D01*
X247274Y178000D01*
X247203Y177951D01*
X247132Y177913D01*
X247061Y177880D01*
X246990Y177853D01*
X246854Y177815D01*
X246794Y177798D01*
X246739Y177787D01*
X246684Y177782D01*
X246641Y177777D01*
X246603Y177771D01*
X246553D01*
X246439Y177777D01*
X246335Y177798D01*
X246237Y177820D01*
X246155Y177853D01*
X246089Y177880D01*
X246040Y177908D01*
X246007Y177929D01*
X245996Y177935D01*
X245909Y178000D01*
X245833Y178077D01*
X245767Y178159D01*
X245718Y178235D01*
X245674Y178306D01*
X245641Y178361D01*
X245631Y178383D01*
X245625Y178399D01*
X245620Y178410D01*
Y178415D01*
X245576Y178328D01*
X245527Y178252D01*
X245478Y178186D01*
X245423Y178131D01*
X245379Y178088D01*
X245341Y178060D01*
X245319Y178039D01*
X245308Y178033D01*
X245227Y177984D01*
X245145Y177951D01*
X245068Y177924D01*
X244997Y177908D01*
X244932Y177897D01*
X244883Y177891D01*
X244839D01*
X244762Y177897D01*
X244686Y177902D01*
X244549Y177940D01*
X244435Y177984D01*
X244331Y178039D01*
X244249Y178099D01*
X244216Y178121D01*
X244189Y178142D01*
X244167Y178164D01*
X244151Y178181D01*
X244145Y178186D01*
X244140Y178191D01*
X244091Y178252D01*
X244047Y178312D01*
X244009Y178383D01*
X243976Y178448D01*
X243927Y178590D01*
X243894Y178727D01*
X243883Y178787D01*
X243878Y178847D01*
X243872Y178896D01*
X243867Y178945D01*
X243862Y178978D01*
Y179010D01*
Y179027D01*
Y179032D01*
X243867Y179131D01*
X243872Y179223D01*
X243889Y179311D01*
X243905Y179393D01*
X243927Y179469D01*
X243949Y179540D01*
X243976Y179600D01*
X243998Y179655D01*
X244025Y179709D01*
X244053Y179753D01*
X244075Y179786D01*
X244096Y179819D01*
X244113Y179840D01*
X244129Y179857D01*
X244134Y179868D01*
X244140Y179873D01*
X244195Y179922D01*
X244249Y179972D01*
X244309Y180010D01*
X244364Y180042D01*
X244484Y180097D01*
X244593Y180130D01*
X244691Y180152D01*
X244735Y180157D01*
X244768Y180163D01*
X244801Y180168D01*
X244839D01*
X244932Y180163D01*
X245014Y180146D01*
X245095Y180130D01*
X245161Y180103D01*
X245221Y180081D01*
X245259Y180064D01*
X245287Y180048D01*
X245298Y180042D01*
X245369Y179988D01*
X245434Y179922D01*
X245489Y179857D01*
X245538Y179786D01*
X245570Y179726D01*
X245598Y179677D01*
X245614Y179644D01*
X245620Y179638D01*
Y179633D01*
X245680Y179748D01*
X245740Y179846D01*
X245805Y179928D01*
X245871Y179993D01*
X245931Y180048D01*
X245975Y180086D01*
X246007Y180108D01*
X246013Y180113D01*
X246018D01*
X246116Y180163D01*
X246215Y180201D01*
X246313Y180223D01*
X246400Y180245D01*
X246471Y180255D01*
X246532Y180261D01*
X246586D01*
X246690Y180255D01*
D02*
G37*
G36*
X246788Y177285D02*
X246870Y177269D01*
X247017Y177214D01*
X247148Y177154D01*
X247203Y177121D01*
X247258Y177083D01*
X247301Y177050D01*
X247340Y177023D01*
X247372Y176990D01*
X247405Y176969D01*
X247427Y176947D01*
X247443Y176930D01*
X247449Y176919D01*
X247454Y176914D01*
X247503Y176848D01*
X247547Y176783D01*
X247585Y176712D01*
X247613Y176641D01*
X247667Y176493D01*
X247700Y176362D01*
X247711Y176297D01*
X247716Y176242D01*
X247722Y176188D01*
X247727Y176144D01*
X247733Y176106D01*
Y176078D01*
Y176062D01*
Y176057D01*
X247727Y175936D01*
X247711Y175822D01*
X247689Y175718D01*
X247656Y175620D01*
X247618Y175527D01*
X247574Y175445D01*
X247531Y175369D01*
X247481Y175298D01*
X247438Y175238D01*
X247394Y175183D01*
X247351Y175134D01*
X247312Y175096D01*
X247280Y175068D01*
X247258Y175047D01*
X247241Y175036D01*
X247236Y175030D01*
X247165Y174981D01*
X247094Y174937D01*
X247023Y174905D01*
X246946Y174872D01*
X246804Y174823D01*
X246673Y174790D01*
X246619Y174779D01*
X246564Y174774D01*
X246515Y174763D01*
X246471D01*
X246439Y174757D01*
X246395D01*
X246291Y174763D01*
X246193Y174774D01*
X246100Y174790D01*
X246013Y174812D01*
X245936Y174834D01*
X245860Y174866D01*
X245789Y174894D01*
X245729Y174926D01*
X245674Y174959D01*
X245625Y174987D01*
X245581Y175019D01*
X245549Y175041D01*
X245521Y175063D01*
X245499Y175079D01*
X245489Y175090D01*
X245483Y175096D01*
X245423Y175161D01*
X245369Y175227D01*
X245319Y175298D01*
X245276Y175369D01*
X245243Y175434D01*
X245216Y175505D01*
X245172Y175631D01*
X245156Y175691D01*
X245145Y175745D01*
X245139Y175795D01*
X245134Y175833D01*
X245128Y175865D01*
Y175893D01*
Y175909D01*
Y175915D01*
X245134Y176007D01*
X245150Y176100D01*
X245166Y176182D01*
X245188Y176259D01*
X245216Y176319D01*
X245232Y176368D01*
X245248Y176401D01*
X245254Y176406D01*
Y176411D01*
X244610Y176297D01*
Y174926D01*
X243933D01*
Y176843D01*
X245904Y177214D01*
X245986Y176630D01*
X245936Y176581D01*
X245893Y176532D01*
X245854Y176482D01*
X245822Y176433D01*
X245773Y176341D01*
X245740Y176253D01*
X245723Y176177D01*
X245712Y176122D01*
X245707Y176100D01*
Y176084D01*
Y176073D01*
Y176068D01*
X245712Y175980D01*
X245734Y175898D01*
X245762Y175827D01*
X245794Y175767D01*
X245833Y175724D01*
X245860Y175685D01*
X245882Y175663D01*
X245887Y175658D01*
X245958Y175603D01*
X246040Y175565D01*
X246127Y175538D01*
X246215Y175522D01*
X246291Y175505D01*
X246351Y175500D01*
X246411D01*
X246542Y175505D01*
X246657Y175522D01*
X246750Y175549D01*
X246826Y175576D01*
X246892Y175609D01*
X246936Y175631D01*
X246957Y175653D01*
X246968Y175658D01*
X247028Y175718D01*
X247077Y175784D01*
X247110Y175849D01*
X247132Y175909D01*
X247143Y175964D01*
X247148Y176007D01*
X247154Y176035D01*
Y176046D01*
X247148Y176117D01*
X247132Y176188D01*
X247110Y176248D01*
X247083Y176297D01*
X247056Y176341D01*
X247034Y176373D01*
X247017Y176395D01*
X247012Y176401D01*
X246952Y176450D01*
X246892Y176493D01*
X246826Y176526D01*
X246766Y176548D01*
X246712Y176564D01*
X246662Y176575D01*
X246635Y176581D01*
X246624D01*
X246701Y177302D01*
X246788Y177285D01*
D02*
G37*
G36*
X220327Y115726D02*
X221354D01*
Y115295D01*
X220327D01*
Y114257D01*
X219890D01*
Y115295D01*
X218864D01*
Y115726D01*
X219890D01*
Y116753D01*
X220327D01*
Y115726D01*
D02*
G37*
G36*
X246903Y181762D02*
X247662D01*
Y181063D01*
X246903D01*
Y180594D01*
X246269D01*
Y181063D01*
X243867D01*
Y181675D01*
X246275Y183313D01*
X246903D01*
Y181762D01*
D02*
G37*
G36*
X244522Y194200D02*
X247662D01*
Y193436D01*
X244522D01*
Y192322D01*
X243883D01*
Y195319D01*
X244522D01*
Y194200D01*
D02*
G37*
G36*
X247662Y189592D02*
X246084D01*
Y189439D01*
Y189346D01*
X246089Y189270D01*
X246095Y189204D01*
X246106Y189150D01*
X246111Y189106D01*
X246122Y189079D01*
X246127Y189062D01*
Y189057D01*
X246149Y189013D01*
X246171Y188970D01*
X246198Y188931D01*
X246220Y188893D01*
X246248Y188866D01*
X246269Y188844D01*
X246280Y188833D01*
X246286Y188828D01*
X246313Y188806D01*
X246340Y188778D01*
X246422Y188718D01*
X246510Y188653D01*
X246608Y188582D01*
X246695Y188522D01*
X246739Y188495D01*
X246772Y188473D01*
X246799Y188451D01*
X246821Y188434D01*
X246837Y188429D01*
X246843Y188424D01*
X247662Y187878D01*
Y186960D01*
X246925Y187424D01*
X246848Y187473D01*
X246772Y187523D01*
X246706Y187566D01*
X246646Y187610D01*
X246591Y187648D01*
X246537Y187681D01*
X246455Y187747D01*
X246390Y187796D01*
X246346Y187828D01*
X246319Y187856D01*
X246313Y187861D01*
X246248Y187921D01*
X246187Y187992D01*
X246138Y188058D01*
X246089Y188123D01*
X246051Y188178D01*
X246024Y188222D01*
X246002Y188254D01*
X245996Y188260D01*
Y188265D01*
X245980Y188172D01*
X245958Y188091D01*
X245936Y188014D01*
X245909Y187938D01*
X245882Y187872D01*
X245854Y187812D01*
X245827Y187752D01*
X245794Y187703D01*
X245767Y187659D01*
X245740Y187621D01*
X245712Y187588D01*
X245691Y187566D01*
X245674Y187545D01*
X245658Y187528D01*
X245652Y187523D01*
X245647Y187517D01*
X245592Y187473D01*
X245538Y187435D01*
X245418Y187370D01*
X245303Y187326D01*
X245188Y187299D01*
X245090Y187277D01*
X245052Y187271D01*
X245014D01*
X244986Y187266D01*
X244943D01*
X244823Y187271D01*
X244708Y187293D01*
X244610Y187321D01*
X244522Y187348D01*
X244451Y187381D01*
X244397Y187408D01*
X244380Y187419D01*
X244364Y187430D01*
X244358Y187435D01*
X244353D01*
X244260Y187501D01*
X244184Y187572D01*
X244124Y187643D01*
X244069Y187714D01*
X244036Y187779D01*
X244009Y187828D01*
X243993Y187861D01*
X243987Y187867D01*
Y187872D01*
X243971Y187927D01*
X243954Y187987D01*
X243927Y188123D01*
X243911Y188271D01*
X243894Y188413D01*
Y188484D01*
X243889Y188544D01*
Y188604D01*
X243883Y188653D01*
Y188691D01*
Y188724D01*
Y188746D01*
Y188751D01*
Y190356D01*
X247662D01*
Y189592D01*
D02*
G37*
G36*
X246548Y186731D02*
X246657Y186709D01*
X246761Y186676D01*
X246854Y186649D01*
X246941Y186611D01*
X247023Y186573D01*
X247094Y186534D01*
X247159Y186496D01*
X247214Y186458D01*
X247263Y186420D01*
X247307Y186387D01*
X247345Y186354D01*
X247372Y186332D01*
X247389Y186311D01*
X247400Y186300D01*
X247405Y186294D01*
X247465Y186218D01*
X247514Y186136D01*
X247558Y186048D01*
X247596Y185956D01*
X247623Y185868D01*
X247651Y185775D01*
X247689Y185595D01*
X247705Y185513D01*
X247716Y185437D01*
X247722Y185371D01*
X247727Y185311D01*
X247733Y185262D01*
Y185224D01*
Y185197D01*
Y185191D01*
X247727Y185017D01*
X247711Y184858D01*
X247689Y184716D01*
X247678Y184656D01*
X247662Y184596D01*
X247651Y184547D01*
X247640Y184503D01*
X247629Y184465D01*
X247618Y184432D01*
X247607Y184405D01*
X247602Y184389D01*
X247596Y184378D01*
Y184372D01*
X247536Y184252D01*
X247471Y184154D01*
X247405Y184061D01*
X247334Y183990D01*
X247274Y183935D01*
X247219Y183892D01*
X247187Y183870D01*
X247181Y183859D01*
X247176D01*
X247067Y183799D01*
X246963Y183750D01*
X246859Y183717D01*
X246761Y183695D01*
X246684Y183684D01*
X246646Y183679D01*
X246619Y183673D01*
X246564D01*
X246433Y183679D01*
X246319Y183695D01*
X246215Y183722D01*
X246127Y183750D01*
X246057Y183777D01*
X246007Y183804D01*
X245975Y183821D01*
X245964Y183826D01*
X245876Y183886D01*
X245800Y183957D01*
X245734Y184028D01*
X245680Y184094D01*
X245636Y184154D01*
X245603Y184203D01*
X245581Y184236D01*
X245576Y184241D01*
Y184247D01*
X245549Y184301D01*
X245521Y184356D01*
X245472Y184487D01*
X245429Y184623D01*
X245385Y184754D01*
X245369Y184815D01*
X245352Y184874D01*
X245336Y184929D01*
X245325Y184973D01*
X245314Y185011D01*
X245308Y185038D01*
X245303Y185060D01*
Y185066D01*
X245276Y185164D01*
X245254Y185251D01*
X245232Y185333D01*
X245210Y185410D01*
X245188Y185470D01*
X245166Y185530D01*
X245145Y185579D01*
X245128Y185623D01*
X245112Y185661D01*
X245095Y185688D01*
X245085Y185715D01*
X245074Y185732D01*
X245057Y185759D01*
X245052Y185765D01*
X245014Y185803D01*
X244975Y185830D01*
X244937Y185846D01*
X244899Y185857D01*
X244872Y185868D01*
X244844Y185874D01*
X244823D01*
X244768Y185868D01*
X244724Y185857D01*
X244681Y185836D01*
X244648Y185814D01*
X244620Y185792D01*
X244604Y185770D01*
X244593Y185759D01*
X244588Y185754D01*
X244539Y185677D01*
X244506Y185595D01*
X244479Y185508D01*
X244462Y185426D01*
X244451Y185355D01*
X244446Y185295D01*
Y185273D01*
Y185257D01*
Y185246D01*
Y185240D01*
X244451Y185126D01*
X244468Y185027D01*
X244489Y184945D01*
X244511Y184880D01*
X244533Y184825D01*
X244555Y184787D01*
X244571Y184765D01*
X244577Y184760D01*
X244631Y184705D01*
X244697Y184656D01*
X244762Y184618D01*
X244833Y184591D01*
X244894Y184569D01*
X244943Y184558D01*
X244981Y184547D01*
X244992D01*
X244965Y183782D01*
X244866Y183788D01*
X244779Y183804D01*
X244691Y183826D01*
X244615Y183853D01*
X244539Y183881D01*
X244468Y183914D01*
X244408Y183946D01*
X244348Y183979D01*
X244298Y184017D01*
X244255Y184050D01*
X244216Y184083D01*
X244184Y184110D01*
X244162Y184132D01*
X244145Y184148D01*
X244134Y184159D01*
X244129Y184165D01*
X244075Y184236D01*
X244025Y184312D01*
X243982Y184394D01*
X243943Y184481D01*
X243916Y184569D01*
X243889Y184656D01*
X243851Y184831D01*
X243840Y184913D01*
X243829Y184984D01*
X243823Y185055D01*
X243818Y185115D01*
X243812Y185164D01*
Y185197D01*
Y185219D01*
Y185229D01*
X243818Y185388D01*
X243834Y185530D01*
X243856Y185655D01*
X243878Y185765D01*
X243894Y185814D01*
X243905Y185857D01*
X243916Y185890D01*
X243927Y185923D01*
X243938Y185945D01*
X243943Y185961D01*
X243949Y185972D01*
Y185977D01*
X244004Y186087D01*
X244064Y186179D01*
X244129Y186261D01*
X244189Y186327D01*
X244244Y186381D01*
X244287Y186414D01*
X244320Y186442D01*
X244326Y186447D01*
X244331D01*
X244424Y186502D01*
X244522Y186540D01*
X244615Y186567D01*
X244697Y186583D01*
X244768Y186594D01*
X244823Y186605D01*
X244872D01*
X244953Y186600D01*
X245035Y186589D01*
X245106Y186573D01*
X245177Y186551D01*
X245308Y186496D01*
X245423Y186431D01*
X245472Y186403D01*
X245511Y186371D01*
X245549Y186343D01*
X245581Y186316D01*
X245603Y186294D01*
X245620Y186278D01*
X245631Y186267D01*
X245636Y186261D01*
X245674Y186212D01*
X245712Y186152D01*
X245751Y186092D01*
X245783Y186021D01*
X245849Y185885D01*
X245904Y185743D01*
X245925Y185672D01*
X245947Y185612D01*
X245964Y185552D01*
X245980Y185502D01*
X245991Y185464D01*
X246002Y185431D01*
X246007Y185410D01*
Y185404D01*
X246029Y185317D01*
X246051Y185240D01*
X246067Y185169D01*
X246084Y185104D01*
X246100Y185049D01*
X246111Y185000D01*
X246127Y184956D01*
X246138Y184918D01*
X246144Y184885D01*
X246155Y184858D01*
X246166Y184820D01*
X246177Y184798D01*
Y184793D01*
X246204Y184722D01*
X246231Y184667D01*
X246258Y184618D01*
X246286Y184580D01*
X246308Y184552D01*
X246324Y184536D01*
X246335Y184525D01*
X246340Y184520D01*
X246379Y184492D01*
X246417Y184470D01*
X246455Y184460D01*
X246488Y184449D01*
X246521Y184443D01*
X246548Y184438D01*
X246570D01*
X246646Y184443D01*
X246712Y184465D01*
X246777Y184498D01*
X246832Y184530D01*
X246876Y184569D01*
X246908Y184596D01*
X246930Y184618D01*
X246936Y184629D01*
X246985Y184705D01*
X247023Y184793D01*
X247050Y184885D01*
X247067Y184973D01*
X247077Y185055D01*
X247088Y185120D01*
Y185148D01*
Y185164D01*
Y185175D01*
Y185180D01*
X247083Y185306D01*
X247061Y185415D01*
X247034Y185508D01*
X247001Y185590D01*
X246968Y185655D01*
X246941Y185699D01*
X246919Y185726D01*
X246914Y185737D01*
X246837Y185808D01*
X246755Y185863D01*
X246662Y185912D01*
X246570Y185945D01*
X246488Y185972D01*
X246422Y185994D01*
X246400Y185999D01*
X246379D01*
X246368Y186005D01*
X246362D01*
X246433Y186747D01*
X246548Y186731D01*
D02*
G37*
G36*
X223685Y113646D02*
X223161D01*
X221687Y117424D01*
X222194D01*
X223221Y114678D01*
X223265Y114563D01*
X223303Y114454D01*
X223336Y114350D01*
X223363Y114257D01*
X223390Y114175D01*
X223407Y114115D01*
X223412Y114093D01*
X223417Y114077D01*
X223423Y114066D01*
Y114061D01*
X223488Y114279D01*
X223521Y114383D01*
X223554Y114476D01*
X223581Y114558D01*
X223592Y114590D01*
X223598Y114623D01*
X223609Y114645D01*
X223614Y114661D01*
X223620Y114672D01*
Y114678D01*
X224602Y117424D01*
X225148D01*
X223685Y113646D01*
D02*
G37*
G36*
X212096Y121277D02*
X210639Y117505D01*
X210245Y117859D01*
X210708Y118985D01*
X209531Y120045D01*
X208435Y119489D01*
X208013Y119869D01*
X211690Y121643D01*
X212096Y121277D01*
D02*
G37*
G36*
X213558Y119483D02*
X213581Y119484D01*
X213589Y119484D01*
X213597Y119485D01*
X213709Y119479D01*
X213815Y119457D01*
X213917Y119432D01*
X214007Y119402D01*
X214082Y119371D01*
X214138Y119343D01*
X214161Y119336D01*
X214174Y119326D01*
X214185Y119322D01*
X214189Y119319D01*
X214269Y119269D01*
X214361Y119208D01*
X214450Y119143D01*
X214535Y119074D01*
X214611Y119012D01*
X214644Y118983D01*
X214672Y118957D01*
X214692Y118939D01*
X214709Y118924D01*
X214721Y118913D01*
X214725Y118910D01*
X215691Y118040D01*
X213162Y115233D01*
X212152Y116142D01*
X212063Y116230D01*
X211981Y116311D01*
X211911Y116389D01*
X211854Y116455D01*
X211804Y116515D01*
X211767Y116555D01*
X211759Y116570D01*
X211750Y116585D01*
X211746Y116589D01*
X211742Y116592D01*
X211687Y116678D01*
X211644Y116761D01*
X211606Y116833D01*
X211579Y116901D01*
X211557Y116958D01*
X211543Y116999D01*
X211538Y117026D01*
X211533Y117038D01*
X211513Y117122D01*
X211509Y117207D01*
X211501Y117287D01*
X211501Y117361D01*
X211501Y117426D01*
X211502Y117477D01*
X211504Y117512D01*
X211508Y117523D01*
X211526Y117625D01*
X211547Y117730D01*
X211573Y117824D01*
X211607Y117911D01*
X211634Y117990D01*
X211658Y118049D01*
X211668Y118069D01*
X211675Y118085D01*
X211679Y118097D01*
X211682Y118101D01*
X211746Y118220D01*
X211813Y118336D01*
X211885Y118440D01*
X211953Y118540D01*
X212018Y118621D01*
X212048Y118654D01*
X212069Y118686D01*
X212087Y118706D01*
X212106Y118726D01*
X212113Y118734D01*
X212117Y118738D01*
X212245Y118873D01*
X212370Y118988D01*
X212493Y119083D01*
X212548Y119128D01*
X212601Y119162D01*
X212653Y119196D01*
X212694Y119225D01*
X212732Y119250D01*
X212769Y119267D01*
X212795Y119288D01*
X212818Y119297D01*
X212829Y119301D01*
X212833Y119306D01*
X212973Y119371D01*
X213109Y119417D01*
X213239Y119447D01*
X213354Y119468D01*
X213454Y119481D01*
X213531Y119485D01*
X213558Y119483D01*
D02*
G37*
G36*
X216446Y117051D02*
X216544Y117037D01*
X216629Y117026D01*
X216688Y117010D01*
X216711Y117004D01*
X216731Y117001D01*
X216743Y116998D01*
X216747Y116994D01*
X216865Y116946D01*
X216985Y116883D01*
X217092Y116823D01*
X217188Y116758D01*
X217273Y116697D01*
X217301Y116671D01*
X217333Y116650D01*
X217354Y116631D01*
X217374Y116613D01*
X217382Y116606D01*
X217386Y116602D01*
X217488Y116503D01*
X217570Y116407D01*
X217645Y116310D01*
X217707Y116225D01*
X217754Y116154D01*
X217775Y116120D01*
X217788Y116094D01*
X217796Y116071D01*
X217805Y116056D01*
X217810Y116044D01*
X217814Y116041D01*
X217858Y115927D01*
X217891Y115817D01*
X217908Y115713D01*
X217917Y115625D01*
X217917Y115551D01*
X217916Y115493D01*
X217914Y115451D01*
X217915Y115443D01*
X217911Y115439D01*
X217889Y115333D01*
X217856Y115239D01*
X217814Y115152D01*
X217771Y115080D01*
X217732Y115020D01*
X217703Y114972D01*
X217689Y114955D01*
X217678Y114943D01*
X217674Y114939D01*
X217670Y114935D01*
X217604Y114870D01*
X217534Y114816D01*
X217463Y114770D01*
X217399Y114732D01*
X217346Y114706D01*
X217301Y114688D01*
X217270Y114678D01*
X217259Y114674D01*
X217167Y114654D01*
X217071Y114645D01*
X216982Y114644D01*
X216900Y114651D01*
X216831Y114655D01*
X216776Y114668D01*
X216737Y114674D01*
X216729Y114673D01*
X216725Y114677D01*
X216678Y114690D01*
X216627Y114707D01*
X216520Y114751D01*
X216401Y114807D01*
X216286Y114859D01*
X216183Y114908D01*
X216140Y114932D01*
X216100Y114953D01*
X216068Y114967D01*
X216044Y114981D01*
X216028Y114988D01*
X216024Y114992D01*
X215941Y115038D01*
X215861Y115080D01*
X215790Y115115D01*
X215730Y115147D01*
X215671Y115178D01*
X215619Y115203D01*
X215575Y115227D01*
X215536Y115241D01*
X215500Y115258D01*
X215476Y115273D01*
X215433Y115290D01*
X215409Y115304D01*
X215401Y115303D01*
X215318Y115334D01*
X215240Y115353D01*
X215170Y115365D01*
X215115Y115370D01*
X215065Y115371D01*
X215034Y115369D01*
X215011Y115368D01*
X215003Y115368D01*
X214942Y115357D01*
X214885Y115334D01*
X214837Y115305D01*
X214795Y115283D01*
X214762Y115254D01*
X214736Y115234D01*
X214718Y115214D01*
X214714Y115209D01*
X214674Y115157D01*
X214642Y115105D01*
X214618Y115054D01*
X214605Y115006D01*
X214592Y114960D01*
X214586Y114928D01*
X214579Y114905D01*
X214580Y114897D01*
X214576Y114827D01*
X214587Y114758D01*
X214602Y114693D01*
X214613Y114632D01*
X214635Y114583D01*
X214649Y114541D01*
X214662Y114515D01*
X214666Y114503D01*
X214709Y114428D01*
X214759Y114354D01*
X214816Y114287D01*
X214866Y114228D01*
X214911Y114180D01*
X214948Y114139D01*
X214964Y114125D01*
X214976Y114114D01*
X214980Y114110D01*
X214984Y114106D01*
X215077Y114030D01*
X215166Y113965D01*
X215250Y113911D01*
X215329Y113869D01*
X215397Y113838D01*
X215448Y113814D01*
X215464Y113807D01*
X215480Y113800D01*
X215488Y113800D01*
X215492Y113796D01*
X215586Y113770D01*
X215680Y113752D01*
X215757Y113749D01*
X215830Y113749D01*
X215889Y113748D01*
X215934Y113758D01*
X215961Y113763D01*
X215969Y113764D01*
X216045Y113791D01*
X216124Y113822D01*
X216195Y113868D01*
X216259Y113906D01*
X216319Y113948D01*
X216360Y113977D01*
X216374Y113994D01*
X216389Y114002D01*
X216393Y114006D01*
X216397Y114010D01*
X216717Y113664D01*
X216617Y113569D01*
X216513Y113487D01*
X216412Y113423D01*
X216314Y113372D01*
X216231Y113337D01*
X216197Y113323D01*
X216171Y113310D01*
X216144Y113305D01*
X216129Y113296D01*
X216113Y113296D01*
X216110Y113292D01*
X215979Y113269D01*
X215852Y113259D01*
X215732Y113264D01*
X215623Y113274D01*
X215534Y113288D01*
X215463Y113308D01*
X215440Y113314D01*
X215420Y113317D01*
X215408Y113321D01*
X215404Y113324D01*
X215270Y113379D01*
X215139Y113446D01*
X215019Y113524D01*
X214903Y113599D01*
X214850Y113639D01*
X214806Y113672D01*
X214770Y113705D01*
X214734Y113730D01*
X214705Y113755D01*
X214685Y113774D01*
X214673Y113785D01*
X214669Y113788D01*
X214563Y113891D01*
X214472Y113994D01*
X214397Y114099D01*
X214338Y114188D01*
X214288Y114263D01*
X214271Y114301D01*
X214254Y114331D01*
X214245Y114354D01*
X214236Y114369D01*
X214232Y114380D01*
X214228Y114384D01*
X214183Y114505D01*
X214153Y114620D01*
X214136Y114731D01*
X214127Y114827D01*
X214123Y114904D01*
X214127Y114966D01*
X214129Y115009D01*
X214129Y115016D01*
X214132Y115020D01*
X214157Y115138D01*
X214191Y115240D01*
X214232Y115327D01*
X214275Y115407D01*
X214318Y115471D01*
X214350Y115523D01*
X214364Y115539D01*
X214375Y115551D01*
X214379Y115555D01*
X214383Y115559D01*
X214460Y115637D01*
X214541Y115703D01*
X214624Y115754D01*
X214695Y115792D01*
X214763Y115819D01*
X214812Y115841D01*
X214847Y115847D01*
X214858Y115851D01*
X214962Y115868D01*
X215070Y115874D01*
X215174Y115868D01*
X215275Y115857D01*
X215357Y115842D01*
X215424Y115826D01*
X215447Y115820D01*
X215467Y115817D01*
X215479Y115814D01*
X215483Y115810D01*
X215530Y115797D01*
X215581Y115773D01*
X215641Y115749D01*
X215704Y115721D01*
X215831Y115658D01*
X215962Y115592D01*
X216022Y115560D01*
X216077Y115532D01*
X216133Y115504D01*
X216177Y115479D01*
X216212Y115462D01*
X216240Y115444D01*
X216260Y115434D01*
X216264Y115430D01*
X216364Y115377D01*
X216451Y115328D01*
X216535Y115289D01*
X216606Y115254D01*
X216677Y115227D01*
X216736Y115203D01*
X216792Y115183D01*
X216839Y115162D01*
X216882Y115153D01*
X216917Y115143D01*
X216941Y115137D01*
X216968Y115134D01*
X216999Y115128D01*
X217007Y115129D01*
X217080Y115136D01*
X217141Y115155D01*
X217198Y115177D01*
X217246Y115207D01*
X217284Y115232D01*
X217313Y115257D01*
X217328Y115273D01*
X217335Y115281D01*
X217386Y115353D01*
X217421Y115425D01*
X217440Y115495D01*
X217452Y115566D01*
X217457Y115620D01*
X217458Y115670D01*
X217456Y115701D01*
X217452Y115712D01*
X217438Y115762D01*
X217424Y115812D01*
X217376Y115913D01*
X217313Y116007D01*
X217246Y116096D01*
X217180Y116170D01*
X217152Y116203D01*
X217131Y116229D01*
X217107Y116251D01*
X217090Y116266D01*
X217078Y116277D01*
X217074Y116280D01*
X216957Y116379D01*
X216841Y116454D01*
X216738Y116502D01*
X216647Y116540D01*
X216572Y116563D01*
X216510Y116576D01*
X216475Y116577D01*
X216463Y116581D01*
X216355Y116575D01*
X216256Y116554D01*
X216161Y116522D01*
X216078Y116479D01*
X216007Y116433D01*
X215954Y116400D01*
X215932Y116383D01*
X215917Y116374D01*
X215910Y116366D01*
X215906Y116362D01*
X215575Y116712D01*
X215663Y116794D01*
X215757Y116857D01*
X215846Y116916D01*
X215933Y116955D01*
X216005Y116986D01*
X216062Y117008D01*
X216081Y117013D01*
X216100Y117018D01*
X216108Y117018D01*
X216111Y117022D01*
X216226Y117044D01*
X216338Y117054D01*
X216446Y117051D01*
D02*
G37*
G36*
X214802Y108867D02*
X214898Y108847D01*
X214983Y108832D01*
X215041Y108813D01*
X215065Y108805D01*
X215084Y108801D01*
X215095Y108797D01*
X215099Y108793D01*
X215215Y108739D01*
X215331Y108670D01*
X215435Y108604D01*
X215528Y108535D01*
X215609Y108469D01*
X215636Y108442D01*
X215667Y108419D01*
X215686Y108399D01*
X215705Y108380D01*
X215713Y108372D01*
X215717Y108369D01*
X215813Y108264D01*
X215891Y108164D01*
X215960Y108064D01*
X216018Y107975D01*
X216061Y107902D01*
X216080Y107867D01*
X216091Y107840D01*
X216099Y107817D01*
X216107Y107801D01*
X216111Y107790D01*
X216115Y107786D01*
X216153Y107670D01*
X216180Y107558D01*
X216192Y107454D01*
X216196Y107365D01*
X216192Y107291D01*
X216188Y107234D01*
X216184Y107191D01*
Y107183D01*
X216180Y107179D01*
X216153Y107075D01*
X216115Y106983D01*
X216068Y106898D01*
X216022Y106828D01*
X215980Y106770D01*
X215949Y106724D01*
X215933Y106709D01*
X215922Y106697D01*
X215918Y106693D01*
X215914Y106689D01*
X215844Y106627D01*
X215771Y106577D01*
X215698Y106535D01*
X215632Y106500D01*
X215578Y106477D01*
X215532Y106461D01*
X215501Y106454D01*
X215489Y106450D01*
X215396Y106434D01*
X215300Y106430D01*
X215211Y106434D01*
X215130Y106446D01*
X215061Y106454D01*
X215007Y106469D01*
X214968Y106477D01*
X214960D01*
X214956Y106481D01*
X214910Y106496D01*
X214860Y106516D01*
X214756Y106566D01*
X214640Y106627D01*
X214528Y106685D01*
X214427Y106739D01*
X214385Y106766D01*
X214346Y106790D01*
X214316Y106805D01*
X214292Y106820D01*
X214277Y106828D01*
X214273Y106832D01*
X214192Y106882D01*
X214115Y106929D01*
X214045Y106967D01*
X213987Y107002D01*
X213929Y107037D01*
X213879Y107064D01*
X213837Y107091D01*
X213798Y107106D01*
X213763Y107125D01*
X213740Y107141D01*
X213698Y107160D01*
X213675Y107176D01*
X213667D01*
X213586Y107210D01*
X213509Y107234D01*
X213439Y107249D01*
X213385Y107257D01*
X213335Y107261D01*
X213273D01*
X213211Y107253D01*
X213153Y107234D01*
X213103Y107207D01*
X213061Y107187D01*
X213026Y107160D01*
X212999Y107141D01*
X212980Y107122D01*
X212976Y107118D01*
X212933Y107068D01*
X212899Y107017D01*
X212872Y106967D01*
X212856Y106921D01*
X212841Y106875D01*
X212833Y106844D01*
X212825Y106820D01*
Y106813D01*
X212818Y106743D01*
X212825Y106674D01*
X212837Y106608D01*
X212845Y106546D01*
X212864Y106496D01*
X212876Y106454D01*
X212887Y106427D01*
X212891Y106415D01*
X212930Y106338D01*
X212976Y106261D01*
X213030Y106191D01*
X213076Y106129D01*
X213119Y106079D01*
X213153Y106037D01*
X213169Y106021D01*
X213180Y106010D01*
X213184Y106006D01*
X213188Y106002D01*
X213277Y105921D01*
X213362Y105851D01*
X213443Y105793D01*
X213520Y105747D01*
X213586Y105712D01*
X213636Y105685D01*
X213651Y105678D01*
X213667Y105670D01*
X213675D01*
X213679Y105666D01*
X213771Y105635D01*
X213864Y105612D01*
X213941Y105604D01*
X214014Y105601D01*
X214072Y105597D01*
X214119Y105604D01*
X214146Y105608D01*
X214153D01*
X214231Y105631D01*
X214312Y105658D01*
X214385Y105701D01*
X214451Y105736D01*
X214512Y105774D01*
X214555Y105801D01*
X214570Y105817D01*
X214586Y105824D01*
X214590Y105828D01*
X214594Y105832D01*
X214895Y105469D01*
X214790Y105380D01*
X214682Y105303D01*
X214578Y105245D01*
X214478Y105199D01*
X214393Y105168D01*
X214358Y105157D01*
X214331Y105145D01*
X214304Y105141D01*
X214288Y105133D01*
X214273D01*
X214269Y105129D01*
X214138Y105114D01*
X214011Y105110D01*
X213891Y105122D01*
X213783Y105137D01*
X213694Y105157D01*
X213624Y105180D01*
X213601Y105187D01*
X213582Y105191D01*
X213570Y105195D01*
X213566Y105199D01*
X213435Y105261D01*
X213308Y105334D01*
X213192Y105419D01*
X213080Y105500D01*
X213030Y105543D01*
X212987Y105577D01*
X212953Y105612D01*
X212918Y105639D01*
X212891Y105666D01*
X212872Y105685D01*
X212860Y105697D01*
X212856Y105701D01*
X212756Y105809D01*
X212671Y105917D01*
X212601Y106025D01*
X212547Y106118D01*
X212501Y106195D01*
X212486Y106234D01*
X212470Y106264D01*
X212462Y106288D01*
X212455Y106303D01*
X212451Y106315D01*
X212447Y106319D01*
X212408Y106442D01*
X212385Y106558D01*
X212373Y106670D01*
X212370Y106766D01*
Y106844D01*
X212377Y106905D01*
X212381Y106948D01*
Y106956D01*
X212385Y106959D01*
X212416Y107075D01*
X212455Y107176D01*
X212501Y107261D01*
X212547Y107338D01*
X212594Y107400D01*
X212628Y107450D01*
X212644Y107465D01*
X212655Y107477D01*
X212659Y107481D01*
X212663Y107484D01*
X212744Y107558D01*
X212829Y107620D01*
X212914Y107666D01*
X212987Y107701D01*
X213057Y107724D01*
X213107Y107743D01*
X213142Y107747D01*
X213153Y107751D01*
X213258Y107763D01*
X213366D01*
X213470Y107751D01*
X213570Y107736D01*
X213651Y107716D01*
X213717Y107697D01*
X213740Y107689D01*
X213760Y107685D01*
X213771Y107681D01*
X213775Y107678D01*
X213821Y107662D01*
X213872Y107635D01*
X213929Y107608D01*
X213991Y107577D01*
X214115Y107508D01*
X214242Y107434D01*
X214300Y107400D01*
X214354Y107369D01*
X214408Y107338D01*
X214451Y107311D01*
X214485Y107291D01*
X214512Y107272D01*
X214532Y107261D01*
X214536Y107257D01*
X214632Y107199D01*
X214717Y107145D01*
X214798Y107102D01*
X214868Y107064D01*
X214937Y107033D01*
X214995Y107006D01*
X215049Y106983D01*
X215095Y106959D01*
X215138Y106948D01*
X215173Y106936D01*
X215196Y106929D01*
X215223Y106925D01*
X215254Y106917D01*
X215261D01*
X215335Y106921D01*
X215396Y106936D01*
X215455Y106956D01*
X215505Y106983D01*
X215543Y107006D01*
X215574Y107029D01*
X215590Y107044D01*
X215597Y107052D01*
X215651Y107122D01*
X215690Y107191D01*
X215713Y107261D01*
X215729Y107330D01*
X215736Y107384D01*
X215740Y107434D01*
Y107465D01*
X215736Y107477D01*
X215725Y107527D01*
X215713Y107577D01*
X215671Y107681D01*
X215613Y107778D01*
X215551Y107871D01*
X215489Y107948D01*
X215462Y107983D01*
X215443Y108010D01*
X215420Y108033D01*
X215404Y108048D01*
X215393Y108060D01*
X215389Y108064D01*
X215277Y108168D01*
X215165Y108249D01*
X215065Y108303D01*
X214976Y108345D01*
X214902Y108372D01*
X214841Y108388D01*
X214806Y108392D01*
X214794Y108396D01*
X214686D01*
X214586Y108380D01*
X214489Y108353D01*
X214404Y108315D01*
X214331Y108272D01*
X214277Y108241D01*
X214254Y108226D01*
X214238Y108218D01*
X214231Y108210D01*
X214227Y108206D01*
X213914Y108573D01*
X214007Y108651D01*
X214103Y108708D01*
X214196Y108763D01*
X214285Y108797D01*
X214358Y108824D01*
X214416Y108844D01*
X214435Y108847D01*
X214455Y108851D01*
X214462D01*
X214466Y108855D01*
X214582Y108871D01*
X214694Y108874D01*
X214802Y108867D01*
D02*
G37*
G36*
X223591Y109328D02*
X223783Y109301D01*
X223870Y109284D01*
X223952Y109263D01*
X224028Y109246D01*
X224099Y109224D01*
X224165Y109202D01*
X224219Y109181D01*
X224269Y109159D01*
X224312Y109142D01*
X224345Y109126D01*
X224367Y109115D01*
X224383Y109110D01*
X224389Y109104D01*
X224465Y109055D01*
X224542Y109006D01*
X224673Y108891D01*
X224787Y108776D01*
X224880Y108656D01*
X224956Y108553D01*
X224984Y108509D01*
X225006Y108465D01*
X225027Y108433D01*
X225038Y108411D01*
X225044Y108394D01*
X225049Y108389D01*
X225126Y108209D01*
X225180Y108028D01*
X225224Y107854D01*
X225235Y107772D01*
X225251Y107695D01*
X225257Y107624D01*
X225268Y107564D01*
X225273Y107504D01*
Y107455D01*
X225279Y107417D01*
Y107390D01*
Y107368D01*
Y107362D01*
X225268Y107160D01*
X225240Y106969D01*
X225224Y106882D01*
X225208Y106800D01*
X225186Y106718D01*
X225164Y106647D01*
X225142Y106582D01*
X225120Y106527D01*
X225104Y106472D01*
X225088Y106434D01*
X225071Y106396D01*
X225060Y106374D01*
X225049Y106358D01*
Y106352D01*
X224951Y106194D01*
X224842Y106058D01*
X224727Y105937D01*
X224618Y105839D01*
X224514Y105763D01*
X224476Y105735D01*
X224438Y105708D01*
X224405Y105692D01*
X224383Y105675D01*
X224367Y105670D01*
X224361Y105664D01*
X224274Y105621D01*
X224187Y105588D01*
X224012Y105528D01*
X223843Y105490D01*
X223684Y105457D01*
X223613Y105451D01*
X223548Y105440D01*
X223488Y105435D01*
X223439D01*
X223400Y105430D01*
X223346D01*
X223193Y105435D01*
X223045Y105451D01*
X222909Y105479D01*
X222789Y105506D01*
X222740Y105517D01*
X222691Y105528D01*
X222647Y105544D01*
X222609Y105555D01*
X222581Y105566D01*
X222560Y105571D01*
X222549Y105577D01*
X222543D01*
X222396Y105637D01*
X222259Y105708D01*
X222128Y105784D01*
X222014Y105855D01*
X221965Y105888D01*
X221915Y105921D01*
X221877Y105948D01*
X221844Y105970D01*
X221817Y105992D01*
X221795Y106008D01*
X221784Y106014D01*
X221779Y106019D01*
Y107422D01*
X223384D01*
Y106975D01*
X222270D01*
Y106265D01*
X222336Y106210D01*
X222412Y106161D01*
X222494Y106117D01*
X222570Y106079D01*
X222636Y106047D01*
X222696Y106019D01*
X222718Y106008D01*
X222729Y106003D01*
X222740Y105997D01*
X222745D01*
X222860Y105959D01*
X222975Y105926D01*
X223078Y105905D01*
X223177Y105894D01*
X223258Y105883D01*
X223291D01*
X223324Y105877D01*
X223379D01*
X223515Y105883D01*
X223646Y105905D01*
X223766Y105932D01*
X223875Y105959D01*
X223963Y105992D01*
X224001Y106003D01*
X224028Y106014D01*
X224056Y106025D01*
X224072Y106036D01*
X224083Y106041D01*
X224088D01*
X224203Y106112D01*
X224307Y106188D01*
X224394Y106270D01*
X224465Y106352D01*
X224525Y106429D01*
X224563Y106489D01*
X224580Y106511D01*
X224585Y106527D01*
X224596Y106538D01*
Y106543D01*
X224651Y106680D01*
X224694Y106822D01*
X224722Y106964D01*
X224744Y107100D01*
X224749Y107160D01*
X224755Y107215D01*
X224760Y107270D01*
Y107313D01*
X224765Y107346D01*
Y107373D01*
Y107390D01*
Y107395D01*
X224760Y107548D01*
X224744Y107685D01*
X224722Y107816D01*
X224694Y107930D01*
X224683Y107979D01*
X224667Y108023D01*
X224656Y108061D01*
X224645Y108094D01*
X224634Y108121D01*
X224629Y108138D01*
X224623Y108149D01*
Y108154D01*
X224585Y108230D01*
X224547Y108301D01*
X224509Y108367D01*
X224471Y108422D01*
X224438Y108465D01*
X224411Y108503D01*
X224389Y108525D01*
X224383Y108531D01*
X224323Y108591D01*
X224258Y108645D01*
X224187Y108689D01*
X224121Y108733D01*
X224067Y108760D01*
X224023Y108788D01*
X223990Y108798D01*
X223979Y108804D01*
X223881Y108842D01*
X223783Y108869D01*
X223679Y108886D01*
X223586Y108902D01*
X223504Y108908D01*
X223471D01*
X223444Y108913D01*
X223384D01*
X223280Y108908D01*
X223182Y108897D01*
X223095Y108880D01*
X223018Y108864D01*
X222953Y108842D01*
X222904Y108826D01*
X222876Y108815D01*
X222865Y108809D01*
X222783Y108771D01*
X222712Y108727D01*
X222647Y108684D01*
X222598Y108640D01*
X222560Y108602D01*
X222527Y108574D01*
X222511Y108553D01*
X222505Y108547D01*
X222456Y108482D01*
X222418Y108405D01*
X222379Y108334D01*
X222347Y108258D01*
X222325Y108192D01*
X222308Y108143D01*
X222303Y108121D01*
X222298Y108105D01*
X222292Y108099D01*
Y108094D01*
X221839Y108214D01*
X221877Y108351D01*
X221926Y108471D01*
X221975Y108580D01*
X222019Y108667D01*
X222063Y108738D01*
X222095Y108788D01*
X222117Y108820D01*
X222128Y108831D01*
X222205Y108918D01*
X222287Y108990D01*
X222374Y109055D01*
X222456Y109110D01*
X222532Y109148D01*
X222592Y109181D01*
X222614Y109192D01*
X222631Y109197D01*
X222641Y109202D01*
X222647D01*
X222773Y109246D01*
X222904Y109279D01*
X223024Y109306D01*
X223138Y109323D01*
X223242Y109334D01*
X223286D01*
X223319Y109339D01*
X223493D01*
X223591Y109328D01*
D02*
G37*
G36*
X211420Y112573D02*
X208748Y109901D01*
X207077Y111573D01*
X207393Y111890D01*
X208710Y110573D01*
X211065Y112928D01*
X211420Y112573D01*
D02*
G37*
G36*
X212092Y111569D02*
X212103Y111565D01*
X212111D01*
X212200Y111546D01*
X212289Y111527D01*
X212370Y111500D01*
X212451Y111465D01*
X212601Y111384D01*
X212729Y111303D01*
X212790Y111264D01*
X212837Y111226D01*
X212883Y111187D01*
X212922Y111156D01*
X212953Y111133D01*
X212972Y111114D01*
X212987Y111098D01*
X212991Y111094D01*
X213111Y110959D01*
X213215Y110816D01*
X213300Y110685D01*
X213335Y110619D01*
X213366Y110558D01*
X213393Y110500D01*
X213416Y110446D01*
X213435Y110403D01*
X213455Y110361D01*
X213462Y110330D01*
X213470Y110307D01*
X213478Y110291D01*
Y110284D01*
X213516Y110114D01*
X213528Y109948D01*
Y109793D01*
X213516Y109651D01*
X213497Y109531D01*
X213486Y109481D01*
X213474Y109438D01*
X213470Y109403D01*
X213462Y109380D01*
X213455Y109365D01*
Y109357D01*
X213389Y109183D01*
X213304Y109021D01*
X213208Y108871D01*
X213115Y108739D01*
X213072Y108681D01*
X213026Y108627D01*
X212991Y108585D01*
X212953Y108546D01*
X212930Y108515D01*
X212906Y108492D01*
X212891Y108477D01*
X212887Y108473D01*
X212740Y108342D01*
X212590Y108222D01*
X212451Y108122D01*
X212377Y108079D01*
X212316Y108040D01*
X212258Y108006D01*
X212200Y107979D01*
X212150Y107952D01*
X212111Y107929D01*
X212076Y107917D01*
X212053Y107902D01*
X212034Y107898D01*
X212030Y107894D01*
X211856Y107836D01*
X211686Y107797D01*
X211528Y107778D01*
X211458D01*
X211393Y107774D01*
X211331D01*
X211273Y107778D01*
X211223Y107782D01*
X211184Y107790D01*
X211154D01*
X211126Y107793D01*
X211115Y107797D01*
X211107D01*
X211022Y107820D01*
X210941Y107847D01*
X210783Y107921D01*
X210636Y108006D01*
X210505Y108098D01*
X210443Y108145D01*
X210389Y108183D01*
X210343Y108222D01*
X210308Y108257D01*
X210273Y108284D01*
X210250Y108307D01*
X210235Y108322D01*
X210231Y108326D01*
X210157Y108407D01*
X210092Y108488D01*
X210030Y108566D01*
X209980Y108647D01*
X209937Y108728D01*
X209899Y108805D01*
X209864Y108878D01*
X209837Y108952D01*
X209814Y109013D01*
X209791Y109075D01*
X209779Y109125D01*
X209768Y109176D01*
X209764Y109210D01*
X209752Y109237D01*
Y109253D01*
Y109260D01*
X209744Y109361D01*
Y109453D01*
X209756Y109550D01*
X209768Y109647D01*
X209806Y109824D01*
X209860Y109986D01*
X209887Y110060D01*
X209914Y110125D01*
X209941Y110183D01*
X209964Y110230D01*
X209984Y110272D01*
X209999Y110303D01*
X210011Y110322D01*
X210015Y110326D01*
X210459Y110060D01*
X210412Y109983D01*
X210374Y109905D01*
X210339Y109832D01*
X210308Y109762D01*
X210285Y109693D01*
X210269Y109631D01*
X210258Y109565D01*
X210246Y109508D01*
X210235Y109457D01*
Y109411D01*
X210231Y109369D01*
X210227Y109334D01*
X210231Y109307D01*
Y109284D01*
Y109276D01*
Y109268D01*
X210239Y109199D01*
X210258Y109133D01*
X210300Y109006D01*
X210350Y108894D01*
X210412Y108793D01*
X210466Y108708D01*
X210490Y108677D01*
X210517Y108651D01*
X210536Y108624D01*
X210551Y108608D01*
X210559Y108600D01*
X210563Y108597D01*
X210655Y108511D01*
X210756Y108442D01*
X210852Y108384D01*
X210945Y108338D01*
X211022Y108307D01*
X211057Y108295D01*
X211084Y108284D01*
X211107Y108276D01*
X211126Y108272D01*
X211138Y108268D01*
X211142Y108264D01*
X211269Y108245D01*
X211389Y108241D01*
X211509Y108253D01*
X211613Y108272D01*
X211702Y108291D01*
X211771Y108315D01*
X211798Y108326D01*
X211818Y108330D01*
X211829Y108334D01*
X211833Y108338D01*
X211964Y108407D01*
X212088Y108484D01*
X212208Y108566D01*
X212312Y108647D01*
X212358Y108685D01*
X212401Y108720D01*
X212435Y108755D01*
X212466Y108778D01*
X212489Y108801D01*
X212509Y108820D01*
X212520Y108832D01*
X212524Y108836D01*
X212621Y108940D01*
X212706Y109040D01*
X212775Y109141D01*
X212837Y109233D01*
X212891Y109311D01*
X212910Y109345D01*
X212926Y109376D01*
X212941Y109399D01*
X212949Y109415D01*
X212953Y109426D01*
X212957Y109430D01*
X213007Y109558D01*
X213045Y109681D01*
X213065Y109793D01*
X213072Y109901D01*
X213076Y109990D01*
X213072Y110056D01*
X213065Y110102D01*
X213069Y110114D01*
X213065Y110118D01*
X213034Y110249D01*
X212984Y110376D01*
X212926Y110488D01*
X212860Y110585D01*
X212798Y110670D01*
X212771Y110704D01*
X212744Y110731D01*
X212729Y110755D01*
X212713Y110770D01*
X212702Y110782D01*
X212698Y110785D01*
X212597Y110878D01*
X212493Y110951D01*
X212397Y111002D01*
X212308Y111044D01*
X212231Y111067D01*
X212173Y111087D01*
X212134Y111094D01*
X212119D01*
X211999Y111098D01*
X211876Y111091D01*
X211760Y111067D01*
X211652Y111037D01*
X211559Y111006D01*
X211516Y110986D01*
X211486Y110971D01*
X211458Y110959D01*
X211435Y110951D01*
X211424Y110948D01*
X211420Y110944D01*
X211154Y111372D01*
X211246Y111419D01*
X211331Y111457D01*
X211420Y111484D01*
X211505Y111515D01*
X211586Y111535D01*
X211667Y111546D01*
X211744Y111562D01*
X211814Y111569D01*
X211876D01*
X211933Y111573D01*
X212065D01*
X212092Y111569D01*
D02*
G37*
G36*
X247662Y195598D02*
X247023D01*
Y197498D01*
X243911D01*
Y198262D01*
X247662D01*
Y195598D01*
D02*
G37*
G36*
X242405Y214084D02*
X241876D01*
Y214614D01*
X242405D01*
Y214084D01*
D02*
G37*
G36*
X247662Y212502D02*
X243883D01*
Y213266D01*
X247662D01*
Y212502D01*
D02*
G37*
G36*
Y217236D02*
Y217105D01*
Y216990D01*
Y216881D01*
X247656Y216788D01*
Y216701D01*
Y216624D01*
X247651Y216559D01*
Y216504D01*
Y216455D01*
X247645Y216417D01*
Y216384D01*
Y216362D01*
X247640Y216340D01*
Y216330D01*
Y216319D01*
X247623Y216210D01*
X247596Y216111D01*
X247569Y216024D01*
X247536Y215947D01*
X247509Y215887D01*
X247481Y215844D01*
X247465Y215816D01*
X247460Y215805D01*
X247400Y215729D01*
X247334Y215669D01*
X247274Y215609D01*
X247208Y215565D01*
X247154Y215527D01*
X247110Y215500D01*
X247083Y215483D01*
X247072Y215478D01*
X246979Y215440D01*
X246892Y215407D01*
X246804Y215385D01*
X246728Y215374D01*
X246662Y215363D01*
X246613Y215358D01*
X246570D01*
X246450Y215363D01*
X246340Y215385D01*
X246248Y215418D01*
X246160Y215451D01*
X246095Y215483D01*
X246045Y215516D01*
X246013Y215538D01*
X246002Y215543D01*
X245915Y215620D01*
X245844Y215702D01*
X245783Y215794D01*
X245740Y215876D01*
X245702Y215953D01*
X245674Y216018D01*
X245669Y216040D01*
X245663Y216057D01*
X245658Y216068D01*
Y216073D01*
X245609Y215986D01*
X245560Y215909D01*
X245499Y215844D01*
X245450Y215789D01*
X245401Y215751D01*
X245363Y215718D01*
X245336Y215696D01*
X245325Y215691D01*
X245237Y215642D01*
X245156Y215603D01*
X245074Y215582D01*
X244997Y215560D01*
X244932Y215549D01*
X244883Y215543D01*
X244839D01*
X244752Y215549D01*
X244664Y215560D01*
X244593Y215582D01*
X244528Y215603D01*
X244473Y215625D01*
X244429Y215647D01*
X244408Y215658D01*
X244397Y215664D01*
X244326Y215707D01*
X244266Y215756D01*
X244211Y215805D01*
X244162Y215849D01*
X244129Y215893D01*
X244102Y215926D01*
X244085Y215947D01*
X244080Y215953D01*
X244036Y216018D01*
X244004Y216089D01*
X243976Y216155D01*
X243954Y216215D01*
X243938Y216269D01*
X243927Y216308D01*
X243922Y216335D01*
Y216346D01*
X243911Y216439D01*
X243900Y216543D01*
X243894Y216652D01*
X243889Y216761D01*
X243883Y216859D01*
Y216903D01*
Y216941D01*
Y216968D01*
Y216990D01*
Y217007D01*
Y217012D01*
Y218519D01*
X247662D01*
Y217236D01*
D02*
G37*
G36*
Y220900D02*
X247656Y220752D01*
X247651Y220616D01*
X247640Y220501D01*
X247623Y220408D01*
X247607Y220332D01*
X247596Y220272D01*
X247591Y220255D01*
Y220239D01*
X247585Y220233D01*
Y220228D01*
X247542Y220108D01*
X247492Y219999D01*
X247443Y219911D01*
X247394Y219835D01*
X247351Y219775D01*
X247318Y219731D01*
X247296Y219704D01*
X247285Y219693D01*
X247181Y219600D01*
X247072Y219518D01*
X246957Y219447D01*
X246854Y219393D01*
X246755Y219349D01*
X246717Y219327D01*
X246684Y219316D01*
X246652Y219305D01*
X246630Y219294D01*
X246619Y219289D01*
X246613D01*
X246482Y219251D01*
X246346Y219218D01*
X246215Y219196D01*
X246089Y219185D01*
X246029Y219180D01*
X245975Y219174D01*
X245931D01*
X245887Y219169D01*
X245811D01*
X245620Y219174D01*
X245450Y219191D01*
X245369Y219196D01*
X245298Y219207D01*
X245227Y219218D01*
X245166Y219229D01*
X245112Y219245D01*
X245063Y219256D01*
X245019Y219267D01*
X244986Y219272D01*
X244959Y219283D01*
X244937Y219289D01*
X244926Y219294D01*
X244921D01*
X244790Y219343D01*
X244670Y219404D01*
X244566Y219464D01*
X244479Y219524D01*
X244408Y219573D01*
X244353Y219617D01*
X244320Y219644D01*
X244309Y219649D01*
Y219655D01*
X244222Y219748D01*
X244151Y219840D01*
X244091Y219939D01*
X244042Y220026D01*
X244004Y220102D01*
X243976Y220168D01*
X243971Y220190D01*
X243965Y220206D01*
X243960Y220217D01*
Y220223D01*
X243933Y220326D01*
X243916Y220441D01*
X243900Y220561D01*
X243894Y220676D01*
X243889Y220779D01*
X243883Y220823D01*
Y220867D01*
Y220900D01*
Y220921D01*
Y220938D01*
Y220943D01*
Y222330D01*
X247662D01*
Y220900D01*
D02*
G37*
G36*
X240735Y213402D02*
X240915Y213391D01*
X241079Y213374D01*
X241231Y213347D01*
X241373Y213320D01*
X241499Y213287D01*
X241614Y213254D01*
X241712Y213222D01*
X241799Y213189D01*
X241876Y213151D01*
X241941Y213123D01*
X241990Y213096D01*
X242034Y213069D01*
X242061Y213052D01*
X242078Y213041D01*
X242083Y213036D01*
X242149Y212976D01*
X242209Y212910D01*
X242263Y212839D01*
X242307Y212768D01*
X242345Y212697D01*
X242378Y212626D01*
X242400Y212555D01*
X242422Y212490D01*
X242438Y212424D01*
X242449Y212364D01*
X242460Y212310D01*
X242465Y212266D01*
X242471Y212228D01*
Y212195D01*
Y212179D01*
Y212173D01*
X242460Y212026D01*
X242438Y211889D01*
X242400Y211775D01*
X242362Y211676D01*
X242323Y211594D01*
X242302Y211567D01*
X242285Y211540D01*
X242274Y211518D01*
X242263Y211502D01*
X242252Y211496D01*
Y211491D01*
X242160Y211392D01*
X242061Y211311D01*
X241952Y211240D01*
X241854Y211185D01*
X241761Y211141D01*
X241723Y211119D01*
X241685Y211108D01*
X241657Y211098D01*
X241635Y211087D01*
X241625Y211081D01*
X241619D01*
X241537Y211054D01*
X241455Y211032D01*
X241281Y210999D01*
X241100Y210972D01*
X240926Y210956D01*
X240849Y210950D01*
X240778Y210945D01*
X240713D01*
X240653Y210939D01*
X240440D01*
X240341Y210945D01*
X240254D01*
X240167Y210950D01*
X240090Y210961D01*
X240014Y210966D01*
X239948Y210972D01*
X239888Y210983D01*
X239834Y210988D01*
X239785Y210999D01*
X239746Y211005D01*
X239714Y211010D01*
X239686Y211016D01*
X239670Y211021D01*
X239659Y211027D01*
X239653D01*
X239533Y211059D01*
X239424Y211098D01*
X239331Y211141D01*
X239249Y211174D01*
X239178Y211212D01*
X239129Y211234D01*
X239102Y211256D01*
X239091Y211261D01*
X239009Y211321D01*
X238938Y211382D01*
X238878Y211447D01*
X238824Y211507D01*
X238785Y211562D01*
X238758Y211605D01*
X238742Y211633D01*
X238736Y211638D01*
Y211644D01*
X238692Y211731D01*
X238665Y211824D01*
X238643Y211911D01*
X238627Y211993D01*
X238616Y212064D01*
X238611Y212124D01*
Y212146D01*
Y212162D01*
Y212168D01*
Y212173D01*
X238622Y212321D01*
X238643Y212457D01*
X238682Y212572D01*
X238720Y212670D01*
X238763Y212752D01*
X238780Y212785D01*
X238802Y212812D01*
X238813Y212834D01*
X238824Y212850D01*
X238835Y212856D01*
Y212861D01*
X238922Y212959D01*
X239026Y213041D01*
X239129Y213112D01*
X239228Y213167D01*
X239320Y213211D01*
X239359Y213232D01*
X239397Y213243D01*
X239424Y213254D01*
X239446Y213265D01*
X239457Y213271D01*
X239462D01*
X239544Y213293D01*
X239626Y213314D01*
X239806Y213347D01*
X239987Y213374D01*
X240156Y213391D01*
X240238Y213396D01*
X240309Y213402D01*
X240374D01*
X240434Y213407D01*
X240544D01*
X240735Y213402D01*
D02*
G37*
G36*
X247662Y211077D02*
X244691D01*
X247662Y210334D01*
Y209597D01*
X244691Y208855D01*
X247662Y208849D01*
Y208145D01*
X243883D01*
Y209292D01*
X246466Y209963D01*
X243883Y210640D01*
Y211781D01*
X247662D01*
Y211077D01*
D02*
G37*
G36*
X239976Y217377D02*
X239937Y217295D01*
X239899Y217213D01*
X239861Y217136D01*
X239828Y217071D01*
X239801Y217016D01*
X239779Y216984D01*
X239774Y216978D01*
Y216972D01*
X239714Y216874D01*
X239653Y216787D01*
X239599Y216710D01*
X239550Y216650D01*
X239511Y216596D01*
X239479Y216563D01*
X239457Y216536D01*
X239452Y216530D01*
X242405D01*
Y216066D01*
X238611D01*
Y216367D01*
X238703Y216421D01*
X238791Y216481D01*
X238878Y216552D01*
X238955Y216618D01*
X239020Y216683D01*
X239075Y216732D01*
X239091Y216754D01*
X239107Y216771D01*
X239113Y216776D01*
X239118Y216781D01*
X239211Y216896D01*
X239299Y217011D01*
X239375Y217120D01*
X239435Y217229D01*
X239490Y217322D01*
X239511Y217360D01*
X239528Y217393D01*
X239544Y217420D01*
X239550Y217442D01*
X239561Y217453D01*
Y217459D01*
X240008D01*
X239976Y217377D01*
D02*
G37*
G36*
X242405Y220074D02*
Y219550D01*
X238627Y218075D01*
Y218583D01*
X241373Y219610D01*
X241488Y219653D01*
X241597Y219692D01*
X241701Y219724D01*
X241794Y219752D01*
X241876Y219779D01*
X241936Y219795D01*
X241958Y219801D01*
X241974Y219806D01*
X241985Y219812D01*
X241990D01*
X241772Y219877D01*
X241668Y219910D01*
X241575Y219943D01*
X241494Y219970D01*
X241461Y219981D01*
X241428Y219987D01*
X241406Y219997D01*
X241390Y220003D01*
X241379Y220008D01*
X241373D01*
X238627Y220991D01*
Y221537D01*
X242405Y220074D01*
D02*
G37*
G36*
X247662Y201670D02*
X246804Y201358D01*
Y199840D01*
X247662Y199513D01*
Y198688D01*
X243883Y200206D01*
Y201014D01*
X247662Y202478D01*
Y201670D01*
D02*
G37*
G36*
X246127Y207375D02*
X246231D01*
X246324Y207370D01*
X246411Y207364D01*
X246488Y207359D01*
X246559Y207353D01*
X246624Y207342D01*
X246679Y207337D01*
X246728Y207331D01*
X246772Y207326D01*
X246804Y207321D01*
X246832Y207315D01*
X246848D01*
X246859Y207310D01*
X246865D01*
X246946Y207282D01*
X247023Y207255D01*
X247094Y207217D01*
X247154Y207184D01*
X247208Y207151D01*
X247252Y207124D01*
X247274Y207102D01*
X247285Y207097D01*
X247356Y207031D01*
X247422Y206960D01*
X247476Y206884D01*
X247525Y206813D01*
X247563Y206753D01*
X247591Y206698D01*
X247607Y206665D01*
X247613Y206660D01*
Y206655D01*
X247634Y206600D01*
X247651Y206540D01*
X247684Y206403D01*
X247705Y206267D01*
X247716Y206136D01*
X247722Y206076D01*
X247727Y206016D01*
Y205966D01*
X247733Y205917D01*
Y205879D01*
Y205852D01*
Y205836D01*
Y205830D01*
X247727Y205672D01*
X247716Y205530D01*
X247694Y205404D01*
X247673Y205300D01*
X247667Y205257D01*
X247656Y205213D01*
X247645Y205180D01*
X247634Y205153D01*
X247629Y205131D01*
X247623Y205115D01*
X247618Y205109D01*
Y205104D01*
X247574Y205006D01*
X247520Y204918D01*
X247471Y204842D01*
X247422Y204776D01*
X247378Y204727D01*
X247345Y204689D01*
X247323Y204667D01*
X247312Y204662D01*
X247236Y204602D01*
X247154Y204552D01*
X247077Y204514D01*
X247001Y204481D01*
X246936Y204460D01*
X246881Y204443D01*
X246865Y204438D01*
X246848D01*
X246843Y204432D01*
X246837D01*
X246777Y204421D01*
X246712Y204410D01*
X246641Y204399D01*
X246570Y204394D01*
X246406Y204383D01*
X246248Y204372D01*
X246106D01*
X246040Y204367D01*
X243883D01*
Y205131D01*
X246138D01*
X246209Y205137D01*
X246275D01*
X246329Y205142D01*
X246384D01*
X246433Y205148D01*
X246477D01*
X246542Y205158D01*
X246591Y205164D01*
X246619Y205169D01*
X246630D01*
X246701Y205186D01*
X246761Y205213D01*
X246815Y205246D01*
X246865Y205278D01*
X246903Y205311D01*
X246930Y205339D01*
X246946Y205360D01*
X246952Y205366D01*
X246996Y205431D01*
X247028Y205513D01*
X247050Y205590D01*
X247067Y205672D01*
X247077Y205743D01*
X247083Y205797D01*
Y205819D01*
Y205836D01*
Y205846D01*
Y205852D01*
X247077Y205966D01*
X247061Y206065D01*
X247039Y206152D01*
X247012Y206229D01*
X246990Y206283D01*
X246968Y206327D01*
X246952Y206349D01*
X246946Y206360D01*
X246892Y206420D01*
X246826Y206469D01*
X246766Y206512D01*
X246706Y206540D01*
X246652Y206562D01*
X246608Y206578D01*
X246581Y206589D01*
X246570D01*
X246537Y206594D01*
X246504Y206600D01*
X246461D01*
X246411Y206605D01*
X246308Y206611D01*
X246198D01*
X246100Y206616D01*
X243883D01*
Y207381D01*
X246018D01*
X246127Y207375D01*
D02*
G37*
%LPC*%
G36*
X213572Y118992D02*
X213472Y118987D01*
X213388Y118975D01*
X213319Y118964D01*
X213296Y118955D01*
X213277Y118950D01*
X213262Y118949D01*
X213258Y118945D01*
X213193Y118922D01*
X213122Y118892D01*
X212990Y118819D01*
X212863Y118727D01*
X212744Y118636D01*
X212697Y118591D01*
X212649Y118546D01*
X212608Y118509D01*
X212575Y118473D01*
X212542Y118444D01*
X212524Y118423D01*
X212509Y118407D01*
X212505Y118403D01*
X212407Y118286D01*
X212320Y118173D01*
X212248Y118069D01*
X212188Y117977D01*
X212166Y117937D01*
X212149Y117901D01*
X212131Y117865D01*
X212117Y117841D01*
X212107Y117822D01*
X212100Y117806D01*
X212097Y117794D01*
X212093Y117790D01*
X212052Y117687D01*
X212022Y117589D01*
X212004Y117495D01*
X211989Y117413D01*
X211981Y117347D01*
X211980Y117297D01*
X211981Y117266D01*
X211978Y117254D01*
X211989Y117185D01*
X212004Y117120D01*
X212023Y117059D01*
X212042Y116999D01*
X212064Y116949D01*
X212081Y116912D01*
X212098Y116889D01*
X212102Y116878D01*
X212148Y116807D01*
X212210Y116729D01*
X212276Y116655D01*
X212341Y116589D01*
X212399Y116530D01*
X212423Y116500D01*
X212448Y116479D01*
X212464Y116464D01*
X212480Y116449D01*
X212488Y116442D01*
X212492Y116438D01*
X213089Y115901D01*
X215018Y118044D01*
X214429Y118573D01*
X214369Y118628D01*
X214312Y118672D01*
X214259Y118719D01*
X214207Y118759D01*
X214115Y118820D01*
X214043Y118870D01*
X213979Y118906D01*
X213932Y118926D01*
X213908Y118940D01*
X213896Y118944D01*
X213790Y118973D01*
X213681Y118991D01*
X213572Y118992D01*
D02*
G37*
G36*
X211638Y121160D02*
X211525Y121093D01*
X211405Y121025D01*
X211285Y120957D01*
X211169Y120892D01*
X211116Y120866D01*
X211067Y120837D01*
X211022Y120811D01*
X210984Y120794D01*
X210954Y120777D01*
X210928Y120764D01*
X210913Y120755D01*
X210909Y120751D01*
X209923Y120243D01*
X210873Y119388D01*
X211306Y120482D01*
X211361Y120616D01*
X211420Y120739D01*
X211472Y120854D01*
X211525Y120954D01*
X211571Y121037D01*
X211588Y121073D01*
X211610Y121105D01*
X211616Y121128D01*
X211631Y121145D01*
X211634Y121157D01*
X211638Y121160D01*
D02*
G37*
G36*
X240631Y212932D02*
X240544D01*
X240374Y212927D01*
X240221Y212921D01*
X240079Y212910D01*
X239948Y212894D01*
X239834Y212877D01*
X239730Y212856D01*
X239637Y212834D01*
X239555Y212812D01*
X239484Y212790D01*
X239424Y212774D01*
X239375Y212752D01*
X239331Y212736D01*
X239304Y212719D01*
X239282Y212708D01*
X239271Y212697D01*
X239266D01*
X239217Y212659D01*
X239173Y212621D01*
X239140Y212577D01*
X239107Y212534D01*
X239058Y212446D01*
X239026Y212364D01*
X239009Y212293D01*
X238998Y212233D01*
X238993Y212211D01*
Y212195D01*
Y212184D01*
Y212179D01*
X238998Y212119D01*
X239004Y212058D01*
X239020Y212004D01*
X239042Y211955D01*
X239091Y211862D01*
X239146Y211780D01*
X239206Y211720D01*
X239255Y211671D01*
X239277Y211654D01*
X239293Y211644D01*
X239299Y211633D01*
X239304D01*
X239370Y211594D01*
X239446Y211562D01*
X239533Y211529D01*
X239626Y211507D01*
X239724Y211485D01*
X239828Y211469D01*
X240036Y211442D01*
X240139Y211431D01*
X240232Y211425D01*
X240320Y211420D01*
X240391D01*
X240456Y211414D01*
X240713D01*
X240866Y211425D01*
X241002Y211436D01*
X241133Y211447D01*
X241242Y211463D01*
X241346Y211485D01*
X241434Y211507D01*
X241515Y211524D01*
X241581Y211545D01*
X241635Y211567D01*
X241685Y211583D01*
X241723Y211605D01*
X241750Y211616D01*
X241767Y211627D01*
X241777Y211638D01*
X241783D01*
X241838Y211682D01*
X241881Y211725D01*
X241925Y211769D01*
X241958Y211813D01*
X242012Y211906D01*
X242051Y211988D01*
X242072Y212064D01*
X242083Y212119D01*
X242089Y212140D01*
Y212157D01*
Y212168D01*
Y212173D01*
X242083Y212233D01*
X242078Y212288D01*
X242039Y212392D01*
X241990Y212484D01*
X241936Y212566D01*
X241881Y212626D01*
X241832Y212675D01*
X241794Y212703D01*
X241788Y212714D01*
X241783D01*
X241717Y212752D01*
X241641Y212785D01*
X241554Y212818D01*
X241461Y212839D01*
X241363Y212861D01*
X241259Y212877D01*
X241046Y212905D01*
X240948Y212916D01*
X240855Y212921D01*
X240767Y212927D01*
X240696D01*
X240631Y212932D01*
D02*
G37*
G36*
X247023Y221566D02*
X244522D01*
Y221227D01*
Y221145D01*
Y221069D01*
X244528Y220998D01*
Y220932D01*
X244533Y220878D01*
Y220829D01*
X244539Y220779D01*
Y220741D01*
X244549Y220681D01*
X244555Y220637D01*
X244560Y220610D01*
Y220605D01*
X244582Y220528D01*
X244610Y220463D01*
X244637Y220403D01*
X244670Y220348D01*
X244697Y220310D01*
X244719Y220277D01*
X244735Y220261D01*
X244741Y220255D01*
X244795Y220206D01*
X244855Y220163D01*
X244915Y220124D01*
X244970Y220092D01*
X245024Y220070D01*
X245068Y220053D01*
X245095Y220042D01*
X245101Y220037D01*
X245106D01*
X245205Y220010D01*
X245308Y219988D01*
X245423Y219977D01*
X245532Y219966D01*
X245625Y219960D01*
X245669Y219955D01*
X245778D01*
X245931Y219960D01*
X246073Y219966D01*
X246187Y219982D01*
X246286Y219993D01*
X246368Y220010D01*
X246400Y220015D01*
X246422Y220026D01*
X246444Y220031D01*
X246461D01*
X246466Y220037D01*
X246471D01*
X246559Y220070D01*
X246635Y220097D01*
X246695Y220135D01*
X246744Y220163D01*
X246783Y220190D01*
X246810Y220212D01*
X246826Y220228D01*
X246832Y220233D01*
X246870Y220283D01*
X246903Y220332D01*
X246930Y220381D01*
X246952Y220430D01*
X246968Y220474D01*
X246979Y220507D01*
X246990Y220528D01*
Y220539D01*
X247001Y220599D01*
X247007Y220670D01*
X247017Y220747D01*
Y220823D01*
X247023Y220894D01*
Y220949D01*
Y220971D01*
Y220987D01*
Y220998D01*
Y221003D01*
Y221566D01*
D02*
G37*
G36*
X246269Y182641D02*
X244970Y181762D01*
X246269D01*
Y182641D01*
D02*
G37*
G36*
X246166Y201129D02*
X244762Y200616D01*
X246166Y200086D01*
Y201129D01*
D02*
G37*
G36*
X245483Y189592D02*
X244522D01*
Y189002D01*
Y188920D01*
Y188844D01*
Y188778D01*
Y188718D01*
X244528Y188669D01*
Y188620D01*
Y188582D01*
Y188549D01*
X244533Y188500D01*
Y188467D01*
X244539Y188451D01*
Y188445D01*
X244555Y188380D01*
X244577Y188320D01*
X244599Y188271D01*
X244626Y188232D01*
X244653Y188200D01*
X244670Y188172D01*
X244686Y188161D01*
X244691Y188156D01*
X244735Y188123D01*
X244790Y188096D01*
X244839Y188080D01*
X244888Y188063D01*
X244932Y188058D01*
X244965Y188052D01*
X244997D01*
X245057Y188058D01*
X245112Y188063D01*
X245161Y188080D01*
X245205Y188091D01*
X245237Y188107D01*
X245259Y188123D01*
X245276Y188129D01*
X245281Y188134D01*
X245319Y188167D01*
X245352Y188200D01*
X245401Y188271D01*
X245418Y188298D01*
X245429Y188325D01*
X245440Y188342D01*
Y188347D01*
X245445Y188374D01*
X245456Y188418D01*
X245461Y188462D01*
X245467Y188511D01*
X245472Y188626D01*
X245478Y188740D01*
X245483Y188849D01*
Y188899D01*
Y188942D01*
Y188980D01*
Y189008D01*
Y189024D01*
Y189030D01*
Y189592D01*
D02*
G37*
G36*
X244932Y179480D02*
X244894D01*
X244817Y179475D01*
X244752Y179464D01*
X244697Y179442D01*
X244648Y179420D01*
X244610Y179398D01*
X244582Y179376D01*
X244566Y179365D01*
X244560Y179360D01*
X244517Y179311D01*
X244489Y179256D01*
X244468Y179202D01*
X244451Y179147D01*
X244440Y179098D01*
X244435Y179060D01*
Y179038D01*
Y179027D01*
X244440Y178956D01*
X244457Y178890D01*
X244473Y178836D01*
X244495Y178787D01*
X244522Y178748D01*
X244539Y178721D01*
X244555Y178705D01*
X244560Y178699D01*
X244610Y178656D01*
X244664Y178628D01*
X244719Y178606D01*
X244773Y178590D01*
X244817Y178579D01*
X244855Y178574D01*
X244888D01*
X244965Y178579D01*
X245035Y178595D01*
X245090Y178612D01*
X245139Y178634D01*
X245183Y178661D01*
X245210Y178677D01*
X245227Y178694D01*
X245232Y178699D01*
X245270Y178748D01*
X245303Y178803D01*
X245325Y178858D01*
X245336Y178912D01*
X245347Y178961D01*
X245352Y179000D01*
Y179021D01*
Y179032D01*
X245347Y179103D01*
X245336Y179169D01*
X245314Y179223D01*
X245292Y179273D01*
X245270Y179311D01*
X245248Y179338D01*
X245237Y179355D01*
X245232Y179360D01*
X245183Y179398D01*
X245128Y179431D01*
X245074Y179453D01*
X245019Y179464D01*
X244970Y179475D01*
X244932Y179480D01*
D02*
G37*
G36*
X245385Y217755D02*
X244511D01*
Y217323D01*
Y217225D01*
Y217138D01*
Y217061D01*
Y216996D01*
X244517Y216936D01*
Y216881D01*
Y216832D01*
Y216794D01*
X244522Y216761D01*
Y216739D01*
Y216701D01*
X244528Y216679D01*
Y216674D01*
X244539Y216608D01*
X244555Y216548D01*
X244577Y216499D01*
X244599Y216455D01*
X244620Y216428D01*
X244642Y216401D01*
X244653Y216390D01*
X244659Y216384D01*
X244702Y216351D01*
X244752Y216330D01*
X244795Y216308D01*
X244839Y216297D01*
X244883Y216291D01*
X244915Y216286D01*
X244943D01*
X245008Y216291D01*
X245068Y216302D01*
X245117Y216324D01*
X245161Y216340D01*
X245199Y216362D01*
X245221Y216384D01*
X245237Y216395D01*
X245243Y216401D01*
X245281Y216444D01*
X245308Y216493D01*
X245330Y216543D01*
X245347Y216592D01*
X245363Y216641D01*
X245369Y216674D01*
X245374Y216695D01*
Y216706D01*
Y216728D01*
X245379Y216761D01*
Y216799D01*
Y216837D01*
Y216930D01*
X245385Y217023D01*
Y217110D01*
Y217154D01*
Y217187D01*
Y217214D01*
Y217236D01*
Y217252D01*
Y217258D01*
Y217755D01*
D02*
G37*
G36*
X247023D02*
X246013D01*
Y217143D01*
Y217050D01*
Y216963D01*
X246018Y216886D01*
X246024Y216821D01*
Y216756D01*
X246029Y216701D01*
X246035Y216652D01*
X246040Y216614D01*
X246045Y216575D01*
X246051Y216548D01*
X246057Y216504D01*
X246067Y216477D01*
Y216472D01*
X246089Y216417D01*
X246116Y216368D01*
X246144Y216324D01*
X246177Y216291D01*
X246198Y216264D01*
X246220Y216248D01*
X246237Y216237D01*
X246242Y216231D01*
X246291Y216204D01*
X246340Y216182D01*
X246384Y216166D01*
X246433Y216155D01*
X246471Y216149D01*
X246504Y216144D01*
X246532D01*
X246603Y216149D01*
X246668Y216160D01*
X246723Y216177D01*
X246766Y216198D01*
X246804Y216220D01*
X246832Y216237D01*
X246848Y216248D01*
X246854Y216253D01*
X246892Y216297D01*
X246925Y216340D01*
X246952Y216390D01*
X246974Y216433D01*
X246985Y216472D01*
X246996Y216504D01*
X247001Y216526D01*
Y216532D01*
X247007Y216553D01*
Y216586D01*
X247012Y216657D01*
X247017Y216744D01*
Y216832D01*
X247023Y216914D01*
Y216985D01*
Y217012D01*
Y217034D01*
Y217045D01*
Y217050D01*
Y217755D01*
D02*
G37*
G36*
X246559Y179546D02*
X246510D01*
X246433Y179540D01*
X246357Y179524D01*
X246291Y179507D01*
X246231Y179480D01*
X246182Y179458D01*
X246144Y179442D01*
X246122Y179426D01*
X246111Y179420D01*
X246051Y179365D01*
X246002Y179300D01*
X245969Y179234D01*
X245947Y179169D01*
X245936Y179114D01*
X245925Y179065D01*
Y179032D01*
Y179027D01*
Y179021D01*
X245931Y178939D01*
X245953Y178863D01*
X245975Y178798D01*
X246007Y178743D01*
X246035Y178699D01*
X246062Y178666D01*
X246084Y178645D01*
X246089Y178639D01*
X246155Y178590D01*
X246226Y178552D01*
X246297Y178524D01*
X246368Y178503D01*
X246428Y178492D01*
X246477Y178486D01*
X246521D01*
X246630Y178492D01*
X246723Y178508D01*
X246804Y178535D01*
X246870Y178563D01*
X246925Y178590D01*
X246957Y178617D01*
X246985Y178634D01*
X246990Y178639D01*
X247045Y178699D01*
X247083Y178759D01*
X247110Y178819D01*
X247127Y178879D01*
X247137Y178934D01*
X247148Y178972D01*
Y179000D01*
Y179010D01*
X247143Y179092D01*
X247121Y179169D01*
X247094Y179234D01*
X247067Y179289D01*
X247034Y179333D01*
X247012Y179365D01*
X246990Y179387D01*
X246985Y179393D01*
X246914Y179442D01*
X246837Y179480D01*
X246761Y179507D01*
X246684Y179524D01*
X246613Y179535D01*
X246559Y179546D01*
D02*
G37*
%LPD*%
D32*
X185889Y97490D02*
Y98990D01*
X185590Y97490D02*
Y99290D01*
Y120590D02*
Y121790D01*
X185290Y97490D02*
Y99290D01*
Y119990D02*
Y122390D01*
X184990Y97490D02*
Y99290D01*
Y119690D02*
Y122690D01*
X184689Y97490D02*
Y98990D01*
Y119390D02*
Y122990D01*
X184389Y98090D02*
Y98390D01*
Y119390D02*
Y122990D01*
X184090Y119090D02*
Y122990D01*
X183790Y116690D02*
Y118190D01*
Y119090D02*
Y122990D01*
X183490Y97790D02*
Y98990D01*
Y116090D02*
Y118790D01*
Y119090D02*
Y122990D01*
X183189Y97490D02*
Y99290D01*
Y116090D02*
Y122990D01*
X182889Y97490D02*
Y99590D01*
Y115790D02*
Y119090D01*
Y119390D02*
Y122990D01*
X182589Y97490D02*
Y99590D01*
Y115790D02*
Y122990D01*
X182290Y97490D02*
Y99590D01*
Y113090D02*
Y114590D01*
Y115490D02*
Y119390D01*
Y119690D02*
Y122690D01*
X181990Y97490D02*
Y99290D01*
Y112790D02*
Y114890D01*
Y115490D02*
Y119390D01*
Y119990D02*
Y122390D01*
X181690Y97790D02*
Y98990D01*
Y112490D02*
Y115190D01*
Y115790D02*
Y119390D01*
Y120590D02*
Y121790D01*
X181389Y112190D02*
Y115490D01*
Y115790D02*
Y119390D01*
X181089Y99290D02*
Y100490D01*
Y109490D02*
Y110690D01*
Y112190D02*
Y115490D01*
Y115790D02*
Y119090D01*
X180789Y98990D02*
Y100790D01*
Y108890D02*
Y110990D01*
Y112190D02*
Y115490D01*
Y116090D02*
Y118790D01*
X180490Y98690D02*
Y100790D01*
Y108590D02*
Y111290D01*
Y112190D02*
Y115490D01*
Y116690D02*
Y118490D01*
X180190Y98690D02*
Y101090D01*
Y105590D02*
Y107090D01*
Y108590D02*
Y111590D01*
Y112190D02*
Y115490D01*
X179890Y98690D02*
Y101090D01*
Y101990D02*
Y103490D01*
Y105290D02*
Y107390D01*
Y108290D02*
Y111590D01*
Y112190D02*
Y115490D01*
X179589Y98690D02*
Y101090D01*
Y101690D02*
Y103790D01*
Y104990D02*
Y107690D01*
Y108290D02*
Y111590D01*
Y112490D02*
Y115190D01*
X179289Y98690D02*
Y100790D01*
Y101690D02*
Y104090D01*
Y104990D02*
Y107690D01*
Y108290D02*
Y111590D01*
Y112790D02*
Y114890D01*
X178990Y99290D02*
Y100490D01*
Y101390D02*
Y104090D01*
Y104990D02*
Y107690D01*
Y108590D02*
Y111590D01*
Y113390D02*
Y114290D01*
X178690Y101390D02*
Y104090D01*
Y104990D02*
Y107690D01*
Y108590D02*
Y111290D01*
X178390Y101390D02*
Y104090D01*
Y104990D02*
Y107690D01*
Y108890D02*
Y110990D01*
X178089Y101690D02*
Y104090D01*
Y104990D02*
Y107390D01*
Y109490D02*
Y110690D01*
X177789Y101990D02*
Y103790D01*
Y105290D02*
Y107090D01*
X177489Y102290D02*
Y103190D01*
Y106190D02*
Y106490D01*
X177190Y111890D02*
Y112490D01*
X176890Y107990D02*
Y109490D01*
Y111290D02*
Y113090D01*
X176590Y104690D02*
Y105290D01*
Y107390D02*
Y109790D01*
Y110990D02*
Y113390D01*
X176289Y104090D02*
Y105890D01*
Y107390D02*
Y110090D01*
Y110990D02*
Y113390D01*
X175989Y103790D02*
Y106190D01*
Y107390D02*
Y110090D01*
Y110990D02*
Y113690D01*
X175689Y101090D02*
Y101390D01*
Y103490D02*
Y106490D01*
Y107090D02*
Y110090D01*
Y110990D02*
Y113690D01*
Y114590D02*
Y115790D01*
X175390Y100190D02*
Y102290D01*
Y103490D02*
Y106490D01*
Y107390D02*
Y110090D01*
Y110990D02*
Y113390D01*
Y114290D02*
Y116090D01*
X175090Y99890D02*
Y102590D01*
Y103490D02*
Y106490D01*
Y107390D02*
Y110090D01*
Y111290D02*
Y113390D01*
Y113990D02*
Y116390D01*
X174790Y99590D02*
Y102890D01*
Y103490D02*
Y106490D01*
Y107690D02*
Y109790D01*
Y111590D02*
Y113090D01*
Y113990D02*
Y116390D01*
X174489Y99590D02*
Y102890D01*
Y103490D02*
Y106490D01*
Y107990D02*
Y109490D01*
Y113990D02*
Y116390D01*
X174189Y96590D02*
Y98390D01*
Y99590D02*
Y102890D01*
Y103490D02*
Y106490D01*
Y113990D02*
Y116390D01*
X173890Y96290D02*
Y98690D01*
Y99590D02*
Y102890D01*
Y103790D02*
Y106190D01*
Y114290D02*
Y116090D01*
X173590Y95990D02*
Y98990D01*
Y99590D02*
Y102890D01*
Y104390D02*
Y105590D01*
Y114590D02*
Y115790D01*
X173290Y95690D02*
Y99290D01*
Y99590D02*
Y102890D01*
X172989Y93590D02*
Y93890D01*
Y95690D02*
Y99290D01*
Y99590D02*
Y102590D01*
Y116090D02*
Y116990D01*
X172689Y92690D02*
Y94790D01*
Y95690D02*
Y99290D01*
Y99890D02*
Y102290D01*
Y115790D02*
Y117590D01*
X172389Y92390D02*
Y95390D01*
Y95690D02*
Y99290D01*
Y100490D02*
Y101990D01*
Y115490D02*
Y117590D01*
X172090Y92090D02*
Y95390D01*
Y95690D02*
Y99290D01*
Y115490D02*
Y117590D01*
X171790Y92090D02*
Y99290D01*
Y104690D02*
Y105590D01*
Y115490D02*
Y117590D01*
X171490Y91790D02*
Y95690D01*
Y95990D02*
Y98990D01*
Y103790D02*
Y106490D01*
Y115790D02*
Y117590D01*
X171189Y91790D02*
Y95990D01*
Y96290D02*
Y98990D01*
Y103490D02*
Y106790D01*
Y116090D02*
Y117290D01*
X170889Y91790D02*
Y95990D01*
Y96590D02*
Y98390D01*
Y103190D02*
Y107090D01*
X170589Y91790D02*
Y95690D01*
Y102890D02*
Y107390D01*
X170290Y91790D02*
Y95690D01*
Y102890D02*
Y107690D01*
X169990Y92090D02*
Y95690D01*
Y102590D02*
Y107690D01*
Y116090D02*
Y117290D01*
X169690Y92390D02*
Y95390D01*
Y102590D02*
Y107690D01*
Y115790D02*
Y117590D01*
X169389Y92690D02*
Y95090D01*
Y102590D02*
Y107690D01*
Y115790D02*
Y117590D01*
X169089Y93290D02*
Y94490D01*
Y102590D02*
Y107690D01*
Y115790D02*
Y117590D01*
X168790Y102590D02*
Y107690D01*
Y116090D02*
Y117590D01*
X168490Y102590D02*
Y107690D01*
Y116390D02*
Y116990D01*
X168190Y102890D02*
Y107690D01*
X167889Y102890D02*
Y107390D01*
X167589Y103190D02*
Y107090D01*
X167289Y103490D02*
Y106790D01*
X166990Y103790D02*
Y106490D01*
D34*
X192388Y182018D02*
Y185168D01*
X189238D02*
X192388D01*
Y173357D02*
Y176506D01*
X189238Y173357D02*
X192388D01*
X192162Y207911D02*
Y211061D01*
X189013D02*
X192162D01*
Y199250D02*
Y202400D01*
X189013Y199250D02*
X192162D01*
X199068Y237585D02*
Y241185D01*
X207850Y223774D02*
Y226923D01*
Y223774D02*
X211000D01*
X207850Y232435D02*
Y235585D01*
X211000D01*
X215548Y195099D02*
Y214284D01*
X209248Y195099D02*
Y214284D01*
X215548D01*
X209248Y195099D02*
X215548D01*
X215419Y168561D02*
Y187746D01*
X209120Y168561D02*
Y187746D01*
X215419D01*
X209120Y168561D02*
X215419D01*
X206958Y132055D02*
X209582D01*
X206958Y134679D01*
X209582D01*
X205458Y152555D02*
Y154523D01*
X206114Y155179D01*
X208082D01*
Y155835D01*
X207426Y156491D01*
X206770D01*
X208082Y155179D02*
Y152555D01*
X222958Y128144D02*
X225582Y130768D01*
X224270Y129456D01*
X225582Y128144D01*
X222958Y130768D01*
D57*
X185498Y172176D02*
G03*
X185498Y172176I-492J0D01*
G01*
X185273Y198069D02*
G03*
X185273Y198069I-492J0D01*
G01*
X215724Y236766D02*
G03*
X215724Y236766I-492J0D01*
G01*
X222536Y215642D02*
G03*
X222536Y215642I-492J0D01*
G01*
X222407Y189105D02*
G03*
X222407Y189105I-492J0D01*
G01*
D58*
X240203Y108255D02*
X241181Y109233D01*
X240203Y94719D02*
Y108255D01*
X180229Y170134D02*
Y180479D01*
X178690Y182018D02*
X180229Y180479D01*
X175689Y196790D02*
X176271Y196209D01*
Y196110D02*
Y196209D01*
X175689Y196790D02*
Y200954D01*
X173567Y203077D02*
X175689Y200954D01*
X217929Y220973D02*
X218487Y221532D01*
X221075D01*
X225642Y240509D02*
X226504Y239646D01*
X225642Y240509D02*
Y240610D01*
X225692D01*
X225642D02*
X226352Y241321D01*
X225642Y240610D02*
X233303D01*
X225642D02*
X233303D01*
X246581Y163197D02*
Y163637D01*
Y163197D02*
X248209Y161569D01*
Y151099D02*
Y161569D01*
X242387Y138927D02*
X243252Y139792D01*
Y139909D01*
X242226Y140936D02*
X243252Y139909D01*
X243609D02*
Y157852D01*
X197166Y122404D02*
X236536D01*
X197166Y92876D02*
Y122404D01*
Y92876D02*
X236536D01*
Y122404D01*
D59*
X194745Y191005D02*
Y193823D01*
X190745Y191005D02*
Y193823D01*
Y191005D02*
X194745D01*
X190745Y193823D02*
X194745D01*
X188800Y217210D02*
X191617D01*
X188800Y213210D02*
X191617D01*
Y217210D01*
X188800Y213210D02*
Y217210D01*
X204918Y239436D02*
X206868Y237486D01*
Y241486D01*
X204918Y239535D02*
X206868Y241486D01*
X204684Y237486D02*
Y241486D01*
X204168Y237486D02*
Y241486D01*
X204684D01*
X204168Y237486D02*
X204684D01*
X217579Y241679D02*
X220396D01*
X217579Y237679D02*
X220396D01*
Y241679D01*
X217579Y237679D02*
Y241679D01*
X210031Y216546D02*
X212848D01*
X210031Y220546D02*
X212848D01*
X210031Y216546D02*
Y220546D01*
X212848Y216546D02*
Y220546D01*
X210688Y189147D02*
X213505D01*
X210688Y193147D02*
X213505D01*
X210688Y189147D02*
Y193147D01*
X213505Y189147D02*
Y193147D01*
X247662Y128187D02*
Y131004D01*
X243662Y128187D02*
Y131004D01*
Y128187D02*
X247662D01*
X243662Y131004D02*
X247662D01*
X242864Y111655D02*
X246864D01*
X242864Y114472D02*
X246864D01*
Y111655D02*
Y114472D01*
X242864Y111655D02*
Y114472D01*
D60*
X228726Y201149D02*
X230726D01*
X228726Y208149D02*
X230726D01*
X228513Y174655D02*
X230513D01*
X228513Y181656D02*
X230513D01*
X245185Y136427D02*
X247185D01*
X245185Y143427D02*
X247185D01*
X245194Y145273D02*
X247194D01*
X245194Y152273D02*
X247194D01*
X177612Y193118D02*
X179613D01*
X177612Y200118D02*
X179613D01*
X177612Y183333D02*
X179613D01*
X177612Y190333D02*
X179613D01*
D61*
X236958Y125179D02*
Y130679D01*
X207458Y149679D02*
X209458Y147679D01*
X207458Y149679D02*
X224458D01*
Y149179D02*
Y149679D01*
X210958Y135679D02*
X211458Y136179D01*
X210958Y135679D02*
Y137679D01*
Y135679D02*
X212958D01*
X211458Y136179D02*
X224458Y149179D01*
Y132179D02*
X226458Y134179D01*
X222458D02*
X224458Y132179D01*
X207458Y149679D02*
X209458Y151679D01*
X224458Y132179D02*
Y149679D01*
X195458Y128679D02*
Y131179D01*
X196958Y128179D02*
Y129179D01*
Y148179D02*
Y151179D01*
X236958Y148179D02*
Y151179D01*
Y158679D02*
Y165679D01*
Y138179D02*
Y141179D01*
X196958Y158679D02*
Y165679D01*
Y125179D02*
Y131179D01*
X209958Y125179D02*
X223958D01*
X196958Y165679D02*
X236958D01*
X223958Y125179D02*
X236958D01*
X196958D02*
X209958D01*
X196958Y138179D02*
Y141179D01*
X183666Y237050D02*
Y241048D01*
X181667D01*
X181000Y240382D01*
Y239049D01*
X181667Y238382D01*
X183666D01*
X177001Y237050D02*
X179667D01*
X177001Y239715D01*
Y240382D01*
X177668Y241048D01*
X179001D01*
X179667Y240382D01*
X193624Y171847D02*
Y167848D01*
X191625D01*
X190958Y168514D01*
Y171180D01*
X191625Y171847D01*
X193624D01*
X186960Y167848D02*
X189626D01*
X186960Y170514D01*
Y171180D01*
X187626Y171847D01*
X188959D01*
X189626Y171180D01*
X200954Y193202D02*
X201621Y193868D01*
X202954D01*
X203620Y193202D01*
Y190536D01*
X202954Y189869D01*
X201621D01*
X200954Y190536D01*
X199621Y193202D02*
X198955Y193868D01*
X197622D01*
X196956Y193202D01*
Y192535D01*
X197622Y191869D01*
X198289D01*
X197622D01*
X196956Y191202D01*
Y190536D01*
X197622Y189869D01*
X198955D01*
X199621Y190536D01*
X180524Y216543D02*
X181190Y217209D01*
X182523D01*
X183189Y216543D01*
Y213877D01*
X182523Y213210D01*
X181190D01*
X180524Y213877D01*
X176525Y213210D02*
X179191D01*
X176525Y215876D01*
Y216543D01*
X177191Y217209D01*
X178524D01*
X179191Y216543D01*
X180229Y210359D02*
Y206360D01*
X178229D01*
X177563Y207027D01*
Y209692D01*
X178229Y210359D01*
X180229D01*
X176230Y206360D02*
X174897D01*
X175563D01*
Y210359D01*
X176230Y209692D01*
X188421Y231054D02*
X189088Y231721D01*
X190421D01*
X191087Y231054D01*
Y228389D01*
X190421Y227722D01*
X189088D01*
X188421Y228389D01*
X184423Y231721D02*
X187088D01*
Y229721D01*
X185756Y230388D01*
X185089D01*
X184423Y229721D01*
Y228389D01*
X185089Y227722D01*
X186422D01*
X187088Y228389D01*
X197227Y241920D02*
Y237921D01*
X195227D01*
X194561Y238587D01*
Y241253D01*
X195227Y241920D01*
X197227D01*
X193228Y241253D02*
X192562Y241920D01*
X191229D01*
X190562Y241253D01*
Y240587D01*
X191229Y239920D01*
X191895D01*
X191229D01*
X190562Y239254D01*
Y238587D01*
X191229Y237921D01*
X192562D01*
X193228Y238587D01*
X241524Y237718D02*
Y241717D01*
X239524D01*
X238858Y241050D01*
Y239717D01*
X239524Y239051D01*
X241524D01*
X240191D02*
X238858Y237718D01*
X237525Y241717D02*
X234859D01*
Y241050D01*
X237525Y238384D01*
Y237718D01*
X219765Y231984D02*
X223098D01*
X223764Y231318D01*
Y229985D01*
X223098Y229318D01*
X219765D01*
X223764Y225986D02*
X219765D01*
X221765Y227986D01*
Y225320D01*
X239974Y231410D02*
X240640Y232076D01*
X241973D01*
X242640Y231410D01*
Y228744D01*
X241973Y228077D01*
X240640D01*
X239974Y228744D01*
X236642Y228077D02*
Y232076D01*
X238641Y230077D01*
X235975D01*
X227925Y217523D02*
Y221522D01*
X225926D01*
X225259Y220855D01*
Y219523D01*
X225926Y218856D01*
X227925D01*
X226592D02*
X225259Y217523D01*
X223926D02*
X222593D01*
X223260D01*
Y221522D01*
X223926Y220855D01*
X210328Y206918D02*
X213660D01*
X214327Y206252D01*
Y204919D01*
X213660Y204253D01*
X210328D01*
X214327Y202920D02*
Y201587D01*
Y202253D01*
X210328D01*
X210994Y202920D01*
X237464Y208491D02*
X233466D01*
Y206492D01*
X234132Y205825D01*
X235465D01*
X236131Y206492D01*
Y208491D01*
Y207158D02*
X237464Y205825D01*
X234132Y204492D02*
X233466Y203826D01*
Y202493D01*
X234132Y201827D01*
X234799D01*
X235465Y202493D01*
Y203160D01*
Y202493D01*
X236131Y201827D01*
X236798D01*
X237464Y202493D01*
Y203826D01*
X236798Y204492D01*
X231731Y188956D02*
Y192955D01*
X229731D01*
X229065Y192288D01*
Y190955D01*
X229731Y190289D01*
X231731D01*
X230398D02*
X229065Y188956D01*
X225732D02*
Y192955D01*
X227732Y190955D01*
X225066D01*
X210328Y180533D02*
X213660D01*
X214327Y179867D01*
Y178534D01*
X213660Y177867D01*
X210328D01*
X210994Y176534D02*
X210328Y175868D01*
Y174535D01*
X210994Y173869D01*
X211661D01*
X212327Y174535D01*
Y175201D01*
Y174535D01*
X212994Y173869D01*
X213660D01*
X214327Y174535D01*
Y175868D01*
X213660Y176534D01*
X238936Y175814D02*
Y179813D01*
X236936D01*
X236270Y179146D01*
Y177813D01*
X236936Y177147D01*
X238936D01*
X237603D02*
X236270Y175814D01*
X232271Y179813D02*
X233604Y179146D01*
X234937Y177813D01*
Y176481D01*
X234271Y175814D01*
X232938D01*
X232271Y176481D01*
Y177147D01*
X232938Y177813D01*
X234937D01*
X230364Y163579D02*
Y160246D01*
X229698Y159580D01*
X228365D01*
X227699Y160246D01*
Y163579D01*
X223700Y159580D02*
X226366D01*
X223700Y162246D01*
Y162912D01*
X224366Y163579D01*
X225699D01*
X226366Y162912D01*
X244839Y158299D02*
Y162297D01*
X242839D01*
X242173Y161631D01*
Y160298D01*
X242839Y159632D01*
X244839D01*
X243506D02*
X242173Y158299D01*
X240840Y158965D02*
X240174Y158299D01*
X238841D01*
X238174Y158965D01*
Y161631D01*
X238841Y162297D01*
X240174D01*
X240840Y161631D01*
Y160965D01*
X240174Y160298D01*
X238174D01*
X247522Y163945D02*
Y167944D01*
X245523D01*
X244856Y167277D01*
Y165945D01*
X245523Y165278D01*
X247522D01*
X246189D02*
X244856Y163945D01*
X243523Y167277D02*
X242857Y167944D01*
X241524D01*
X240858Y167277D01*
Y166611D01*
X241524Y165945D01*
X240858Y165278D01*
Y164612D01*
X241524Y163945D01*
X242857D01*
X243523Y164612D01*
Y165278D01*
X242857Y165945D01*
X243523Y166611D01*
Y167277D01*
X242857Y165945D02*
X241524D01*
X220294Y100288D02*
Y96956D01*
X219627Y96290D01*
X218295D01*
X217628Y96956D01*
Y100288D01*
X213629D02*
X216295D01*
Y98289D01*
X214962Y98956D01*
X214296D01*
X213629Y98289D01*
Y96956D01*
X214296Y96290D01*
X215629D01*
X216295Y96956D01*
X239073Y127427D02*
X238407Y128094D01*
Y129426D01*
X239073Y130093D01*
X241739D01*
X242405Y129426D01*
Y128094D01*
X241739Y127427D01*
X242405Y126094D02*
Y124761D01*
Y125428D01*
X238407D01*
X239073Y126094D01*
X241612Y92865D02*
X242279Y93532D01*
X243611D01*
X244278Y92865D01*
Y90199D01*
X243611Y89533D01*
X242279D01*
X241612Y90199D01*
X237613Y93532D02*
X238946Y92865D01*
X240279Y91532D01*
Y90199D01*
X239613Y89533D01*
X238280D01*
X237613Y90199D01*
Y90866D01*
X238280Y91532D01*
X240279D01*
X172567Y204077D02*
Y208075D01*
X170567D01*
X169901Y207409D01*
Y206076D01*
X170567Y205410D01*
X172567D01*
X171234D02*
X169901Y204077D01*
X165902D02*
X168568D01*
X165902Y206743D01*
Y207409D01*
X166569Y208075D01*
X167902D01*
X168568Y207409D01*
X179671Y162469D02*
X183669D01*
Y164469D01*
X183003Y165135D01*
X181670D01*
X181003Y164469D01*
Y162469D01*
Y163802D02*
X179671Y165135D01*
X183669Y169134D02*
Y166468D01*
X181670D01*
X182336Y167801D01*
Y168467D01*
X181670Y169134D01*
X180337D01*
X179671Y168467D01*
Y167134D01*
X180337Y166468D01*
D62*
X191571Y225750D02*
D03*
Y220750D02*
D03*
D63*
X228931Y230162D02*
D03*
X233931D02*
D03*
M02*
