G04 Layer_Physical_Order=2*
G04 Layer_Color=16711680*
%FSLAX25Y25*%
%MOIN*%
G70*
G01*
G75*
%ADD10C,0.02362*%
%ADD11R,0.09843X0.03937*%
%ADD12O,0.09843X0.03937*%
%ADD13R,0.10000X0.05000*%
G04:AMPARAMS|DCode=14|XSize=120mil|YSize=50mil|CornerRadius=12.5mil|HoleSize=0mil|Usage=FLASHONLY|Rotation=180.000|XOffset=0mil|YOffset=0mil|HoleType=Round|Shape=RoundedRectangle|*
%AMROUNDEDRECTD14*
21,1,0.12000,0.02500,0,0,180.0*
21,1,0.09500,0.05000,0,0,180.0*
1,1,0.02500,-0.04750,0.01250*
1,1,0.02500,0.04750,0.01250*
1,1,0.02500,0.04750,-0.01250*
1,1,0.02500,-0.04750,-0.01250*
%
%ADD14ROUNDEDRECTD14*%
%ADD15R,0.06000X0.03937*%
%ADD16O,0.06000X0.04000*%
%ADD17O,0.09843X0.03937*%
%ADD18R,0.09843X0.03937*%
%ADD19O,0.06890X0.03937*%
%ADD20R,0.06890X0.03937*%
%ADD21R,0.03937X0.03937*%
%ADD22C,0.03937*%
%ADD23C,0.02756*%
%ADD24C,0.05000*%
%ADD25R,0.05709X0.02362*%
%ADD26R,0.03740X0.03347*%
%ADD27R,0.03347X0.03740*%
%ADD28R,0.06000X0.06000*%
%ADD29R,0.06000X0.06000*%
%ADD30O,0.07874X0.02756*%
%ADD31R,0.02362X0.01969*%
G36*
X249806Y88977D02*
X249806Y88976D01*
X162992D01*
Y243504D01*
X249806D01*
Y88977D01*
D02*
G37*
%LPC*%
G36*
X247522Y108643D02*
X245455D01*
Y106773D01*
X247522D01*
Y108643D01*
D02*
G37*
G36*
X244274D02*
X242207D01*
Y106773D01*
X244274D01*
Y108643D01*
D02*
G37*
G36*
X229709Y185541D02*
X228864Y185373D01*
X228148Y184894D01*
X227669Y184178D01*
X227501Y183333D01*
X227576Y182955D01*
X227259Y182568D01*
X225368D01*
X225319Y182601D01*
X224474Y182769D01*
X219356D01*
X218511Y182601D01*
X217795Y182123D01*
X217317Y181406D01*
X217148Y180561D01*
X217317Y179717D01*
X217795Y179000D01*
X218511Y178522D01*
X219356Y178354D01*
X224474D01*
X225319Y178522D01*
X225368Y178554D01*
X227342D01*
X227544Y178352D01*
Y177959D01*
X227162Y177568D01*
X225368D01*
X225319Y177601D01*
X224474Y177769D01*
X219356D01*
X218511Y177601D01*
X217795Y177122D01*
X217317Y176406D01*
X217148Y175561D01*
X217317Y174716D01*
X217795Y174000D01*
X218511Y173522D01*
X219356Y173354D01*
X224474D01*
X225319Y173522D01*
X225368Y173554D01*
X228887D01*
X229655Y173707D01*
X230306Y174142D01*
X230580Y174415D01*
X231481D01*
Y175993D01*
X231520Y176187D01*
X231481Y176381D01*
Y177852D01*
X231481Y177959D01*
Y178352D01*
X231481Y178459D01*
Y179429D01*
X231563Y179552D01*
X231716Y180320D01*
Y182439D01*
X231749Y182488D01*
X231917Y183333D01*
X231749Y184178D01*
X231270Y184894D01*
X230554Y185373D01*
X229709Y185541D01*
D02*
G37*
G36*
X244274Y111694D02*
X242207D01*
Y109824D01*
X244274D01*
Y111694D01*
D02*
G37*
G36*
X236601Y100967D02*
X227101D01*
X226306Y100809D01*
X225632Y100359D01*
X225182Y99685D01*
X225024Y98890D01*
Y96390D01*
X225182Y95595D01*
X225632Y94921D01*
X226306Y94471D01*
X227101Y94313D01*
X236601D01*
X237396Y94471D01*
X238070Y94921D01*
X238520Y95595D01*
X238678Y96390D01*
Y98890D01*
X238520Y99685D01*
X238070Y100359D01*
X237396Y100809D01*
X236601Y100967D01*
D02*
G37*
G36*
X228887Y199306D02*
X228042Y199138D01*
X227993Y199106D01*
X225497D01*
X225448Y199138D01*
X224603Y199306D01*
X219485D01*
X218640Y199138D01*
X217923Y198660D01*
X217445Y197943D01*
X217277Y197099D01*
X217445Y196254D01*
X217923Y195537D01*
X218640Y195059D01*
X219485Y194891D01*
X224603D01*
X225448Y195059D01*
X225497Y195092D01*
X227993D01*
X228042Y195059D01*
X228887Y194891D01*
X229732Y195059D01*
X230448Y195537D01*
X230927Y196254D01*
X231095Y197099D01*
X230927Y197943D01*
X230448Y198660D01*
X229732Y199138D01*
X228887Y199306D01*
D02*
G37*
G36*
X247522Y111694D02*
X245455D01*
Y109824D01*
X247522D01*
Y111694D01*
D02*
G37*
G36*
X206601Y100967D02*
X197101D01*
X196306Y100809D01*
X195632Y100359D01*
X195182Y99685D01*
X195024Y98890D01*
Y96390D01*
X195182Y95595D01*
X195632Y94921D01*
X196306Y94471D01*
X197101Y94313D01*
X206601D01*
X207396Y94471D01*
X208070Y94921D01*
X208520Y95595D01*
X208678Y96390D01*
Y98890D01*
X208520Y99685D01*
X208070Y100359D01*
X207396Y100809D01*
X206601Y100967D01*
D02*
G37*
G36*
X248780Y104279D02*
X241205D01*
Y98768D01*
X241570D01*
X241817Y98268D01*
X241557Y97929D01*
X241277Y97251D01*
X241181Y96524D01*
X241277Y95796D01*
X241557Y95118D01*
X242004Y94536D01*
X242586Y94089D01*
X243265Y93808D01*
X243992Y93712D01*
X245992D01*
X246720Y93808D01*
X247398Y94089D01*
X247980Y94536D01*
X248427Y95118D01*
X248708Y95796D01*
X248804Y96524D01*
X248708Y97251D01*
X248427Y97929D01*
X248167Y98268D01*
X248414Y98768D01*
X248780D01*
Y104279D01*
D02*
G37*
G36*
X166402Y183933D02*
X164290D01*
X164307Y183804D01*
X164585Y183134D01*
X165027Y182558D01*
X165602Y182116D01*
X166273Y181839D01*
X166402Y181822D01*
Y183933D01*
D02*
G37*
G36*
X202746Y157966D02*
X191171D01*
Y156620D01*
X190737Y156533D01*
X190086Y156098D01*
X179019Y145031D01*
X175880D01*
X175358Y145431D01*
X174688Y145709D01*
X173969Y145803D01*
X171016D01*
X170296Y145709D01*
X169626Y145431D01*
X169104Y145031D01*
X166467D01*
X165699Y144878D01*
X165047Y144443D01*
X164612Y143792D01*
X164460Y143024D01*
Y113622D01*
X164612Y112854D01*
X165047Y112203D01*
X171030Y106221D01*
X171681Y105786D01*
X172449Y105633D01*
X195174D01*
X195182Y105595D01*
X195632Y104921D01*
X196306Y104471D01*
X197101Y104313D01*
X206601D01*
X207396Y104471D01*
X208070Y104921D01*
X208520Y105595D01*
X208678Y106390D01*
Y108890D01*
X208520Y109685D01*
X208070Y110359D01*
X207396Y110809D01*
X206601Y110967D01*
X197101D01*
X196306Y110809D01*
X195632Y110359D01*
X195182Y109685D01*
X195174Y109647D01*
X173281D01*
X168474Y114454D01*
Y120268D01*
X176725D01*
Y125779D01*
X176351D01*
X176104Y126279D01*
X176376Y126634D01*
X176654Y127304D01*
X176748Y128024D01*
X176654Y128743D01*
X176376Y129413D01*
X175934Y129989D01*
X175641Y130214D01*
Y130833D01*
X175934Y131058D01*
X176376Y131634D01*
X176654Y132304D01*
X176748Y133024D01*
X176654Y133743D01*
X176376Y134413D01*
X175934Y134989D01*
X175722Y135152D01*
X175704Y135675D01*
X176065Y136016D01*
X182406D01*
Y124367D01*
X182559Y123599D01*
X182994Y122948D01*
X189721Y116221D01*
X190373Y115786D01*
X191141Y115633D01*
X195174D01*
X195182Y115595D01*
X195632Y114921D01*
X196306Y114471D01*
X197101Y114313D01*
X206601D01*
X207396Y114471D01*
X208070Y114921D01*
X208520Y115595D01*
X208678Y116390D01*
Y118890D01*
X208520Y119685D01*
X208070Y120359D01*
X207396Y120809D01*
X206601Y120967D01*
X197101D01*
X196306Y120809D01*
X195632Y120359D01*
X195182Y119685D01*
X195174Y119647D01*
X191972D01*
X186420Y125199D01*
Y137192D01*
X190720Y141492D01*
X191171Y141392D01*
Y141392D01*
X191171Y141392D01*
X202746D01*
Y147966D01*
X191171D01*
Y146686D01*
X191068D01*
X190300Y146533D01*
X189649Y146098D01*
X183582Y140031D01*
X175880D01*
X175722Y140152D01*
X175704Y140675D01*
X176065Y141016D01*
X179850D01*
X180618Y141169D01*
X181269Y141604D01*
X190792Y151127D01*
X191171Y151392D01*
Y151392D01*
X191171Y151392D01*
X202746D01*
Y157966D01*
D02*
G37*
G36*
X202033Y169971D02*
X197975D01*
X198025Y169717D01*
X198504Y169000D01*
X199220Y168522D01*
X200065Y168354D01*
X202033D01*
Y169971D01*
D02*
G37*
G36*
X248319Y132835D02*
X246252D01*
Y130965D01*
X248319D01*
Y132835D01*
D02*
G37*
G36*
X248153Y137368D02*
X244216D01*
Y136386D01*
X244216Y136187D01*
X243841Y135886D01*
X243004D01*
Y134016D01*
X248319D01*
Y135755D01*
X248319Y135886D01*
X248153Y136317D01*
X248153Y136386D01*
Y137368D01*
D02*
G37*
G36*
X207273Y169971D02*
X203214D01*
Y168354D01*
X205183D01*
X206028Y168522D01*
X206744Y169000D01*
X207223Y169717D01*
X207273Y169971D01*
D02*
G37*
G36*
X228934Y172935D02*
X228089Y172767D01*
X228040Y172734D01*
X224648D01*
X224474Y172769D01*
X219356D01*
X218511Y172601D01*
X217795Y172123D01*
X217317Y171406D01*
X217148Y170561D01*
X217317Y169717D01*
X217795Y169000D01*
X218511Y168522D01*
X219356Y168354D01*
X224474D01*
X225319Y168522D01*
X225617Y168720D01*
X228040D01*
X228089Y168688D01*
X228934Y168520D01*
X229778Y168688D01*
X230495Y169166D01*
X230973Y169883D01*
X231141Y170727D01*
X230973Y171572D01*
X230495Y172289D01*
X229778Y172767D01*
X228934Y172935D01*
D02*
G37*
G36*
X245071Y132835D02*
X243004D01*
Y130965D01*
X245071D01*
Y132835D01*
D02*
G37*
G36*
X202033Y172769D02*
X200065D01*
X199220Y172601D01*
X198504Y172123D01*
X198025Y171406D01*
X197975Y171152D01*
X202033D01*
Y172769D01*
D02*
G37*
G36*
X205183D02*
X203214D01*
Y171152D01*
X207273D01*
X207223Y171406D01*
X206744Y172123D01*
X206028Y172601D01*
X205183Y172769D01*
D02*
G37*
G36*
X235218Y229450D02*
X232022D01*
Y226253D01*
X235218D01*
Y229450D01*
D02*
G37*
G36*
X205390Y229089D02*
X202338D01*
Y227711D01*
X205390D01*
Y229089D01*
D02*
G37*
G36*
X190858Y227038D02*
X187661D01*
Y223841D01*
X190858D01*
Y227038D01*
D02*
G37*
G36*
X230840Y229450D02*
X227644D01*
Y226253D01*
X230840D01*
Y229450D01*
D02*
G37*
G36*
X225295Y242336D02*
X220374D01*
Y237021D01*
X220828D01*
Y235426D01*
X215232D01*
X215038Y235388D01*
X213730D01*
X213689Y235448D01*
X213038Y235883D01*
X212270Y236036D01*
X183731D01*
X182963Y235883D01*
X182312Y235448D01*
X176025Y229161D01*
X176002Y229126D01*
X175482Y229248D01*
X175446Y229517D01*
X175169Y230187D01*
X174727Y230763D01*
X174434Y230988D01*
Y231607D01*
X174727Y231832D01*
X175169Y232408D01*
X175446Y233078D01*
X175541Y233797D01*
X175446Y234517D01*
X175169Y235187D01*
X174897Y235542D01*
X175144Y236041D01*
X175517D01*
Y241553D01*
X164100D01*
Y236041D01*
X164474D01*
X164720Y235542D01*
X164449Y235187D01*
X164171Y234517D01*
X164076Y233797D01*
X164171Y233078D01*
X164449Y232408D01*
X164890Y231832D01*
X165183Y231607D01*
Y230988D01*
X164890Y230763D01*
X164449Y230187D01*
X164171Y229517D01*
X164076Y228797D01*
X164171Y228078D01*
X164449Y227408D01*
X164890Y226832D01*
X165183Y226607D01*
Y225988D01*
X164890Y225763D01*
X164449Y225187D01*
X164171Y224517D01*
X164076Y223797D01*
X164171Y223078D01*
X164449Y222408D01*
X164890Y221832D01*
X165183Y221607D01*
Y220988D01*
X164890Y220763D01*
X164449Y220187D01*
X164171Y219517D01*
X164076Y218797D01*
X164171Y218078D01*
X164449Y217408D01*
X164890Y216832D01*
X165183Y216607D01*
Y215988D01*
X164890Y215763D01*
X164449Y215187D01*
X164171Y214517D01*
X164076Y213797D01*
X164171Y213078D01*
X164449Y212408D01*
X164890Y211832D01*
X165466Y211390D01*
X166137Y211112D01*
X166856Y211018D01*
X172761D01*
X173481Y211112D01*
X174151Y211390D01*
X174420Y210984D01*
X172491Y209055D01*
X168754D01*
X167985Y208903D01*
X167334Y208468D01*
X165573Y206706D01*
X165138Y206055D01*
X164985Y205287D01*
Y201435D01*
X164585Y200913D01*
X164307Y200243D01*
X164213Y199524D01*
X164307Y198804D01*
X164585Y198134D01*
X165027Y197558D01*
X165320Y197333D01*
Y196714D01*
X165027Y196489D01*
X164585Y195913D01*
X164307Y195243D01*
X164290Y195114D01*
X166992D01*
Y193933D01*
X164290D01*
X164307Y193804D01*
X164585Y193134D01*
X165027Y192558D01*
X165320Y192333D01*
Y191714D01*
X165027Y191489D01*
X164585Y190913D01*
X164307Y190243D01*
X164290Y190114D01*
X166992D01*
Y188933D01*
X164290D01*
X164307Y188804D01*
X164585Y188134D01*
X165027Y187558D01*
X165320Y187333D01*
Y186714D01*
X165027Y186489D01*
X164585Y185913D01*
X164307Y185243D01*
X164290Y185114D01*
X166992D01*
Y184524D01*
X167583D01*
Y181822D01*
X167712Y181839D01*
X168382Y182116D01*
X168736Y182388D01*
X169236Y182142D01*
Y181768D01*
X174748D01*
Y182517D01*
X177375D01*
Y180780D01*
X166783D01*
Y175268D01*
X167157D01*
X167404Y174768D01*
X167132Y174413D01*
X166855Y173743D01*
X166760Y173024D01*
X166855Y172304D01*
X167132Y171634D01*
X167574Y171058D01*
X167867Y170833D01*
Y170214D01*
X167574Y169989D01*
X167132Y169413D01*
X166855Y168743D01*
X166760Y168024D01*
X166855Y167304D01*
X167132Y166634D01*
X167574Y166058D01*
X167867Y165833D01*
Y165214D01*
X167574Y164989D01*
X167132Y164413D01*
X166855Y163743D01*
X166760Y163024D01*
X166855Y162304D01*
X167132Y161634D01*
X167574Y161058D01*
X167867Y160833D01*
Y160214D01*
X167574Y159989D01*
X167132Y159413D01*
X166855Y158743D01*
X166760Y158024D01*
X166855Y157304D01*
X167132Y156634D01*
X167574Y156058D01*
X168150Y155616D01*
X168820Y155339D01*
X169539Y155244D01*
X175445D01*
X176164Y155339D01*
X176835Y155616D01*
X177410Y156058D01*
X177852Y156634D01*
X178130Y157304D01*
X178225Y158024D01*
X178130Y158743D01*
X177852Y159413D01*
X177410Y159989D01*
X177118Y160214D01*
Y160833D01*
X177410Y161058D01*
X177852Y161634D01*
X178130Y162304D01*
X178225Y163024D01*
X178130Y163743D01*
X177852Y164413D01*
X177410Y164989D01*
X177118Y165214D01*
Y165833D01*
X177410Y166058D01*
X177852Y166634D01*
X178130Y167304D01*
X178225Y168024D01*
X178130Y168743D01*
X177852Y169413D01*
X177410Y169989D01*
X177118Y170214D01*
Y170833D01*
X177410Y171058D01*
X177852Y171634D01*
X178130Y172304D01*
X178225Y173024D01*
X178131Y173735D01*
X178202Y173817D01*
X178549Y174037D01*
X179102Y173668D01*
X179870Y173515D01*
X199254D01*
X200065Y173354D01*
X205183D01*
X206028Y173522D01*
X206744Y174000D01*
X207223Y174716D01*
X207391Y175561D01*
X207223Y176406D01*
X206744Y177122D01*
X206028Y177601D01*
X205183Y177769D01*
X200065D01*
X199220Y177601D01*
X199112Y177529D01*
X197899D01*
Y179005D01*
X198399Y179156D01*
X198504Y179000D01*
X199220Y178522D01*
X200065Y178354D01*
X205183D01*
X206028Y178522D01*
X206744Y179000D01*
X207223Y179717D01*
X207391Y180561D01*
X207223Y181406D01*
X206744Y182123D01*
X206028Y182601D01*
X205183Y182769D01*
X201331D01*
X201274Y182854D01*
X201542Y183354D01*
X205183D01*
X206028Y183522D01*
X206744Y184000D01*
X207223Y184716D01*
X207391Y185561D01*
X207223Y186406D01*
X206744Y187122D01*
X206028Y187601D01*
X205378Y187730D01*
X205154Y188154D01*
X205145Y188269D01*
X205263Y188437D01*
X208121D01*
X210391Y186167D01*
Y136686D01*
X202746D01*
Y137966D01*
X191171D01*
Y131392D01*
X202746D01*
Y132672D01*
X215843D01*
X224186Y124329D01*
X224837Y123894D01*
X225605Y123741D01*
X243004D01*
Y123288D01*
X243655D01*
Y119998D01*
X243304Y119647D01*
X238528D01*
X238520Y119685D01*
X238070Y120359D01*
X237396Y120809D01*
X236601Y120967D01*
X227101D01*
X226306Y120809D01*
X225632Y120359D01*
X225182Y119685D01*
X225024Y118890D01*
Y116390D01*
X225182Y115595D01*
X225632Y114921D01*
X226306Y114471D01*
X227101Y114313D01*
X236601D01*
X237396Y114471D01*
X238070Y114921D01*
X238520Y115595D01*
X238528Y115633D01*
X242207D01*
Y114450D01*
X247522D01*
Y118428D01*
X247669Y119167D01*
Y123288D01*
X248319D01*
Y128209D01*
X243004D01*
Y127755D01*
X226436D01*
X219513Y134679D01*
X230709Y145875D01*
X231171Y145684D01*
Y141392D01*
X242746D01*
Y142672D01*
X244187D01*
Y141905D01*
X244216Y141758D01*
Y140230D01*
X244216Y140124D01*
Y139730D01*
X244216Y139624D01*
Y138549D01*
X248153D01*
Y139624D01*
X248153Y139730D01*
Y140124D01*
X248153Y140230D01*
Y141663D01*
X248201Y141905D01*
Y146805D01*
X248163Y146999D01*
Y148577D01*
X248163D01*
Y148970D01*
X248163D01*
Y150548D01*
X248201Y150742D01*
X248163Y150936D01*
Y152514D01*
X247086D01*
X246962Y152596D01*
X246194Y152749D01*
X243305D01*
X243132Y152715D01*
X242746Y153032D01*
Y157966D01*
X231171D01*
Y151886D01*
X230787Y151630D01*
X215843Y136686D01*
X214405D01*
Y186998D01*
X214252Y187766D01*
X214103Y187989D01*
X214370Y188489D01*
X218387D01*
Y188617D01*
X218887Y188824D01*
X219441Y188269D01*
X219400Y188024D01*
X219254Y187749D01*
X218511Y187601D01*
X217795Y187122D01*
X217317Y186406D01*
X217148Y185561D01*
X217317Y184716D01*
X217795Y184000D01*
X218511Y183522D01*
X219356Y183354D01*
X224474D01*
X225319Y183522D01*
X226035Y184000D01*
X226514Y184716D01*
X226682Y185561D01*
X226514Y186406D01*
X226035Y187122D01*
X225319Y187601D01*
X224474Y187769D01*
X224088D01*
Y189838D01*
X224121Y189887D01*
X224289Y190732D01*
X224121Y191577D01*
X223642Y192293D01*
X222926Y192772D01*
X222081Y192940D01*
X221236Y192772D01*
X220864Y192523D01*
X220821Y192566D01*
X220170Y193001D01*
X219402Y193154D01*
X218387D01*
Y193804D01*
X214349D01*
X214082Y194304D01*
X214189Y194465D01*
X214342Y195233D01*
Y207739D01*
X214189Y208508D01*
X213754Y209159D01*
X209395Y213518D01*
X208744Y213953D01*
X207976Y214106D01*
X206205D01*
X206156Y214138D01*
X205311Y214306D01*
X204759D01*
Y215579D01*
X205131Y215888D01*
X210053D01*
Y221203D01*
X209599D01*
Y222330D01*
X211201Y223932D01*
X215232D01*
X215426Y223971D01*
X218874D01*
Y227907D01*
X215426D01*
X215232Y227946D01*
X210369D01*
X210008Y227874D01*
X209622Y228191D01*
Y229089D01*
X206571D01*
Y227711D01*
X208595D01*
X208803Y227211D01*
X206173Y224581D01*
X205738Y223930D01*
X205585Y223162D01*
Y221203D01*
X205131D01*
Y220553D01*
X201607D01*
X199858Y222302D01*
Y227038D01*
X192283D01*
Y219463D01*
X197020D01*
X198803Y217679D01*
X198612Y217217D01*
X196517D01*
Y217868D01*
X191595D01*
Y213379D01*
X188839D01*
Y214620D01*
X183918D01*
Y212553D01*
X184946D01*
X185137Y212091D01*
X183949Y210903D01*
X182353D01*
X182159Y210864D01*
X181139D01*
Y210452D01*
X180933Y210315D01*
X177193Y206575D01*
X176758Y205924D01*
X176605Y205156D01*
Y200593D01*
X174532D01*
X174399Y200913D01*
X173958Y201489D01*
X173382Y201931D01*
X172712Y202209D01*
X171992Y202303D01*
X171273Y202209D01*
X170602Y201931D01*
X170027Y201489D01*
X169864Y201277D01*
X169341Y201259D01*
X168999Y201620D01*
Y204456D01*
X169585Y205041D01*
X173323D01*
X174091Y205194D01*
X174742Y205629D01*
X178864Y209751D01*
X179299Y210402D01*
X179452Y211170D01*
Y226910D01*
X184563Y232022D01*
X202034D01*
X202338Y231648D01*
Y230270D01*
X209622D01*
Y231648D01*
X209926Y232022D01*
X211590D01*
Y231451D01*
X215038D01*
X215232Y231412D01*
X221772D01*
X222540Y231565D01*
X223191Y232000D01*
X223846Y232655D01*
X227644D01*
Y230875D01*
X235218D01*
Y238450D01*
X227644D01*
Y236669D01*
X225650D01*
X225295Y237021D01*
Y242336D01*
D02*
G37*
G36*
X201139Y242143D02*
X199269D01*
Y240076D01*
X201139D01*
Y242143D01*
D02*
G37*
G36*
X204190D02*
X202320D01*
Y240076D01*
X204190D01*
Y242143D01*
D02*
G37*
G36*
X201139Y238895D02*
X199269D01*
Y236828D01*
X201139D01*
Y238895D01*
D02*
G37*
G36*
X204190D02*
X202320D01*
Y236828D01*
X204190D01*
Y238895D01*
D02*
G37*
G36*
X186480Y227038D02*
X183283D01*
Y223841D01*
X186480D01*
Y227038D01*
D02*
G37*
G36*
X185788Y217868D02*
X183918D01*
Y215801D01*
X185788D01*
Y217868D01*
D02*
G37*
G36*
X188839D02*
X186969D01*
Y215801D01*
X188839D01*
Y217868D01*
D02*
G37*
G36*
X217618Y242336D02*
X212697D01*
Y241493D01*
X211867D01*
Y242143D01*
X206946D01*
Y236828D01*
X211867D01*
Y237478D01*
X212697D01*
Y237021D01*
X217618D01*
Y242336D01*
D02*
G37*
G36*
X229431Y212948D02*
X228586Y212780D01*
X227870Y212301D01*
X227391Y211585D01*
X227223Y210740D01*
X227391Y209895D01*
X227424Y209847D01*
Y209106D01*
X225497D01*
X225448Y209138D01*
X224603Y209306D01*
X219485D01*
X218640Y209138D01*
X217923Y208660D01*
X217445Y207944D01*
X217277Y207099D01*
X217445Y206254D01*
X217923Y205538D01*
X218640Y205059D01*
X219485Y204891D01*
X224603D01*
X225448Y205059D01*
X225497Y205092D01*
X227512D01*
X227687Y204916D01*
X227674Y204381D01*
X227357Y204106D01*
X225497D01*
X225448Y204138D01*
X224603Y204306D01*
X219485D01*
X218640Y204138D01*
X217923Y203660D01*
X217445Y202943D01*
X217277Y202099D01*
X217445Y201254D01*
X217923Y200537D01*
X218640Y200059D01*
X219485Y199891D01*
X224603D01*
X225448Y200059D01*
X225497Y200092D01*
X229143D01*
X229911Y200244D01*
X230563Y200679D01*
X230792Y200909D01*
X231694D01*
Y202487D01*
X231733Y202681D01*
X231694Y202875D01*
Y204346D01*
X231694Y204453D01*
Y204846D01*
X231694Y204953D01*
Y208390D01*
X231438D01*
Y209847D01*
X231471Y209895D01*
X231639Y210740D01*
X231471Y211585D01*
X230992Y212301D01*
X230276Y212780D01*
X229431Y212948D01*
D02*
G37*
G36*
X186480Y222660D02*
X183283D01*
Y219463D01*
X186480D01*
Y222660D01*
D02*
G37*
G36*
X230840Y225072D02*
X227644D01*
Y221875D01*
X230840D01*
Y225072D01*
D02*
G37*
G36*
X235218D02*
X232022D01*
Y221875D01*
X235218D01*
Y225072D01*
D02*
G37*
G36*
X190858Y222660D02*
X187661D01*
Y219463D01*
X190858D01*
Y222660D01*
D02*
G37*
G36*
X220294Y221386D02*
X219449Y221218D01*
X218733Y220739D01*
X218608Y220553D01*
X217730D01*
Y221203D01*
X212808D01*
Y215888D01*
X217730D01*
Y216539D01*
X218392D01*
X220037Y214894D01*
Y214306D01*
X219485D01*
X218640Y214138D01*
X217923Y213660D01*
X217445Y212944D01*
X217277Y212099D01*
X217445Y211254D01*
X217923Y210538D01*
X218640Y210059D01*
X219485Y209891D01*
X224603D01*
X225448Y210059D01*
X226164Y210538D01*
X226642Y211254D01*
X226811Y212099D01*
X226642Y212944D01*
X226164Y213660D01*
X225448Y214138D01*
X224603Y214306D01*
X224051D01*
Y215725D01*
X223898Y216493D01*
X223463Y217144D01*
X222310Y218298D01*
X222334Y218333D01*
X222502Y219178D01*
X222334Y220023D01*
X221855Y220739D01*
X221139Y221218D01*
X220294Y221386D01*
D02*
G37*
%LPD*%
G36*
X210328Y206908D02*
Y196064D01*
X208068Y193804D01*
X205788D01*
Y192451D01*
X204127D01*
X203359Y192298D01*
X202708Y191863D01*
X201205Y190360D01*
X200980Y190024D01*
X200387Y190421D01*
X199618Y190574D01*
X195402D01*
Y191027D01*
X190087D01*
Y186106D01*
X195402D01*
Y186560D01*
X197572D01*
X197956Y186060D01*
X197857Y185561D01*
X197867Y185509D01*
X197457Y185009D01*
X184864D01*
Y186845D01*
X184711Y187613D01*
X184276Y188264D01*
X182319Y190221D01*
X181668Y190656D01*
X180900Y190808D01*
X179444D01*
X179310Y190943D01*
X178658Y191378D01*
X177890Y191531D01*
X173904D01*
X173746Y191652D01*
X173728Y192175D01*
X174089Y192517D01*
X181841D01*
X182609Y192669D01*
X183260Y193104D01*
X186200Y196044D01*
X186635Y196695D01*
X186788Y197463D01*
Y199408D01*
X198853D01*
X199004Y198908D01*
X198632Y198660D01*
X198154Y197943D01*
X198103Y197689D01*
X207402D01*
X207351Y197943D01*
X206873Y198660D01*
X206156Y199138D01*
X205311Y199306D01*
X203890D01*
X203639Y199806D01*
X203701Y199891D01*
X205311D01*
X206156Y200059D01*
X206873Y200537D01*
X207351Y201254D01*
X207519Y202099D01*
X207351Y202943D01*
X206873Y203660D01*
X206156Y204138D01*
X205311Y204306D01*
X200193D01*
X199348Y204138D01*
X198632Y203660D01*
X198474Y203422D01*
X197674D01*
Y204565D01*
X190391D01*
Y203422D01*
X184781D01*
X184587Y203384D01*
X181139D01*
Y199447D01*
X182773D01*
Y198294D01*
X181010Y196531D01*
X180963D01*
X180581Y196815D01*
Y198392D01*
X180620Y198586D01*
Y204324D01*
X183184Y206889D01*
X184781D01*
X184975Y206927D01*
X188422D01*
Y209365D01*
X195001D01*
X195428Y208726D01*
X196568Y207586D01*
X196376Y207124D01*
X194623D01*
Y205746D01*
X197674D01*
Y205953D01*
X198115Y206189D01*
X198263Y206090D01*
X198632Y205538D01*
X199348Y205059D01*
X200193Y204891D01*
X205311D01*
X206156Y205059D01*
X206873Y205538D01*
X207351Y206254D01*
X207519Y207099D01*
X207351Y207944D01*
X206873Y208660D01*
X206156Y209138D01*
X205311Y209306D01*
X200946D01*
X200889Y209391D01*
X201157Y209891D01*
X205311D01*
X206156Y210059D01*
X206205Y210092D01*
X207144D01*
X210328Y206908D01*
D02*
G37*
G36*
X184057Y180995D02*
X190616D01*
Y179853D01*
X194258D01*
Y178672D01*
X190616D01*
Y177529D01*
X181389D01*
Y180893D01*
X181889Y181008D01*
X182088Y180875D01*
X182857Y180722D01*
X183625Y180875D01*
X183862Y181034D01*
X183864D01*
X184057Y180995D01*
D02*
G37*
%LPC*%
G36*
X192154Y198705D02*
X190087D01*
Y196834D01*
X192154D01*
Y198705D01*
D02*
G37*
G36*
X195402D02*
X193335D01*
Y196834D01*
X195402D01*
Y198705D01*
D02*
G37*
G36*
X193442Y207124D02*
X190391D01*
Y205746D01*
X193442D01*
Y207124D01*
D02*
G37*
G36*
X207402Y196508D02*
X203343D01*
Y194891D01*
X205311D01*
X206156Y195059D01*
X206873Y195537D01*
X207351Y196254D01*
X207402Y196508D01*
D02*
G37*
G36*
X192154Y195653D02*
X190087D01*
Y193783D01*
X192154D01*
Y195653D01*
D02*
G37*
G36*
X195402D02*
X193335D01*
Y193783D01*
X195402D01*
Y195653D01*
D02*
G37*
G36*
X202162Y196508D02*
X198103D01*
X198154Y196254D01*
X198632Y195537D01*
X199348Y195059D01*
X200193Y194891D01*
X202162D01*
Y196508D01*
D02*
G37*
%LPD*%
D10*
X244992Y96524D02*
X247980D01*
X196847Y210713D02*
X199157Y208402D01*
X196847Y210713D02*
Y211034D01*
X184781Y208896D02*
X187257Y211372D01*
X196510D01*
X196847Y211034D01*
X196958Y134679D02*
X216674D01*
X204127Y190444D02*
X208755D01*
X212398Y136119D02*
Y186998D01*
X208249Y191147D02*
X212398Y186998D01*
X207976Y212099D02*
X212335Y207739D01*
Y195233D02*
Y207739D01*
X208249Y191147D02*
X212335Y195233D01*
X178612Y198586D02*
Y205156D01*
X172930Y198586D02*
X178612D01*
X244135Y117640D02*
X245662Y119167D01*
Y125748D01*
X166755Y181961D02*
X166992D01*
Y189524D02*
Y194524D01*
Y184524D02*
Y189524D01*
X219402Y191147D02*
X221915Y188634D01*
X186379Y222559D02*
X187071Y223251D01*
Y228628D01*
X181134Y223774D02*
X186548D01*
X177444Y227742D02*
X183731Y234029D01*
X177444Y211170D02*
Y227742D01*
X173323Y207048D02*
X177444Y211170D01*
X229709Y180320D02*
Y183333D01*
X222081Y185727D02*
Y190732D01*
X221915Y185561D02*
X222081Y185727D01*
X219223Y218546D02*
X222044Y215725D01*
X229245Y207099D02*
X229431Y206913D01*
Y210740D01*
X222044Y197099D02*
X228887D01*
X229076Y180561D02*
X229313Y180324D01*
X222081Y170727D02*
X228934D01*
X192745Y196244D02*
X193600Y197099D01*
X188460Y191960D02*
X192745Y196244D01*
X186565Y191960D02*
X188460D01*
X193600Y197099D02*
X202752D01*
X195978Y170561D02*
X202624D01*
X199618Y188567D02*
X202624Y185561D01*
X192745Y188567D02*
X199618D01*
X186379Y215210D02*
Y222559D01*
X188605Y230162D02*
X223145D01*
X227645Y225662D02*
X231431D01*
X223145Y230162D02*
X227645Y225662D01*
X187071Y228628D02*
X188605Y230162D01*
X221772Y233419D02*
X222835Y234482D01*
X215232Y233419D02*
X221772D01*
X183731Y234029D02*
X212270D01*
X168754Y207048D02*
X173323D01*
X166992Y205287D02*
X168754Y207048D01*
X166992Y199524D02*
Y205287D01*
X191141Y117640D02*
X201851D01*
X184413Y124367D02*
X191141Y117640D01*
X184413Y124367D02*
Y138024D01*
X191068Y144679D02*
X196958D01*
X184413Y138024D02*
X191068Y144679D01*
X172492Y138024D02*
X184413D01*
X191506Y154679D02*
X196958D01*
X179850Y143024D02*
X191506Y154679D01*
X172492Y143024D02*
X179850D01*
X172449Y107640D02*
X201851D01*
X166467Y113622D02*
X172449Y107640D01*
X166467Y143024D02*
X172492D01*
X166467Y113622D02*
Y143024D01*
X231851Y107640D02*
X233444Y109233D01*
X244864D01*
X231851Y117640D02*
X244135D01*
X246185Y134870D02*
Y137958D01*
X245994Y134679D02*
X246185Y134870D01*
X236958Y134679D02*
X245994D01*
X225605Y125748D02*
X245662D01*
X216674Y134679D02*
X225605Y125748D01*
X228887Y175561D02*
X229513Y176187D01*
X221915Y175561D02*
X228887D01*
X221915Y180561D02*
X229076D01*
X229143Y202099D02*
X229726Y202681D01*
X222044Y202099D02*
X229143D01*
X222044Y207099D02*
X229245D01*
X221915Y185561D02*
Y188634D01*
X215926Y191147D02*
X219402D01*
X207592Y218546D02*
Y223162D01*
X210369Y225939D01*
X215232D01*
X222044Y212099D02*
Y215725D01*
X215269Y218546D02*
X219223D01*
X202752Y212099D02*
Y218305D01*
X194056Y215210D02*
X202321D01*
X202752Y212099D02*
X207976D01*
X202511Y218546D02*
X207592D01*
X200776D02*
X202511D01*
X202752Y218305D01*
X196071Y223251D02*
X200776Y218546D01*
X222835Y234482D02*
X223015Y234662D01*
X231431D01*
X243305Y150742D02*
X246194D01*
X242774Y150210D02*
X243305Y150742D01*
X232206Y150210D02*
X242774D01*
X216674Y134679D02*
X232206Y150210D01*
X246194Y141905D02*
Y146805D01*
X236958Y144679D02*
X245994D01*
X178612Y205156D02*
X182353Y208896D01*
X184781D01*
X171992Y199524D02*
X172930Y198586D01*
X184781Y197463D02*
Y201415D01*
X179870Y175522D02*
X185006D01*
X182857Y182729D02*
Y186845D01*
X180900Y188802D02*
X182857Y186845D01*
X178612Y188802D02*
X180900D01*
X179382Y176010D02*
X179870Y175522D01*
X179382Y176010D02*
Y184095D01*
X178612Y184864D02*
X179382Y184095D01*
X172492Y148024D02*
Y153024D01*
X165602Y154712D02*
Y180807D01*
Y154712D02*
X167291Y153024D01*
X172492D01*
X165602Y180807D02*
X166755Y181961D01*
X166992D02*
Y184524D01*
X202069Y201415D02*
X202752Y202099D01*
X184781Y201415D02*
X202069D01*
X184888Y175522D02*
X202466D01*
X200332Y180561D02*
X202624D01*
X197891Y183002D02*
X200332Y180561D01*
X184057Y183002D02*
X197891D01*
X188949Y179110D02*
X194106D01*
X202624Y185561D02*
Y188940D01*
X204127Y190444D01*
X209407Y239486D02*
X214964D01*
X222835Y234482D02*
Y239679D01*
X171992Y184524D02*
X178272D01*
X171992Y189524D02*
X177890D01*
X178612Y188802D01*
X171992Y194524D02*
X181841D01*
X184781Y197463D01*
D11*
X169809Y238797D02*
D03*
D12*
Y233797D02*
D03*
Y228797D02*
D03*
Y218797D02*
D03*
Y223797D02*
D03*
Y213797D02*
D03*
D13*
X236958Y154679D02*
D03*
Y144679D02*
D03*
Y134679D02*
D03*
X196958Y154679D02*
D03*
Y144679D02*
D03*
Y134679D02*
D03*
D14*
X231851Y117640D02*
D03*
Y107640D02*
D03*
Y97640D02*
D03*
X201851D02*
D03*
Y107640D02*
D03*
Y117640D02*
D03*
D15*
X244992Y101524D02*
D03*
D16*
Y96524D02*
D03*
D17*
X172492Y153024D02*
D03*
Y163024D02*
D03*
Y158024D02*
D03*
Y168024D02*
D03*
Y173024D02*
D03*
Y148024D02*
D03*
D18*
Y178024D02*
D03*
D19*
Y138024D02*
D03*
Y143024D02*
D03*
Y133024D02*
D03*
Y128024D02*
D03*
D20*
Y123024D02*
D03*
D21*
X171992Y184524D02*
D03*
D22*
X166992D02*
D03*
X171992Y189524D02*
D03*
X166992D02*
D03*
X171992Y194524D02*
D03*
X166992D02*
D03*
X171992Y199524D02*
D03*
X166992D02*
D03*
D23*
X194033Y207944D02*
D03*
X181134Y223774D02*
D03*
X229709Y183333D02*
D03*
X222081Y190732D02*
D03*
X228934Y170727D02*
D03*
X228887Y197099D02*
D03*
X229431Y210740D02*
D03*
X220294Y219178D02*
D03*
X188949Y179110D02*
D03*
D24*
X186565Y191960D02*
D03*
D25*
X194258Y179262D02*
D03*
X185006Y183002D02*
D03*
Y175522D02*
D03*
X194033Y205156D02*
D03*
X184781Y208896D02*
D03*
Y201415D02*
D03*
X205980Y229679D02*
D03*
X215232Y225939D02*
D03*
Y233419D02*
D03*
D26*
X192745Y196244D02*
D03*
Y188567D02*
D03*
X245662Y133425D02*
D03*
Y125748D02*
D03*
X244864Y116911D02*
D03*
Y109233D02*
D03*
D27*
X186379Y215210D02*
D03*
X194056D02*
D03*
X209407Y239486D02*
D03*
X201729D02*
D03*
X215158Y239679D02*
D03*
X222835D02*
D03*
X215269Y218546D02*
D03*
X207592D02*
D03*
X215926Y191147D02*
D03*
X208249D02*
D03*
D28*
X187071Y223251D02*
D03*
X196071D02*
D03*
D29*
X231431Y225662D02*
D03*
Y234662D02*
D03*
D30*
X222044Y212099D02*
D03*
Y207099D02*
D03*
Y202099D02*
D03*
Y197099D02*
D03*
X202752Y212099D02*
D03*
Y207099D02*
D03*
Y202099D02*
D03*
Y197099D02*
D03*
X221915Y185561D02*
D03*
Y180561D02*
D03*
Y175561D02*
D03*
Y170561D02*
D03*
X202624Y185561D02*
D03*
Y180561D02*
D03*
Y175561D02*
D03*
Y170561D02*
D03*
D31*
X229726Y206618D02*
D03*
Y202681D02*
D03*
X229513Y180124D02*
D03*
Y176187D02*
D03*
X246185Y141895D02*
D03*
Y137958D02*
D03*
X246194Y150742D02*
D03*
Y146805D02*
D03*
X178612Y198586D02*
D03*
Y194649D02*
D03*
Y188802D02*
D03*
Y184864D02*
D03*
M02*
